#N canvas 820 72 395 201 10;
#X obj 5 90 list2symbol;
#X msg 68 69 symbol;
#X obj 5 113 fromsymbol;
#X obj 68 48 loadbang;
#X obj 5 49 inlet;
#X obj 5 135 outlet;
#X text 5 165 angel.faraldo@upf.edu --- 2015;
#X text 2 8 This object receives a list and collapses it into a single
number.;
#X connect 0 0 2 0;
#X connect 1 0 0 1;
#X connect 2 0 5 0;
#X connect 3 0 1 0;
#X connect 4 0 0 0;
