#N canvas 845 135 307 490 10;
#X obj 130 227 list prepend;
#X obj 130 158 pack 0 0;
#X obj 155 202 t f b;
#X obj 17 -8 inlet;
#X obj 136 353 list;
#X obj 136 375 outlet;
#X obj 185 251 t l;
#X obj 17 35 route 0;
#X msg 17 14 \$3 \$1 \$2;
#X msg 118 66 \$2 \$3;
#X obj 118 109 t f f;
#X obj 130 136 == 0;
#X obj 118 87 unpack f f;
#X obj 29 218 list prepend;
#X obj 29 147 pack 0 0;
#X obj 54 193 t f b;
#X obj 83 240 t l;
#X obj 17 97 t f f;
#X obj 29 125 == 0;
#X obj 17 74 unpack f f;
#X obj 130 274 list length;
#X obj 130 251 t l l;
#X obj 130 179 route 1 0;
#X obj 29 262 list length;
#X obj 29 297 ==;
#X obj 29 320 sel 1;
#X obj 29 170 route 1 0;
#X text 118 43 notes on;
#X text 23 55 notes off;
#X text 16 409 https://github.com/angelfaraldo/pd-symbolic;
#X text 16 424 angel.faraldo@upf.edu ----- Barcelona \, 2015;
#X connect 0 0 6 0;
#X connect 0 0 21 0;
#X connect 1 0 22 0;
#X connect 2 0 0 0;
#X connect 2 1 0 1;
#X connect 3 0 8 0;
#X connect 4 0 5 0;
#X connect 6 0 0 1;
#X connect 7 0 19 0;
#X connect 7 1 9 0;
#X connect 8 0 7 0;
#X connect 9 0 12 0;
#X connect 10 0 11 1;
#X connect 10 1 11 0;
#X connect 11 0 1 0;
#X connect 12 0 10 0;
#X connect 12 1 1 1;
#X connect 13 0 16 0;
#X connect 13 0 23 0;
#X connect 14 0 26 0;
#X connect 15 0 13 0;
#X connect 15 1 13 1;
#X connect 16 0 13 1;
#X connect 17 0 18 1;
#X connect 17 1 18 0;
#X connect 18 0 14 0;
#X connect 19 0 17 0;
#X connect 19 1 14 1;
#X connect 20 0 24 1;
#X connect 21 0 20 0;
#X connect 21 1 4 1;
#X connect 22 0 0 0;
#X connect 22 1 2 0;
#X connect 23 0 24 0;
#X connect 24 0 25 0;
#X connect 25 0 4 0;
#X connect 26 0 13 0;
#X connect 26 1 15 0;
