#N canvas 849 101 401 640 10;
#X obj 140 397 list prepend;
#X obj 140 328 pack 0 0;
#X obj 165 372 t f b;
#X obj 27 162 inlet;
#X obj 146 523 list;
#X obj 146 545 outlet;
#X obj 195 421 t l;
#X obj 27 205 route 0;
#X msg 27 184 \$3 \$1 \$2;
#X msg 128 236 \$2 \$3;
#X obj 128 279 t f f;
#X obj 140 306 == 0;
#X obj 128 257 unpack f f;
#X obj 39 388 list prepend;
#X obj 39 317 pack 0 0;
#X obj 64 363 t f b;
#X obj 93 410 t l;
#X obj 27 267 t f f;
#X obj 39 295 == 0;
#X obj 27 244 unpack f f;
#X obj 140 444 list length;
#X obj 140 421 t l l;
#X obj 140 349 route 1 0;
#X obj 39 432 list length;
#X obj 39 467 ==;
#X obj 39 490 sel 1;
#X obj 39 340 route 1 0;
#X text 128 213 notes on;
#X text 33 225 notes off;
#X text 28 577 angel.faraldo@upf.edu --- Barcelona \, 2015;
#X text 22 -28 [make_chord] expects incoming lists as formated by the
[midi_quantizer] object. These should contain at least three numbers
represeting (midi-tick \, midi-note \, velocity). It expect to receive
note-off messages as "note-on with zero velocity \, " following the
pd midi convention. ;
#X text 23 50 Its aim is repackage individual midi notes as lists according
to their timestamp \, as if they where chords played simultaneously.
The object waits until an equivalent number of notes of is produced
to produce an output.;
#X text 23 110 WHILE THIS PROCEDURE SHOULD WORK WITH HOMOPHONIC FILES
\, A BETTER AND SAFER WAY OF COMPUTING NOTES SHOULD BE ADDED \, TO
COPE WITH MORE COUNTERPOINTAL INPUT.;
#X connect 0 0 6 0;
#X connect 0 0 21 0;
#X connect 1 0 22 0;
#X connect 2 0 0 0;
#X connect 2 1 0 1;
#X connect 3 0 8 0;
#X connect 4 0 5 0;
#X connect 6 0 0 1;
#X connect 7 0 19 0;
#X connect 7 1 9 0;
#X connect 8 0 7 0;
#X connect 9 0 12 0;
#X connect 10 0 11 1;
#X connect 10 1 11 0;
#X connect 11 0 1 0;
#X connect 12 0 10 0;
#X connect 12 1 1 1;
#X connect 13 0 16 0;
#X connect 13 0 23 0;
#X connect 14 0 26 0;
#X connect 15 0 13 0;
#X connect 15 1 13 1;
#X connect 16 0 13 1;
#X connect 17 0 18 1;
#X connect 17 1 18 0;
#X connect 18 0 14 0;
#X connect 19 0 17 0;
#X connect 19 1 14 1;
#X connect 20 0 24 1;
#X connect 21 0 20 0;
#X connect 21 1 4 1;
#X connect 22 0 0 0;
#X connect 22 1 2 0;
#X connect 23 0 24 0;
#X connect 24 0 25 0;
#X connect 25 0 4 0;
#X connect 26 0 13 0;
#X connect 26 1 15 0;
