#N canvas 565 23 728 594 10;
#X obj 46 14 inlet;
#X obj 137 238 /;
#X msg 137 216 60000 \$1;
#X obj 6 81 loadbang;
#X obj 6 256 metro 480;
#X obj 183 69 t b f;
#X obj 137 194 * 8;
#X msg 210 156 2 \$1;
#X obj 210 90 log;
#X obj 210 113 / 0.693147;
#X obj 210 134 - 2;
#X obj 210 177 pow;
#X obj 279 346 fifop;
#X obj 227 346 until;
#X obj 279 113 unpack 0 0 0;
#X obj 279 143 pack;
#X obj 279 399 outlet;
#X obj 523 255 outlet;
#X obj 36 299 + 1;
#X obj 6 299 f 0;
#X obj 46 346 mod 1;
#X obj 73 321 max 1;
#X obj 51 391 sel 0;
#X obj 46 38 route bang metro tempo quantize;
#X obj 51 458 noteout 10;
#X obj 51 413 f 75;
#X msg 51 436 \$1 80;
#X msg 21 171 0;
#X obj 470 316 outlet;
#X obj 51 369 spigot 0;
#X obj 279 373 list append;
#X connect 0 0 23 0;
#X connect 1 0 4 1;
#X connect 1 0 17 0;
#X connect 2 0 1 0;
#X connect 3 0 4 0;
#X connect 3 0 27 0;
#X connect 4 0 13 0;
#X connect 4 0 19 0;
#X connect 5 0 6 0;
#X connect 5 1 8 0;
#X connect 6 0 2 0;
#X connect 7 0 11 0;
#X connect 8 0 9 0;
#X connect 9 0 10 0;
#X connect 10 0 7 0;
#X connect 11 0 6 1;
#X connect 11 0 21 0;
#X connect 12 0 30 0;
#X connect 12 1 13 1;
#X connect 13 0 12 0;
#X connect 14 0 15 0;
#X connect 14 1 15 1;
#X connect 14 2 30 1;
#X connect 15 0 12 0;
#X connect 18 0 19 1;
#X connect 19 0 18 0;
#X connect 19 0 20 0;
#X connect 19 0 28 0;
#X connect 20 0 29 0;
#X connect 21 0 20 1;
#X connect 22 0 25 0;
#X connect 23 0 3 0;
#X connect 23 1 29 1;
#X connect 23 2 6 0;
#X connect 23 3 5 0;
#X connect 23 4 14 0;
#X connect 25 0 26 0;
#X connect 26 0 24 0;
#X connect 27 0 19 1;
#X connect 29 0 22 0;
#X connect 30 0 16 0;
