#N canvas 161 333 651 699 10;
#X obj 106 412 outlet;
#X obj 53 54 route play;
#X obj 177 109 /;
#X msg 177 86 60000 \$1;
#X obj 177 63 inlet;
#X obj 53 77 sel 0;
#X obj 53 33 inlet;
#X obj 241 61 inlet;
#X obj 241 82 * 16;
#X obj 156 156 + 1;
#X obj 126 134 metro 500;
#X obj 139 84 tgl 15 0 empty empty empty 17 7 0 10 -262144 -1 -1 1
1;
#X obj 126 181 t f f;
#X obj 168 210 mod 32;
#X obj 241 106 + 1;
#X obj 126 210 sel 0;
#X floatatom 56 158 5 0 0 0 - - -;
#X obj 126 156 f 0;
#X msg 96 234 0;
#X obj 167 267 print;
#X floatatom 340 96 5 0 0 0 - - -;
#X connect 1 0 5 0;
#X connect 2 0 10 1;
#X connect 3 0 2 0;
#X connect 4 0 3 0;
#X connect 5 1 10 0;
#X connect 6 0 1 0;
#X connect 7 0 8 0;
#X connect 8 0 14 0;
#X connect 9 0 17 1;
#X connect 10 0 17 0;
#X connect 11 0 10 0;
#X connect 12 0 15 0;
#X connect 12 1 13 0;
#X connect 13 0 19 0;
#X connect 14 0 15 1;
#X connect 14 0 13 1;
#X connect 15 0 18 0;
#X connect 17 0 9 0;
#X connect 17 0 12 0;
#X connect 17 0 16 0;
#X connect 18 0 17 0;
