#N canvas 1354 287 263 365 10;
#X obj 25 167 expr~ asin(sin($v1));
#X obj 25 120 *~ 3.14159;
#X obj 25 142 -~ 1.5708;
#X obj 25 190 +~ 1.5708;
#X obj 25 213 /~ 3.14159;
#X obj 180 18 +~ \$2;
#X obj 160 48 -~ \$1;
#X obj 25 44 -~ \$1;
#X obj 25 98 /~;
#X obj 145 279 *~;
#X obj 145 300 +~ \$1;
#X obj 25 21 inlet~;
#X obj 145 322 outlet~;
#X obj 119 -4 inlet;
#X obj 207 -4 inlet;
#X connect 0 0 3 0;
#X connect 1 0 2 0;
#X connect 2 0 0 0;
#X connect 3 0 4 0;
#X connect 4 0 9 0;
#X connect 5 0 6 0;
#X connect 6 0 8 1;
#X connect 6 0 9 1;
#X connect 7 0 8 0;
#X connect 8 0 1 0;
#X connect 9 0 10 0;
#X connect 10 0 12 0;
#X connect 11 0 7 0;
#X connect 13 0 7 1;
#X connect 13 0 6 1;
#X connect 13 0 10 1;
#X connect 14 0 5 1;
