#N canvas 645 379 705 687 10;
#X declare -path ../handy-abs;
#X obj 99 10 inlet;
#X obj 99 30 sort;
#X obj 99 99 sort;
#X obj -17 382 packel;
#X obj 105 235 t b f;
#X obj 16 359 + 1;
#X obj 105 214 f;
#X obj -17 359 list;
#X obj 99 51 t l l b;
#X obj 45 442 t b l;
#X obj 39 508 sort;
#X obj 39 530 outlet;
#X obj 99 77 midi2pc;
#X obj 39 486 list 0;
#X obj 35 464 del 1;
#X obj -1 151 change -1000;
#X obj 88 186 t b;
#X obj 45 418 add2list prepend;
#X obj -80 552 declare -path ../handy-abs;
#X obj -1 124 drip 0;
#X obj 120 122 drip 0;
#X obj -97 280 t b;
#X msg -97 302 set -1000;
#X obj 120 148 route float;
#X connect 0 0 1 0;
#X connect 1 0 8 0;
#X connect 2 0 19 0;
#X connect 2 1 20 0;
#X connect 3 0 17 0;
#X connect 4 0 7 0;
#X connect 4 1 5 0;
#X connect 5 0 3 1;
#X connect 6 0 4 0;
#X connect 7 0 3 0;
#X connect 8 0 12 0;
#X connect 8 1 7 1;
#X connect 8 2 17 1;
#X connect 9 0 14 0;
#X connect 9 1 13 1;
#X connect 10 0 11 0;
#X connect 10 0 21 0;
#X connect 12 0 2 0;
#X connect 13 0 10 0;
#X connect 14 0 13 0;
#X connect 15 0 16 0;
#X connect 16 0 6 0;
#X connect 17 0 9 0;
#X connect 19 0 15 0;
#X connect 20 0 23 0;
#X connect 21 0 22 0;
#X connect 22 0 15 0;
#X connect 23 0 6 1;
