#N canvas 0 22 363 382 10;
#X obj 12 17 inlet;
#X obj 12 37 sort;
#X obj 37 326 outlet;
#X obj 31 191 t l l;
#X obj 37 306 list;
#X obj 122 243 ==;
#X obj 122 262 sel 1;
#X obj 12 85 t l f b l;
#X obj 31 146 -;
#X obj 99 77 outlet;
#X obj 12 60 t l f;
#X obj 31 212 list length;
#X obj 12 115 drip;
#X obj 31 168 list prepend;
#X obj 111 169 t l;
#X obj 137 168 list length;
#X connect 0 0 1 0;
#X connect 1 0 10 0;
#X connect 3 0 11 0;
#X connect 3 1 4 1;
#X connect 4 0 2 0;
#X connect 5 0 6 0;
#X connect 6 0 4 0;
#X connect 7 0 12 0;
#X connect 7 1 8 1;
#X connect 7 2 13 1;
#X connect 7 3 15 0;
#X connect 8 0 13 0;
#X connect 10 0 7 0;
#X connect 10 1 9 0;
#X connect 11 0 5 0;
#X connect 12 0 8 0;
#X connect 13 0 3 0;
#X connect 13 0 14 0;
#X connect 14 0 13 1;
#X connect 15 0 5 1;
