#N canvas 1392 126 408 327 10;
#X obj 63 12 inlet;
#X obj 30 89 t b l;
#X obj 57 148 + 1;
#X obj 30 170 list append;
#X msg 129 95 clear;
#X obj 159 40 inlet;
#X obj 129 237 outlet;
#X obj 63 36 t l b;
#X obj 90 66 uanz;
#X obj 159 140 t b b;
#X msg 148 165 dump;
#X obj 129 210 coll ./midi-seq;
#C restore;
#X msg 186 165 sort -1 3 \, sort -1 \, renumber;
#X obj 30 148 f 0;
#X msg 90 93 0;
#X connect 0 0 7 0;
#X connect 1 0 13 0;
#X connect 1 1 3 1;
#X connect 2 0 13 1;
#X connect 3 0 11 0;
#X connect 4 0 11 0;
#X connect 5 0 9 0;
#X connect 5 0 8 1;
#X connect 7 0 1 0;
#X connect 7 1 8 0;
#X connect 8 0 4 0;
#X connect 8 0 14 0;
#X connect 9 0 10 0;
#X connect 9 1 12 0;
#X connect 10 0 11 0;
#X connect 11 0 6 0;
#X connect 12 0 11 0;
#X connect 13 0 2 0;
#X connect 13 0 3 0;
#X connect 14 0 13 1;
