#N canvas 1131 188 460 453 10;
#X obj 63 12 inlet;
#X obj 30 89 t b l;
#X obj 30 148 f 1;
#X obj 57 148 + 1;
#X obj 129 210 coll;
#C restore;
#X obj 30 170 list append;
#X msg 129 95 clear;
#X msg 90 93 1;
#X obj 159 40 inlet;
#X obj 129 237 outlet;
#X obj 63 36 t l b;
#X obj 90 66 uanz;
#X obj 159 140 t b b;
#X msg 148 165 dump;
#X msg 186 165 sort -1 3 \, sort -1;
#X connect 0 0 10 0;
#X connect 1 0 2 0;
#X connect 1 1 5 1;
#X connect 2 0 3 0;
#X connect 2 0 5 0;
#X connect 3 0 2 1;
#X connect 4 0 9 0;
#X connect 5 0 4 0;
#X connect 6 0 4 0;
#X connect 7 0 2 1;
#X connect 8 0 12 0;
#X connect 8 0 11 1;
#X connect 10 0 1 0;
#X connect 10 1 11 0;
#X connect 11 0 6 0;
#X connect 11 0 7 0;
#X connect 12 0 13 0;
#X connect 12 1 14 0;
#X connect 13 0 4 0;
#X connect 14 0 4 0;
