#N canvas 599 211 450 370 10;
#X text 42 19 Calculates Spearman's Rank Correlation between two lists
of the same length.;
#X floatatom 91 204 10 0 0 0 - - -;
#X msg 32 100 86 97 99 100 101 103 106 110 112 113;
#X text 199 284 daniel.gomez@upf.edu 2015;
#X obj 91 172 spearman_rank;
#X msg 166 136 0 20 28 27 50 29 7 17 6 12;
#X connect 2 0 4 0;
#X connect 4 0 1 0;
#X connect 5 0 4 1;
