#N canvas 1 123 482 268 10;
#X declare -lib jasch_lib;
#X obj 190 198 outlet;
#X obj 11 34 loadbang;
#X obj 11 98 symbol \$1;
#X obj 11 120 sel majmin majmininv;
#X msg 11 144 0;
#X msg 69 144 1;
#X obj 11 174 s \$0-reduction_type;
#X obj 235 101 route 0 1 2;
#X obj 178 30 strtok :;
#X obj 178 51 unpack s s;
#X obj 178 8 inlet;
#N canvas 255 239 934 528 majmin 0;
#X obj -16 12 inlet;
#X obj -16 34 fromsymbol;
#X obj -16 56 route float;
#X obj 47 503 outlet;
#X msg 47 227 symbol maj;
#X msg 380 257 symbol min;
#X obj 47 78 tosymbol;
#X obj 725 189 sel sus4 7sus4 one-note;
#X obj -16 204 sel 5;
#X obj 380 138 sel min min(omit5) dim min7 min7(omit5) minM7 minM7(omit5)
min6 minAdd9 minAdd9(omit5) min9 min9(omit5) minAdd11 minAdd11(omit5)
;
#X obj 47 101 sel maj maj(omit5) aug 7(omit5) maj7 maj7(omit5) add9
add9(omit5) 9(omit5) maj9 maj9(omit5) add11 add11(omit5);
#X msg 360 409 symbol ambivalent;
#X connect 0 0 1 0;
#X connect 1 0 2 0;
#X connect 2 0 8 0;
#X connect 2 1 6 0;
#X connect 4 0 3 0;
#X connect 5 0 3 0;
#X connect 6 0 10 0;
#X connect 7 0 11 0;
#X connect 7 1 11 0;
#X connect 7 2 11 0;
#X connect 8 0 11 0;
#X connect 8 1 4 0;
#X connect 9 0 5 0;
#X connect 9 1 5 0;
#X connect 9 2 5 0;
#X connect 9 3 5 0;
#X connect 9 4 5 0;
#X connect 9 5 5 0;
#X connect 9 6 5 0;
#X connect 9 7 5 0;
#X connect 9 8 5 0;
#X connect 9 9 5 0;
#X connect 9 10 5 0;
#X connect 9 11 5 0;
#X connect 9 12 5 0;
#X connect 9 13 5 0;
#X connect 9 14 7 0;
#X connect 10 0 4 0;
#X connect 10 1 4 0;
#X connect 10 2 4 0;
#X connect 10 3 4 0;
#X connect 10 4 4 0;
#X connect 10 5 4 0;
#X connect 10 6 4 0;
#X connect 10 7 4 0;
#X connect 10 8 4 0;
#X connect 10 9 4 0;
#X connect 10 10 4 0;
#X connect 10 11 4 0;
#X connect 10 12 4 0;
#X connect 10 13 9 0;
#X connect 11 0 3 0;
#X restore 235 123 pd majmin;
#X obj 190 153 pack s s;
#X obj 190 176 list2symbol :;
#X text 11 233 angel.faraldo@upf.edu --- Barcelona \, 2015;
#X obj 11 13 import jasch_lib;
#X obj 316 51 r \$0-reduction_type;
#X obj 235 76 list prepend 0;
#X connect 1 0 2 0;
#X connect 2 0 3 0;
#X connect 3 0 4 0;
#X connect 3 1 5 0;
#X connect 4 0 6 0;
#X connect 5 0 6 0;
#X connect 7 0 11 0;
#X connect 8 0 9 0;
#X connect 9 0 12 0;
#X connect 9 1 17 0;
#X connect 10 0 8 0;
#X connect 11 0 12 1;
#X connect 12 0 13 0;
#X connect 13 0 0 0;
#X connect 16 0 17 1;
#X connect 17 0 7 0;
