#N canvas 665 114 576 322 10;
#X declare -lib jasch_lib;
#X symbolatom 9 204 14 0 0 0 - - -;
#X floatatom 126 204 5 0 0 0 - - -;
#X symbolatom 9 253 15 0 0 0 - - -;
#X text 107 253 chord name;
#X text 54 -2 major;
#X text 54 18 minor;
#X text 54 38 aug;
#X text 55 58 dim;
#X msg 9 59 0 3 6;
#X msg 9 19 0 3 7;
#X msg 9 39 0 4 8;
#X msg 9 79 0 4 7 10;
#X msg 9 119 0 4 7 10 14;
#X text 87 118 9th;
#X text 69 98 6th;
#X text 69 78 7th;
#X text 207 5 [vocabulary_reduction] simplifies the output of a [chord_dictionary]
to fit different algorithms and purposes. The creation argument refers
to the type of vocabulary reduction applied (temporarily only majmin
is available):;
#X text 208 81 - "majmin" - ouptuts only major and minor chords without
inversions. augmented chords are mapped to major and diminished to
minor. All other chords follow normal music theoretical reductions.
;
#X text 208 151 - "majmininv" - same but with inversions.;
#X obj 9 228 vocabulary_reduction majmin;
#X msg 9 99 0 4 7 9;
#X msg 9 -1 0 4 7;
#X text 89 138 min9;
#X text 68 159 add11;
#X msg 9 139 0 3 7 10 14;
#X msg 9 159 0 4 5 7;
#X obj 9 180 midi_chord_estimator;
#X text 7 285 https://github.com/angelfaraldo/pd-symbolic;
#X text 7 300 angel.faraldo@upf.edu ----- Barcelona \, 2015;
#X connect 0 0 19 0;
#X connect 8 0 26 0;
#X connect 9 0 26 0;
#X connect 10 0 26 0;
#X connect 11 0 26 0;
#X connect 12 0 26 0;
#X connect 19 0 2 0;
#X connect 20 0 26 0;
#X connect 21 0 26 0;
#X connect 24 0 26 0;
#X connect 25 0 26 0;
#X connect 26 0 0 0;
#X connect 26 1 1 0;
