#N canvas 423 23 402 710 10;
#X obj 86 260 textfile;
#N canvas 672 172 450 300 read_dictionary 1;
#X msg 49 142 rewind;
#X obj 9 186 until;
#X obj 32 78 t b b b b;
#X obj 83 99 s \$0-clear;
#X obj 32 56 loadbang;
#X obj 32 14 inlet;
#X obj 36 164 r \$0-end_of_textfile;
#X obj 49 212 outlet;
#X obj 42 35 r \$0-reload;
#X msg 66 120 read ./chord_dictionary.txt;
#X connect 0 0 7 0;
#X connect 1 0 7 0;
#X connect 2 0 1 0;
#X connect 2 1 0 0;
#X connect 2 2 9 0;
#X connect 2 3 3 0;
#X connect 4 0 2 0;
#X connect 5 0 4 0;
#X connect 6 0 1 1;
#X connect 8 0 4 0;
#X connect 9 0 7 0;
#X restore 86 240 pd read_dictionary;
#X obj 131 281 s \$0-end_of_textfile;
#X obj 147 1 inlet;
#X obj -17 391 listfind;
#X obj 86 303 list split 1;
#X obj 121 351 r \$0-clear;
#X obj 155 534 r \$0-clear;
#X obj 10 261 f 0;
#X obj -17 239 t f b;
#X obj 34 598 packel;
#X obj 40 533 + 1;
#X obj 34 577 list;
#X obj 40 554 t b f;
#X obj -17 413 route bang;
#X obj 34 658 outlet;
#X obj 40 436 t f b;
#X obj 96 404 f;
#X obj 141 392 list length;
#X obj 40 260 + 1;
#X obj 96 426 -;
#X msg 23 239 0;
#X obj 96 467 moses;
#X obj 96 447 * -1;
#X obj 96 536 outlet;
#X obj 96 514 f;
#X msg 123 491 0;
#X obj 204 83 midi2pc;
#X obj 245 467 packel;
#X obj 245 445 list;
#X obj 245 421 t b f;
#X obj 278 445 + 1;
#X obj 288 516 mod 12;
#X obj 288 496 +;
#X obj 204 103 t l l;
#N canvas 520 317 457 294 root 0;
#X obj 15 11 inlet;
#X obj 15 267 outlet;
#X obj 271 71 print ERROR;
#X msg 271 50 unrecognized pitch class;
#X msg 15 139 C;
#X msg 45 139 Db;
#X msg 75 139 D;
#X msg 105 139 Eb;
#X msg 135 139 E;
#X msg 165 139 F;
#X msg 195 139 Gb;
#X msg 225 139 G;
#X msg 255 139 Ab;
#X msg 285 139 A;
#X msg 315 139 Bb;
#X msg 345 139 B;
#X obj 15 33 sel 0 1 2 3 4 5 6 7 8 9 10 11;
#X connect 0 0 16 0;
#X connect 3 0 2 0;
#X connect 4 0 1 0;
#X connect 5 0 1 0;
#X connect 6 0 1 0;
#X connect 7 0 1 0;
#X connect 8 0 1 0;
#X connect 9 0 1 0;
#X connect 10 0 1 0;
#X connect 11 0 1 0;
#X connect 12 0 1 0;
#X connect 13 0 1 0;
#X connect 14 0 1 0;
#X connect 15 0 1 0;
#X connect 16 0 4 0;
#X connect 16 1 5 0;
#X connect 16 2 6 0;
#X connect 16 3 7 0;
#X connect 16 4 8 0;
#X connect 16 5 9 0;
#X connect 16 6 10 0;
#X connect 16 7 11 0;
#X connect 16 8 12 0;
#X connect 16 9 13 0;
#X connect 16 10 14 0;
#X connect 16 11 15 0;
#X connect 16 12 3 0;
#X restore 288 536 pd root;
#X obj 3 147 t l b l;
#X obj 147 22 route bang;
#X obj 34 638 list2symbol :;
#X obj 34 618 list prepend;
#X obj 120 329 list2number;
#X obj 204 43 pc_unique;
#X obj -17 173 pc_rotate;
#X obj -17 195 pc_to_zero;
#X obj 204 63 pc_to_zero;
#X obj 28 371 list prepend;
#X obj 110 377 t l;
#X obj 86 556 list prepend;
#X obj 174 556 t l;
#X obj -17 217 list2number;
#X connect 0 0 5 0;
#X connect 0 1 2 0;
#X connect 1 0 0 0;
#X connect 3 0 37 0;
#X connect 4 0 14 0;
#X connect 5 0 47 0;
#X connect 5 1 40 0;
#X connect 6 0 45 1;
#X connect 7 0 47 1;
#X connect 8 0 17 1;
#X connect 8 0 19 0;
#X connect 9 0 4 0;
#X connect 9 1 8 0;
#X connect 10 0 39 0;
#X connect 11 0 13 0;
#X connect 12 0 10 0;
#X connect 13 0 12 0;
#X connect 13 1 10 1;
#X connect 14 1 16 0;
#X connect 16 0 11 0;
#X connect 16 1 17 0;
#X connect 17 0 20 0;
#X connect 17 0 30 0;
#X connect 18 0 22 1;
#X connect 18 0 20 1;
#X connect 19 0 8 1;
#X connect 20 0 23 0;
#X connect 21 0 8 1;
#X connect 22 0 25 0;
#X connect 22 1 26 0;
#X connect 23 0 22 0;
#X connect 25 0 24 0;
#X connect 26 0 25 0;
#X connect 27 0 34 0;
#X connect 28 0 33 0;
#X connect 29 0 28 0;
#X connect 30 0 29 0;
#X connect 30 1 31 0;
#X connect 31 0 28 1;
#X connect 32 0 35 0;
#X connect 33 0 32 0;
#X connect 34 0 36 0;
#X connect 34 1 29 1;
#X connect 35 0 39 1;
#X connect 36 0 42 0;
#X connect 36 1 21 0;
#X connect 36 2 18 0;
#X connect 37 0 1 0;
#X connect 37 1 41 0;
#X connect 38 0 15 0;
#X connect 39 0 38 0;
#X connect 40 0 45 0;
#X connect 41 0 44 0;
#X connect 42 0 43 0;
#X connect 43 0 49 0;
#X connect 44 0 27 0;
#X connect 44 1 33 1;
#X connect 45 0 4 1;
#X connect 45 0 46 0;
#X connect 46 0 45 1;
#X connect 47 0 12 1;
#X connect 47 0 48 0;
#X connect 48 0 47 1;
#X connect 49 0 9 0;
