#N canvas 531 49 497 466 10;
#X obj 71 224 t f f;
#X obj 74 255 == 0;
#X obj 81 386 list prepend;
#X obj 74 313 pack 0 0;
#X obj 74 336 route 0 1;
#X obj 74 357 t f b;
#X obj 14 88 inlet;
#X obj 33 312 sel 0;
#X obj 14 415 list;
#X obj 74 279 t f f;
#X obj 14 110 route bang;
#X obj 14 437 outlet;
#X text 13 -1 [make_chord] expects lists of two elements and adds the
second to a list while the first element does not change. This is useful
to use a time stamp or measure number as first element of the list
\, and a note number as the second. The object removes duplicates and
expells the output on a bang \, or whenever a new "chord" appears.
;
#X obj 185 386 t l;
#X obj 71 131 unpack f f f;
#X obj 107 188 spigot;
#X obj 140 155 != 0;
#X obj 63 188 spigot;
#X obj 273 221 poly 10;
#X floatatom 345 293 5 0 0 0 - - -;
#X floatatom 299 279 5 0 0 0 - - -;
#X floatatom 249 306 5 0 0 0 - - -;
#X msg 266 181;
#X obj 285 348 pack 0 0 0;
#X obj 306 386 print;
#X connect 0 0 1 1;
#X connect 0 1 1 0;
#X connect 1 0 9 0;
#X connect 2 0 13 0;
#X connect 2 0 8 1;
#X connect 3 0 4 0;
#X connect 4 0 5 0;
#X connect 4 1 2 0;
#X connect 5 0 2 0;
#X connect 5 1 2 1;
#X connect 6 0 10 0;
#X connect 7 0 8 0;
#X connect 8 0 11 0;
#X connect 9 0 3 0;
#X connect 9 1 7 0;
#X connect 10 0 8 0;
#X connect 10 1 14 0;
#X connect 13 0 2 1;
#X connect 14 0 17 0;
#X connect 14 1 15 0;
#X connect 14 1 18 0;
#X connect 14 2 16 0;
#X connect 14 2 18 1;
#X connect 15 0 3 1;
#X connect 16 0 15 1;
#X connect 16 0 17 1;
#X connect 17 0 0 0;
#X connect 18 0 21 0;
#X connect 18 1 20 0;
#X connect 18 2 19 0;
#X connect 19 0 23 2;
#X connect 20 0 23 1;
#X connect 21 0 23 0;
#X connect 23 0 24 0;
