#N canvas 522 88 390 430 10;
#X obj 71 131 unpack;
#X obj 71 154 t f f;
#X obj 74 185 == 0;
#X obj 81 316 list prepend;
#X obj 74 243 pack 0 0;
#X obj 74 266 route 0 1;
#X obj 74 287 t f b;
#X obj 81 339 list-unique;
#X obj 14 88 inlet;
#X obj 33 242 sel 0;
#X obj 14 369 list;
#X obj 74 209 t f f;
#X obj 14 110 route bang;
#X obj 14 391 outlet;
#X text 13 -1 [make_chord] expects lists of two elements and adds the
second to a list while the first element does not change. This is useful
to use a time stamp or measure number as first element of the list
\, and a note number as the second. The object removes duplicates and
expells the output on a bang \, or whenever a new "chord" appears.
;
#X connect 0 0 1 0;
#X connect 0 1 4 1;
#X connect 1 0 2 1;
#X connect 1 1 2 0;
#X connect 2 0 11 0;
#X connect 3 0 7 0;
#X connect 4 0 5 0;
#X connect 5 0 6 0;
#X connect 5 1 3 0;
#X connect 6 0 3 0;
#X connect 6 1 3 1;
#X connect 7 0 3 1;
#X connect 7 0 10 1;
#X connect 8 0 12 0;
#X connect 9 0 10 0;
#X connect 10 0 13 0;
#X connect 11 0 4 0;
#X connect 11 1 9 0;
#X connect 12 0 10 0;
#X connect 12 1 0 0;
