#N canvas 274 23 297 421 10;
#X obj 43 13 inlet;
#X obj 43 33 sort;
#X obj 43 99 sort;
#X obj 13 258 packel;
#X obj 49 208 t b f;
#X obj 46 235 + 1;
#X obj 17 126 drip 0;
#X obj 64 127 drip 0;
#X obj 49 187 f;
#X obj 13 235 list;
#X obj 43 54 t l l b;
#X obj 17 166 bang;
#X obj 13 304 t b l;
#X obj 7 370 sort;
#X obj 7 392 outlet;
#X obj 43 77 midi2pc;
#X obj 7 348 list 0;
#X obj 3 326 del 1;
#X obj 17 146 change -1000;
#X obj 107 280 t l;
#X obj 13 280 list prepend;
#X connect 0 0 1 0;
#X connect 1 0 10 0;
#X connect 2 0 6 0;
#X connect 2 1 7 0;
#X connect 3 0 20 0;
#X connect 4 0 9 0;
#X connect 4 1 5 0;
#X connect 5 0 3 1;
#X connect 6 0 18 0;
#X connect 7 0 8 1;
#X connect 8 0 4 0;
#X connect 9 0 3 0;
#X connect 10 0 15 0;
#X connect 10 1 9 1;
#X connect 10 2 20 1;
#X connect 11 0 8 0;
#X connect 12 0 17 0;
#X connect 12 1 16 1;
#X connect 13 0 14 0;
#X connect 15 0 2 0;
#X connect 16 0 13 0;
#X connect 17 0 16 0;
#X connect 18 0 11 0;
#X connect 19 0 20 1;
#X connect 20 0 12 0;
#X connect 20 0 19 0;
