#N canvas 874 287 784 646 10;
#X declare -path ../pitch-abs -path ../handy-abs;
#X declare -path ../handy-abs;
#X obj -219 -480 notein;
#X obj -219 -502 declare -path ../pitch-abs -path ../handy-abs;
#X symbolatom -219 -321 15 0 0 0 - - -;
#X floatatom -102 -350 5 0 0 0 - - -;
#X text -121 -321 chord name;
#X text -65 -351 inversion (0 = root \, 1 = first inversion \, etc)
;
#X obj -219 -374 midi_chord_estimator;
#X obj -207 -426 noteout;
#X obj -219 -400 chordifyer;
#X obj -219 -451 pack 0 0 0;
#X obj -39 -118 symbol;
#X obj -28 -215 metro 400;
#X obj -23 -65 print sequence;
#X obj -27 -248 bng 15 250 50 0 empty empty empty 17 7 0 10 -262144
-1 -1;
#X symbolatom 33 -256 10 0 0 0 - - -;
#X floatatom 54 -216 5 0 0 0 - - -;
#X obj -44 -414 print;
#X obj 94 -424 midiin;
#X obj 94 -390 print;
#X connect 0 0 9 0;
#X connect 0 1 9 1;
#X connect 0 2 9 2;
#X connect 6 0 2 0;
#X connect 6 1 3 0;
#X connect 8 0 6 0;
#X connect 9 0 8 0;
#X connect 9 0 7 0;
#X connect 10 0 12 0;
#X connect 13 0 11 0;
#X connect 15 0 11 1;
#X connect 17 0 18 0;
