#N canvas 565 27 731 644 10;
#X declare -path pitchabs -path ../absutils;
#X declare -lib mrpeach;
#X symbolatom -84 398 10 0 0 0 - - -;
#X obj -121 49 openpanel;
#X obj -121 28 bng 15 250 50 0 empty empty empty 17 7 0 10 -262144
-1 -1;
#X msg -121 72 read \$1;
#X obj -121 548 noteout;
#X msg 9 49 loop \$1;
#X obj 9 28 tgl 15 0 empty empty empty 17 7 0 10 -262144 -1 -1 0 1
;
#X obj -51 28 tgl 15 0 empty empty empty 17 7 0 10 -262144 -1 -1 0
1;
#X msg -51 49 play \$1;
#X msg 9 79 flush;
#X msg 9 109 panic;
#X floatatom 23 221 5 0 0 0 - - -;
#X floatatom -12 242 5 0 0 0 - - -;
#X text 49 79 outputs all midi notes in no-time;
#X text 49 109 all notes off;
#X obj -76 509 tgl 15 0 empty empty empty 17 7 0 10 -262144 -1 -1 0
1;
#X text -55 507 send notes to synthesizer;
#X text 62 220 tempo (bpm);
#X text 25 243 length (in midi "ticks");
#X obj -46 195 unpack 0 0 0;
#X floatatom -46 264 5 0 0 0 - - -;
#X obj -121 527 spigot 1;
#X text -9 264 length (in quarter notes);
#X text 40 139 first outlet outputs midi note info;
#X text 39 185 third outlet outputs extra info about midi track....
;
#X obj -121 2 path pitchabs ../absutils;
#X floatatom 33 399 5 0 0 0 - - -;
#X obj -84 377 midi_chord_estimator;
#X obj -84 334 homophonize;
#X obj -121 147 midiquantizer;
#X text 39 157 second outlet outputs midi time information followed
by midi data;
#X obj -84 428 print;
#X connect 0 0 31 0;
#X connect 1 0 3 0;
#X connect 2 0 1 0;
#X connect 3 0 29 0;
#X connect 5 0 29 0;
#X connect 6 0 5 0;
#X connect 7 0 8 0;
#X connect 8 0 29 0;
#X connect 9 0 29 0;
#X connect 10 0 29 0;
#X connect 15 0 21 1;
#X connect 19 0 20 0;
#X connect 19 1 12 0;
#X connect 19 2 11 0;
#X connect 21 0 4 0;
#X connect 27 0 0 0;
#X connect 27 1 26 0;
#X connect 28 0 27 0;
#X connect 29 0 21 0;
#X connect 29 1 28 0;
#X connect 29 2 19 0;
