#N canvas 619 23 437 406 10;
#X declare -path pitchabs -path ../absutils;
#X symbolatom -96 320 10 0 0 0 - - -;
#X obj -121 49 openpanel;
#X obj -121 28 bng 15 250 50 0 empty empty empty 17 7 0 10 -262144
-1 -1;
#X msg -121 72 read \$1;
#X obj -121 371 noteout;
#X msg 6 49 loop \$1;
#X obj 6 28 tgl 15 0 empty empty empty 17 7 0 10 -262144 -1 -1 0 1
;
#X obj -54 28 tgl 15 0 empty empty empty 17 7 0 10 -262144 -1 -1 0
1;
#X msg -54 49 play \$1;
#X msg -23 123 flush;
#X obj -121 2 path pitchabs ../absutils;
#X floatatom 21 321 5 0 0 0 - - -;
#X obj -96 299 midi_chord_estimator;
#X obj -121 157 midiquantizer;
#X obj -96 345 print;
#X msg 66 49 quantize \$1;
#X obj 66 30 tgl 15 0 empty empty empty 17 7 0 10 -262144 -1 -1 0 1
;
#X obj -46 181 bng 15 250 50 0 empty empty empty 17 7 0 10 -262144
-1 -1;
#X text -25 179 done;
#X obj -88 211 print midi_notes;
#X obj -86 261 print make_chords;
#X obj -96 234 group_chord;
#X connect 0 0 14 0;
#X connect 1 0 3 0;
#X connect 2 0 1 0;
#X connect 3 0 13 0;
#X connect 5 0 13 0;
#X connect 6 0 5 0;
#X connect 7 0 8 0;
#X connect 8 0 13 0;
#X connect 9 0 13 0;
#X connect 12 0 0 0;
#X connect 12 1 11 0;
#X connect 13 0 4 0;
#X connect 13 1 21 0;
#X connect 13 1 19 0;
#X connect 13 3 17 0;
#X connect 15 0 13 0;
#X connect 16 0 15 0;
#X connect 21 0 20 0;
