#N canvas 623 23 456 650 10;
#X declare -lib jasch_lib;
#X declare -path ../absutils;
#X obj 65 233 textfile;
#X floatatom 191 72 5 0 0 0 - - -;
#X obj 18 25 bng 15 250 50 0 empty empty empty 17 7 0 10 -262144 -1
-1;
#X obj 8 327 unpack s s;
#X obj 8 305 strtok :;
#X symbolatom 65 349 5 0 0 0 - - -;
#X symbolatom 8 349 3 0 0 0 - - -;
#X obj 8 282 tosymbol;
#X floatatom 8 393 5 0 0 0 - - -;
#N canvas 520 317 457 294 root 0;
#X obj 15 11 inlet;
#X obj 15 33 sel C Db D Eb E F Gb G Ab A Bb B;
#X msg 15 139 0;
#X msg 45 139 1;
#X msg 75 139 2;
#X msg 105 139 3;
#X msg 135 139 4;
#X msg 165 139 5;
#X msg 195 139 6;
#X msg 225 139 7;
#X msg 255 139 8;
#X msg 285 139 9;
#X msg 315 139 10;
#X msg 345 139 11;
#X obj 15 267 outlet;
#X msg 271 50 unrecognized pitch class;
#X obj 271 71 print \$0-ERROR;
#X connect 0 0 1 0;
#X connect 1 0 2 0;
#X connect 1 1 3 0;
#X connect 1 2 4 0;
#X connect 1 3 5 0;
#X connect 1 4 6 0;
#X connect 1 5 7 0;
#X connect 1 6 8 0;
#X connect 1 7 9 0;
#X connect 1 8 10 0;
#X connect 1 9 11 0;
#X connect 1 10 12 0;
#X connect 1 11 13 0;
#X connect 1 12 15 0;
#X connect 2 0 14 0;
#X connect 3 0 14 0;
#X connect 4 0 14 0;
#X connect 5 0 14 0;
#X connect 6 0 14 0;
#X connect 7 0 14 0;
#X connect 8 0 14 0;
#X connect 9 0 14 0;
#X connect 10 0 14 0;
#X connect 11 0 14 0;
#X connect 12 0 14 0;
#X connect 13 0 14 0;
#X connect 15 0 16 0;
#X restore 8 371 pd root;
#N canvas 520 317 457 294 type 0;
#X obj 15 11 inlet;
#X obj 15 267 outlet;
#X obj 271 71 print ERROR;
#X obj 15 33 sel maj min aug dim 7 sus4;
#X msg 271 50 unrecognized chord type;
#X msg 15 139 0 \, 4 \, 7;
#X msg 132 139 0 \, 4 \, 8;
#X msg 192 139 0 \, 3 \, 6;
#X msg 252 139 0 \, 4 \, 7 \, 10;
#X msg 336 139 0 \, 5 \, 7;
#X msg 73 139 0 \, 3 \, 7;
#X connect 0 0 3 0;
#X connect 3 0 5 0;
#X connect 3 1 10 0;
#X connect 3 2 6 0;
#X connect 3 3 7 0;
#X connect 3 4 8 0;
#X connect 3 5 9 0;
#X connect 3 6 4 0;
#X connect 4 0 2 0;
#X connect 5 0 1 0;
#X connect 6 0 1 0;
#X connect 7 0 1 0;
#X connect 8 0 1 0;
#X connect 9 0 1 0;
#X connect 10 0 1 0;
#X restore 8 460 pd type;
#X obj 8 482 +;
#X obj 8 437 symbol;
#X obj 8 413 t b f;
#X obj 8 504 mod 12;
#X obj 8 525 t f f;
#X obj 8 232 until;
#X msg 8 186 read \$1 cr \, rewind \, bang;
#X obj 8 209 route bang;
#X obj 8 97 t s b;
#X obj 279 22 import jasch_lib;
#X obj 8 570 + 0.1;
#N canvas 123 23 570 718 find_key 0;
#X obj 222 100 t b b;
#X obj 214 262 t l;
#X obj 131 345 list;
#X obj 155 176 tabdump;
#X obj 148 197 t b l;
#X obj 18 42 sel 12;
#X msg 220 57 1 2 3 4 5 6 7 8 9 10 11 12;
#X obj 73 42 t f b;
#X obj 18 84 once;
#X obj 125 261 list prepend;
#X obj 18 105 del 1;
#X obj 131 366 sort;
#X obj 125 303 length;
#X obj 125 324 sel 24;
#X obj 125 282 t l l;
#X obj 111 390 t l f;
#X obj 123 436 ==;
#X obj 111 411 drip 0;
#X obj 131 546 list;
#X obj 83 436 sel 1;
#X obj 83 501 f 1;
#X obj 113 501 + 1;
#X msg 98 479 1;
#X obj 131 523 t b f;
#X obj 101 571 list split;
#N canvas 248 157 765 305 estimation 0;
#X obj 16 13 inlet;
#X obj 16 273 outlet;
#X obj 16 35 select 0 1 2 3 4 5 6 7 8 9 10 11 12 13 14 15 16 17 18
19 20 21 22 23;
#X msg 16 148 B;
#X msg 46 148 Bb;
#X msg 76 148 A;
#X msg 106 148 Ab;
#X msg 136 148 G;
#X msg 166 148 Gb;
#X msg 196 148 F;
#X msg 226 148 E;
#X msg 256 148 Eb;
#X msg 286 148 D;
#X msg 316 148 Db;
#X msg 346 148 C;
#X msg 376 148 Bm;
#X msg 406 148 Bbm;
#X msg 436 148 Am;
#X msg 466 148 Abm;
#X msg 496 148 Gm;
#X msg 526 148 Gbm;
#X msg 556 148 Fm;
#X msg 586 148 Em;
#X msg 616 148 Ebm;
#X msg 646 148 Dm;
#X msg 676 148 Dbm;
#X msg 706 148 Cm;
#X connect 0 0 2 0;
#X connect 2 0 3 0;
#X connect 2 1 4 0;
#X connect 2 2 5 0;
#X connect 2 3 6 0;
#X connect 2 4 7 0;
#X connect 2 5 8 0;
#X connect 2 6 9 0;
#X connect 2 7 10 0;
#X connect 2 8 11 0;
#X connect 2 9 12 0;
#X connect 2 10 13 0;
#X connect 2 11 14 0;
#X connect 2 12 15 0;
#X connect 2 13 16 0;
#X connect 2 14 17 0;
#X connect 2 15 18 0;
#X connect 2 16 19 0;
#X connect 2 17 20 0;
#X connect 2 18 21 0;
#X connect 2 19 22 0;
#X connect 2 20 23 0;
#X connect 2 21 24 0;
#X connect 2 22 25 0;
#X connect 2 23 26 0;
#X connect 3 0 1 0;
#X connect 4 0 1 0;
#X connect 5 0 1 0;
#X connect 6 0 1 0;
#X connect 7 0 1 0;
#X connect 8 0 1 0;
#X connect 9 0 1 0;
#X connect 10 0 1 0;
#X connect 11 0 1 0;
#X connect 12 0 1 0;
#X connect 13 0 1 0;
#X connect 14 0 1 0;
#X connect 15 0 1 0;
#X connect 16 0 1 0;
#X connect 17 0 1 0;
#X connect 18 0 1 0;
#X connect 19 0 1 0;
#X connect 20 0 1 0;
#X connect 21 0 1 0;
#X connect 22 0 1 0;
#X connect 23 0 1 0;
#X connect 24 0 1 0;
#X connect 25 0 1 0;
#X connect 26 0 1 0;
#X restore 158 637 pd estimation;
#X obj 101 593 drip 0;
#X obj 101 615 route bang;
#X obj 222 79 r \$0-end_file;
#X obj 249 183 tabdump \$0-profile;
#X obj 155 134 \$0;
#X msg 155 154 set \$1-major \, bang;
#X obj 18 125 \$0;
#X msg 18 146 set \$1-minor \, bang;
#X obj 194 238 r \$0-reset;
#X obj 39 63 r \$0-reset;
#X obj 98 458 r \$0-reset;
#X obj 158 658 print \$0-ESTIMATION;
#X obj 73 20 drip 1;
#X obj 100 218 listrotate;
#X obj 117 239 euclidist;
#X connect 0 0 30 0;
#X connect 0 1 29 0;
#X connect 1 0 9 1;
#X connect 2 0 11 0;
#X connect 3 0 4 0;
#X connect 4 0 6 0;
#X connect 4 1 39 1;
#X connect 5 0 8 0;
#X connect 6 0 38 0;
#X connect 7 0 5 0;
#X connect 7 1 39 0;
#X connect 8 0 10 0;
#X connect 9 0 1 0;
#X connect 9 0 14 0;
#X connect 10 0 32 0;
#X connect 11 0 15 0;
#X connect 11 1 18 1;
#X connect 12 0 13 0;
#X connect 13 0 2 0;
#X connect 14 0 12 0;
#X connect 14 1 2 1;
#X connect 15 0 17 0;
#X connect 15 1 16 1;
#X connect 16 0 19 0;
#X connect 17 0 16 0;
#X connect 18 0 24 0;
#X connect 19 0 20 0;
#X connect 20 0 21 0;
#X connect 20 0 23 0;
#X connect 21 0 20 1;
#X connect 22 0 20 1;
#X connect 23 0 18 0;
#X connect 23 1 24 1;
#X connect 24 0 26 0;
#X connect 25 0 37 0;
#X connect 26 0 27 0;
#X connect 27 1 25 0;
#X connect 28 0 0 0;
#X connect 29 0 40 1;
#X connect 30 0 31 0;
#X connect 31 0 3 0;
#X connect 32 0 33 0;
#X connect 33 0 3 0;
#X connect 34 0 9 1;
#X connect 35 0 8 1;
#X connect 36 0 22 0;
#X connect 38 0 7 0;
#X connect 39 0 40 0;
#X connect 40 0 9 0;
#X restore 279 42 pd find_key;
#X msg 8 3 refresh;
#X obj 279 82 table \$0-profile 12;
#X obj 8 592 tabwrite \$0-profile;
#X obj 8 547 tabread \$0-profile;
#X msg 35 138 \; \$1-profile const 0 \; \$1-reset bang;
#X obj 35 117 \$0;
#X obj 16 74 print \$0-filename;
#N canvas 29 23 442 231 krumhansl_profiles 0;
#X msg 5 124 6.33 2.68 3.52 5.38 2.6 3.53 2.54 4.75 3.98 2.69 3.34
3.17;
#X msg 32 44 6.35 2.23 3.48 2.33 4.38 4.09 2.52 5.19 2.39 3.66 2.29
2.88;
#X obj 5 23 t b b;
#X obj 32 84 tabset \$0-major;
#X obj 31 104 table \$0-major 12;
#X obj 5 2 r \$0-reset;
#X obj 5 164 tabset \$0-minor;
#X obj 5 184 table \$0-minor 12;
#X obj 5 144 normalize;
#X obj 32 64 normalize;
#X connect 0 0 8 0;
#X connect 1 0 9 0;
#X connect 2 0 0 0;
#X connect 2 1 1 0;
#X connect 5 0 2 0;
#X connect 8 0 6 0;
#X connect 9 0 3 0;
#X restore 279 62 pd krumhansl_profiles;
#X obj 118 260 tabdump \$0-profile;
#X obj 118 300 tabset \$0-profile;
#X obj 110 320 s \$0-end_file;
#X obj 118 280 normalize;
#X obj 279 2 path ../absutils;
#X obj 8 48 listdir ../test/chordstxt/*.txt;
#X connect 0 0 7 0;
#X connect 0 1 16 1;
#X connect 0 1 31 0;
#X connect 0 1 33 0;
#X connect 2 0 36 0;
#X connect 3 0 6 0;
#X connect 3 1 5 0;
#X connect 4 0 3 0;
#X connect 5 0 12 1;
#X connect 6 0 9 0;
#X connect 7 0 4 0;
#X connect 8 0 13 0;
#X connect 9 0 8 0;
#X connect 10 0 11 0;
#X connect 11 0 14 0;
#X connect 12 0 10 0;
#X connect 13 0 12 0;
#X connect 13 1 11 1;
#X connect 14 0 15 0;
#X connect 15 0 26 0;
#X connect 15 1 25 1;
#X connect 16 0 0 0;
#X connect 17 0 18 0;
#X connect 18 0 16 0;
#X connect 18 1 0 0;
#X connect 19 0 17 0;
#X connect 19 1 28 0;
#X connect 21 0 25 0;
#X connect 23 0 36 0;
#X connect 26 0 21 0;
#X connect 28 0 27 0;
#X connect 31 0 34 0;
#X connect 34 0 32 0;
#X connect 36 0 19 0;
#X connect 36 0 29 0;
#X connect 36 1 1 0;
