#N canvas 1315 174 463 663 10;
#X declare -lib jasch_lib;
#X declare -path ../handy-abs;
#X obj 65 275 textfile;
#X floatatom 223 114 5 0 0 0 - - -;
#X obj 38 67 bng 15 250 50 0 empty empty empty 17 7 0 10 -262144 -1
-1;
#X obj 8 349 unpack s s;
#X obj 8 327 strtok :;
#X symbolatom 65 371 5 0 0 0 - - -;
#X symbolatom 8 371 3 0 0 0 - - -;
#X obj 8 304 tosymbol;
#X floatatom 8 415 5 0 0 0 - - -;
#N canvas 520 317 457 294 root 0;
#X obj 15 11 inlet;
#X obj 15 33 sel C Db D Eb E F Gb G Ab A Bb B;
#X msg 15 139 0;
#X msg 45 139 1;
#X msg 75 139 2;
#X msg 105 139 3;
#X msg 135 139 4;
#X msg 165 139 5;
#X msg 195 139 6;
#X msg 225 139 7;
#X msg 255 139 8;
#X msg 285 139 9;
#X msg 315 139 10;
#X msg 345 139 11;
#X obj 15 267 outlet;
#X msg 271 50 unrecognized pitch class;
#X obj 271 71 print \$0-ERROR;
#X connect 0 0 1 0;
#X connect 1 0 2 0;
#X connect 1 1 3 0;
#X connect 1 2 4 0;
#X connect 1 3 5 0;
#X connect 1 4 6 0;
#X connect 1 5 7 0;
#X connect 1 6 8 0;
#X connect 1 7 9 0;
#X connect 1 8 10 0;
#X connect 1 9 11 0;
#X connect 1 10 12 0;
#X connect 1 11 13 0;
#X connect 1 12 15 0;
#X connect 2 0 14 0;
#X connect 3 0 14 0;
#X connect 4 0 14 0;
#X connect 5 0 14 0;
#X connect 6 0 14 0;
#X connect 7 0 14 0;
#X connect 8 0 14 0;
#X connect 9 0 14 0;
#X connect 10 0 14 0;
#X connect 11 0 14 0;
#X connect 12 0 14 0;
#X connect 13 0 14 0;
#X connect 15 0 16 0;
#X restore 8 393 pd root;
#N canvas 520 317 457 294 type 0;
#X obj 15 11 inlet;
#X obj 15 267 outlet;
#X obj 271 71 print ERROR;
#X obj 15 33 sel maj min aug dim 7 sus4;
#X msg 271 50 unrecognized chord type;
#X msg 15 139 0 \, 4 \, 7;
#X msg 132 139 0 \, 4 \, 8;
#X msg 192 139 0 \, 3 \, 6;
#X msg 252 139 0 \, 4 \, 7 \, 10;
#X msg 336 139 0 \, 5 \, 7;
#X msg 73 139 0 \, 3 \, 7;
#X connect 0 0 3 0;
#X connect 3 0 5 0;
#X connect 3 1 10 0;
#X connect 3 2 6 0;
#X connect 3 3 7 0;
#X connect 3 4 8 0;
#X connect 3 5 9 0;
#X connect 3 6 4 0;
#X connect 4 0 2 0;
#X connect 5 0 1 0;
#X connect 6 0 1 0;
#X connect 7 0 1 0;
#X connect 8 0 1 0;
#X connect 9 0 1 0;
#X connect 10 0 1 0;
#X restore 8 482 pd type;
#X obj 8 504 +;
#X obj 8 459 symbol;
#X obj 8 435 t b f;
#X obj 8 526 mod 12;
#X obj 8 547 t f f;
#X obj 8 274 until;
#X msg 8 228 read \$1 cr \, rewind \, bang;
#X obj 8 251 route bang;
#X obj 8 139 t s b;
#X obj 319 24 import jasch_lib;
#X obj 8 592 + 0.1;
#N canvas 739 81 570 686 find_key 0;
#X obj 222 100 t b b;
#X obj 214 262 t l;
#X obj 131 345 list;
#X obj 155 176 tabdump;
#X obj 148 197 t b l;
#X obj 18 42 sel 12;
#X msg 220 57 1 2 3 4 5 6 7 8 9 10 11 12;
#X obj 73 42 t f b;
#X obj 18 84 once;
#X obj 125 261 list prepend;
#X obj 18 105 del 1;
#X obj 131 366 sort;
#X obj 125 324 sel 24;
#X obj 125 282 t l l;
#X obj 111 390 t l f;
#X obj 123 436 ==;
#X obj 131 546 list;
#X obj 83 436 sel 1;
#X obj 83 501 f 1;
#X obj 113 501 + 1;
#X msg 98 479 1;
#X obj 131 523 t b f;
#X obj 101 571 list split;
#N canvas 246 161 765 305 estimation 0;
#X obj 16 13 inlet;
#X obj 16 273 outlet;
#X obj 16 35 select 0 1 2 3 4 5 6 7 8 9 10 11 12 13 14 15 16 17 18
19 20 21 22 23;
#X msg 16 148 B;
#X msg 46 148 Bb;
#X msg 76 148 A;
#X msg 106 148 Ab;
#X msg 136 148 G;
#X msg 166 148 Gb;
#X msg 196 148 F;
#X msg 226 148 E;
#X msg 256 148 Eb;
#X msg 286 148 D;
#X msg 316 148 Db;
#X msg 346 148 C;
#X msg 376 148 Bm;
#X msg 406 148 Bbm;
#X msg 436 148 Am;
#X msg 466 148 Abm;
#X msg 496 148 Gm;
#X msg 526 148 Gbm;
#X msg 556 148 Fm;
#X msg 586 148 Em;
#X msg 616 148 Ebm;
#X msg 646 148 Dm;
#X msg 676 148 Dbm;
#X msg 706 148 Cm;
#X connect 0 0 2 0;
#X connect 2 0 3 0;
#X connect 2 1 4 0;
#X connect 2 2 5 0;
#X connect 2 3 6 0;
#X connect 2 4 7 0;
#X connect 2 5 8 0;
#X connect 2 6 9 0;
#X connect 2 7 10 0;
#X connect 2 8 11 0;
#X connect 2 9 12 0;
#X connect 2 10 13 0;
#X connect 2 11 14 0;
#X connect 2 12 15 0;
#X connect 2 13 16 0;
#X connect 2 14 17 0;
#X connect 2 15 18 0;
#X connect 2 16 19 0;
#X connect 2 17 20 0;
#X connect 2 18 21 0;
#X connect 2 19 22 0;
#X connect 2 20 23 0;
#X connect 2 21 24 0;
#X connect 2 22 25 0;
#X connect 2 23 26 0;
#X connect 3 0 1 0;
#X connect 4 0 1 0;
#X connect 5 0 1 0;
#X connect 6 0 1 0;
#X connect 7 0 1 0;
#X connect 8 0 1 0;
#X connect 9 0 1 0;
#X connect 10 0 1 0;
#X connect 11 0 1 0;
#X connect 12 0 1 0;
#X connect 13 0 1 0;
#X connect 14 0 1 0;
#X connect 15 0 1 0;
#X connect 16 0 1 0;
#X connect 17 0 1 0;
#X connect 18 0 1 0;
#X connect 19 0 1 0;
#X connect 20 0 1 0;
#X connect 21 0 1 0;
#X connect 22 0 1 0;
#X connect 23 0 1 0;
#X connect 24 0 1 0;
#X connect 25 0 1 0;
#X connect 26 0 1 0;
#X restore 158 637 pd estimation;
#X obj 101 615 route bang;
#X obj 222 79 r \$0-end_file;
#X obj 249 183 tabdump \$0-profile;
#X obj 155 134 \$0;
#X msg 155 154 set \$1-major \, bang;
#X obj 18 125 \$0;
#X msg 18 146 set \$1-minor \, bang;
#X obj 194 238 r \$0-reset;
#X obj 39 63 r \$0-reset;
#X obj 98 458 r \$0-reset;
#X obj 158 658 print \$0-ESTIMATION;
#X obj 73 20 drip 1;
#X obj 100 218 listrotate;
#X obj 117 239 euclidist;
#X obj 125 303 list length;
#X obj 101 593 drip;
#X obj 111 411 drip;
#X connect 0 0 27 0;
#X connect 0 1 26 0;
#X connect 1 0 9 1;
#X connect 2 0 11 0;
#X connect 3 0 4 0;
#X connect 4 0 6 0;
#X connect 4 1 36 1;
#X connect 5 0 8 0;
#X connect 6 0 35 0;
#X connect 7 0 5 0;
#X connect 7 1 36 0;
#X connect 8 0 10 0;
#X connect 9 0 1 0;
#X connect 9 0 13 0;
#X connect 10 0 29 0;
#X connect 11 0 14 0;
#X connect 11 1 16 1;
#X connect 12 0 2 0;
#X connect 13 0 38 0;
#X connect 13 1 2 1;
#X connect 14 0 40 0;
#X connect 14 1 15 1;
#X connect 15 0 17 0;
#X connect 16 0 22 0;
#X connect 17 0 18 0;
#X connect 18 0 19 0;
#X connect 18 0 21 0;
#X connect 19 0 18 1;
#X connect 20 0 18 1;
#X connect 21 0 16 0;
#X connect 21 1 22 1;
#X connect 22 0 39 0;
#X connect 23 0 34 0;
#X connect 24 1 23 0;
#X connect 25 0 0 0;
#X connect 26 0 37 1;
#X connect 27 0 28 0;
#X connect 28 0 3 0;
#X connect 29 0 30 0;
#X connect 30 0 3 0;
#X connect 31 0 9 1;
#X connect 32 0 8 1;
#X connect 33 0 20 0;
#X connect 35 0 7 0;
#X connect 36 0 37 0;
#X connect 37 0 9 0;
#X connect 38 0 12 0;
#X connect 39 0 24 0;
#X connect 40 0 15 0;
#X restore 319 44 pd find_key;
#X msg 28 45 refresh;
#X obj 319 84 table \$0-profile 12;
#X obj 8 614 tabwrite \$0-profile;
#X obj 8 569 tabread \$0-profile;
#X msg 35 180 \; \$1-profile const 0 \; \$1-reset bang;
#X obj 35 159 \$0;
#X obj 16 116 print \$0-filename;
#N canvas 27 81 442 231 krumhansl_profiles 0;
#X msg 5 124 6.33 2.68 3.52 5.38 2.6 3.53 2.54 4.75 3.98 2.69 3.34
3.17;
#X msg 32 44 6.35 2.23 3.48 2.33 4.38 4.09 2.52 5.19 2.39 3.66 2.29
2.88;
#X obj 5 23 t b b;
#X obj 32 84 tabset \$0-major;
#X obj 31 104 table \$0-major 12;
#X obj 5 2 r \$0-reset;
#X obj 5 164 tabset \$0-minor;
#X obj 5 184 table \$0-minor 12;
#X obj 5 144 normalize;
#X obj 32 64 normalize;
#X connect 0 0 8 0;
#X connect 1 0 9 0;
#X connect 2 0 0 0;
#X connect 2 1 1 0;
#X connect 5 0 2 0;
#X connect 8 0 6 0;
#X connect 9 0 3 0;
#X restore 319 64 pd krumhansl_profiles;
#X obj 118 302 tabdump \$0-profile;
#X obj 118 342 tabset \$0-profile;
#X obj 110 362 s \$0-end_file;
#X obj 118 322 normalize;
#X obj 28 90 listdir ../files/txt_chords/*.txt;
#X obj 8 23 openpanel;
#X obj 8 4 bng 15 250 50 0 empty empty empty 17 7 0 10 -262144 -1 -1
;
#X text 27 1 load a file;
#X text 82 44 or get all content of a folder;
#X text 59 66 and retrieve files individually;
#X text 8 632 angel.faraldo@upf.edu --- Barcelona \, 2015;
#X obj 319 4 path ../handy-abs;
#N canvas 117 76 874 655 chord_accumulation 0;
#X obj 95 30 sel maj min aug dim sus4;
#X obj 236 52 fromsymbol;
#X obj 236 76 sel 7;
#X msg 271 101 unrecognize chord type;
#X obj 271 123 print ERROR;
#X msg 123 112 1;
#X msg 151 112 2;
#X msg 179 112 3;
#X msg 207 112 4;
#X msg 236 112 5;
#X msg 95 112 0;
#X obj 164 173 * 12;
#X obj 177 201 r key_estimation;
#X obj 13 349 -;
#X obj 67 286 t l;
#X obj 13 262 list prepend;
#X obj 13 9 inlet;
#X obj 95 6 inlet;
#X obj 3 324 drip 0;
#X obj 222 453 prepend;
#X obj 222 496 route 0 1;
#X obj 236 170 s type_chord;
#X obj 2 300 list;
#X obj 254 228 print key;
#X obj 222 367 t l;
#X obj 164 343 list prepend;
#X obj 143 392 drip 0;
#X obj 143 369 list;
#X obj 177 229 t b b b s;
#X obj 13 374 mod 12;
#X obj 128 414 +;
#X obj 132 606 tabwrite major_table;
#X obj 261 607 tabwrite minor_table;
#X obj 132 559 tabread major_table;
#X obj 261 560 tabread minor_table;
#X msg 448 37 \; major_table write major_table_reducton.txt;
#X msg 448 73 \; minor_table write minor_table_reducton.txt;
#X text 446 19 WRITE TEXTFILE FROM BOTH TABLES:;
#X msg 446 138 \; major_table const 0;
#X msg 446 172 \; minor_table const 0;
#X text 444 121 PUT TO ZERO BOTH TABLES:;
#N canvas 0 22 450 278 (subpatch) 0;
#X array major_table 72 float 3;
#A 0 14400 50 3195 725 783 11020 76 12088 409 1108 1151 170 567 115
2360 12 2398 248 375 412 51 8573 8 683 0 0 0 0 4 0 0 0 0 0 0 3 0 0
0 0 0 0 0 0 35 0 0 0 0 0 0 0 0 0 0 0 0 0 0 0 125 0 249 19 84 48 0 243
10 76 4 47;
#X coords 0 500 71 0 200 140 1 0 0;
#X restore 428 481 graph;
#N canvas 0 22 450 278 (subpatch) 0;
#X array minor_table 72 float 3;
#A 0 472 242 472 2348 100 573 28 700 1781 158 659 28 3641 20 296 67
122 2531 20 132 225 228 152 120 0 0 0 0 0 0 0 0 0 0 0 0 0 0 0 0 0 0
0 0 0 0 0 0 0 0 0 0 0 0 0 0 0 0 0 0 4 4 35 48 64 4 4 509 4 4 4 4;
#X coords 0 500 71 0 200 140 2 0 0;
#X restore 634 480 graph;
#X obj 132 582 + 1;
#X obj 261 584 + 1;
#X obj 222 533 t f f;
#X obj 351 534 t f f;
#X obj 228 254 key2pc;
#X obj 288 495 outlet;
#X connect 0 0 10 0;
#X connect 0 1 5 0;
#X connect 0 2 6 0;
#X connect 0 3 7 0;
#X connect 0 4 8 0;
#X connect 0 5 1 0;
#X connect 1 0 2 0;
#X connect 2 0 9 0;
#X connect 2 1 3 0;
#X connect 3 0 4 0;
#X connect 5 0 11 0;
#X connect 5 0 21 0;
#X connect 6 0 11 0;
#X connect 6 0 21 0;
#X connect 7 0 11 0;
#X connect 7 0 21 0;
#X connect 8 0 11 0;
#X connect 8 0 21 0;
#X connect 9 0 11 0;
#X connect 9 0 21 0;
#X connect 10 0 11 0;
#X connect 10 0 21 0;
#X connect 11 0 25 0;
#X connect 12 0 28 0;
#X connect 13 0 29 0;
#X connect 14 0 15 1;
#X connect 15 0 14 0;
#X connect 15 0 22 1;
#X connect 16 0 15 0;
#X connect 17 0 0 0;
#X connect 18 0 13 0;
#X connect 19 0 20 0;
#X connect 19 0 48 0;
#X connect 20 0 45 0;
#X connect 20 1 46 0;
#X connect 22 0 18 0;
#X connect 24 0 25 1;
#X connect 25 0 24 0;
#X connect 25 0 27 1;
#X connect 26 0 30 1;
#X connect 27 0 26 0;
#X connect 28 0 15 1;
#X connect 28 0 25 1;
#X connect 28 1 22 0;
#X connect 28 2 27 0;
#X connect 28 3 23 0;
#X connect 28 3 47 0;
#X connect 29 0 30 0;
#X connect 30 0 19 0;
#X connect 33 0 43 0;
#X connect 34 0 44 0;
#X connect 43 0 31 0;
#X connect 44 0 32 0;
#X connect 45 0 33 0;
#X connect 45 1 31 1;
#X connect 46 0 34 0;
#X connect 46 1 32 1;
#X connect 47 0 13 1;
#X connect 47 1 19 1;
#X restore 116 471 pd chord_accumulation;
#X obj 123 449 s root_chord;
#N canvas 105 23 563 543 orden1_calculation 0;
#X obj 103 20 inlet;
#X obj 130 210 pack f f;
#X obj 191 210 t f;
#X msg 130 423 \$2 \$1;
#X obj 11 171 i;
#X obj 26 151 once;
#X obj -16 17 r end_file;
#X obj -16 59 t b b;
#X obj 224 465 s;
#X obj 239 167 sel 0 1;
#X obj 329 173 loadbang;
#X obj 239 144 change;
#X obj 239 235 makefilename fill_table-%s;
#X msg 329 199 symbol minor;
#X msg 239 199 symbol major;
#X obj 103 63 swap;
#X obj 103 96 t f f;
#X obj 189 271 r key_estimation;
#X obj 130 396 spigot;
#X msg 189 368 0;
#X obj 189 294 t b b;
#X obj 157 340 once;
#X msg 157 368 1;
#X obj 130 239 t b l;
#X obj 130 492 print transitions;
#X obj -16 39 del 100;
#X connect 0 0 15 0;
#X connect 1 0 2 0;
#X connect 1 0 23 0;
#X connect 2 0 1 1;
#X connect 3 0 8 0;
#X connect 3 0 24 0;
#X connect 4 0 1 0;
#X connect 5 0 4 1;
#X connect 6 0 25 0;
#X connect 7 0 5 1;
#X connect 7 1 4 0;
#X connect 9 0 14 0;
#X connect 9 1 13 0;
#X connect 10 0 13 0;
#X connect 11 0 9 0;
#X connect 12 0 8 1;
#X connect 13 0 12 0;
#X connect 14 0 12 0;
#X connect 15 0 16 0;
#X connect 15 1 11 0;
#X connect 16 0 5 0;
#X connect 16 1 1 0;
#X connect 17 0 20 0;
#X connect 18 0 3 0;
#X connect 19 0 18 1;
#X connect 20 0 19 0;
#X connect 20 1 21 1;
#X connect 21 0 22 0;
#X connect 22 0 18 1;
#X connect 23 0 21 0;
#X connect 23 1 18 0;
#X connect 25 0 7 0;
#X restore 116 495 pd orden1_calculation;
#X connect 0 0 7 0;
#X connect 0 1 16 1;
#X connect 0 1 31 0;
#X connect 0 1 33 0;
#X connect 2 0 35 0;
#X connect 3 0 6 0;
#X connect 3 1 5 0;
#X connect 3 1 43 1;
#X connect 4 0 3 0;
#X connect 5 0 12 1;
#X connect 6 0 9 0;
#X connect 7 0 4 0;
#X connect 8 0 13 0;
#X connect 9 0 8 0;
#X connect 9 0 44 0;
#X connect 9 0 43 0;
#X connect 10 0 11 0;
#X connect 11 0 14 0;
#X connect 12 0 10 0;
#X connect 13 0 12 0;
#X connect 13 1 11 1;
#X connect 14 0 15 0;
#X connect 15 0 26 0;
#X connect 15 1 25 1;
#X connect 16 0 0 0;
#X connect 17 0 18 0;
#X connect 18 0 16 0;
#X connect 18 1 0 0;
#X connect 19 0 17 0;
#X connect 19 1 28 0;
#X connect 21 0 25 0;
#X connect 23 0 35 0;
#X connect 26 0 21 0;
#X connect 28 0 27 0;
#X connect 31 0 34 0;
#X connect 34 0 32 0;
#X connect 35 0 19 0;
#X connect 35 0 29 0;
#X connect 35 1 1 0;
#X connect 36 0 19 0;
#X connect 37 0 36 0;
#X connect 43 0 45 0;
