#N canvas 484 52 784 646 10;
#X declare -path ../abs;
#X obj -360 -368 midiquantizer;
#X obj -359 -648 notein;
#X obj -359 -620 pack 0 0 0;
#X msg -229 -450 quantize \$1;
#X msg -209 -569 4;
#X text -201 -612 semibreve;
#X msg -229 -610 1;
#X msg -220 -589 2;
#X msg -332 -551 tempo 125;
#X msg -339 -573 tempo \$1;
#X floatatom -340 -601 5 0 0 0 - - -;
#X obj -327 -413 bng 15 250 50 0 empty empty empty 17 7 0 10 -262144
-1 -1;
#X obj 97 -247 print;
#X floatatom -189 -342 5 0 0 1 ms. - -;
#X symbolatom -354 -104 15 0 0 0 - - -;
#X floatatom -237 -133 5 0 0 0 - - -;
#X text -256 -104 chord name;
#X text -200 -134 inversion (0 = root \, 1 = first inversion \, etc)
;
#X obj -354 -157 midi_chord_estimator;
#X obj -170 -255 noteout;
#X obj -47 -357 make_chord;
#X obj -351 -250 prepend;
#X msg -200 -548 16;
#X msg -288 -189 60 64 \$1;
#X floatatom -259 -227 5 0 0 0 - - -;
#X obj 80 -422 chordifyer;
#X obj -135 -503 declare -path ../abs;
#X connect 0 0 19 0;
#X connect 0 0 21 0;
#X connect 0 1 21 1;
#X connect 0 2 13 0;
#X connect 1 0 2 0;
#X connect 1 1 2 1;
#X connect 1 2 2 2;
#X connect 2 0 0 0;
#X connect 3 0 0 0;
#X connect 4 0 3 0;
#X connect 6 0 3 0;
#X connect 7 0 3 0;
#X connect 8 0 0 0;
#X connect 9 0 0 0;
#X connect 10 0 9 0;
#X connect 11 0 0 0;
#X connect 18 0 14 0;
#X connect 18 1 15 0;
#X connect 21 0 12 0;
#X connect 21 0 20 0;
#X connect 22 0 3 0;
#X connect 23 0 18 0;
#X connect 24 0 23 0;
