#N canvas 619 46 806 944 10;
#X obj 22 700 list-apply mod 12;
#X obj 22 764 list2symbol;
#X msg 85 743 symbol;
#X obj 22 787 fromsymbol;
#X obj 85 722 loadbang;
#X obj 285 157 inlet;
#X obj 22 809 outlet;
#X text 22 832 angel.faraldo@upf.edu --- 2015;
#X text 12 128 This reduction allows for quick querying of chord-types
and their inversions.;
#X obj 22 653 t l f;
#X obj 22 679 list-math -;
#X text 12 68 For example \, three numbers will represent all "major"
chord inversions \, in root position (47 \, short for its intervalic
representation 0 4 7) \, in first inversion (38) and second inversion
(59).;
#X obj 285 204 sort;
#X text 12 8 This object receives a set of pitch integers in the form
of a list \, for example midi note numbers and outputs an intervalic
chordal scheme.;
#X text 52 236 order them in low to high form...;
#X obj 304 276 list-apply mod 12;
#X obj 320 311 PRINT;
#X obj 461 285 PRINT;
#X obj 301 881 list split;
#X text 374 881 bass note;
#X obj 323 410 listfind;
#X obj 554 851 list-compare;
#X obj 467 690 list-delete;
#X obj 323 364 list-unique;
#X obj 60 434 PRINT;
#X obj 304 339 t l l l;
#X obj 454 390 PRINT;
#X obj 350 454 length;
#X obj 350 476 > 1;
#X obj 323 432 t l l;
#X obj 317 498 spigot;
#X obj 452 658 list;
#X obj 285 228 t l l l;
#X obj 487 625 t b f;
#X obj 285 179 list-unique;
#X obj 570 645 print asdfasdfas;
#X obj 486 602 drip 0;
#X obj 323 387 drip 0;
#X obj 448 518 PRINT;
#X floatatom 379 776 5 0 0 0 - - -;
#X obj 519 775 PRINT;
#X connect 0 0 1 0;
#X connect 1 0 3 0;
#X connect 2 0 1 1;
#X connect 3 0 6 0;
#X connect 4 0 2 0;
#X connect 5 0 34 0;
#X connect 9 0 10 0;
#X connect 9 1 10 1;
#X connect 10 0 0 0;
#X connect 12 0 32 0;
#X connect 15 0 16 0;
#X connect 15 0 25 0;
#X connect 20 0 26 0;
#X connect 20 0 29 0;
#X connect 22 0 40 0;
#X connect 23 0 24 0;
#X connect 23 0 37 0;
#X connect 25 1 23 0;
#X connect 25 2 20 1;
#X connect 27 0 28 0;
#X connect 28 0 30 1;
#X connect 29 0 30 0;
#X connect 29 1 27 0;
#X connect 30 0 38 0;
#X connect 30 0 36 0;
#X connect 31 0 22 0;
#X connect 32 0 17 0;
#X connect 32 1 15 0;
#X connect 32 2 31 1;
#X connect 33 0 31 0;
#X connect 33 1 22 1;
#X connect 33 1 35 0;
#X connect 34 0 12 0;
#X connect 36 0 33 0;
#X connect 37 0 20 0;
