#N canvas 478 28 708 419 10;
#X declare -path ../absutils;
#X obj 313 14 inlet;
#X obj 131 83 textfile;
#X obj 131 173 list append;
#X obj 220 174 t l;
#X obj 63 200 list-find;
#X obj 110 319 packel;
#X obj 110 277 t b f;
#N canvas 672 172 450 300 read_dictionary 0;
#X msg 49 142 rewind;
#X obj 9 186 until;
#X obj 32 78 t b b b b;
#X obj 83 99 s \$0-clear;
#X obj 32 56 loadbang;
#X obj 32 14 inlet;
#X obj 36 164 r \$0-end_of_textfile;
#X obj 49 212 outlet;
#X obj 42 35 r \$0-reload;
#X msg 66 120 read ./chord_dictionary.txt cr;
#X connect 0 0 7 0;
#X connect 1 0 7 0;
#X connect 2 0 1 0;
#X connect 2 1 0 0;
#X connect 2 2 9 0;
#X connect 2 3 3 0;
#X connect 4 0 2 0;
#X connect 5 0 4 0;
#X connect 6 0 1 1;
#X connect 8 0 4 0;
#X connect 9 0 7 0;
#X restore 131 34 pd read_dictionary;
#X msg 131 10 bang;
#X obj 176 104 s \$0-end_of_textfile;
#X obj 194 150 r \$0-clear;
#X obj 110 298 list;
#X obj 63 222 + 2;
#X obj 11 152 inlet;
#X obj 156 225 sel 0;
#X obj 11 174 t f f;
#X obj 11 276 spigot 0;
#X obj 94 234 == 0;
#X text 353 7 this inlet receives lists with chord names followed by
their intervalic structure in root position.;
#X obj 110 346 outlet;
#X obj 156 320 symbol undefined;
#N canvas 457 52 699 421 write_to_dictionary 0;
#X msg 292 53 clear;
#X obj 292 354 outlet;
#X obj 30 15 inlet;
#X obj 61 253 prepend add;
#N canvas 604 166 301 384 all_chord_inversions 0;
#X obj 37 157 t l f;
#X obj 37 180 list-math -;
#X obj 37 201 list-apply mod 12;
#X obj 37 73 t l l;
#X obj 37 95 length;
#X obj 37 115 until;
#X obj 3 52 list split 1;
#X obj 37 262 list2symbol;
#X msg 100 242 symbol;
#X obj 100 222 loadbang;
#X obj 37 282 fromsymbol;
#X obj 37 302 change;
#X obj 160 222 list split 1;
#X obj 73 28 t a a;
#X obj 37 324 list append;
#X obj 73 6 inlet;
#X obj 37 345 outlet;
#X obj 37 136 listrotate;
#X connect 0 0 1 0;
#X connect 0 1 1 1;
#X connect 1 0 2 0;
#X connect 2 0 7 0;
#X connect 3 0 4 0;
#X connect 3 1 17 1;
#X connect 4 0 5 0;
#X connect 5 0 17 0;
#X connect 6 1 3 0;
#X connect 7 0 10 0;
#X connect 8 0 7 1;
#X connect 9 0 8 0;
#X connect 10 0 11 0;
#X connect 11 0 14 0;
#X connect 12 0 14 1;
#X connect 13 0 6 0;
#X connect 13 1 12 0;
#X connect 14 0 16 0;
#X connect 15 0 13 0;
#X connect 17 0 0 0;
#X restore 61 231 pd all_chord_inversions;
#X obj 61 274 s \$0-file_io;
#X obj 196 112 list;
#X obj 196 157 prepend add;
#X obj 217 86 r \$0-chords;
#X obj 88 147 list-find;
#X obj 88 110 list split 1;
#X obj 61 68 t a a;
#X obj 61 206 spigot;
#X obj 139 171 == 0;
#X msg 45 299 write ./chord_dictionary.txt cr;
#X obj 196 135 repack 2;
#X obj 313 236 sel 0;
#X obj 313 295 print WARNING!;
#X msg 313 258 Input chord type already in dictionary. New chord NOT
added. \, Please check the file and correct this manually.;
#X obj 30 36 t b b a b b;
#X obj 30 358 s \$0-reload;
#X connect 0 0 1 0;
#X connect 2 0 19 0;
#X connect 3 0 5 0;
#X connect 4 0 3 0;
#X connect 6 0 9 1;
#X connect 6 0 15 0;
#X connect 7 0 1 0;
#X connect 8 0 6 1;
#X connect 9 1 13 0;
#X connect 10 0 9 0;
#X connect 11 0 12 0;
#X connect 11 1 10 0;
#X connect 12 0 4 0;
#X connect 13 0 12 1;
#X connect 13 0 16 0;
#X connect 14 0 1 0;
#X connect 15 0 7 0;
#X connect 16 0 18 0;
#X connect 18 0 17 0;
#X connect 19 0 20 0;
#X connect 19 1 14 0;
#X connect 19 2 11 0;
#X connect 19 3 6 0;
#X connect 19 4 0 0;
#X restore 313 41 pd write_to_dictionary;
#X obj 138 57 r \$0-file_io;
#X obj 313 64 s \$0-file_io;
#X msg 11 298 \$1 undefined;
#X obj 143 199 s \$0-chords;
#X obj 164 295 print WARNING;
#X obj 178 130 print dictionary;
#X msg 164 250 Unrecognized chord. \, Added to dictionary with "undefined"
name. \, Please revise the text file and update the chord types via
the right inlet.;
#N canvas 457 52 699 421 write_to_dictionary 0;
#X msg 292 53 clear;
#X obj 292 284 outlet;
#X obj 30 15 inlet;
#X obj 61 183 prepend add;
#X obj 61 204 s \$0-file_io;
#X obj 196 112 list;
#X obj 196 157 prepend add;
#X obj 217 86 r \$0-chords;
#X msg 45 229 write ./chord_dictionary.txt cr;
#X obj 196 135 repack 2;
#X obj 30 36 t b b a b b;
#X obj 30 288 s \$0-reload;
#X connect 0 0 1 0;
#X connect 2 0 10 0;
#X connect 3 0 4 0;
#X connect 5 0 9 0;
#X connect 6 0 1 0;
#X connect 7 0 5 1;
#X connect 8 0 1 0;
#X connect 9 0 6 0;
#X connect 10 0 11 0;
#X connect 10 1 8 0;
#X connect 10 2 3 0;
#X connect 10 3 5 0;
#X connect 10 4 0 0;
#X restore 11 373 pd write_to_dictionary;
#X obj 11 396 s \$0-file_io;
#X obj 313 88 path ../absutils;
#X connect 0 0 21 0;
#X connect 1 0 2 0;
#X connect 1 1 9 0;
#X connect 2 0 3 0;
#X connect 2 0 4 1;
#X connect 2 0 11 1;
#X connect 2 0 25 0;
#X connect 3 0 2 1;
#X connect 4 0 12 0;
#X connect 4 1 14 0;
#X connect 4 1 17 0;
#X connect 5 0 19 0;
#X connect 6 0 11 0;
#X connect 6 1 5 1;
#X connect 7 0 1 0;
#X connect 8 0 7 0;
#X connect 10 0 2 1;
#X connect 11 0 5 0;
#X connect 12 0 6 0;
#X connect 13 0 15 0;
#X connect 14 0 28 0;
#X connect 14 0 20 0;
#X connect 15 0 16 0;
#X connect 15 1 4 0;
#X connect 16 0 24 0;
#X connect 17 0 16 1;
#X connect 20 0 19 0;
#X connect 21 0 23 0;
#X connect 22 0 1 0;
#X connect 24 0 29 0;
#X connect 28 0 26 0;
#X connect 29 0 30 0;
