#N canvas 834 125 770 897 10;
#X text 86 208 convert pdf to jpg (ImageMagick 6.8.9-9);
#X obj 2 257 shell;
#X obj 19 95 textfile;
#X text 76 160 compile score with lilypond;
#X text 63 117 insert the music notation into the lilypond code;
#X obj 2 30 t b b a b;
#X obj 53 51 s reset-score;
#X obj 33 407 gemhead;
#X obj 33 543 pix_texture;
#X obj 33 479 pix_image;
#X obj 33 499 color 0 0.5 0;
#X msg 69 521 env 2 \, quality 0;
#X obj 42 455 t a b;
#X msg 193 517 0 \, destroy;
#X obj 33 584 rectangle 11 3;
#X obj 33 563 translate -1.2 -0.3 1 0;
#X msg 186 495 reset \, dimen 500 200 \, title harmonic-layer-filler
\, create \, 1;
#X obj 42 302 f 0;
#X obj 72 302 + 1;
#X obj 29 278 t b;
#X obj 57 259 r reset-score;
#X msg 57 281 0;
#X obj 10 162 r compile;
#X obj 22 209 r convert;
#X obj 76 364 s compile;
#X obj 59 386 s convert;
#X obj 42 343 sel 2 1 0;
#X obj 186 472 once;
#X obj 2 117 delay 100;
#X obj 42 323 pipe 50;
#X obj 186 540 gemwin 1;
#X msg 19 72 write /home/angel/.lily_music.txt cr;
#X msg 2 140 python .lilypondize.py;
#X msg 10 184 lilypond .lily_code.ly;
#X msg 22 231 convert -density 600 .lily_code.pdf .lily_code.jpg;
#X msg 42 432 open /home/angel/.lily_code.jpg;
#X msg 49 762 font ./WorkSans-Regular.ttf \, alias 1;
#X obj 33 833 text2d C:maj;
#X obj 109 740 text2d A:min;
#X obj 109 648 separator;
#X obj 49 714 loadbang;
#X obj 118 694 r chord2;
#X obj 118 717 tosymbol;
#X obj 494 266 s chord1;
#X obj 563 353 s chord2;
#X obj 58 810 tosymbol;
#X obj 58 786 r chord1;
#X obj 589 184 loadbang;
#X msg 494 238 C:maj;
#X obj 33 605 translateXYZ -6 2 0;
#X obj 109 671 translateXYZ 8 0 0;
#X msg 2 7 set c2 c c4 c c c;
#X msg 568 325 Am7;
#X connect 1 1 19 0;
#X connect 5 0 28 0;
#X connect 5 1 31 0;
#X connect 5 2 2 0;
#X connect 5 3 6 0;
#X connect 7 0 9 0;
#X connect 8 0 15 0;
#X connect 9 0 10 0;
#X connect 10 0 8 0;
#X connect 11 0 8 0;
#X connect 12 0 9 0;
#X connect 12 1 11 0;
#X connect 12 1 27 0;
#X connect 13 0 30 0;
#X connect 14 0 49 0;
#X connect 15 0 14 0;
#X connect 16 0 30 0;
#X connect 17 0 18 0;
#X connect 17 0 29 0;
#X connect 18 0 17 1;
#X connect 19 0 17 0;
#X connect 20 0 21 0;
#X connect 21 0 17 1;
#X connect 22 0 33 0;
#X connect 23 0 34 0;
#X connect 26 0 35 0;
#X connect 26 1 25 0;
#X connect 26 2 24 0;
#X connect 27 0 16 0;
#X connect 28 0 32 0;
#X connect 29 0 26 0;
#X connect 31 0 2 0;
#X connect 32 0 1 0;
#X connect 33 0 1 0;
#X connect 34 0 1 0;
#X connect 35 0 12 0;
#X connect 36 0 37 0;
#X connect 36 0 38 0;
#X connect 39 0 50 0;
#X connect 40 0 36 0;
#X connect 41 0 42 0;
#X connect 42 0 38 0;
#X connect 45 0 37 0;
#X connect 46 0 45 0;
#X connect 47 0 48 0;
#X connect 47 0 52 0;
#X connect 48 0 43 0;
#X connect 49 0 37 0;
#X connect 49 0 39 0;
#X connect 50 0 38 0;
#X connect 51 0 5 0;
#X connect 52 0 44 0;
