#N canvas 217 29 479 262 10;
#X msg 7 20 bang;
#X msg 16 42 refresh;
#X text 68 41 "refresh" to get list of files and init;
#X text 50 18 "bang" to retrieve filenames individually;
#X floatatom 88 147 5 0 0 0 - - -;
#X text 128 149 files with matching extension in selected folder;
#X symbolatom 7 172 70 0 0 0 - - -;
#X text 435 172 name;
#X text 36 76 arg1: folder to look for files;
#X text 36 96 arg2: file extension;
#X obj 67 226 folder_list;
#X text 2 225 see also:;
#X text 279 238 angel.faraldo@upf.edu --- 2015;
#X obj 7 123 a.listdir . pd;
#X connect 0 0 13 0;
#X connect 1 0 13 0;
#X connect 13 0 6 0;
#X connect 13 1 4 0;
