#N canvas 831 101 611 827 10;
#X obj 15 452 t l b;
#X obj 89 520 f 6;
#X obj 121 520 - 1;
#X obj 44 562 pack f f;
#X msg 44 716 \$2 \$1;
#X obj 104 499 f;
#X obj 89 540 abs;
#X obj 15 176 f 0;
#X obj 46 176 + 1;
#X obj 15 64 tgl 15 0 empty empty empty 17 7 0 10 -262144 -1 -1 0 1
;
#X obj 15 197 mod 8;
#X obj 343 173 s strum_speed;
#X obj 15 220 t f f;
#X obj 57 254 sel 0;
#X obj 15 283 + 1;
#X obj 15 334 list 0 48 52 55 60 64;
#X obj 221 335 l2s;
#X symbolatom 221 359 20 0 0 0 - - -;
#X floatatom 224 275 5 0 0 0 - - -;
#X obj 40 425 list-rev;
#X obj 15 380 list prepend;
#X obj 84 359 == 6;
#X obj 15 402 route 1 0;
#X obj 44 587 relay 0;
#X obj 15 503 t f b;
#X msg 42 152 0;
#X obj 15 479 drip 0;
#X obj 110 666 fifop;
#X obj 83 636 once;
#X obj 83 610 t b a;
#X obj 110 688 t a b;
#X obj 170 689 r strum_speed;
#X obj 42 132 sel 0;
#X obj 15 84 t f f;
#X floatatom 66 20 5 0 0 0 - - -;
#X obj 66 64 /;
#X msg 66 41 60000 \$1;
#X obj 66 87 * 0.5;
#X obj 15 109 metro 240;
#X obj 82 110 s quaver;
#X obj 374 64 / 6;
#X obj 374 39 r quaver;
#X obj 343 137 clip 0 40;
#X floatatom 343 8 5 0 0 0 - - -;
#X obj 367 85 t b f;
#X obj 343 115 f;
#X obj 137 710 del 15;
#X obj 15 307 strumming d r d u r u d u;
#N canvas 318 408 609 442 strings_out 0;
#X msg 65 335 \$1 0;
#X obj 26 39 inlet;
#X obj 26 61 route 6 5 4 3 2 1;
#X obj 26 253 t f l b;
#X obj 65 312 f 0;
#X msg 145 335 \$1 0;
#X obj 106 253 t f l b;
#X obj 145 312 f 0;
#X obj 45 361 noteout 6;
#X msg 225 335 \$1 0;
#X obj 186 253 t f l b;
#X obj 225 312 f 0;
#X msg 305 335 \$1 0;
#X obj 266 253 t f l b;
#X obj 305 312 f 0;
#X msg 385 335 \$1 0;
#X obj 346 253 t f l b;
#X obj 385 312 f 0;
#X msg 465 335 \$1 0;
#X obj 426 253 t f l b;
#X obj 465 312 f 0;
#X obj 125 361 noteout 5;
#X obj 205 361 noteout 4;
#X obj 285 361 noteout 3;
#X obj 365 361 noteout 2;
#X obj 445 361 noteout 1;
#X obj 26 227 pack 0 120;
#X obj 482 34 inlet;
#X obj 106 227 pack 0 120;
#X obj 186 227 pack 0 120;
#X obj 266 227 pack 0 120;
#X obj 346 226 pack 0 120;
#X obj 426 227 pack 0 120;
#X connect 0 0 8 0;
#X connect 1 0 2 0;
#X connect 2 0 26 0;
#X connect 2 1 28 0;
#X connect 2 2 29 0;
#X connect 2 3 30 0;
#X connect 2 4 31 0;
#X connect 2 5 32 0;
#X connect 3 0 4 1;
#X connect 3 1 8 0;
#X connect 3 2 4 0;
#X connect 4 0 0 0;
#X connect 5 0 21 0;
#X connect 6 0 7 1;
#X connect 6 1 21 0;
#X connect 6 2 7 0;
#X connect 7 0 5 0;
#X connect 9 0 22 0;
#X connect 10 0 11 1;
#X connect 10 1 22 0;
#X connect 10 2 11 0;
#X connect 11 0 9 0;
#X connect 12 0 23 0;
#X connect 13 0 14 1;
#X connect 13 1 23 0;
#X connect 13 2 14 0;
#X connect 14 0 12 0;
#X connect 15 0 24 0;
#X connect 16 0 17 1;
#X connect 16 1 24 0;
#X connect 16 2 17 0;
#X connect 17 0 15 0;
#X connect 18 0 25 0;
#X connect 19 0 20 1;
#X connect 19 1 25 0;
#X connect 19 2 20 0;
#X connect 20 0 18 0;
#X connect 26 0 3 0;
#X connect 27 0 26 1;
#X connect 27 0 28 1;
#X connect 27 0 29 1;
#X connect 27 0 30 1;
#X connect 27 0 31 1;
#X connect 27 0 32 1;
#X connect 28 0 6 0;
#X connect 29 0 10 0;
#X connect 30 0 13 0;
#X connect 31 0 16 0;
#X connect 32 0 19 0;
#X restore 75 745 pd strings_out;
#N canvas 437 203 1345 639 guitar_chords 0;
#X obj 17 74 div 12;
#X obj 69 74 mod 12;
#X obj 17 47 t f f;
#X obj 48 101 pack;
#X obj 48 124 route 0 1 2 3 4 5;
#X obj 81 210 s aug;
#X obj 48 250 s maj;
#X obj 64 230 s min;
#X obj 97 190 s dim;
#X obj 114 170 s sus4;
#X obj 130 148 s 7th;
#X obj 191 17 r maj;
#X obj 191 40 select 0 1 2 3 4 5 6 7 8 9 10 11;
#X obj 69 316 outlet;
#X obj 66 294 r chord;
#X obj 16 22 inlet;
#X msg 364 65 \; chord 0 47 54 59 63 66;
#X msg 191 432 \; chord 0 48 52 55 60 64;
#X msg 206 399 \; chord 0 49 53 56 61 65;
#X msg 222 366 \; chord 0 0 50 57 62 66;
#X msg 238 332 \; chord 0 0 51 58 63 67;
#X msg 254 299 \; chord 40 47 52 56 59 64;
#X msg 269 265 \; chord 41 48 53 57 60 65;
#X msg 285 232 \; chord 42 49 54 58 61 66;
#X msg 301 199 \; chord 43 47 50 55 59 67;
#X msg 332 132 \; chord 0 45 52 57 61 64;
#X msg 348 98 \; chord 0 46 53 58 62 65;
#X obj 541 40 select 0 1 2 3 4 5 6 7 8 9 10 11;
#X obj 541 17 r min;
#X msg 714 65 \; chord 0 47 54 59 62 66;
#X msg 698 98 \; chord 0 46 53 58 61 65;
#X msg 682 132 \; chord 0 45 52 57 60 64;
#X msg 541 432 \; chord 0 48 55 60 63 67;
#X msg 572 366 \; chord 0 0 50 57 62 65;
#X msg 588 332 \; chord 0 0 51 58 63 66;
#X msg 556 399 \; chord 0 49 56 61 64 68;
#X msg 604 299 \; chord 40 47 52 55 59 64;
#X msg 619 265 \; chord 41 48 53 56 60 65;
#X msg 635 232 \; chord 42 49 54 57 61 66;
#X msg 651 198 \; chord 43 50 55 58 62 67;
#X msg 667 166 \; chord 44 51 56 59 63 68;
#X obj 902 37 select 0 1 2 3 4 5 6 7 8 9 10 11;
#X obj 902 14 r 7th;
#X msg 902 429 \; chord 0 48 52 58 60 64;
#X msg 917 396 \; chord 0 49 56 59 65 68;
#X msg 933 363 \; chord 0 0 50 57 60 66;
#X msg 949 329 \; chord 0 0 51 58 61 67;
#X msg 965 296 \; chord 40 47 50 56 59 64;
#X msg 980 262 \; chord 41 48 51 57 60 65;
#X msg 996 229 \; chord 42 49 52 58 61 66;
#X msg 1012 196 \; chord 43 47 50 55 59 65;
#X msg 317 164 \; chord 44 51 56 60 63 68;
#X msg 1028 163 \; chord 44 51 54 60 63 68;
#X msg 1043 129 \; chord 0 45 52 55 61 64;
#X msg 1059 95 \; chord 0 46 53 56 62 65;
#X msg 1075 62 \; chord 0 47 54 57 63 66;
#X connect 0 0 3 0;
#X connect 1 0 3 1;
#X connect 2 0 0 0;
#X connect 2 1 1 0;
#X connect 3 0 4 0;
#X connect 4 0 6 0;
#X connect 4 1 7 0;
#X connect 4 2 5 0;
#X connect 4 3 8 0;
#X connect 4 4 9 0;
#X connect 4 5 10 0;
#X connect 11 0 12 0;
#X connect 12 0 17 0;
#X connect 12 1 18 0;
#X connect 12 2 19 0;
#X connect 12 3 20 0;
#X connect 12 4 21 0;
#X connect 12 5 22 0;
#X connect 12 6 23 0;
#X connect 12 7 24 0;
#X connect 12 8 51 0;
#X connect 12 9 25 0;
#X connect 12 10 26 0;
#X connect 12 11 16 0;
#X connect 14 0 13 0;
#X connect 15 0 2 0;
#X connect 27 0 32 0;
#X connect 27 1 35 0;
#X connect 27 2 33 0;
#X connect 27 3 34 0;
#X connect 27 4 36 0;
#X connect 27 5 37 0;
#X connect 27 6 38 0;
#X connect 27 7 39 0;
#X connect 27 8 40 0;
#X connect 27 9 31 0;
#X connect 27 10 30 0;
#X connect 27 11 29 0;
#X connect 28 0 27 0;
#X connect 41 0 43 0;
#X connect 41 1 44 0;
#X connect 41 2 45 0;
#X connect 41 3 46 0;
#X connect 41 4 47 0;
#X connect 41 5 48 0;
#X connect 41 6 49 0;
#X connect 41 7 50 0;
#X connect 41 8 52 0;
#X connect 41 9 53 0;
#X connect 41 10 54 0;
#X connect 41 11 55 0;
#X connect 42 0 41 0;
#X restore 221 308 pd guitar_chords;
#X connect 0 0 26 0;
#X connect 0 1 5 0;
#X connect 1 0 2 0;
#X connect 1 0 6 0;
#X connect 2 0 1 1;
#X connect 3 0 23 0;
#X connect 4 0 48 0;
#X connect 5 0 1 1;
#X connect 6 0 3 1;
#X connect 7 0 8 0;
#X connect 7 0 10 0;
#X connect 8 0 7 1;
#X connect 9 0 33 0;
#X connect 10 0 12 0;
#X connect 12 0 14 0;
#X connect 12 1 13 0;
#X connect 14 0 47 0;
#X connect 15 0 20 0;
#X connect 16 0 17 0;
#X connect 18 0 49 0;
#X connect 19 0 0 0;
#X connect 20 0 22 0;
#X connect 21 0 20 1;
#X connect 22 0 0 0;
#X connect 22 1 19 0;
#X connect 23 0 4 0;
#X connect 23 1 29 0;
#X connect 24 0 3 0;
#X connect 24 1 1 0;
#X connect 25 0 7 1;
#X connect 26 0 24 0;
#X connect 27 0 30 0;
#X connect 27 1 28 1;
#X connect 28 0 27 0;
#X connect 29 0 28 0;
#X connect 29 1 27 0;
#X connect 30 0 4 0;
#X connect 30 1 46 0;
#X connect 31 0 46 1;
#X connect 32 0 25 0;
#X connect 33 0 38 0;
#X connect 33 1 32 0;
#X connect 34 0 36 0;
#X connect 35 0 37 0;
#X connect 36 0 35 0;
#X connect 37 0 38 1;
#X connect 37 0 39 0;
#X connect 38 0 7 0;
#X connect 40 0 44 0;
#X connect 41 0 40 0;
#X connect 42 0 11 0;
#X connect 43 0 45 0;
#X connect 44 0 45 0;
#X connect 44 1 42 2;
#X connect 45 0 42 0;
#X connect 46 0 27 0;
#X connect 47 0 15 0;
#X connect 47 1 5 1;
#X connect 47 1 21 0;
#X connect 47 2 48 1;
#X connect 49 0 16 0;
#X connect 49 0 15 1;
