#N canvas 423 60 959 533 10;
#X obj 4 53 sel 1 2 3 4 5 6 7 8;
#X obj 4 30 inlet;
#X obj 4 168 symbol \$1;
#X text 607 111 d - down;
#X text 607 151 r - let ring;
#X text 607 131 u - up;
#X obj 74 168 symbol \$2;
#X obj 144 168 symbol \$3;
#X obj 212 168 symbol \$4;
#X obj 285 168 symbol \$5;
#X obj 354 168 symbol \$6;
#X obj 424 168 symbol \$7;
#X obj 494 168 symbol \$8;
#X text 607 171 dx - down mute;
#X text 607 191 ux - up mute;
#X text 108 259 with "r" we do nothing and let it ring...;
#X obj 4 260 sel d u dx ux r;
#X msg 204 416 6;
#X msg 240 416 -1;
#X obj 384 413 f 120;
#X obj 384 35 inlet;
#X msg 447 415 0;
#X obj 4 316 t b b b;
#X obj 54 316 t b b b;
#X obj 104 316 t b b b;
#X obj 154 316 t b b b;
#X obj 4 448 outlet;
#X obj 204 448 outlet;
#X text 50 447 bang to get chord;
#X text 251 446 up or down;
#X obj 384 448 outlet;
#X text 431 446 velocity;
#X obj 544 114 r str8;
#X obj 55 115 r str1;
#X obj 125 115 r str2;
#X obj 195 115 r str3;
#X obj 475 115 r str7;
#X obj 405 115 r str6;
#X obj 336 115 r str5;
#X obj 263 115 r str4;
#X connect 0 0 2 0;
#X connect 0 1 6 0;
#X connect 0 2 7 0;
#X connect 0 3 8 0;
#X connect 0 4 9 0;
#X connect 0 5 10 0;
#X connect 0 6 11 0;
#X connect 0 7 12 0;
#X connect 1 0 0 0;
#X connect 2 0 16 0;
#X connect 6 0 16 0;
#X connect 7 0 16 0;
#X connect 8 0 16 0;
#X connect 9 0 16 0;
#X connect 10 0 16 0;
#X connect 11 0 16 0;
#X connect 12 0 16 0;
#X connect 16 0 22 0;
#X connect 16 1 23 0;
#X connect 16 2 24 0;
#X connect 16 3 25 0;
#X connect 17 0 27 0;
#X connect 18 0 27 0;
#X connect 19 0 30 0;
#X connect 20 0 19 0;
#X connect 21 0 30 0;
#X connect 22 0 26 0;
#X connect 22 1 17 0;
#X connect 22 2 19 0;
#X connect 23 0 26 0;
#X connect 23 1 18 0;
#X connect 23 2 19 0;
#X connect 24 0 26 0;
#X connect 24 1 17 0;
#X connect 24 2 21 0;
#X connect 25 0 26 0;
#X connect 25 1 18 0;
#X connect 25 2 21 0;
#X connect 32 0 12 1;
#X connect 33 0 2 1;
#X connect 34 0 6 1;
#X connect 35 0 7 1;
#X connect 36 0 11 1;
#X connect 37 0 10 1;
#X connect 38 0 9 1;
#X connect 39 0 8 1;
