#N canvas 769 314 543 380 10;
#X obj 123 80 mrpeach/midifile;
#X msg 123 51 read \$1;
#X obj 123 107 print;
#X obj 78 75 print;
#X msg 123 22 MIDI_01_E;
#X connect 0 0 2 0;
#X connect 1 0 0 0;
#X connect 4 0 1 0;
#X connect 4 0 3 0;
