#N canvas 406 432 645 468 10;
#X obj 97 128 * 0.5;
#X obj 97 106 clip 1 32;
#X obj -45 128 * 1.2;
#X obj 97 150 * 1.2;
#X obj -45 152 - 19.5;
#X obj -88 239 translateXYZ -19.5 0 0;
#X obj -88 357 alpha 0;
#X obj 97 38 loadbang;
#X msg 118 355 draw line;
#X obj 118 334 loadbang;
#X floatatom -45 53 5 0 0 0 - - -;
#X obj 60 334 alpha 0;
#X obj 303 319 loadbang;
#X obj 234 398 text2d C;
#X obj 242 361 symbol \$3;
#X msg 303 361 alias 1 \, justify left top;
#X floatatom 106 59 5 0 0 0 - - -;
#X text 70 80 dur;
#X text -1 80 pos;
#X obj 273 254 -;
#X obj 273 275 * -1;
#X msg 273 232 \$1 0.25;
#X obj -88 276 translateXYZ 0.75 -2 0;
#X obj 234 158 gemhead 53;
#X obj -88 333 color 0.4 0.4 0.4 0.92;
#X obj 60 312 color 0.6 0.6 0.6 1;
#X obj -88 380 rectangle 1 1;
#X obj 60 385 rectangle 1 1;
#X obj 234 297 translateXYZ 0 0.7 0;
#X obj 223 320 color 1 1 1;
#X msg 470 361 10;
#X obj -38 19 unpack s f f;
#X obj -38 -5 r slave-chord-fill-\$1;
#X obj -36 82 f 100;
#X obj 97 82 f 1;
#X connect 0 0 3 0;
#X connect 1 0 0 0;
#X connect 2 0 4 0;
#X connect 3 0 21 0;
#X connect 3 0 22 1;
#X connect 3 0 26 1;
#X connect 3 0 27 1;
#X connect 4 0 5 1;
#X connect 5 0 22 0;
#X connect 6 0 26 0;
#X connect 7 0 33 0;
#X connect 7 0 34 0;
#X connect 8 0 27 0;
#X connect 9 0 8 0;
#X connect 10 0 2 0;
#X connect 11 0 27 0;
#X connect 12 0 15 0;
#X connect 12 0 30 0;
#X connect 12 0 14 0;
#X connect 14 0 13 0;
#X connect 15 0 13 0;
#X connect 16 0 34 0;
#X connect 19 0 20 0;
#X connect 20 0 28 1;
#X connect 21 0 19 0;
#X connect 22 0 24 0;
#X connect 22 0 25 0;
#X connect 23 0 5 0;
#X connect 23 0 28 0;
#X connect 24 0 6 0;
#X connect 25 0 11 0;
#X connect 28 0 29 0;
#X connect 29 0 13 0;
#X connect 30 0 13 1;
#X connect 31 0 14 0;
#X connect 31 1 33 0;
#X connect 31 2 34 0;
#X connect 32 0 31 0;
#X connect 33 0 2 0;
#X connect 34 0 1 0;
