#N canvas 161 23 1032 672 10;
#X declare -lib mrpeach;
#X obj 309 332 /;
#X obj 309 355 / 1000;
#X obj 309 466 s \$0-tempo;
#X obj -297 178 r \$0-tempo;
#X obj -82 237 midifile;
#X obj 422 612 s \$0-ticks;
#X obj 196 304 route bang microsec_per_quarternote ticks_per_quarternote
;
#X obj 380 508 /;
#X obj 380 462 *;
#X msg 380 485 60000 \$1;
#N canvas 555 119 640 422 note_parsing 0;
#X obj -12 51 unpack 0 0 0;
#X obj -89 79 moses 144;
#X obj -38 98 moses 160;
#X obj -38 119 - 143;
#X obj -89 99 - 127;
#X obj 21 252 pack 0 0 0;
#X obj -12 9 inlet;
#X obj 21 295 outlet;
#X msg 21 274 \$2 \$3 \$1;
#X obj -1 29 route 153 137;
#X text 86 29 in case you want to get rid of drum channel insert this.
;
#X obj -89 140 t f b;
#X obj -38 140 t f b;
#X msg -11 166 1;
#X msg -62 165 0;
#X obj 78 228 *;
#X connect 0 0 1 0;
#X connect 0 1 5 1;
#X connect 0 2 15 1;
#X connect 1 0 4 0;
#X connect 1 1 2 0;
#X connect 2 0 3 0;
#X connect 3 0 12 0;
#X connect 4 0 11 0;
#X connect 5 0 8 0;
#X connect 6 0 0 0;
#X connect 8 0 7 0;
#X connect 11 0 5 0;
#X connect 11 1 14 0;
#X connect 12 0 5 0;
#X connect 12 1 13 0;
#X connect 13 0 15 0;
#X connect 14 0 15 0;
#X connect 15 0 5 2;
#X restore -218 528 pd note_parsing;
#X obj -235 17 import mrpeach;
#X obj -217 86 r \$0-end;
#X obj 196 326 t b b;
#X obj 168 364 f;
#X obj -235 41 inlet;
#X obj -218 551 outlet;
#X obj -336 198 metro 1;
#X obj -217 130 spigot 0;
#X obj 214 639 outlet;
#X msg -114 87 123;
#X obj -114 109 ctlout 123;
#X obj -204 352 until;
#X obj -218 506 spigot 0;
#X obj -288 307 t b b;
#X msg -268 418 0;
#X obj -248 310 t b b;
#X msg -238 418 1;
#X obj -154 155 until;
#X obj -127 133 r \$0-end;
#X obj 214 593 /;
#X obj 229 569 r \$0-ticks;
#X obj 214 536 t f f;
#X obj 214 615 pack 0 0 0;
#X obj -73 86 tosymbol;
#X obj -109 155 t b s;
#X obj -82 183 symbol;
#X obj -154 86 t b b;
#X obj -258 120 sel 1;
#X obj 195 411 mod;
#X obj 218 388 r \$0-ticks;
#X obj -248 290 r \$0-real_end;
#X obj 196 365 s \$0-real_end;
#X obj 222 455 - 480;
#X obj 222 479 abs;
#X obj 176 502 +;
#X obj 156 554 s \$0-end;
#X obj 156 529 sel;
#X obj 156 325 t f f;
#X obj 195 432 sel 0;
#X msg 191 455 0;
#X obj 2 188 loadbang;
#X obj 168 388 t f f;
#X msg -82 206 read \$1;
#X msg 2 210 verbose 0;
#X obj 129 303 sel 0;
#X msg -217 151 1;
#X msg -258 141 1;
#X obj 491 588 / 4;
#X obj 491 612 s \$0-semiquaver;
#X obj 7 368 r \$0-semiquaver;
#X obj -8 392 mod;
#X obj -23 416 -;
#X obj -35 368 t f f;
#X obj -99 585 outlet;
#X obj -235 65 route play loop flush panic read quantize;
#X obj -60 346 route 0 1;
#X obj -60 321 list prepend 1;
#X obj -33 110 s \$0-quant;
#X obj -48 295 r \$0-quant;
#X text 108 45 solve error that pd freezes if we dont load audio!;
#X obj -99 563 prepend;
#X connect 0 0 1 0;
#X connect 1 0 2 0;
#X connect 1 0 8 0;
#X connect 3 0 17 1;
#X connect 4 0 23 0;
#X connect 4 1 55 0;
#X connect 4 1 67 0;
#X connect 4 2 6 0;
#X connect 6 0 13 0;
#X connect 6 1 0 0;
#X connect 6 2 0 1;
#X connect 6 2 5 0;
#X connect 6 2 8 1;
#X connect 6 2 58 0;
#X connect 7 0 33 2;
#X connect 8 0 9 0;
#X connect 9 0 7 0;
#X connect 10 0 16 0;
#X connect 10 0 71 0;
#X connect 12 0 18 0;
#X connect 13 0 42 0;
#X connect 13 1 14 0;
#X connect 14 0 52 0;
#X connect 15 0 65 0;
#X connect 17 0 4 0;
#X connect 18 0 56 0;
#X connect 20 0 21 0;
#X connect 22 0 4 0;
#X connect 23 0 10 0;
#X connect 24 0 22 0;
#X connect 24 1 25 0;
#X connect 25 0 23 1;
#X connect 26 0 27 0;
#X connect 26 1 22 1;
#X connect 27 0 23 1;
#X connect 28 0 4 0;
#X connect 29 0 28 1;
#X connect 30 0 33 0;
#X connect 31 0 30 1;
#X connect 32 0 30 0;
#X connect 32 1 33 1;
#X connect 33 0 19 0;
#X connect 34 0 35 0;
#X connect 35 0 24 0;
#X connect 35 1 36 0;
#X connect 36 0 53 0;
#X connect 37 0 28 0;
#X connect 37 1 36 0;
#X connect 38 0 57 0;
#X connect 39 0 49 0;
#X connect 40 0 43 1;
#X connect 40 0 39 1;
#X connect 41 0 26 0;
#X connect 43 0 44 0;
#X connect 44 0 45 1;
#X connect 45 0 32 0;
#X connect 45 0 47 1;
#X connect 47 0 46 0;
#X connect 48 0 47 0;
#X connect 48 1 14 1;
#X connect 49 0 50 0;
#X connect 49 1 43 0;
#X connect 50 0 45 1;
#X connect 51 0 54 0;
#X connect 52 0 45 0;
#X connect 52 1 39 0;
#X connect 53 0 4 0;
#X connect 54 0 4 0;
#X connect 55 1 48 0;
#X connect 56 0 4 0;
#X connect 57 0 4 0;
#X connect 58 0 59 0;
#X connect 60 0 61 1;
#X connect 61 0 62 1;
#X connect 62 0 71 1;
#X connect 63 0 62 0;
#X connect 63 1 61 0;
#X connect 65 0 38 0;
#X connect 65 0 17 0;
#X connect 65 1 18 1;
#X connect 65 2 37 0;
#X connect 65 3 20 0;
#X connect 65 4 34 0;
#X connect 65 5 68 0;
#X connect 66 0 71 1;
#X connect 66 1 63 0;
#X connect 67 0 66 0;
#X connect 69 0 67 1;
#X connect 71 0 64 0;
