#N canvas 72 43 220 224 10;
#X obj -32 41 route \$1;
#X obj -32 64 t f f;
#X obj -116 116 + 0.1;
#X obj -32 19 r fill-\$2;
#X obj -116 140 tabwrite table-\$1-\$2;
#X obj -116 162 table table-\$1-\$2 25;
#X obj -116 92 tabread table-\$1-\$2;
#X connect 0 0 1 0;
#X connect 1 0 6 0;
#X connect 1 1 4 1;
#X connect 2 0 4 0;
#X connect 3 0 0 0;
#X connect 6 0 2 0;
