#N canvas 411 23 431 352 10;
#X obj 22 7 inlet;
#X obj 226 277 outlet;
#X obj 226 232 > 0;
#X text 271 255 0 = major \, 1 = minor;
#X floatatom 234 254 5 0 0 0 - - -;
#X text 273 279 modality;
#X obj 84 180 - 1;
#X obj 24 133 sel -1;
#X obj 22 29 t s s;
#X obj 62 80 t f f;
#X obj 16 184 symbol;
#X obj 57 155 t b f;
#X obj -28 184 symbol;
#X obj 84 230 tosymbol;
#X obj -28 297 outlet;
#X text 20 297 pitch-class;
#X text -28 325 angel.faraldo@upf.edu \, 2015;
#N canvas 532 380 450 300 name2pc 0;
#X obj 15 15 inlet;
#X obj 345 201 outlet;
#X msg 15 108 0;
#X msg 45 108 1;
#X msg 75 108 2;
#X msg 105 108 3;
#X msg 135 108 4;
#X msg 165 108 5;
#X msg 195 108 6;
#X msg 225 108 7;
#X msg 255 108 8;
#X msg 285 108 9;
#X msg 315 108 10;
#X msg 345 108 11;
#X obj 15 38 sel B# C C# Db D D# Eb E Fb E# F F# Gb G G# Ab A A# Bb
B Cb;
#X connect 0 0 14 0;
#X connect 2 0 1 0;
#X connect 3 0 1 0;
#X connect 4 0 1 0;
#X connect 5 0 1 0;
#X connect 6 0 1 0;
#X connect 7 0 1 0;
#X connect 8 0 1 0;
#X connect 9 0 1 0;
#X connect 10 0 1 0;
#X connect 11 0 1 0;
#X connect 12 0 1 0;
#X connect 13 0 1 0;
#X connect 14 0 2 0;
#X connect 14 1 2 0;
#X connect 14 2 3 0;
#X connect 14 3 3 0;
#X connect 14 4 4 0;
#X connect 14 5 5 0;
#X connect 14 6 5 0;
#X connect 14 7 6 0;
#X connect 14 8 6 0;
#X connect 14 9 7 0;
#X connect 14 10 7 0;
#X connect 14 11 8 0;
#X connect 14 12 8 0;
#X connect 14 13 9 0;
#X connect 14 14 10 0;
#X connect 14 15 10 0;
#X connect 14 16 11 0;
#X connect 14 17 12 0;
#X connect 14 18 12 0;
#X connect 14 19 13 0;
#X connect 14 20 13 0;
#X restore -28 255 pd name2pc;
#X floatatom -16 277 5 0 0 0 - - -;
#X obj 62 56 jasch_lib/strchr m;
#X obj 84 208 jasch_lib/strcut 3;
#X connect 0 0 8 0;
#X connect 2 0 1 0;
#X connect 2 0 4 0;
#X connect 6 0 20 0;
#X connect 7 0 12 0;
#X connect 7 1 11 0;
#X connect 8 0 19 0;
#X connect 8 1 10 1;
#X connect 8 1 12 1;
#X connect 9 0 7 0;
#X connect 9 1 2 0;
#X connect 10 0 20 0;
#X connect 11 0 10 0;
#X connect 11 1 6 0;
#X connect 12 0 17 0;
#X connect 13 0 17 0;
#X connect 17 0 14 0;
#X connect 17 0 18 0;
#X connect 19 0 9 0;
#X connect 20 0 13 0;
