#N canvas 488 209 831 679 10;
#X declare -path ../handy-abs -path ../pitch-abs;
#X obj -211 202 mrpeach/midifile;
#X msg -211 147 read \$1;
#X obj -211 279 route 144 145 146 147 148 149 150 151 152 153 154 155
156 157 158 159;
#X obj -211 347 unpack 0 0;
#X obj -118 225 route bang;
#X obj -118 247 bng 15 250 50 0 empty empty empty 17 7 0 10 -262144
-1 -1;
#X text -95 246 end of file;
#X floatatom -116 17 5 0 0 0 - - -;
#X obj -335 -63 bng 15 250 50 0 empty empty empty 17 7 0 10 -262144
-1 -1;
#X msg -324 -39 refresh;
#X obj -335 169 list split 1;
#X obj -335 148 jasch_lib/strtok .;
#X obj -278 252 length;
#X obj -335 235 t l l;
#X obj -335 190 jasch_lib/strtok _;
#X obj -335 213 list;
#X obj -278 274 - 1;
#X obj -335 295 list split;
#X obj -307 317 key2pc;
#X text -265 -40 "refresh" to get list of files and init;
#X text -311 -64 "bang" to retrieve filenames individually;
#X text -76 16 number of midi files in folder;
#X obj -211 403 mod 12;
#X obj -201 178 until;
#X obj -211 377 -;
#X obj -297 341 t b f;
#X obj -335 18 t s s;
#N canvas 0 22 450 278 (subpatch) 0;
#X array major 12 float 1;
#A 0 1 0.0599251 0.280899 0.011236 0.2397 0.146067 0.0449438 0.172285
0.0149813 0.187266 0.0299626 0.374532;
#X coords 0 1 11 0 200 140 1 0 0;
#X restore 183 -38 graph;
#N canvas 0 22 450 278 (subpatch) 0;
#X array minor 12 float 1;
#A 0 1 0.00868806 0.191137 0.440495 0.0260642 0.238922 0.00868806 0.225889
0.251953 0.0260642 0.276283 0.0173761;
#X coords 0 1 11 0 200 140 1 0 0;
#X restore 183 132 graph;
#X obj -307 392 select 0 1;
#X msg -279 415 set minor;
#X msg -345 415 set major;
#X obj -211 425 t f f;
#X obj -260 453 tabread;
#X obj -265 499 tabwrite major;
#X msg 262 372 \; major normalize \; minor normalize;
#X obj -260 475 + 0.01;
#X msg 263 307 \; major const 0 \; minor const 0;
#X text 260 290 init tables;
#X text 260 354 normalize tables;
#X obj -131 61 f;
#X obj -131 83 until;
#X obj -131 41 bng 15 250 50 0 empty empty empty 17 7 0 10 -262144
-1 -1;
#X text -105 40 "bang" to retrieve ALL FILES!;
#X obj -335 -5 listdir ../files/midi_basslines/*.mid;
#X obj -339 -102 declare -path ../handy-abs -path ../pitch-abs;
#X connect 0 0 2 0;
#X connect 0 2 4 0;
#X connect 1 0 0 0;
#X connect 2 0 3 0;
#X connect 2 1 3 0;
#X connect 2 2 3 0;
#X connect 2 3 3 0;
#X connect 2 4 3 0;
#X connect 2 5 3 0;
#X connect 2 6 3 0;
#X connect 2 7 3 0;
#X connect 2 8 3 0;
#X connect 2 9 3 0;
#X connect 2 10 3 0;
#X connect 2 11 3 0;
#X connect 2 12 3 0;
#X connect 2 13 3 0;
#X connect 2 14 3 0;
#X connect 2 15 3 0;
#X connect 3 0 24 0;
#X connect 4 0 5 0;
#X connect 4 0 23 1;
#X connect 7 0 40 1;
#X connect 8 0 44 0;
#X connect 9 0 44 0;
#X connect 10 0 14 0;
#X connect 11 0 10 0;
#X connect 12 0 16 0;
#X connect 13 0 17 0;
#X connect 13 1 12 0;
#X connect 14 0 15 0;
#X connect 15 0 13 0;
#X connect 16 0 17 1;
#X connect 17 1 18 0;
#X connect 18 0 25 0;
#X connect 18 1 29 0;
#X connect 22 0 32 0;
#X connect 23 0 0 0;
#X connect 24 0 22 0;
#X connect 25 0 23 0;
#X connect 25 1 24 1;
#X connect 26 0 11 0;
#X connect 26 1 1 0;
#X connect 29 0 31 0;
#X connect 29 1 30 0;
#X connect 30 0 33 0;
#X connect 30 0 34 0;
#X connect 31 0 33 0;
#X connect 31 0 34 0;
#X connect 32 0 33 0;
#X connect 32 1 34 1;
#X connect 33 0 36 0;
#X connect 36 0 34 0;
#X connect 40 0 41 0;
#X connect 41 0 8 0;
#X connect 42 0 40 0;
#X connect 44 0 26 0;
#X connect 44 1 7 0;
