#N canvas 541 79 220 224 10;
#X obj -62 38 route \$1;
#X obj -62 9 r fill-\$2;
#X obj -62 64 t f f;
#X obj -116 140 tabwrite transition-\$1-\$2;
#X obj -116 92 tabread transition-\$1-\$2;
#X obj -116 116 + 0.1;
#X obj -117 162 table transition-\$1-\$2 25;
#X connect 0 0 2 0;
#X connect 1 0 0 0;
#X connect 2 0 4 0;
#X connect 2 1 3 1;
#X connect 4 0 5 0;
#X connect 5 0 3 0;
