#N canvas 444 214 763 348 10;
#X declare -lib jasch_lib;
#X declare -path ../handy-abs -path ../pitch-abs;
#X obj -481 -612 bng 30 250 50 0 save-tables empty empty 17 7 0 10
-262144 -1 -1;
#X obj -481 -683 bng 30 250 50 0 clear-tables empty empty 17 7 0 10
-262144 -1 -1;
#X text -440 -607 save tables (to avoid analysis time);
#X text -440 -678 clear tables (before new analysis);
#X obj -481 -648 bng 30 250 50 0 analyze_folder empty empty 17 7 0
10 -262144 -1 -1;
#X text -440 -643 analyze complete folder (it might take a while);
#X obj 185 -669 nbx 5 14 -1e+37 1e+37 0 0 strumming_speed set-strumming_speed
empty 0 -8 0 10 -262144 -1 -1 20 256;
#X text 84 -671 strumming speed;
#X obj 185 -648 nbx 5 14 -1e+37 1e+37 0 0 tempo set-tempo empty 0 -8
0 10 -262144 -1 -1 149 256;
#X text 144 -651 tempo;
#X obj 185 -628 tgl 30 0 play set-play empty 17 7 0 10 -262144 -1 -1
0 1;
#X obj -481 -503 bng 30 250 50 0 make_song set-make_song empty 17 7
0 10 -262144 -1 -1;
#X obj -443 -460 cnv 15 100 60 empty verse_canvas ||: C Amin C G F G F :||
20 12 0 14 -233017 -66577 0;
#X obj -443 -429 cnv 15 100 60 empty chorus_canvas ||: G Emin F G :||
20 12 0 14 -233017 -66577 0;
#X text -440 -498 make new song!;
#X text -480 -427 verse:;
#X text -480 -457 chorus:;
#X text 150 -621 play;
#X obj -481 -570 hradio 50 1 0 12 key_root set-key_root empty 0 -8
0 10 -262144 -261234 -1 0;
#X text -459 -553 C;
#X text -411 -553 Db;
#X text -359 -553 D;
#X text -313 -553 Eb;
#X text -163 -553 Gb;
#X text -113 -553 G;
#X text -63 -553 Ab;
#X text -10 -553 A;
#X text -259 -553 E;
#X text 40 -553 Bb;
#X text 90 -553 B;
#X text -209 -553 F;
#N canvas 441 200 450 139 patch 0;
#X obj 37 -468 import jasch_lib;
#X obj -243 -468 declare -path ../handy-abs -path ../pitch-abs;
#N canvas 57 89 442 231 krumhansl_profiles 0;
#X msg 5 124 6.33 2.68 3.52 5.38 2.6 3.53 2.54 4.75 3.98 2.69 3.34
3.17;
#X msg 32 44 6.35 2.23 3.48 2.33 4.38 4.09 2.52 5.19 2.39 3.66 2.29
2.88;
#X obj 5 23 t b b;
#X obj 5 144 normalize;
#X obj 32 64 normalize;
#X obj 5 2 r reset;
#X obj 32 84 tabset major;
#X obj 31 104 table major 12;
#X obj 5 164 tabset minor;
#X obj 5 184 table minor 12;
#X connect 0 0 3 0;
#X connect 1 0 4 0;
#X connect 2 0 0 0;
#X connect 2 1 1 0;
#X connect 3 0 8 0;
#X connect 4 0 6 0;
#X connect 5 0 2 0;
#X restore -243 -408 pd krumhansl_profiles;
#X obj -43 -428 table profile 12;
#N canvas 555 103 417 816 calculate_profiles_from_songs 0;
#X obj 43 423 textfile;
#X floatatom 192 280 5 0 0 0 - - -;
#X obj 6 69 bng 15 250 50 0 empty empty empty 17 7 0 10 -262144 -1
-1;
#X obj -14 497 unpack s s;
#X obj -14 475 strtok :;
#X obj -14 452 tosymbol;
#N canvas 508 325 457 294 root 0;
#X obj 15 11 inlet;
#X obj 15 33 sel C Db D Eb E F Gb G Ab A Bb B;
#X msg 15 139 0;
#X msg 45 139 1;
#X msg 75 139 2;
#X msg 105 139 3;
#X msg 135 139 4;
#X msg 165 139 5;
#X msg 195 139 6;
#X msg 225 139 7;
#X msg 255 139 8;
#X msg 285 139 9;
#X msg 315 139 10;
#X msg 345 139 11;
#X obj 15 267 outlet;
#X msg 271 50 unrecognized pitch class;
#X obj 271 71 print ERROR;
#X connect 0 0 1 0;
#X connect 1 0 2 0;
#X connect 1 1 3 0;
#X connect 1 2 4 0;
#X connect 1 3 5 0;
#X connect 1 4 6 0;
#X connect 1 5 7 0;
#X connect 1 6 8 0;
#X connect 1 7 9 0;
#X connect 1 8 10 0;
#X connect 1 9 11 0;
#X connect 1 10 12 0;
#X connect 1 11 13 0;
#X connect 1 12 15 0;
#X connect 2 0 14 0;
#X connect 3 0 14 0;
#X connect 4 0 14 0;
#X connect 5 0 14 0;
#X connect 6 0 14 0;
#X connect 7 0 14 0;
#X connect 8 0 14 0;
#X connect 9 0 14 0;
#X connect 10 0 14 0;
#X connect 11 0 14 0;
#X connect 12 0 14 0;
#X connect 13 0 14 0;
#X connect 15 0 16 0;
#X restore -14 521 pd root;
#X obj -14 626 +;
#X obj -14 580 symbol;
#X obj -14 556 t b f;
#X obj -14 647 mod 12;
#X obj -14 668 t f f;
#X obj -14 422 until;
#X msg -14 376 read \$1 cr \, rewind \, bang;
#X obj -14 399 route bang;
#X obj -14 307 t s b;
#X obj -14 713 + 0.1;
#X msg -3 47 refresh;
#X obj 96 470 normalize;
#X obj -3 258 listdir ../files/txt_chords/*.txt;
#X obj -14 24 openpanel;
#X obj -14 5 bng 15 250 50 0 empty empty empty 17 7 0 10 -262144 -1
-1;
#X text 5 2 load a file;
#X text 50 46 or get all content of a folder;
#X text 27 68 and retrieve files individually;
#N canvas 177 94 613 328 type 0;
#X obj 15 19 inlet;
#X obj 15 267 outlet;
#X obj 339 129 print ERROR;
#X msg 339 108 unrecognized chord type;
#X msg 15 159 0 \, 4 \, 7;
#X msg 132 159 0 \, 4 \, 8;
#X msg 192 159 0 \, 3 \, 6;
#X msg 312 159 0 \, 4 \, 7 \, 10;
#X msg 253 159 0 \, 5 \, 7;
#X msg 73 159 0 \, 3 \, 7;
#X obj 15 43 sel maj min aug dim sus4;
#X obj 312 60 fromsymbol;
#X obj 312 86 sel 7;
#X connect 0 0 10 0;
#X connect 3 0 2 0;
#X connect 4 0 1 0;
#X connect 5 0 1 0;
#X connect 6 0 1 0;
#X connect 7 0 1 0;
#X connect 8 0 1 0;
#X connect 9 0 1 0;
#X connect 10 0 4 0;
#X connect 10 1 9 0;
#X connect 10 2 5 0;
#X connect 10 3 6 0;
#X connect 10 4 8 0;
#X connect 10 5 11 0;
#X connect 11 0 12 0;
#X connect 12 0 7 0;
#X connect 12 1 3 0;
#X restore -14 602 pd type;
#X obj 7 281 print filename;
#X obj 96 490 tabset profile;
#X obj 96 450 tabdump profile;
#X msg 13 329 \; profile const 0 \; reset bang;
#X obj 88 510 s end_file;
#X obj -14 735 tabwrite profile;
#X obj -14 690 tabread profile;
#X obj 51 535 s chord_type;
#X obj 51 557 s chord_root;
#X obj 19 153 metro 1000;
#X obj 19 106 r analyze_folder;
#X obj 31 196 ==;
#X obj 31 174 f 0;
#X obj 60 174 + 1;
#X obj 30 218 sel 1;
#X msg 30 238 0;
#X obj 19 129 t b b;
#X msg 58 129 0;
#X connect 0 0 5 0;
#X connect 0 1 12 1;
#X connect 0 1 28 0;
#X connect 0 1 30 0;
#X connect 2 0 19 0;
#X connect 3 0 6 0;
#X connect 3 1 33 0;
#X connect 3 1 8 1;
#X connect 4 0 3 0;
#X connect 5 0 4 0;
#X connect 6 0 9 0;
#X connect 6 0 34 0;
#X connect 7 0 10 0;
#X connect 8 0 25 0;
#X connect 9 0 8 0;
#X connect 9 1 7 1;
#X connect 10 0 11 0;
#X connect 11 0 32 0;
#X connect 11 1 31 1;
#X connect 12 0 0 0;
#X connect 13 0 14 0;
#X connect 14 0 12 0;
#X connect 14 1 0 0;
#X connect 15 0 13 0;
#X connect 15 1 29 0;
#X connect 16 0 31 0;
#X connect 17 0 19 0;
#X connect 18 0 27 0;
#X connect 19 0 15 0;
#X connect 19 0 26 0;
#X connect 19 1 1 0;
#X connect 19 1 37 1;
#X connect 20 0 15 0;
#X connect 21 0 20 0;
#X connect 25 0 7 0;
#X connect 28 0 18 0;
#X connect 32 0 16 0;
#X connect 35 0 19 0;
#X connect 35 0 38 0;
#X connect 36 0 42 0;
#X connect 37 0 40 0;
#X connect 38 0 39 0;
#X connect 38 0 37 0;
#X connect 39 0 38 1;
#X connect 40 0 41 0;
#X connect 41 0 35 0;
#X connect 42 0 35 0;
#X connect 42 1 43 0;
#X connect 42 1 17 0;
#X connect 43 0 38 1;
#X restore -243 -428 pd calculate_profiles_from_songs;
#N canvas 694 111 419 702 estimate_key_of_songs 0;
#X obj 222 91 t b b;
#X obj 214 253 t l;
#X obj 131 336 list;
#X obj 155 167 tabdump;
#X obj 148 188 t b l;
#X obj 18 33 sel 12;
#X msg 220 48 1 2 3 4 5 6 7 8 9 10 11 12;
#X obj 73 33 t f b;
#X obj 18 75 once;
#X obj 125 252 list prepend;
#X obj 18 96 del 1;
#X obj 131 357 sort;
#X obj 125 315 sel 24;
#X obj 125 273 t l l;
#X obj 111 381 t l f;
#X obj 123 427 ==;
#X obj 131 537 list;
#X obj 83 427 sel 1;
#X obj 83 492 f 1;
#X obj 113 492 + 1;
#X msg 98 470 1;
#X obj 131 514 t b f;
#X obj 101 562 list split;
#N canvas 228 175 765 329 estimation 0;
#X obj 16 13 inlet;
#X obj 16 35 select 0 1 2 3 4 5 6 7 8 9 10 11 12 13 14 15 16 17 18
19 20 21 22 23;
#X msg 16 148 B;
#X msg 46 148 Bb;
#X msg 76 148 A;
#X msg 106 148 Ab;
#X msg 136 148 G;
#X msg 166 148 Gb;
#X msg 196 148 F;
#X msg 226 148 E;
#X msg 256 148 Eb;
#X msg 286 148 D;
#X msg 316 148 Db;
#X msg 346 148 C;
#X msg 376 148 Bm;
#X msg 406 148 Bbm;
#X msg 436 148 Am;
#X msg 466 148 Abm;
#X msg 496 148 Gm;
#X msg 526 148 Gbm;
#X msg 556 148 Fm;
#X msg 586 148 Em;
#X msg 616 148 Ebm;
#X msg 646 148 Dm;
#X msg 676 148 Dbm;
#X msg 706 148 Cm;
#X obj 16 273 tosymbol;
#X obj 16 294 outlet;
#X connect 0 0 1 0;
#X connect 1 0 2 0;
#X connect 1 1 3 0;
#X connect 1 2 4 0;
#X connect 1 3 5 0;
#X connect 1 4 6 0;
#X connect 1 5 7 0;
#X connect 1 6 8 0;
#X connect 1 7 9 0;
#X connect 1 8 10 0;
#X connect 1 9 11 0;
#X connect 1 10 12 0;
#X connect 1 11 13 0;
#X connect 1 12 14 0;
#X connect 1 13 15 0;
#X connect 1 14 16 0;
#X connect 1 15 17 0;
#X connect 1 16 18 0;
#X connect 1 17 19 0;
#X connect 1 18 20 0;
#X connect 1 19 21 0;
#X connect 1 20 22 0;
#X connect 1 21 23 0;
#X connect 1 22 24 0;
#X connect 1 23 25 0;
#X connect 2 0 26 0;
#X connect 3 0 26 0;
#X connect 4 0 26 0;
#X connect 5 0 26 0;
#X connect 6 0 26 0;
#X connect 7 0 26 0;
#X connect 8 0 26 0;
#X connect 9 0 26 0;
#X connect 10 0 26 0;
#X connect 11 0 26 0;
#X connect 12 0 26 0;
#X connect 13 0 26 0;
#X connect 14 0 26 0;
#X connect 15 0 26 0;
#X connect 16 0 26 0;
#X connect 17 0 26 0;
#X connect 18 0 26 0;
#X connect 19 0 26 0;
#X connect 20 0 26 0;
#X connect 21 0 26 0;
#X connect 22 0 26 0;
#X connect 23 0 26 0;
#X connect 24 0 26 0;
#X connect 25 0 26 0;
#X connect 26 0 27 0;
#X restore 158 628 pd estimation;
#X obj 101 606 route bang;
#X obj 73 11 drip 1;
#X obj 100 209 listrotate;
#X obj 117 230 euclidist;
#X obj 125 294 list length;
#X obj 101 584 drip;
#X obj 111 402 drip;
#X obj 165 650 s key_estimation;
#X msg 18 117 set minor \, bang;
#X obj 39 54 r reset;
#X obj 222 70 r end_file;
#X msg 155 145 set major \, bang;
#X obj 249 174 tabdump profile;
#X obj 194 229 r reset;
#X obj 98 448 r reset;
#X obj 158 670 print ESTIMATION;
#X connect 0 0 35 0;
#X connect 0 1 36 0;
#X connect 1 0 9 1;
#X connect 2 0 11 0;
#X connect 3 0 4 0;
#X connect 4 0 6 0;
#X connect 4 1 26 1;
#X connect 5 0 8 0;
#X connect 6 0 25 0;
#X connect 7 0 5 0;
#X connect 7 1 26 0;
#X connect 8 0 10 0;
#X connect 9 0 1 0;
#X connect 9 0 13 0;
#X connect 10 0 32 0;
#X connect 11 0 14 0;
#X connect 11 1 16 1;
#X connect 12 0 2 0;
#X connect 13 0 28 0;
#X connect 13 1 2 1;
#X connect 14 0 30 0;
#X connect 14 1 15 1;
#X connect 15 0 17 0;
#X connect 16 0 22 0;
#X connect 17 0 18 0;
#X connect 18 0 19 0;
#X connect 18 0 21 0;
#X connect 19 0 18 1;
#X connect 20 0 18 1;
#X connect 21 0 16 0;
#X connect 21 1 22 1;
#X connect 22 0 29 0;
#X connect 23 0 31 0;
#X connect 23 0 39 0;
#X connect 24 1 23 0;
#X connect 25 0 7 0;
#X connect 26 0 27 0;
#X connect 27 0 9 0;
#X connect 28 0 12 0;
#X connect 29 0 24 0;
#X connect 30 0 15 0;
#X connect 32 0 3 0;
#X connect 33 0 8 1;
#X connect 34 0 0 0;
#X connect 35 0 3 0;
#X connect 36 0 27 1;
#X connect 37 0 9 1;
#X connect 38 0 20 0;
#X restore -109 -408 pd estimate_key_of_songs;
#N canvas 1156 82 499 782 make_1st_order_chord_transition_tables 0
;
#X obj 124 -336 sel maj min aug dim sus4;
#X obj 265 -315 fromsymbol;
#X obj 265 -293 sel 7;
#X msg 152 -270 1;
#X msg 180 -270 2;
#X msg 208 -270 3;
#X msg 236 -270 4;
#X msg 265 -270 5;
#X msg 124 -270 0;
#X obj 124 -227 * 12;
#X obj 137 -204 r key_estimation;
#X obj 12 -50 -;
#X obj 87 -130 t l;
#X obj 33 -164 list prepend;
#X obj 12 -86 drip 0;
#X obj 182 33 prepend;
#X obj 12 -110 list;
#X obj 182 -40 t l;
#X obj 124 -64 list prepend;
#X obj 103 -18 drip 0;
#X obj 103 -41 list;
#X obj 12 -25 mod 12;
#X obj 88 4 +;
#X obj 188 -158 key2pc;
#X obj 182 100 pack f f;
#X obj 243 100 t f;
#X msg 182 342 \$2 \$1;
#X obj 276 382 s;
#X obj 291 109 sel 0 1;
#X obj 391 118 loadbang;
#X obj 291 177 makefilename fill_table-%s;
#X msg 391 142 symbol minor;
#X msg 291 141 symbol major;
#X obj 182 59 swap;
#X obj 247 205 r key_estimation;
#X obj 182 319 spigot;
#X msg 247 292 0;
#X obj 247 228 t b b;
#X obj 215 264 once;
#X msg 215 292 1;
#X obj 182 122 t b l;
#X obj 124 -358 r chord_type;
#X obj 33 -357 r chord_root;
#X obj 137 -181 t b b b s;
#X obj 291 86 change -1234;
#X text 61 381 we could print transitions here...;
#X connect 0 0 8 0;
#X connect 0 1 3 0;
#X connect 0 2 4 0;
#X connect 0 3 5 0;
#X connect 0 4 6 0;
#X connect 0 5 1 0;
#X connect 1 0 2 0;
#X connect 2 0 7 0;
#X connect 3 0 9 0;
#X connect 4 0 9 0;
#X connect 5 0 9 0;
#X connect 6 0 9 0;
#X connect 7 0 9 0;
#X connect 8 0 9 0;
#X connect 9 0 18 0;
#X connect 10 0 43 0;
#X connect 11 0 21 0;
#X connect 12 0 13 1;
#X connect 13 0 12 0;
#X connect 13 0 16 1;
#X connect 14 0 11 0;
#X connect 15 0 33 0;
#X connect 16 0 14 0;
#X connect 17 0 18 1;
#X connect 18 0 17 0;
#X connect 18 0 20 1;
#X connect 19 0 22 1;
#X connect 20 0 19 0;
#X connect 21 0 22 0;
#X connect 22 0 15 0;
#X connect 23 0 11 1;
#X connect 23 1 15 1;
#X connect 24 0 25 0;
#X connect 24 0 40 0;
#X connect 25 0 24 1;
#X connect 26 0 27 0;
#X connect 28 0 32 0;
#X connect 28 1 31 0;
#X connect 29 0 31 0;
#X connect 30 0 27 1;
#X connect 31 0 30 0;
#X connect 32 0 30 0;
#X connect 33 0 24 0;
#X connect 33 1 44 0;
#X connect 34 0 37 0;
#X connect 35 0 26 0;
#X connect 36 0 35 1;
#X connect 37 0 36 0;
#X connect 37 1 38 1;
#X connect 38 0 39 0;
#X connect 39 0 35 1;
#X connect 40 0 38 0;
#X connect 40 1 35 0;
#X connect 41 0 0 0;
#X connect 42 0 13 0;
#X connect 43 0 13 1;
#X connect 43 0 18 1;
#X connect 43 1 16 0;
#X connect 43 2 20 0;
#X connect 43 3 23 0;
#X connect 44 0 28 0;
#X restore -243 -388 pd make_1st_order_chord_transition_tables;
#N canvas 668 104 293 937 transition_tables 0;
#X obj 25 25 tab72 0 minor;
#X obj 25 325 tab72 12 minor;
#X obj 25 50 tab72 1 minor;
#X obj 25 75 tab72 2 minor;
#X obj 25 100 tab72 3 minor;
#X obj 25 125 tab72 4 minor;
#X obj 25 150 tab72 5 minor;
#X obj 25 175 tab72 6 minor;
#X obj 25 200 tab72 7 minor;
#X obj 25 225 tab72 8 minor;
#X obj 25 250 tab72 9 minor;
#X obj 25 275 tab72 10 minor;
#X obj 25 300 tab72 11 minor;
#X obj 25 350 tab72 13 minor;
#X obj 25 375 tab72 14 minor;
#X obj 25 400 tab72 15 minor;
#X obj 25 425 tab72 16 minor;
#X obj 25 450 tab72 17 minor;
#X obj 25 475 tab72 18 minor;
#X obj 25 500 tab72 19 minor;
#X obj 25 525 tab72 20 minor;
#X obj 25 550 tab72 21 minor;
#X obj 25 575 tab72 22 minor;
#X obj 25 600 tab72 23 minor;
#X obj 25 625 tab72 24 minor;
#X obj 25 650 tab72 25 minor;
#X obj 25 675 tab72 26 minor;
#X obj 25 700 tab72 27 minor;
#X obj 25 725 tab72 28 minor;
#X obj 25 750 tab72 29 minor;
#X obj 25 775 tab72 30 minor;
#X obj 25 800 tab72 31 minor;
#X obj 25 825 tab72 32 minor;
#X obj 25 850 tab72 33 minor;
#X obj 25 875 tab72 34 minor;
#X obj 25 900 tab72 35 minor;
#X obj 25 925 tab72 36 minor;
#X obj 25 950 tab72 37 minor;
#X obj 25 975 tab72 38 minor;
#X obj 25 1000 tab72 39 minor;
#X obj 25 1025 tab72 40 minor;
#X obj 25 1050 tab72 41 minor;
#X obj 25 1075 tab72 42 minor;
#X obj 25 1100 tab72 43 minor;
#X obj 25 1125 tab72 44 minor;
#X obj 25 1150 tab72 45 minor;
#X obj 25 1175 tab72 46 minor;
#X obj 25 1200 tab72 47 minor;
#X obj 25 1225 tab72 48 minor;
#X obj 25 1250 tab72 49 minor;
#X obj 25 1275 tab72 50 minor;
#X obj 25 1300 tab72 51 minor;
#X obj 25 1325 tab72 52 minor;
#X obj 25 1350 tab72 53 minor;
#X obj 25 1375 tab72 54 minor;
#X obj 25 1400 tab72 55 minor;
#X obj 25 1425 tab72 56 minor;
#X obj 25 1450 tab72 57 minor;
#X obj 25 1475 tab72 58 minor;
#X obj 25 1500 tab72 59 minor;
#X obj 25 1525 tab72 60 minor;
#X obj 25 1550 tab72 61 minor;
#X obj 25 1575 tab72 62 minor;
#X obj 25 1600 tab72 63 minor;
#X obj 25 1625 tab72 64 minor;
#X obj 25 1650 tab72 65 minor;
#X obj 25 1675 tab72 66 minor;
#X obj 25 1700 tab72 67 minor;
#X obj 25 1725 tab72 68 minor;
#X obj 25 1750 tab72 69 minor;
#X obj 25 1775 tab72 70 minor;
#X obj 25 1800 tab72 71 minor;
#X obj 135 25 tab72 0 major;
#X obj 135 50 tab72 1 major;
#X obj 135 75 tab72 2 major;
#X obj 135 100 tab72 3 major;
#X obj 135 125 tab72 4 major;
#X obj 135 150 tab72 5 major;
#X obj 135 175 tab72 6 major;
#X obj 135 200 tab72 7 major;
#X obj 135 225 tab72 8 major;
#X obj 135 250 tab72 9 major;
#X obj 135 275 tab72 10 major;
#X obj 135 300 tab72 11 major;
#X obj 135 325 tab72 12 major;
#X obj 135 350 tab72 13 major;
#X obj 135 375 tab72 14 major;
#X obj 135 400 tab72 15 major;
#X obj 135 425 tab72 16 major;
#X obj 135 450 tab72 17 major;
#X obj 135 475 tab72 18 major;
#X obj 135 500 tab72 19 major;
#X obj 135 525 tab72 20 major;
#X obj 135 550 tab72 21 major;
#X obj 135 575 tab72 22 major;
#X obj 135 600 tab72 23 major;
#X obj 135 625 tab72 24 major;
#X obj 135 650 tab72 25 major;
#X obj 135 675 tab72 26 major;
#X obj 135 700 tab72 27 major;
#X obj 135 725 tab72 28 major;
#X obj 135 750 tab72 29 major;
#X obj 135 775 tab72 30 major;
#X obj 135 800 tab72 31 major;
#X obj 135 825 tab72 32 major;
#X obj 135 850 tab72 33 major;
#X obj 135 875 tab72 34 major;
#X obj 135 900 tab72 35 major;
#X obj 135 925 tab72 36 major;
#X obj 135 950 tab72 37 major;
#X obj 135 975 tab72 38 major;
#X obj 135 1000 tab72 39 major;
#X obj 135 1025 tab72 40 major;
#X obj 135 1050 tab72 41 major;
#X obj 135 1075 tab72 42 major;
#X obj 135 1100 tab72 43 major;
#X obj 135 1125 tab72 44 major;
#X obj 135 1150 tab72 45 major;
#X obj 135 1175 tab72 46 major;
#X obj 135 1200 tab72 47 major;
#X obj 135 1225 tab72 48 major;
#X obj 135 1250 tab72 49 major;
#X obj 135 1275 tab72 50 major;
#X obj 135 1300 tab72 51 major;
#X obj 135 1325 tab72 52 major;
#X obj 135 1350 tab72 53 major;
#X obj 135 1375 tab72 54 major;
#X obj 135 1400 tab72 55 major;
#X obj 135 1425 tab72 56 major;
#X obj 135 1450 tab72 57 major;
#X obj 135 1475 tab72 58 major;
#X obj 135 1500 tab72 59 major;
#X obj 135 1525 tab72 60 major;
#X obj 135 1550 tab72 61 major;
#X obj 135 1575 tab72 62 major;
#X obj 135 1600 tab72 63 major;
#X obj 135 1625 tab72 64 major;
#X obj 135 1650 tab72 65 major;
#X obj 135 1675 tab72 66 major;
#X obj 135 1700 tab72 67 major;
#X obj 135 1725 tab72 68 major;
#X obj 135 1750 tab72 69 major;
#X obj 135 1775 tab72 70 major;
#X obj 135 1800 tab72 71 major;
#X restore 11 -388 pd transition_tables;
#N canvas 83 211 1863 1004 generate_song 0;
#X obj 36 186 list-wrandom;
#X obj 159 -7 r mode;
#X obj 105 51 list prepend 0;
#X obj 105 73 route 0 1;
#X obj 159 17 t f f;
#X obj -27 62 sel 0 1;
#X msg -27 84 0;
#X msg 3 84 12;
#X msg 36 116 stop;
#X obj 36 238 s next_table;
#X obj 78 -7 r next_table;
#X obj -42 111 f 0;
#X obj 78 13 t b f;
#X obj 36 213 t f f;
#X obj 70 346 t l l;
#X obj 70 368 list length;
#X obj 70 391 sel 4;
#X obj 70 413 list;
#X obj 70 325 list prepend;
#X obj 43 304 sel 0;
#X obj 161 300 list prepend;
#X obj 161 322 t l l;
#X obj 188 345 list length;
#X msg 70 498 0;
#X obj 70 435 t b l;
#X obj 161 412 spigot;
#X obj 188 390 > 4;
#X obj 161 433 list split;
#X obj 188 366 t f f;
#X obj 218 413 - 1;
#X obj 189 454 sel 0;
#X obj 573 90 list;
#X obj 136 257 route 1 0;
#X obj 136 230 prepend;
#X obj 175 172 r song_part;
#X msg 188 213 0;
#X msg 189 476 1;
#X obj 189 497 s song_part;
#X obj 1030 461 prepend add2;
#X obj 1030 522 textfile;
#X msg 348 553 0 0 1 0 1 1 2;
#X obj 348 596 sel 0 1 2;
#X msg 487 742 12;
#X msg 1144 331 write ./cancion.txt cr;
#X msg 930 463 clear;
#X obj 447 639 r mode;
#X obj 457 709 sel 0 1;
#X msg 457 741 0;
#X obj 832 323 list-math +;
#X obj 895 301 r key;
#X obj 1030 286 list-math +;
#X obj 1093 264 r key;
#N canvas 564 363 1280 717 tosymbol 0;
#X obj 71 -73 inlet;
#X obj 521 581 outlet;
#X obj 71 -19 sel 0 1 2 3 4 5 6 7 8 9 10 11 12 13 14 15 16 17 18 19
20 21 22 23 24 25 26 27 28 29 30 31 32 33 34 35 36 37 38 39 40 41 42
43 44 45 46 47 48 49 50 51 52 53 54 55 56 57 58 59 60 61 62 63 64 65
66 67 68 69 70 71;
#X msg 71 92 C;
#X msg 161 92 Db;
#X msg 251 92 D;
#X msg 341 92 Eb;
#X msg 431 92 E;
#X msg 521 92 F;
#X msg 611 92 Gb;
#X msg 701 92 G;
#X msg 791 92 Ab;
#X msg 881 92 A;
#X msg 971 92 Bb;
#X msg 1061 92 B;
#X msg 251 152 Dmin;
#X msg 341 152 Ebmin;
#X msg 431 152 Emin;
#X msg 521 152 Fmin;
#X msg 611 152 Gbmin;
#X msg 701 152 Gmin;
#X msg 791 152 Abmin;
#X msg 881 152 Amin;
#X msg 972 152 Bbmin;
#X msg 1101 152 Bmin;
#X msg 161 210 Dbaug;
#X msg 251 210 Daug;
#X msg 341 210 Ebaug;
#X msg 431 210 Eaug;
#X msg 521 210 Faug;
#X msg 611 210 Gbaug;
#X msg 701 210 Gaug;
#X msg 791 210 Abaug;
#X msg 881 210 Aaug;
#X msg 971 210 Bbaug;
#X msg 1061 210 Baug;
#X msg 161 272 Dbdim;
#X msg 251 272 Ddim;
#X msg 341 272 Ebdim;
#X msg 431 272 Edim;
#X msg 521 272 Fdim;
#X msg 611 272 Gbdim;
#X msg 701 272 Gdim;
#X msg 791 271 Abdim;
#X msg 881 272 Adim;
#X msg 971 272 Bbdim;
#X msg 1061 272 Bdim;
#X msg 161 332 Dbsus4;
#X msg 251 332 Dsus4;
#X msg 341 332 Ebsus4;
#X msg 431 332 Esus4;
#X msg 521 332 Fsus4;
#X msg 611 332 Gbsus4;
#X msg 701 332 Gsus4;
#X msg 791 332 Absus4;
#X msg 881 332 Asus4;
#X msg 971 332 Bbsus4;
#X msg 1061 332 Bsus4;
#X msg 161 392 Db7;
#X msg 251 392 D7;
#X msg 341 392 Eb7;
#X msg 431 392 E7;
#X msg 521 392 F7;
#X msg 611 392 Gb7;
#X msg 701 392 G7;
#X msg 791 392 Ab7;
#X msg 881 392 A7;
#X msg 971 392 Bb7;
#X msg 1061 392 B7;
#X obj 71 -47 drip;
#X msg 161 152 Db:min;
#X msg 72 152 Cmin;
#X msg 71 210 Caug;
#X msg 71 272 Cdim;
#X msg 71 332 Csus4;
#X msg 71 392 C7;
#X connect 0 0 69 0;
#X connect 2 0 3 0;
#X connect 2 1 4 0;
#X connect 2 2 5 0;
#X connect 2 3 6 0;
#X connect 2 4 7 0;
#X connect 2 5 8 0;
#X connect 2 6 9 0;
#X connect 2 7 10 0;
#X connect 2 8 11 0;
#X connect 2 9 12 0;
#X connect 2 10 13 0;
#X connect 2 11 14 0;
#X connect 2 12 71 0;
#X connect 2 13 70 0;
#X connect 2 14 15 0;
#X connect 2 15 16 0;
#X connect 2 16 17 0;
#X connect 2 17 18 0;
#X connect 2 18 19 0;
#X connect 2 19 20 0;
#X connect 2 20 21 0;
#X connect 2 21 22 0;
#X connect 2 22 23 0;
#X connect 2 23 24 0;
#X connect 2 24 72 0;
#X connect 2 25 25 0;
#X connect 2 26 26 0;
#X connect 2 27 27 0;
#X connect 2 28 28 0;
#X connect 2 29 29 0;
#X connect 2 30 30 0;
#X connect 2 31 31 0;
#X connect 2 32 32 0;
#X connect 2 33 33 0;
#X connect 2 34 34 0;
#X connect 2 35 35 0;
#X connect 2 36 73 0;
#X connect 2 37 36 0;
#X connect 2 38 37 0;
#X connect 2 39 38 0;
#X connect 2 40 39 0;
#X connect 2 41 40 0;
#X connect 2 42 41 0;
#X connect 2 43 42 0;
#X connect 2 44 43 0;
#X connect 2 45 44 0;
#X connect 2 46 45 0;
#X connect 2 47 46 0;
#X connect 2 48 74 0;
#X connect 2 49 47 0;
#X connect 2 50 48 0;
#X connect 2 51 49 0;
#X connect 2 52 50 0;
#X connect 2 53 51 0;
#X connect 2 54 52 0;
#X connect 2 55 53 0;
#X connect 2 56 54 0;
#X connect 2 57 55 0;
#X connect 2 58 56 0;
#X connect 2 59 57 0;
#X connect 2 60 75 0;
#X connect 2 61 58 0;
#X connect 2 62 59 0;
#X connect 2 63 60 0;
#X connect 2 64 61 0;
#X connect 2 65 62 0;
#X connect 2 66 63 0;
#X connect 2 67 64 0;
#X connect 2 68 65 0;
#X connect 2 69 66 0;
#X connect 2 70 67 0;
#X connect 2 71 68 0;
#X connect 3 0 1 0;
#X connect 4 0 1 0;
#X connect 5 0 1 0;
#X connect 6 0 1 0;
#X connect 7 0 1 0;
#X connect 8 0 1 0;
#X connect 9 0 1 0;
#X connect 10 0 1 0;
#X connect 11 0 1 0;
#X connect 12 0 1 0;
#X connect 13 0 1 0;
#X connect 14 0 1 0;
#X connect 15 0 1 0;
#X connect 16 0 1 0;
#X connect 17 0 1 0;
#X connect 18 0 1 0;
#X connect 19 0 1 0;
#X connect 20 0 1 0;
#X connect 21 0 1 0;
#X connect 22 0 1 0;
#X connect 23 0 1 0;
#X connect 24 0 1 0;
#X connect 25 0 1 0;
#X connect 26 0 1 0;
#X connect 27 0 1 0;
#X connect 28 0 1 0;
#X connect 29 0 1 0;
#X connect 30 0 1 0;
#X connect 31 0 1 0;
#X connect 32 0 1 0;
#X connect 33 0 1 0;
#X connect 34 0 1 0;
#X connect 35 0 1 0;
#X connect 36 0 1 0;
#X connect 37 0 1 0;
#X connect 38 0 1 0;
#X connect 39 0 1 0;
#X connect 40 0 1 0;
#X connect 41 0 1 0;
#X connect 42 0 1 0;
#X connect 43 0 1 0;
#X connect 44 0 1 0;
#X connect 45 0 1 0;
#X connect 46 0 1 0;
#X connect 47 0 1 0;
#X connect 48 0 1 0;
#X connect 49 0 1 0;
#X connect 50 0 1 0;
#X connect 51 0 1 0;
#X connect 52 0 1 0;
#X connect 53 0 1 0;
#X connect 54 0 1 0;
#X connect 55 0 1 0;
#X connect 56 0 1 0;
#X connect 57 0 1 0;
#X connect 58 0 1 0;
#X connect 59 0 1 0;
#X connect 60 0 1 0;
#X connect 61 0 1 0;
#X connect 62 0 1 0;
#X connect 63 0 1 0;
#X connect 64 0 1 0;
#X connect 65 0 1 0;
#X connect 66 0 1 0;
#X connect 67 0 1 0;
#X connect 68 0 1 0;
#X connect 69 0 2 0;
#X connect 70 0 1 0;
#X connect 71 0 1 0;
#X connect 72 0 1 0;
#X connect 73 0 1 0;
#X connect 74 0 1 0;
#X connect 75 0 1 0;
#X restore 1030 437 pd tosymbol;
#X obj 930 440 bng 15 250 50 0 empty write_song2 empty 17 7 0 10 -262144
-1 -1;
#X obj 1144 257 bng 15 250 50 0 empty write_song2 empty 17 7 0 10 -262144
-1 -1;
#X obj 1144 274 delay 500;
#X obj 1144 297 bng 15 250 50 0 empty empty empty 17 7 0 10 -262144
-1 -1;
#X obj 1306 279 bng 15 250 50 0 empty write_song3 empty 17 7 0 10 -262144
-1 -1;
#X obj 828 498 drip;
#X obj 849 477 r tempo;
#X obj 828 392 prepend;
#X obj 828 449 spigot;
#X obj 861 430 tgl 15 0 empty select_play empty 17 7 0 10 -262144 -1
-1 0 1;
#X obj 430 659 f;
#X obj 594 70 r chorus;
#X obj 97 456 s chorus;
#X obj 161 518 s verse;
#X text 571 489 song structure;
#X msg 105 115 set major-\$1 \, bang;
#X msg 130 95 set minor-\$1 \, bang;
#X obj 105 139 tabdump major-0;
#X obj 70 518 s song_done;
#X obj 36 163 delay 10;
#X obj 36 93 r song_done;
#X obj -42 -5 r make_song;
#X obj 230 278 r make_song;
#X obj 188 192 r make_song;
#X obj 493 490 r song_done;
#X obj 579 345 list append :||;
#X obj 579 323 list prepend ||:;
#X obj 579 369 l2s;
#X obj 424 35 t b b;
#X msg 579 390 label \$1;
#X obj 579 412 s chorus_canvas;
#X obj 364 658 list;
#X obj 311 647 list;
#X obj 385 636 r chorus;
#X obj 332 626 r verse;
#X obj 537 775 t l;
#X obj 493 513 t b b;
#X obj 430 798 list;
#X obj 430 683 t b f;
#X obj 451 775 list prepend;
#X obj 430 822 s complete_song;
#N canvas 564 363 1280 717 tosymbol 0;
#X obj 71 -73 inlet;
#X obj 521 581 outlet;
#X obj 71 -19 sel 0 1 2 3 4 5 6 7 8 9 10 11 12 13 14 15 16 17 18 19
20 21 22 23 24 25 26 27 28 29 30 31 32 33 34 35 36 37 38 39 40 41 42
43 44 45 46 47 48 49 50 51 52 53 54 55 56 57 58 59 60 61 62 63 64 65
66 67 68 69 70 71;
#X msg 71 92 C;
#X msg 161 92 Db;
#X msg 251 92 D;
#X msg 341 92 Eb;
#X msg 431 92 E;
#X msg 521 92 F;
#X msg 611 92 Gb;
#X msg 701 92 G;
#X msg 791 92 Ab;
#X msg 881 92 A;
#X msg 971 92 Bb;
#X msg 1061 92 B;
#X msg 251 152 Dmin;
#X msg 341 152 Ebmin;
#X msg 431 152 Emin;
#X msg 521 152 Fmin;
#X msg 611 152 Gbmin;
#X msg 701 152 Gmin;
#X msg 791 152 Abmin;
#X msg 881 152 Amin;
#X msg 972 152 Bbmin;
#X msg 1101 152 Bmin;
#X msg 161 210 Dbaug;
#X msg 251 210 Daug;
#X msg 341 210 Ebaug;
#X msg 431 210 Eaug;
#X msg 521 210 Faug;
#X msg 611 210 Gbaug;
#X msg 701 210 Gaug;
#X msg 791 210 Abaug;
#X msg 881 210 Aaug;
#X msg 971 210 Bbaug;
#X msg 1061 210 Baug;
#X msg 161 272 Dbdim;
#X msg 251 272 Ddim;
#X msg 341 272 Ebdim;
#X msg 431 272 Edim;
#X msg 521 272 Fdim;
#X msg 611 272 Gbdim;
#X msg 701 272 Gdim;
#X msg 791 271 Abdim;
#X msg 881 272 Adim;
#X msg 971 272 Bbdim;
#X msg 1061 272 Bdim;
#X msg 161 332 Dbsus4;
#X msg 251 332 Dsus4;
#X msg 341 332 Ebsus4;
#X msg 431 332 Esus4;
#X msg 521 332 Fsus4;
#X msg 611 332 Gbsus4;
#X msg 701 332 Gsus4;
#X msg 791 332 Absus4;
#X msg 881 332 Asus4;
#X msg 971 332 Bbsus4;
#X msg 1061 332 Bsus4;
#X msg 161 392 Db7;
#X msg 251 392 D7;
#X msg 341 392 Eb7;
#X msg 431 392 E7;
#X msg 521 392 F7;
#X msg 611 392 Gb7;
#X msg 701 392 G7;
#X msg 791 392 Ab7;
#X msg 881 392 A7;
#X msg 971 392 Bb7;
#X msg 1061 392 B7;
#X obj 71 -47 drip;
#X msg 161 152 Db:min;
#X msg 72 152 Cmin;
#X msg 71 210 Caug;
#X msg 71 272 Cdim;
#X msg 71 332 Csus4;
#X msg 71 392 C7;
#X connect 0 0 69 0;
#X connect 2 0 3 0;
#X connect 2 1 4 0;
#X connect 2 2 5 0;
#X connect 2 3 6 0;
#X connect 2 4 7 0;
#X connect 2 5 8 0;
#X connect 2 6 9 0;
#X connect 2 7 10 0;
#X connect 2 8 11 0;
#X connect 2 9 12 0;
#X connect 2 10 13 0;
#X connect 2 11 14 0;
#X connect 2 12 71 0;
#X connect 2 13 70 0;
#X connect 2 14 15 0;
#X connect 2 15 16 0;
#X connect 2 16 17 0;
#X connect 2 17 18 0;
#X connect 2 18 19 0;
#X connect 2 19 20 0;
#X connect 2 20 21 0;
#X connect 2 21 22 0;
#X connect 2 22 23 0;
#X connect 2 23 24 0;
#X connect 2 24 72 0;
#X connect 2 25 25 0;
#X connect 2 26 26 0;
#X connect 2 27 27 0;
#X connect 2 28 28 0;
#X connect 2 29 29 0;
#X connect 2 30 30 0;
#X connect 2 31 31 0;
#X connect 2 32 32 0;
#X connect 2 33 33 0;
#X connect 2 34 34 0;
#X connect 2 35 35 0;
#X connect 2 36 73 0;
#X connect 2 37 36 0;
#X connect 2 38 37 0;
#X connect 2 39 38 0;
#X connect 2 40 39 0;
#X connect 2 41 40 0;
#X connect 2 42 41 0;
#X connect 2 43 42 0;
#X connect 2 44 43 0;
#X connect 2 45 44 0;
#X connect 2 46 45 0;
#X connect 2 47 46 0;
#X connect 2 48 74 0;
#X connect 2 49 47 0;
#X connect 2 50 48 0;
#X connect 2 51 49 0;
#X connect 2 52 50 0;
#X connect 2 53 51 0;
#X connect 2 54 52 0;
#X connect 2 55 53 0;
#X connect 2 56 54 0;
#X connect 2 57 55 0;
#X connect 2 58 56 0;
#X connect 2 59 57 0;
#X connect 2 60 75 0;
#X connect 2 61 58 0;
#X connect 2 62 59 0;
#X connect 2 63 60 0;
#X connect 2 64 61 0;
#X connect 2 65 62 0;
#X connect 2 66 63 0;
#X connect 2 67 64 0;
#X connect 2 68 65 0;
#X connect 2 69 66 0;
#X connect 2 70 67 0;
#X connect 2 71 68 0;
#X connect 3 0 1 0;
#X connect 4 0 1 0;
#X connect 5 0 1 0;
#X connect 6 0 1 0;
#X connect 7 0 1 0;
#X connect 8 0 1 0;
#X connect 9 0 1 0;
#X connect 10 0 1 0;
#X connect 11 0 1 0;
#X connect 12 0 1 0;
#X connect 13 0 1 0;
#X connect 14 0 1 0;
#X connect 15 0 1 0;
#X connect 16 0 1 0;
#X connect 17 0 1 0;
#X connect 18 0 1 0;
#X connect 19 0 1 0;
#X connect 20 0 1 0;
#X connect 21 0 1 0;
#X connect 22 0 1 0;
#X connect 23 0 1 0;
#X connect 24 0 1 0;
#X connect 25 0 1 0;
#X connect 26 0 1 0;
#X connect 27 0 1 0;
#X connect 28 0 1 0;
#X connect 29 0 1 0;
#X connect 30 0 1 0;
#X connect 31 0 1 0;
#X connect 32 0 1 0;
#X connect 33 0 1 0;
#X connect 34 0 1 0;
#X connect 35 0 1 0;
#X connect 36 0 1 0;
#X connect 37 0 1 0;
#X connect 38 0 1 0;
#X connect 39 0 1 0;
#X connect 40 0 1 0;
#X connect 41 0 1 0;
#X connect 42 0 1 0;
#X connect 43 0 1 0;
#X connect 44 0 1 0;
#X connect 45 0 1 0;
#X connect 46 0 1 0;
#X connect 47 0 1 0;
#X connect 48 0 1 0;
#X connect 49 0 1 0;
#X connect 50 0 1 0;
#X connect 51 0 1 0;
#X connect 52 0 1 0;
#X connect 53 0 1 0;
#X connect 54 0 1 0;
#X connect 55 0 1 0;
#X connect 56 0 1 0;
#X connect 57 0 1 0;
#X connect 58 0 1 0;
#X connect 59 0 1 0;
#X connect 60 0 1 0;
#X connect 61 0 1 0;
#X connect 62 0 1 0;
#X connect 63 0 1 0;
#X connect 64 0 1 0;
#X connect 65 0 1 0;
#X connect 66 0 1 0;
#X connect 67 0 1 0;
#X connect 68 0 1 0;
#X connect 69 0 2 0;
#X connect 70 0 1 0;
#X connect 71 0 1 0;
#X connect 72 0 1 0;
#X connect 73 0 1 0;
#X connect 74 0 1 0;
#X connect 75 0 1 0;
#X restore 573 135 pd tosymbol;
#X obj 573 182 list prepend;
#X obj 675 184 t l;
#X obj 642 158 r make_song;
#X obj 740 130 list length;
#X obj 573 112 t l l;
#X obj 424 12 r song_done;
#X obj 579 301 list;
#X obj 573 229 list length;
#X obj 573 206 t l l;
#X obj 573 254 ==;
#X obj 579 278 sel 1;
#X obj 325 110 list;
#X obj 331 365 list append :||;
#X obj 331 343 list prepend ||:;
#X obj 331 389 l2s;
#X msg 331 410 label \$1;
#N canvas 564 363 1280 717 tosymbol 0;
#X obj 71 -73 inlet;
#X obj 521 581 outlet;
#X obj 71 -19 sel 0 1 2 3 4 5 6 7 8 9 10 11 12 13 14 15 16 17 18 19
20 21 22 23 24 25 26 27 28 29 30 31 32 33 34 35 36 37 38 39 40 41 42
43 44 45 46 47 48 49 50 51 52 53 54 55 56 57 58 59 60 61 62 63 64 65
66 67 68 69 70 71;
#X msg 71 92 C;
#X msg 161 92 Db;
#X msg 251 92 D;
#X msg 341 92 Eb;
#X msg 431 92 E;
#X msg 521 92 F;
#X msg 611 92 Gb;
#X msg 701 92 G;
#X msg 791 92 Ab;
#X msg 881 92 A;
#X msg 971 92 Bb;
#X msg 1061 92 B;
#X msg 251 152 Dmin;
#X msg 341 152 Ebmin;
#X msg 431 152 Emin;
#X msg 521 152 Fmin;
#X msg 611 152 Gbmin;
#X msg 701 152 Gmin;
#X msg 791 152 Abmin;
#X msg 881 152 Amin;
#X msg 972 152 Bbmin;
#X msg 1101 152 Bmin;
#X msg 161 210 Dbaug;
#X msg 251 210 Daug;
#X msg 341 210 Ebaug;
#X msg 431 210 Eaug;
#X msg 521 210 Faug;
#X msg 611 210 Gbaug;
#X msg 701 210 Gaug;
#X msg 791 210 Abaug;
#X msg 881 210 Aaug;
#X msg 971 210 Bbaug;
#X msg 1061 210 Baug;
#X msg 161 272 Dbdim;
#X msg 251 272 Ddim;
#X msg 341 272 Ebdim;
#X msg 431 272 Edim;
#X msg 521 272 Fdim;
#X msg 611 272 Gbdim;
#X msg 701 272 Gdim;
#X msg 791 271 Abdim;
#X msg 881 272 Adim;
#X msg 971 272 Bbdim;
#X msg 1061 272 Bdim;
#X msg 161 332 Dbsus4;
#X msg 251 332 Dsus4;
#X msg 341 332 Ebsus4;
#X msg 431 332 Esus4;
#X msg 521 332 Fsus4;
#X msg 611 332 Gbsus4;
#X msg 701 332 Gsus4;
#X msg 791 332 Absus4;
#X msg 881 332 Asus4;
#X msg 971 332 Bbsus4;
#X msg 1061 332 Bsus4;
#X msg 161 392 Db7;
#X msg 251 392 D7;
#X msg 341 392 Eb7;
#X msg 431 392 E7;
#X msg 521 392 F7;
#X msg 611 392 Gb7;
#X msg 701 392 G7;
#X msg 791 392 Ab7;
#X msg 881 392 A7;
#X msg 971 392 Bb7;
#X msg 1061 392 B7;
#X obj 71 -47 drip;
#X msg 161 152 Db:min;
#X msg 72 152 Cmin;
#X msg 71 210 Caug;
#X msg 71 272 Cdim;
#X msg 71 332 Csus4;
#X msg 71 392 C7;
#X connect 0 0 69 0;
#X connect 2 0 3 0;
#X connect 2 1 4 0;
#X connect 2 2 5 0;
#X connect 2 3 6 0;
#X connect 2 4 7 0;
#X connect 2 5 8 0;
#X connect 2 6 9 0;
#X connect 2 7 10 0;
#X connect 2 8 11 0;
#X connect 2 9 12 0;
#X connect 2 10 13 0;
#X connect 2 11 14 0;
#X connect 2 12 71 0;
#X connect 2 13 70 0;
#X connect 2 14 15 0;
#X connect 2 15 16 0;
#X connect 2 16 17 0;
#X connect 2 17 18 0;
#X connect 2 18 19 0;
#X connect 2 19 20 0;
#X connect 2 20 21 0;
#X connect 2 21 22 0;
#X connect 2 22 23 0;
#X connect 2 23 24 0;
#X connect 2 24 72 0;
#X connect 2 25 25 0;
#X connect 2 26 26 0;
#X connect 2 27 27 0;
#X connect 2 28 28 0;
#X connect 2 29 29 0;
#X connect 2 30 30 0;
#X connect 2 31 31 0;
#X connect 2 32 32 0;
#X connect 2 33 33 0;
#X connect 2 34 34 0;
#X connect 2 35 35 0;
#X connect 2 36 73 0;
#X connect 2 37 36 0;
#X connect 2 38 37 0;
#X connect 2 39 38 0;
#X connect 2 40 39 0;
#X connect 2 41 40 0;
#X connect 2 42 41 0;
#X connect 2 43 42 0;
#X connect 2 44 43 0;
#X connect 2 45 44 0;
#X connect 2 46 45 0;
#X connect 2 47 46 0;
#X connect 2 48 74 0;
#X connect 2 49 47 0;
#X connect 2 50 48 0;
#X connect 2 51 49 0;
#X connect 2 52 50 0;
#X connect 2 53 51 0;
#X connect 2 54 52 0;
#X connect 2 55 53 0;
#X connect 2 56 54 0;
#X connect 2 57 55 0;
#X connect 2 58 56 0;
#X connect 2 59 57 0;
#X connect 2 60 75 0;
#X connect 2 61 58 0;
#X connect 2 62 59 0;
#X connect 2 63 60 0;
#X connect 2 64 61 0;
#X connect 2 65 62 0;
#X connect 2 66 63 0;
#X connect 2 67 64 0;
#X connect 2 68 65 0;
#X connect 2 69 66 0;
#X connect 2 70 67 0;
#X connect 2 71 68 0;
#X connect 3 0 1 0;
#X connect 4 0 1 0;
#X connect 5 0 1 0;
#X connect 6 0 1 0;
#X connect 7 0 1 0;
#X connect 8 0 1 0;
#X connect 9 0 1 0;
#X connect 10 0 1 0;
#X connect 11 0 1 0;
#X connect 12 0 1 0;
#X connect 13 0 1 0;
#X connect 14 0 1 0;
#X connect 15 0 1 0;
#X connect 16 0 1 0;
#X connect 17 0 1 0;
#X connect 18 0 1 0;
#X connect 19 0 1 0;
#X connect 20 0 1 0;
#X connect 21 0 1 0;
#X connect 22 0 1 0;
#X connect 23 0 1 0;
#X connect 24 0 1 0;
#X connect 25 0 1 0;
#X connect 26 0 1 0;
#X connect 27 0 1 0;
#X connect 28 0 1 0;
#X connect 29 0 1 0;
#X connect 30 0 1 0;
#X connect 31 0 1 0;
#X connect 32 0 1 0;
#X connect 33 0 1 0;
#X connect 34 0 1 0;
#X connect 35 0 1 0;
#X connect 36 0 1 0;
#X connect 37 0 1 0;
#X connect 38 0 1 0;
#X connect 39 0 1 0;
#X connect 40 0 1 0;
#X connect 41 0 1 0;
#X connect 42 0 1 0;
#X connect 43 0 1 0;
#X connect 44 0 1 0;
#X connect 45 0 1 0;
#X connect 46 0 1 0;
#X connect 47 0 1 0;
#X connect 48 0 1 0;
#X connect 49 0 1 0;
#X connect 50 0 1 0;
#X connect 51 0 1 0;
#X connect 52 0 1 0;
#X connect 53 0 1 0;
#X connect 54 0 1 0;
#X connect 55 0 1 0;
#X connect 56 0 1 0;
#X connect 57 0 1 0;
#X connect 58 0 1 0;
#X connect 59 0 1 0;
#X connect 60 0 1 0;
#X connect 61 0 1 0;
#X connect 62 0 1 0;
#X connect 63 0 1 0;
#X connect 64 0 1 0;
#X connect 65 0 1 0;
#X connect 66 0 1 0;
#X connect 67 0 1 0;
#X connect 68 0 1 0;
#X connect 69 0 2 0;
#X connect 70 0 1 0;
#X connect 71 0 1 0;
#X connect 72 0 1 0;
#X connect 73 0 1 0;
#X connect 74 0 1 0;
#X connect 75 0 1 0;
#X restore 325 155 pd tosymbol;
#X obj 325 202 list prepend;
#X obj 427 204 t l;
#X obj 394 178 r make_song;
#X obj 498 149 list length;
#X obj 325 132 t l l;
#X obj 331 321 list;
#X obj 325 249 list length;
#X obj 325 226 t l l;
#X obj 325 274 ==;
#X obj 331 298 sel 1;
#X obj 346 90 r verse;
#X obj 331 431 s verse_canvas;
#X obj 70 478 del 1;
#X obj 348 575 drip;
#X connect 0 0 13 0;
#X connect 1 0 4 0;
#X connect 2 0 3 0;
#X connect 3 0 68 0;
#X connect 3 1 69 0;
#X connect 4 0 5 0;
#X connect 4 1 2 1;
#X connect 5 0 6 0;
#X connect 5 1 7 0;
#X connect 6 0 11 1;
#X connect 7 0 11 1;
#X connect 8 0 72 0;
#X connect 10 0 12 0;
#X connect 11 0 13 0;
#X connect 12 0 72 0;
#X connect 12 1 2 0;
#X connect 13 0 9 0;
#X connect 13 1 33 0;
#X connect 14 0 15 0;
#X connect 14 1 17 1;
#X connect 14 1 18 1;
#X connect 15 0 16 0;
#X connect 16 0 18 1;
#X connect 16 0 17 0;
#X connect 17 0 24 0;
#X connect 18 0 14 0;
#X connect 19 1 18 0;
#X connect 20 0 21 0;
#X connect 21 0 25 0;
#X connect 21 1 22 0;
#X connect 21 1 20 1;
#X connect 22 0 28 0;
#X connect 23 0 71 0;
#X connect 24 0 124 0;
#X connect 24 1 65 0;
#X connect 25 0 27 0;
#X connect 26 0 25 1;
#X connect 27 0 66 0;
#X connect 27 1 30 0;
#X connect 28 0 26 0;
#X connect 28 1 29 0;
#X connect 29 0 27 1;
#X connect 30 0 36 0;
#X connect 31 0 99 0;
#X connect 32 0 19 0;
#X connect 32 1 20 0;
#X connect 33 0 32 0;
#X connect 34 0 33 1;
#X connect 35 0 33 1;
#X connect 36 0 37 0;
#X connect 38 0 39 0;
#X connect 40 0 125 0;
#X connect 41 0 85 0;
#X connect 41 1 84 0;
#X connect 41 2 63 0;
#X connect 42 0 92 0;
#X connect 43 0 39 0;
#X connect 44 0 39 0;
#X connect 45 0 63 1;
#X connect 46 0 47 0;
#X connect 46 1 42 0;
#X connect 47 0 92 0;
#X connect 48 0 60 0;
#X connect 48 0 52 0;
#X connect 49 0 48 1;
#X connect 50 0 60 0;
#X connect 50 0 52 0;
#X connect 51 0 50 1;
#X connect 52 0 38 0;
#X connect 53 0 44 0;
#X connect 54 0 55 0;
#X connect 55 0 56 0;
#X connect 56 0 43 0;
#X connect 57 0 43 0;
#X connect 59 0 58 1;
#X connect 60 0 61 0;
#X connect 61 0 58 0;
#X connect 62 0 61 1;
#X connect 63 0 91 0;
#X connect 64 0 31 1;
#X connect 68 0 70 0;
#X connect 69 0 70 0;
#X connect 70 0 0 1;
#X connect 72 0 0 0;
#X connect 73 0 8 0;
#X connect 74 0 11 0;
#X connect 75 0 20 1;
#X connect 76 0 35 0;
#X connect 77 0 89 0;
#X connect 78 0 80 0;
#X connect 79 0 78 0;
#X connect 80 0 82 0;
#X connect 81 0 106 0;
#X connect 81 1 31 0;
#X connect 82 0 83 0;
#X connect 84 0 92 0;
#X connect 85 0 92 0;
#X connect 86 0 84 1;
#X connect 87 0 85 1;
#X connect 88 0 92 1;
#X connect 89 0 40 0;
#X connect 89 1 92 1;
#X connect 90 0 93 0;
#X connect 91 0 90 0;
#X connect 91 1 46 0;
#X connect 92 0 88 0;
#X connect 92 0 90 1;
#X connect 94 0 95 0;
#X connect 95 0 96 0;
#X connect 95 0 103 0;
#X connect 96 0 95 1;
#X connect 97 0 95 1;
#X connect 98 0 104 1;
#X connect 99 0 94 0;
#X connect 99 1 98 0;
#X connect 100 0 81 0;
#X connect 101 0 79 0;
#X connect 102 0 104 0;
#X connect 103 0 102 0;
#X connect 103 1 101 1;
#X connect 104 0 105 0;
#X connect 105 0 101 0;
#X connect 106 0 116 0;
#X connect 107 0 109 0;
#X connect 108 0 107 0;
#X connect 109 0 110 0;
#X connect 110 0 123 0;
#X connect 111 0 112 0;
#X connect 112 0 113 0;
#X connect 112 0 119 0;
#X connect 113 0 112 1;
#X connect 114 0 112 1;
#X connect 115 0 120 1;
#X connect 116 0 111 0;
#X connect 116 1 115 0;
#X connect 117 0 108 0;
#X connect 118 0 120 0;
#X connect 119 0 118 0;
#X connect 119 1 117 1;
#X connect 120 0 121 0;
#X connect 121 0 117 0;
#X connect 122 0 106 1;
#X connect 124 0 23 0;
#X connect 125 0 41 0;
#X restore -243 -368 pd generate_song;
#N canvas 477 115 472 902 midi-fake-guitar 0;
#X obj 25 549 t l b;
#X obj 99 617 f 6;
#X obj 131 617 - 1;
#X obj 54 659 pack f f;
#X msg 54 813 \$2 \$1;
#X obj 114 596 f;
#X obj 99 637 abs;
#X obj 25 163 f 0;
#X obj 56 163 + 1;
#X obj 25 184 mod 8;
#X obj 25 207 t f f;
#X obj 25 380 + 1;
#X obj 25 431 list 0 48 52 55 60 64;
#X obj 207 441 l2s;
#X symbolatom 207 465 20 0 0 0 - - -;
#X obj 50 522 list-rev;
#X obj 25 477 list prepend;
#X obj 94 456 == 6;
#X obj 25 499 route 1 0;
#X obj 54 684 relay 0;
#X obj 25 600 t f b;
#X msg 52 139 0;
#X obj 25 576 drip 0;
#X obj 120 763 fifop;
#X obj 93 733 once;
#X obj 93 707 t b a;
#X obj 120 785 t a b;
#X obj 52 119 sel 0;
#X obj 76 51 /;
#X msg 76 28 60000 \$1;
#X obj 76 74 * 0.5;
#X obj 25 96 metro 240;
#X obj 92 97 s quaver;
#X obj 211 711 / 6;
#X obj 211 686 r quaver;
#X obj 180 784 clip 0 40;
#X obj 204 732 t b f;
#X obj 180 762 f;
#X obj 147 807 del 15;
#X obj 25 404 strumming d r d u r u d u;
#N canvas 309 414 609 442 strings_out 0;
#X msg 65 335 \$1 0;
#X obj 26 39 inlet;
#X obj 26 61 route 6 5 4 3 2 1;
#X obj 26 253 t f l b;
#X obj 65 312 f 0;
#X msg 145 335 \$1 0;
#X obj 106 253 t f l b;
#X obj 145 312 f 0;
#X obj 45 361 noteout 6;
#X msg 225 335 \$1 0;
#X obj 186 253 t f l b;
#X obj 225 312 f 0;
#X msg 305 335 \$1 0;
#X obj 266 253 t f l b;
#X obj 305 312 f 0;
#X msg 385 335 \$1 0;
#X obj 346 253 t f l b;
#X obj 385 312 f 0;
#X msg 465 335 \$1 0;
#X obj 426 253 t f l b;
#X obj 465 312 f 0;
#X obj 125 361 noteout 5;
#X obj 205 361 noteout 4;
#X obj 285 361 noteout 3;
#X obj 365 361 noteout 2;
#X obj 445 361 noteout 1;
#X obj 483 34 inlet;
#X obj 26 223 + 5;
#X obj 106 225 + 5;
#X obj 26 197 pack 0 80;
#X obj 106 197 pack 0 80;
#X obj 186 197 pack 0 80;
#X obj 266 197 pack 0 80;
#X obj 346 196 pack 0 80;
#X obj 426 198 pack 0 80;
#X connect 0 0 8 0;
#X connect 1 0 2 0;
#X connect 2 0 29 0;
#X connect 2 1 30 0;
#X connect 2 2 31 0;
#X connect 2 3 32 0;
#X connect 2 4 33 0;
#X connect 2 5 34 0;
#X connect 3 0 4 1;
#X connect 3 1 8 0;
#X connect 3 2 4 0;
#X connect 4 0 0 0;
#X connect 5 0 21 0;
#X connect 6 0 7 1;
#X connect 6 1 21 0;
#X connect 6 2 7 0;
#X connect 7 0 5 0;
#X connect 9 0 22 0;
#X connect 10 0 11 1;
#X connect 10 1 22 0;
#X connect 10 2 11 0;
#X connect 11 0 9 0;
#X connect 12 0 23 0;
#X connect 13 0 14 1;
#X connect 13 1 23 0;
#X connect 13 2 14 0;
#X connect 14 0 12 0;
#X connect 15 0 24 0;
#X connect 16 0 17 1;
#X connect 16 1 24 0;
#X connect 16 2 17 0;
#X connect 17 0 15 0;
#X connect 18 0 25 0;
#X connect 19 0 20 1;
#X connect 19 1 25 0;
#X connect 19 2 20 0;
#X connect 20 0 18 0;
#X connect 26 0 29 1;
#X connect 26 0 30 1;
#X connect 26 0 31 1;
#X connect 26 0 32 1;
#X connect 26 0 33 1;
#X connect 26 0 34 1;
#X connect 27 0 3 0;
#X connect 28 0 6 0;
#X connect 29 0 27 0;
#X connect 30 0 28 0;
#X connect 31 0 10 0;
#X connect 32 0 13 0;
#X connect 33 0 16 0;
#X connect 34 0 19 0;
#X restore 91 842 pd strings_out;
#N canvas 82 122 1835 785 guitar_chords 0;
#X obj 17 74 div 12;
#X obj 69 74 mod 12;
#X obj 17 47 t f f;
#X obj 48 101 pack;
#X obj 48 124 route 0 1 2 3 4 5;
#X obj 81 210 s aug;
#X obj 48 250 s maj;
#X obj 64 230 s min;
#X obj 97 190 s dim;
#X obj 114 170 s sus4;
#X obj 130 148 s 7th;
#X obj 191 17 r maj;
#X obj 191 40 select 0 1 2 3 4 5 6 7 8 9 10 11;
#X obj 69 316 outlet;
#X obj 66 294 r chord;
#X obj 16 22 inlet;
#X msg 364 65 \; chord 0 47 54 59 63 66;
#X msg 191 432 \; chord 0 48 52 55 60 64;
#X msg 206 399 \; chord 0 49 53 56 61 65;
#X msg 222 366 \; chord 0 0 50 57 62 66;
#X msg 238 332 \; chord 0 0 51 58 63 67;
#X msg 254 299 \; chord 40 47 52 56 59 64;
#X msg 269 265 \; chord 41 48 53 57 60 65;
#X msg 285 232 \; chord 42 49 54 58 61 66;
#X msg 301 199 \; chord 43 47 50 55 59 67;
#X msg 332 132 \; chord 0 45 52 57 61 64;
#X msg 348 98 \; chord 0 46 53 58 62 65;
#X obj 541 40 select 0 1 2 3 4 5 6 7 8 9 10 11;
#X obj 541 17 r min;
#X msg 714 65 \; chord 0 47 54 59 62 66;
#X msg 698 98 \; chord 0 46 53 58 61 65;
#X msg 682 132 \; chord 0 45 52 57 60 64;
#X msg 541 432 \; chord 0 48 55 60 63 67;
#X msg 572 366 \; chord 0 0 50 57 62 65;
#X msg 588 332 \; chord 0 0 51 58 63 66;
#X msg 556 399 \; chord 0 49 56 61 64 68;
#X msg 604 299 \; chord 40 47 52 55 59 64;
#X msg 619 265 \; chord 41 48 53 56 60 65;
#X msg 635 232 \; chord 42 49 54 57 61 66;
#X msg 651 198 \; chord 43 50 55 58 62 67;
#X msg 667 166 \; chord 44 51 56 59 63 68;
#X obj 902 37 select 0 1 2 3 4 5 6 7 8 9 10 11;
#X obj 902 14 r 7th;
#X msg 902 429 \; chord 0 48 52 58 60 64;
#X msg 917 396 \; chord 0 49 56 59 65 68;
#X msg 933 363 \; chord 0 0 50 57 60 66;
#X msg 949 329 \; chord 0 0 51 58 61 67;
#X msg 965 296 \; chord 40 47 50 56 59 64;
#X msg 980 262 \; chord 41 48 51 57 60 65;
#X msg 996 229 \; chord 42 49 52 58 61 66;
#X msg 1012 196 \; chord 43 47 50 55 59 65;
#X msg 317 164 \; chord 44 51 56 60 63 68;
#X msg 1028 163 \; chord 44 51 54 60 63 68;
#X msg 1043 129 \; chord 0 45 52 55 61 64;
#X msg 1059 95 \; chord 0 46 53 56 62 65;
#X msg 1075 62 \; chord 0 47 54 57 63 66;
#X obj 1241 38 select 0 1 2 3 4 5 6 7 8 9 10 11;
#X msg 1414 63 \; chord 0 47 54 59 63 66;
#X msg 1241 430 \; chord 0 48 52 55 60 64;
#X msg 1256 397 \; chord 0 49 53 56 61 65;
#X msg 1272 364 \; chord 0 0 50 57 62 66;
#X msg 1288 330 \; chord 0 0 51 58 63 67;
#X msg 1304 297 \; chord 40 47 52 56 59 64;
#X msg 1319 263 \; chord 41 48 53 57 60 65;
#X msg 1335 230 \; chord 42 49 54 58 61 66;
#X msg 1351 197 \; chord 43 47 50 55 59 67;
#X msg 1382 130 \; chord 0 45 52 57 61 64;
#X msg 1398 96 \; chord 0 46 53 58 62 65;
#X obj 1591 38 select 0 1 2 3 4 5 6 7 8 9 10 11;
#X msg 1764 63 \; chord 0 47 54 59 62 66;
#X msg 1748 96 \; chord 0 46 53 58 61 65;
#X msg 1732 130 \; chord 0 45 52 57 60 64;
#X msg 1591 430 \; chord 0 48 55 60 63 67;
#X msg 1622 364 \; chord 0 0 50 57 62 65;
#X msg 1638 330 \; chord 0 0 51 58 63 66;
#X msg 1606 397 \; chord 0 49 56 61 64 68;
#X msg 1654 297 \; chord 40 47 52 55 59 64;
#X msg 1669 263 \; chord 41 48 53 56 60 65;
#X msg 1685 230 \; chord 42 49 54 57 61 66;
#X msg 1701 196 \; chord 43 50 55 58 62 67;
#X msg 1717 164 \; chord 44 51 56 59 63 68;
#X msg 1367 162 \; chord 44 51 56 60 63 68;
#X obj 1241 15 r aug;
#X obj 1591 15 r dim;
#X connect 0 0 3 0;
#X connect 1 0 3 1;
#X connect 2 0 0 0;
#X connect 2 1 1 0;
#X connect 3 0 4 0;
#X connect 4 0 6 0;
#X connect 4 1 7 0;
#X connect 4 2 5 0;
#X connect 4 3 8 0;
#X connect 4 4 9 0;
#X connect 4 5 10 0;
#X connect 11 0 12 0;
#X connect 12 0 17 0;
#X connect 12 1 18 0;
#X connect 12 2 19 0;
#X connect 12 3 20 0;
#X connect 12 4 21 0;
#X connect 12 5 22 0;
#X connect 12 6 23 0;
#X connect 12 7 24 0;
#X connect 12 8 51 0;
#X connect 12 9 25 0;
#X connect 12 10 26 0;
#X connect 12 11 16 0;
#X connect 14 0 13 0;
#X connect 15 0 2 0;
#X connect 27 0 32 0;
#X connect 27 1 35 0;
#X connect 27 2 33 0;
#X connect 27 3 34 0;
#X connect 27 4 36 0;
#X connect 27 5 37 0;
#X connect 27 6 38 0;
#X connect 27 7 39 0;
#X connect 27 8 40 0;
#X connect 27 9 31 0;
#X connect 27 10 30 0;
#X connect 27 11 29 0;
#X connect 28 0 27 0;
#X connect 41 0 43 0;
#X connect 41 1 44 0;
#X connect 41 2 45 0;
#X connect 41 3 46 0;
#X connect 41 4 47 0;
#X connect 41 5 48 0;
#X connect 41 6 49 0;
#X connect 41 7 50 0;
#X connect 41 8 52 0;
#X connect 41 9 53 0;
#X connect 41 10 54 0;
#X connect 41 11 55 0;
#X connect 42 0 41 0;
#X connect 56 0 58 0;
#X connect 56 1 59 0;
#X connect 56 2 60 0;
#X connect 56 3 61 0;
#X connect 56 4 62 0;
#X connect 56 5 63 0;
#X connect 56 6 64 0;
#X connect 56 7 65 0;
#X connect 56 8 81 0;
#X connect 56 9 66 0;
#X connect 56 10 67 0;
#X connect 56 11 57 0;
#X connect 68 0 72 0;
#X connect 68 1 75 0;
#X connect 68 2 73 0;
#X connect 68 3 74 0;
#X connect 68 4 76 0;
#X connect 68 5 77 0;
#X connect 68 6 78 0;
#X connect 68 7 79 0;
#X connect 68 8 80 0;
#X connect 68 9 71 0;
#X connect 68 10 70 0;
#X connect 68 11 69 0;
#X connect 82 0 56 0;
#X connect 83 0 68 0;
#X restore 207 414 pd guitar_chords;
#X obj 180 661 r strumming_speed;
#X obj 25 47 r play;
#X obj 76 7 r tempo;
#X obj -48 163 ctlout 123;
#X msg -48 139 123;
#X obj -48 116 sel 0;
#X obj 207 216 r complete_song;
#X obj 207 326 list split 1;
#X obj 207 294 list;
#X obj 241 349 route bang;
#X obj 241 392 s set-play;
#X msg 241 370 0;
#X obj 52 228 sel 0;
#X obj 25 71 t f f b;
#X obj 207 245 list;
#X connect 0 0 22 0;
#X connect 0 1 5 0;
#X connect 1 0 2 0;
#X connect 1 0 6 0;
#X connect 2 0 1 1;
#X connect 3 0 19 0;
#X connect 4 0 40 0;
#X connect 5 0 1 1;
#X connect 6 0 3 1;
#X connect 7 0 8 0;
#X connect 7 0 9 0;
#X connect 8 0 7 1;
#X connect 9 0 10 0;
#X connect 10 0 11 0;
#X connect 10 1 54 0;
#X connect 11 0 39 0;
#X connect 12 0 16 0;
#X connect 13 0 14 0;
#X connect 15 0 0 0;
#X connect 16 0 18 0;
#X connect 17 0 16 1;
#X connect 18 0 0 0;
#X connect 18 1 15 0;
#X connect 19 0 4 0;
#X connect 19 1 25 0;
#X connect 20 0 3 0;
#X connect 20 1 1 0;
#X connect 21 0 7 1;
#X connect 22 0 20 0;
#X connect 23 0 26 0;
#X connect 23 1 24 1;
#X connect 24 0 23 0;
#X connect 25 0 24 0;
#X connect 25 1 23 0;
#X connect 26 0 4 0;
#X connect 26 1 38 0;
#X connect 27 0 21 0;
#X connect 28 0 30 0;
#X connect 29 0 28 0;
#X connect 30 0 31 1;
#X connect 30 0 32 0;
#X connect 31 0 7 0;
#X connect 33 0 36 0;
#X connect 34 0 33 0;
#X connect 35 0 38 1;
#X connect 36 0 37 0;
#X connect 36 1 35 2;
#X connect 37 0 35 0;
#X connect 38 0 23 0;
#X connect 39 0 12 0;
#X connect 39 1 5 1;
#X connect 39 1 17 0;
#X connect 39 2 40 1;
#X connect 41 0 13 0;
#X connect 41 0 12 1;
#X connect 42 0 37 0;
#X connect 43 0 47 0;
#X connect 43 0 55 0;
#X connect 44 0 29 0;
#X connect 46 0 45 0;
#X connect 47 0 46 0;
#X connect 48 0 56 0;
#X connect 49 0 41 0;
#X connect 49 1 50 1;
#X connect 49 1 51 0;
#X connect 50 0 49 0;
#X connect 51 0 53 0;
#X connect 53 0 52 0;
#X connect 54 0 50 0;
#X connect 55 0 31 0;
#X connect 55 1 27 0;
#X connect 55 2 56 0;
#X connect 56 0 50 0;
#X restore -140 -368 pd midi-fake-guitar;
#N canvas 448 581 450 300 loadbangs 0;
#X obj -20 -22 bng 20 250 50 0 empty empty empty 17 7 0 10 -262144
-1 -1;
#X obj -20 -126 loadbang;
#X obj -20 -44 delay 500;
#X obj -20 53 s load-tables;
#X msg -20 -103 bang \; set-strumming_speed 20 \; set-tempo 110;
#X obj 83 -44 delay 600;
#X obj 69 17 s set-make_song;
#X connect 0 0 3 0;
#X connect 1 0 4 0;
#X connect 2 0 0 0;
#X connect 4 0 2 0;
#X connect 4 0 5 0;
#X connect 5 0 6 0;
#X restore -242 -448 pd loadbangs;
#X restore 186 -512 pd patch;
#X obj 139 -570 hradio 50 1 0 2 key_mode set-key_mode empty 0 -8 0
10 -262144 -261234 -1 0;
#X text 204 -554 min;
#X text 154 -554 maj;
