#N canvas 1023 148 751 801 10;
#X declare -lib jasch_lib;
#X declare -lib jasch_lib;
#X declare -path ../handy-abs -path ../pitch-abs;
#X obj -252 -456 import jasch_lib;
#N canvas 821 141 546 663 key_estimation 1;
#X obj 65 285 textfile;
#X floatatom 223 124 5 0 0 0 - - -;
#X obj 38 77 bng 15 250 50 0 empty empty empty 17 7 0 10 -262144 -1
-1;
#X obj 8 359 unpack s s;
#X obj 8 337 strtok :;
#X symbolatom 65 381 5 0 0 0 - - -;
#X symbolatom 8 381 3 0 0 0 - - -;
#X obj 8 314 tosymbol;
#X floatatom 8 425 5 0 0 0 - - -;
#N canvas 514 321 457 294 root 0;
#X obj 15 11 inlet;
#X obj 15 33 sel C Db D Eb E F Gb G Ab A Bb B;
#X msg 15 139 0;
#X msg 45 139 1;
#X msg 75 139 2;
#X msg 105 139 3;
#X msg 135 139 4;
#X msg 165 139 5;
#X msg 195 139 6;
#X msg 225 139 7;
#X msg 255 139 8;
#X msg 285 139 9;
#X msg 315 139 10;
#X msg 345 139 11;
#X obj 15 267 outlet;
#X msg 271 50 unrecognized pitch class;
#X obj 271 71 print \$0-ERROR;
#X connect 0 0 1 0;
#X connect 1 0 2 0;
#X connect 1 1 3 0;
#X connect 1 2 4 0;
#X connect 1 3 5 0;
#X connect 1 4 6 0;
#X connect 1 5 7 0;
#X connect 1 6 8 0;
#X connect 1 7 9 0;
#X connect 1 8 10 0;
#X connect 1 9 11 0;
#X connect 1 10 12 0;
#X connect 1 11 13 0;
#X connect 1 12 15 0;
#X connect 2 0 14 0;
#X connect 3 0 14 0;
#X connect 4 0 14 0;
#X connect 5 0 14 0;
#X connect 6 0 14 0;
#X connect 7 0 14 0;
#X connect 8 0 14 0;
#X connect 9 0 14 0;
#X connect 10 0 14 0;
#X connect 11 0 14 0;
#X connect 12 0 14 0;
#X connect 13 0 14 0;
#X connect 15 0 16 0;
#X restore 8 403 pd root;
#X obj 8 515 +;
#X obj 8 469 symbol;
#X obj 8 445 t b f;
#X obj 8 536 mod 12;
#X obj 8 557 t f f;
#X obj 8 284 until;
#X msg 8 238 read \$1 cr \, rewind \, bang;
#X obj 8 261 route bang;
#X obj 8 149 t s b;
#X obj 319 34 import jasch_lib;
#X obj 8 602 + 0.1;
#N canvas 715 97 570 686 find_key 0;
#X obj 222 91 t b b;
#X obj 214 253 t l;
#X obj 131 336 list;
#X obj 155 167 tabdump;
#X obj 148 188 t b l;
#X obj 18 33 sel 12;
#X msg 220 48 1 2 3 4 5 6 7 8 9 10 11 12;
#X obj 73 33 t f b;
#X obj 18 75 once;
#X obj 125 252 list prepend;
#X obj 18 96 del 1;
#X obj 131 357 sort;
#X obj 125 315 sel 24;
#X obj 125 273 t l l;
#X obj 111 381 t l f;
#X obj 123 427 ==;
#X obj 131 537 list;
#X obj 83 427 sel 1;
#X obj 83 492 f 1;
#X obj 113 492 + 1;
#X msg 98 470 1;
#X obj 131 514 t b f;
#X obj 101 562 list split;
#N canvas 240 165 765 305 estimation 0;
#X obj 16 13 inlet;
#X obj 16 273 outlet;
#X obj 16 35 select 0 1 2 3 4 5 6 7 8 9 10 11 12 13 14 15 16 17 18
19 20 21 22 23;
#X msg 16 148 B;
#X msg 46 148 Bb;
#X msg 76 148 A;
#X msg 106 148 Ab;
#X msg 136 148 G;
#X msg 166 148 Gb;
#X msg 196 148 F;
#X msg 226 148 E;
#X msg 256 148 Eb;
#X msg 286 148 D;
#X msg 316 148 Db;
#X msg 346 148 C;
#X msg 376 148 Bm;
#X msg 406 148 Bbm;
#X msg 436 148 Am;
#X msg 466 148 Abm;
#X msg 496 148 Gm;
#X msg 526 148 Gbm;
#X msg 556 148 Fm;
#X msg 586 148 Em;
#X msg 616 148 Ebm;
#X msg 646 148 Dm;
#X msg 676 148 Dbm;
#X msg 706 148 Cm;
#X connect 0 0 2 0;
#X connect 2 0 3 0;
#X connect 2 1 4 0;
#X connect 2 2 5 0;
#X connect 2 3 6 0;
#X connect 2 4 7 0;
#X connect 2 5 8 0;
#X connect 2 6 9 0;
#X connect 2 7 10 0;
#X connect 2 8 11 0;
#X connect 2 9 12 0;
#X connect 2 10 13 0;
#X connect 2 11 14 0;
#X connect 2 12 15 0;
#X connect 2 13 16 0;
#X connect 2 14 17 0;
#X connect 2 15 18 0;
#X connect 2 16 19 0;
#X connect 2 17 20 0;
#X connect 2 18 21 0;
#X connect 2 19 22 0;
#X connect 2 20 23 0;
#X connect 2 21 24 0;
#X connect 2 22 25 0;
#X connect 2 23 26 0;
#X connect 3 0 1 0;
#X connect 4 0 1 0;
#X connect 5 0 1 0;
#X connect 6 0 1 0;
#X connect 7 0 1 0;
#X connect 8 0 1 0;
#X connect 9 0 1 0;
#X connect 10 0 1 0;
#X connect 11 0 1 0;
#X connect 12 0 1 0;
#X connect 13 0 1 0;
#X connect 14 0 1 0;
#X connect 15 0 1 0;
#X connect 16 0 1 0;
#X connect 17 0 1 0;
#X connect 18 0 1 0;
#X connect 19 0 1 0;
#X connect 20 0 1 0;
#X connect 21 0 1 0;
#X connect 22 0 1 0;
#X connect 23 0 1 0;
#X connect 24 0 1 0;
#X connect 25 0 1 0;
#X connect 26 0 1 0;
#X restore 158 628 pd estimation;
#X obj 101 606 route bang;
#X obj 222 70 r \$0-end_file;
#X obj 249 174 tabdump \$0-profile;
#X obj 155 125 \$0;
#X msg 155 145 set \$1-major \, bang;
#X obj 18 116 \$0;
#X msg 18 137 set \$1-minor \, bang;
#X obj 194 229 r \$0-reset;
#X obj 39 54 r \$0-reset;
#X obj 98 449 r \$0-reset;
#X obj 158 649 print \$0-ESTIMATION;
#X obj 73 11 drip 1;
#X obj 100 209 listrotate;
#X obj 117 230 euclidist;
#X obj 125 294 list length;
#X obj 101 584 drip;
#X obj 111 402 drip;
#X obj 251 628 s key_estimation;
#X connect 0 0 27 0;
#X connect 0 1 26 0;
#X connect 1 0 9 1;
#X connect 2 0 11 0;
#X connect 3 0 4 0;
#X connect 4 0 6 0;
#X connect 4 1 36 1;
#X connect 5 0 8 0;
#X connect 6 0 35 0;
#X connect 7 0 5 0;
#X connect 7 1 36 0;
#X connect 8 0 10 0;
#X connect 9 0 1 0;
#X connect 9 0 13 0;
#X connect 10 0 29 0;
#X connect 11 0 14 0;
#X connect 11 1 16 1;
#X connect 12 0 2 0;
#X connect 13 0 38 0;
#X connect 13 1 2 1;
#X connect 14 0 40 0;
#X connect 14 1 15 1;
#X connect 15 0 17 0;
#X connect 16 0 22 0;
#X connect 17 0 18 0;
#X connect 18 0 19 0;
#X connect 18 0 21 0;
#X connect 19 0 18 1;
#X connect 20 0 18 1;
#X connect 21 0 16 0;
#X connect 21 1 22 1;
#X connect 22 0 39 0;
#X connect 23 0 34 0;
#X connect 23 0 41 0;
#X connect 24 1 23 0;
#X connect 25 0 0 0;
#X connect 26 0 37 1;
#X connect 27 0 28 0;
#X connect 28 0 3 0;
#X connect 29 0 30 0;
#X connect 30 0 3 0;
#X connect 31 0 9 1;
#X connect 32 0 8 1;
#X connect 33 0 20 0;
#X connect 35 0 7 0;
#X connect 36 0 37 0;
#X connect 37 0 9 0;
#X connect 38 0 12 0;
#X connect 39 0 24 0;
#X connect 40 0 15 0;
#X restore 319 54 pd find_key;
#X msg 29 55 refresh;
#X obj 319 94 table \$0-profile 12;
#X obj 8 624 tabwrite \$0-profile;
#X obj 8 579 tabread \$0-profile;
#X msg 35 190 \; \$1-profile const 0 \; \$1-reset bang;
#X obj 35 169 \$0;
#X obj 28 126 print \$0-filename;
#N canvas 57 83 442 231 krumhansl_profiles 0;
#X msg 5 124 6.33 2.68 3.52 5.38 2.6 3.53 2.54 4.75 3.98 2.69 3.34
3.17;
#X msg 32 44 6.35 2.23 3.48 2.33 4.38 4.09 2.52 5.19 2.39 3.66 2.29
2.88;
#X obj 5 23 t b b;
#X obj 32 84 tabset \$0-major;
#X obj 31 104 table \$0-major 12;
#X obj 5 2 r \$0-reset;
#X obj 5 164 tabset \$0-minor;
#X obj 5 184 table \$0-minor 12;
#X obj 5 144 normalize;
#X obj 32 64 normalize;
#X connect 0 0 8 0;
#X connect 1 0 9 0;
#X connect 2 0 0 0;
#X connect 2 1 1 0;
#X connect 5 0 2 0;
#X connect 8 0 6 0;
#X connect 9 0 3 0;
#X restore 319 74 pd krumhansl_profiles;
#X obj 118 312 tabdump \$0-profile;
#X obj 118 352 tabset \$0-profile;
#X obj 110 372 s \$0-end_file;
#X obj 118 332 normalize;
#X obj 29 100 listdir ../files/txt_chords/*.txt;
#X obj 8 33 openpanel;
#X obj 8 14 bng 15 250 50 0 empty empty empty 17 7 0 10 -262144 -1
-1;
#X text 27 11 load a file;
#X text 82 54 or get all content of a folder;
#X text 59 76 and retrieve files individually;
#N canvas 114 99 615 962 chord_accumulation 0;
#X obj 95 -358 sel maj min aug dim sus4;
#X obj 236 -337 fromsymbol;
#X obj 236 -313 sel 7;
#X msg 271 -290 unrecognize chord type;
#X obj 271 -268 print ERROR;
#X msg 123 -280 1;
#X msg 151 -280 2;
#X msg 179 -280 3;
#X msg 207 -280 4;
#X msg 236 -280 5;
#X msg 95 -280 0;
#X obj 164 -237 * 12;
#X obj 177 -204 r key_estimation;
#X obj 13 -61 -;
#X obj 67 -124 t l;
#X obj 13 -148 list prepend;
#X obj 13 -379 inlet;
#X obj 95 -380 inlet;
#X obj 3 -86 drip 0;
#X obj 222 43 prepend;
#X obj 236 -240 s type_chord;
#X obj 2 -110 list;
#X obj 238 -153 print key;
#X obj 222 -43 t l;
#X obj 164 -67 list prepend;
#X obj 143 -18 drip 0;
#X obj 143 -41 list;
#X obj 177 -181 t b b b s;
#X obj 13 -36 mod 12;
#X obj 128 4 +;
#X obj 228 -126 key2pc;
#X obj 249 210 pack f f;
#X obj 310 210 t f;
#X msg 249 429 \$2 \$1;
#X obj 180 184 i;
#X obj 195 164 once;
#X obj 127 112 t b b;
#X obj 343 471 s;
#X obj 358 109 sel 0 1;
#X obj 448 115 loadbang;
#X obj 358 86 change;
#X obj 358 177 makefilename fill_table-%s;
#X msg 448 141 symbol minor;
#X msg 358 141 symbol major;
#X obj 222 69 swap;
#X obj 222 102 t f f;
#X obj 308 277 r key_estimation;
#X obj 249 402 spigot;
#X msg 308 374 0;
#X obj 308 300 t b b;
#X obj 276 346 once;
#X msg 276 374 1;
#X obj 249 232 t b l;
#X obj 249 498 print transitions;
#X obj 127 92 del 100;
#X obj 125 70 r \$0-end_file;
#X symbolatom 361 -179 10 0 0 0 - - -;
#X obj 376 -152 print asdfadf;
#X connect 0 0 10 0;
#X connect 0 1 5 0;
#X connect 0 2 6 0;
#X connect 0 3 7 0;
#X connect 0 4 8 0;
#X connect 0 5 1 0;
#X connect 1 0 2 0;
#X connect 2 0 9 0;
#X connect 2 1 3 0;
#X connect 3 0 4 0;
#X connect 5 0 11 0;
#X connect 5 0 20 0;
#X connect 6 0 11 0;
#X connect 6 0 20 0;
#X connect 7 0 11 0;
#X connect 7 0 20 0;
#X connect 8 0 11 0;
#X connect 8 0 20 0;
#X connect 9 0 11 0;
#X connect 9 0 20 0;
#X connect 10 0 11 0;
#X connect 10 0 20 0;
#X connect 11 0 24 0;
#X connect 12 0 27 0;
#X connect 12 0 56 0;
#X connect 12 0 57 0;
#X connect 13 0 28 0;
#X connect 14 0 15 1;
#X connect 15 0 14 0;
#X connect 15 0 21 1;
#X connect 16 0 15 0;
#X connect 17 0 0 0;
#X connect 18 0 13 0;
#X connect 19 0 44 0;
#X connect 21 0 18 0;
#X connect 23 0 24 1;
#X connect 24 0 23 0;
#X connect 24 0 26 1;
#X connect 25 0 29 1;
#X connect 26 0 25 0;
#X connect 27 0 15 1;
#X connect 27 0 24 1;
#X connect 27 1 21 0;
#X connect 27 2 26 0;
#X connect 27 3 22 0;
#X connect 27 3 30 0;
#X connect 28 0 29 0;
#X connect 29 0 19 0;
#X connect 30 0 13 1;
#X connect 30 1 19 1;
#X connect 31 0 32 0;
#X connect 31 0 52 0;
#X connect 32 0 31 1;
#X connect 33 0 37 0;
#X connect 33 0 53 0;
#X connect 34 0 31 0;
#X connect 35 0 34 1;
#X connect 36 0 35 1;
#X connect 36 1 34 0;
#X connect 38 0 43 0;
#X connect 38 1 42 0;
#X connect 39 0 42 0;
#X connect 40 0 38 0;
#X connect 41 0 37 1;
#X connect 42 0 41 0;
#X connect 43 0 41 0;
#X connect 44 0 45 0;
#X connect 44 1 40 0;
#X connect 45 0 35 0;
#X connect 45 1 31 0;
#X connect 46 0 49 0;
#X connect 47 0 33 0;
#X connect 48 0 47 1;
#X connect 49 0 48 0;
#X connect 49 1 50 1;
#X connect 50 0 51 0;
#X connect 51 0 47 1;
#X connect 52 0 50 0;
#X connect 52 1 47 0;
#X connect 54 0 36 0;
#X connect 55 0 54 0;
#X restore 205 483 pd chord_accumulation;
#X obj 66 469 s root_chord;
#X obj 60 555 s modul_chord;
#X obj 238 163 loadbang;
#X obj 297 221 f 0;
#X obj 336 220 + 1;
#X obj 298 303 sel 1;
#X obj 298 281 ==;
#X msg 298 324 stop;
#X obj 298 250 t f b;
#N canvas 195 82 613 328 type 0;
#X obj 15 -10 inlet;
#X obj 15 267 outlet;
#X obj 360 109 print ERROR;
#X msg 360 88 unrecognized chord type;
#X msg 15 139 0 \, 4 \, 7;
#X msg 132 139 0 \, 4 \, 8;
#X msg 192 139 0 \, 3 \, 6;
#X msg 312 139 0 \, 4 \, 7 \, 10;
#X msg 253 139 0 \, 5 \, 7;
#X msg 73 139 0 \, 3 \, 7;
#X symbolatom 26 18 10 0 0 0 - - -;
#X obj 15 43 sel maj min aug dim sus4;
#X obj 312 60 fromsymbol;
#X obj 312 86 sel 7;
#X msg 322 179 0 \, 4 \, 10;
#X connect 0 0 10 0;
#X connect 0 0 11 0;
#X connect 3 0 2 0;
#X connect 4 0 1 0;
#X connect 5 0 1 0;
#X connect 6 0 1 0;
#X connect 7 0 1 0;
#X connect 8 0 1 0;
#X connect 9 0 1 0;
#X connect 11 0 4 0;
#X connect 11 1 9 0;
#X connect 11 2 5 0;
#X connect 11 3 6 0;
#X connect 11 4 8 0;
#X connect 11 5 12 0;
#X connect 12 0 13 0;
#X connect 13 0 7 0;
#X connect 13 1 3 0;
#X restore 8 491 pd type;
#X obj 238 185 delay 200;
#X connect 0 0 7 0;
#X connect 0 1 15 1;
#X connect 0 1 30 0;
#X connect 0 1 32 0;
#X connect 2 0 34 0;
#X connect 3 0 6 0;
#X connect 3 1 5 0;
#X connect 3 1 40 1;
#X connect 4 0 3 0;
#X connect 5 0 11 1;
#X connect 6 0 9 0;
#X connect 7 0 4 0;
#X connect 8 0 12 0;
#X connect 9 0 8 0;
#X connect 9 0 40 0;
#X connect 10 0 13 0;
#X connect 11 0 50 0;
#X connect 12 0 11 0;
#X connect 12 1 10 1;
#X connect 13 0 14 0;
#X connect 14 0 25 0;
#X connect 14 1 24 1;
#X connect 15 0 0 0;
#X connect 16 0 17 0;
#X connect 17 0 15 0;
#X connect 17 1 0 0;
#X connect 18 0 16 0;
#X connect 18 1 27 0;
#X connect 20 0 24 0;
#X connect 22 0 34 0;
#X connect 25 0 20 0;
#X connect 27 0 26 0;
#X connect 30 0 33 0;
#X connect 33 0 31 0;
#X connect 34 0 18 0;
#X connect 34 0 28 0;
#X connect 34 1 1 0;
#X connect 34 1 47 1;
#X connect 35 0 18 0;
#X connect 36 0 35 0;
#X connect 43 0 51 0;
#X connect 44 0 45 0;
#X connect 44 0 49 0;
#X connect 45 0 44 1;
#X connect 46 0 48 0;
#X connect 47 0 46 0;
#X connect 48 0 51 0;
#X connect 49 0 47 0;
#X connect 49 1 51 0;
#X connect 50 0 10 0;
#X connect 51 0 44 0;
#X connect 51 0 2 0;
#X restore -252 -435 pd key_estimation;
#N canvas 692 88 293 937 tables 0;
#X obj 25 25 tab72 0 minor;
#X obj 25 325 tab72 12 minor;
#X obj 25 50 tab72 1 minor;
#X obj 25 75 tab72 2 minor;
#X obj 25 100 tab72 3 minor;
#X obj 25 125 tab72 4 minor;
#X obj 25 150 tab72 5 minor;
#X obj 25 175 tab72 6 minor;
#X obj 25 200 tab72 7 minor;
#X obj 25 225 tab72 8 minor;
#X obj 25 250 tab72 9 minor;
#X obj 25 275 tab72 10 minor;
#X obj 25 300 tab72 11 minor;
#X obj 25 350 tab72 13 minor;
#X obj 25 375 tab72 14 minor;
#X obj 25 400 tab72 15 minor;
#X obj 25 425 tab72 16 minor;
#X obj 25 450 tab72 17 minor;
#X obj 25 475 tab72 18 minor;
#X obj 25 500 tab72 19 minor;
#X obj 25 525 tab72 20 minor;
#X obj 25 550 tab72 21 minor;
#X obj 25 575 tab72 22 minor;
#X obj 25 600 tab72 23 minor;
#X obj 25 625 tab72 24 minor;
#X obj 25 650 tab72 25 minor;
#X obj 25 675 tab72 26 minor;
#X obj 25 700 tab72 27 minor;
#X obj 25 725 tab72 28 minor;
#X obj 25 750 tab72 29 minor;
#X obj 25 775 tab72 30 minor;
#X obj 25 800 tab72 31 minor;
#X obj 25 825 tab72 32 minor;
#X obj 25 850 tab72 33 minor;
#X obj 25 875 tab72 34 minor;
#X obj 25 900 tab72 35 minor;
#X obj 25 925 tab72 36 minor;
#X obj 25 950 tab72 37 minor;
#X obj 25 975 tab72 38 minor;
#X obj 25 1000 tab72 39 minor;
#X obj 25 1025 tab72 40 minor;
#X obj 25 1050 tab72 41 minor;
#X obj 25 1075 tab72 42 minor;
#X obj 25 1100 tab72 43 minor;
#X obj 25 1125 tab72 44 minor;
#X obj 25 1150 tab72 45 minor;
#X obj 25 1175 tab72 46 minor;
#X obj 25 1200 tab72 47 minor;
#X obj 25 1225 tab72 48 minor;
#X obj 25 1250 tab72 49 minor;
#X obj 25 1275 tab72 50 minor;
#X obj 25 1300 tab72 51 minor;
#X obj 25 1325 tab72 52 minor;
#X obj 25 1350 tab72 53 minor;
#X obj 25 1375 tab72 54 minor;
#X obj 25 1400 tab72 55 minor;
#X obj 25 1425 tab72 56 minor;
#X obj 25 1450 tab72 57 minor;
#X obj 25 1475 tab72 58 minor;
#X obj 25 1500 tab72 59 minor;
#X obj 25 1525 tab72 60 minor;
#X obj 25 1550 tab72 61 minor;
#X obj 25 1575 tab72 62 minor;
#X obj 25 1600 tab72 63 minor;
#X obj 25 1625 tab72 64 minor;
#X obj 25 1650 tab72 65 minor;
#X obj 25 1675 tab72 66 minor;
#X obj 25 1700 tab72 67 minor;
#X obj 25 1725 tab72 68 minor;
#X obj 25 1750 tab72 69 minor;
#X obj 25 1775 tab72 70 minor;
#X obj 25 1800 tab72 71 minor;
#X obj 135 25 tab72 0 major;
#X obj 135 50 tab72 1 major;
#X obj 135 75 tab72 2 major;
#X obj 135 100 tab72 3 major;
#X obj 135 125 tab72 4 major;
#X obj 135 150 tab72 5 major;
#X obj 135 175 tab72 6 major;
#X obj 135 200 tab72 7 major;
#X obj 135 225 tab72 8 major;
#X obj 135 250 tab72 9 major;
#X obj 135 275 tab72 10 major;
#X obj 135 300 tab72 11 major;
#X obj 135 325 tab72 12 major;
#X obj 135 350 tab72 13 major;
#X obj 135 375 tab72 14 major;
#X obj 135 400 tab72 15 major;
#X obj 135 425 tab72 16 major;
#X obj 135 450 tab72 17 major;
#X obj 135 475 tab72 18 major;
#X obj 135 500 tab72 19 major;
#X obj 135 525 tab72 20 major;
#X obj 135 550 tab72 21 major;
#X obj 135 575 tab72 22 major;
#X obj 135 600 tab72 23 major;
#X obj 135 625 tab72 24 major;
#X obj 135 650 tab72 25 major;
#X obj 135 675 tab72 26 major;
#X obj 135 700 tab72 27 major;
#X obj 135 725 tab72 28 major;
#X obj 135 750 tab72 29 major;
#X obj 135 775 tab72 30 major;
#X obj 135 800 tab72 31 major;
#X obj 135 825 tab72 32 major;
#X obj 135 850 tab72 33 major;
#X obj 135 875 tab72 34 major;
#X obj 135 900 tab72 35 major;
#X obj 135 925 tab72 36 major;
#X obj 135 950 tab72 37 major;
#X obj 135 975 tab72 38 major;
#X obj 135 1000 tab72 39 major;
#X obj 135 1025 tab72 40 major;
#X obj 135 1050 tab72 41 major;
#X obj 135 1075 tab72 42 major;
#X obj 135 1100 tab72 43 major;
#X obj 135 1125 tab72 44 major;
#X obj 135 1150 tab72 45 major;
#X obj 135 1175 tab72 46 major;
#X obj 135 1200 tab72 47 major;
#X obj 135 1225 tab72 48 major;
#X obj 135 1250 tab72 49 major;
#X obj 135 1275 tab72 50 major;
#X obj 135 1300 tab72 51 major;
#X obj 135 1325 tab72 52 major;
#X obj 135 1350 tab72 53 major;
#X obj 135 1375 tab72 54 major;
#X obj 135 1400 tab72 55 major;
#X obj 135 1425 tab72 56 major;
#X obj 135 1450 tab72 57 major;
#X obj 135 1475 tab72 58 major;
#X obj 135 1500 tab72 59 major;
#X obj 135 1525 tab72 60 major;
#X obj 135 1550 tab72 61 major;
#X obj 135 1575 tab72 62 major;
#X obj 135 1600 tab72 63 major;
#X obj 135 1625 tab72 64 major;
#X obj 135 1650 tab72 65 major;
#X obj 135 1675 tab72 66 major;
#X obj 135 1700 tab72 67 major;
#X obj 135 1725 tab72 68 major;
#X obj 135 1750 tab72 69 major;
#X obj 135 1775 tab72 70 major;
#X obj 135 1800 tab72 71 major;
#X restore -252 -413 pd tables;
#N canvas 211 86 1323 962 song_maker 0;
#X obj 66 236 list-wrandom;
#X obj 414 25 s key;
#X obj 604 24 s mode;
#X obj 414 4 hradio 15 1 0 12 empty select_key empty 0 -8 0 10 -262144
-1 -1 0;
#X obj 604 3 hradio 15 1 0 2 empty select_Mn empty 0 -8 0 10 -262144
-1 -1 0;
#X obj 213 -17 r mode;
#X msg 199 155 set major_orden1-\$1 \, bang;
#X obj 199 91 list prepend 0;
#X obj 199 113 route 0 1;
#X obj 199 179 tabdump major_orden1-0;
#X obj 213 7 t f f;
#X obj 3 131 sel 0 1;
#X msg 3 153 0;
#X msg 33 153 12;
#X msg 66 153 stop;
#X obj 56 288 s next_table;
#X obj 172 50 r next_table;
#X obj -12 180 f 0;
#X msg 224 135 set minor_orden1-\$1 \, bang;
#X obj 172 70 t b f;
#X obj 547 126 tgl 15 0 empty select_start empty 17 7 0 10 -262144
-1 -1 0 1;
#X obj 515 251 s start;
#X obj 566 166 s stop;
#X floatatom 483 274 5 0 0 0 bpm - -;
#X obj 483 343 s tempo;
#X obj 483 322 /;
#X msg 483 298 240000 \$1;
#X obj 66 132 r stop;
#X obj -12 94 r start;
#X obj 590 251 ctlout 123;
#X msg 590 227 123;
#X obj 547 146 sel 1 0;
#X obj 56 263 t f f;
#X obj 183 374 t l l;
#X obj 183 396 list length;
#X obj 183 419 sel 4;
#X obj 183 441 list;
#X obj 183 353 list prepend;
#X obj 156 332 sel 0;
#X obj 564 84 r para;
#X obj 295 350 list prepend;
#X obj 295 372 t l l;
#X obj 322 395 list length;
#X obj 183 545 s para;
#X msg 183 525 0;
#X obj 183 505 del 1;
#X obj 183 463 t b l;
#X obj 295 462 spigot;
#X obj 322 440 > 4;
#X obj 295 483 list split;
#X obj 322 416 t f f;
#X obj 352 463 - 1;
#X obj 323 504 sel 0;
#X obj 455 801 list;
#X obj 455 781 bng 15 250 50 0 empty empty empty 17 7 0 10 -262144
-1 -1;
#X obj 156 307 route 1 0;
#X obj 195 260 tgl 15 0 empty empty empty 17 7 0 10 -262144 -1 -1 0
1;
#X obj 156 280 prepend;
#X obj 195 218 r song_part;
#X obj 364 328 r start;
#X msg 268 239 0;
#X msg 323 526 1;
#X obj 323 547 s song_part;
#X obj 239 824 list;
#X obj 239 782 bng 15 250 50 0 empty empty empty 17 7 0 10 -262144
-1 -1;
#X obj 357 694 bng 15 250 50 0 empty write_song empty 17 7 0 10 -262144
-1 -1;
#X obj 455 1008 prepend add2;
#X obj 455 1069 textfile;
#X msg 641 579 0 0 1 0 1 1 2;
#X obj 641 601 drip 0;
#X obj 641 622 sel 0 1 2;
#X msg 614 829 12;
#X msg 772 1017 write ./cancion.txt cr;
#X msg 355 1010 clear;
#X obj 601 764 r mode;
#X obj 584 806 sel 0 1;
#X msg 584 828 0;
#X obj 239 845 list-math +;
#X obj 302 823 r key;
#X obj 455 833 list-math +;
#X obj 518 811 r key;
#N canvas 57 78 1280 717 tosymbol 0;
#X obj 71 -73 inlet;
#X obj 521 581 outlet;
#X obj 71 -19 sel 0 1 2 3 4 5 6 7 8 9 10 11 12 13 14 15 16 17 18 19
20 21 22 23 24 25 26 27 28 29 30 31 32 33 34 35 36 37 38 39 40 41 42
43 44 45 46 47 48 49 50 51 52 53 54 55 56 57 58 59 60 61 62 63 64 65
66 67 68 69 70 71;
#X msg 71 92 C;
#X msg 161 92 Db;
#X msg 251 92 D;
#X msg 341 92 Eb;
#X msg 431 92 E;
#X msg 521 92 F;
#X msg 611 92 Gb;
#X msg 701 92 G;
#X msg 791 92 Ab;
#X msg 881 92 A;
#X msg 971 92 Bb;
#X msg 1061 92 B;
#X msg 71 152 Cmin;
#X msg 161 152 Dbmin;
#X msg 251 152 Dmin;
#X msg 341 152 Ebmin;
#X msg 431 152 Emin;
#X msg 521 152 Fmin;
#X msg 611 152 Gbmin;
#X msg 701 152 Gmin;
#X msg 791 152 Abmin;
#X msg 881 152 Amin;
#X msg 972 152 Bbmin;
#X msg 1101 152 Bmin;
#X msg 71 210 Caug;
#X msg 161 210 Dbaug;
#X msg 251 210 Daug;
#X msg 341 210 Ebaug;
#X msg 431 210 Eaug;
#X msg 521 210 Faug;
#X msg 611 210 Gbaug;
#X msg 701 210 Gaug;
#X msg 791 210 Abaug;
#X msg 881 210 Aaug;
#X msg 971 210 Bbaug;
#X msg 1061 210 Baug;
#X msg 71 272 Cdim;
#X msg 161 272 Dbdim;
#X msg 251 272 Ddim;
#X msg 341 272 Ebdim;
#X msg 431 272 Edim;
#X msg 521 272 Fdim;
#X msg 611 272 Gbdim;
#X msg 701 272 Gdim;
#X msg 791 271 Abdim;
#X msg 881 272 Adim;
#X msg 971 272 Bbdim;
#X msg 1061 272 Bdim;
#X msg 71 332 Csus4;
#X msg 161 332 Dbsus4;
#X msg 251 332 Dsus4;
#X msg 341 332 Ebsus4;
#X msg 431 332 Esus4;
#X msg 521 332 Fsus4;
#X msg 611 332 Gbsus4;
#X msg 701 332 Gsus4;
#X msg 791 332 Absus4;
#X msg 881 332 Asus4;
#X msg 971 332 Bbsus4;
#X msg 1061 332 Bsus4;
#X msg 71 392 C7;
#X msg 161 392 Db7;
#X msg 251 392 D7;
#X msg 341 392 Eb7;
#X msg 431 392 E7;
#X msg 521 392 F7;
#X msg 611 392 Gb7;
#X msg 701 392 G7;
#X msg 791 392 Ab7;
#X msg 881 392 A7;
#X msg 971 392 Bb7;
#X msg 1061 392 B7;
#X obj 71 -47 drip;
#X connect 0 0 75 0;
#X connect 2 0 3 0;
#X connect 2 1 4 0;
#X connect 2 2 5 0;
#X connect 2 3 6 0;
#X connect 2 4 7 0;
#X connect 2 5 8 0;
#X connect 2 6 9 0;
#X connect 2 7 10 0;
#X connect 2 8 11 0;
#X connect 2 9 12 0;
#X connect 2 10 13 0;
#X connect 2 11 14 0;
#X connect 2 12 15 0;
#X connect 2 13 16 0;
#X connect 2 14 17 0;
#X connect 2 15 18 0;
#X connect 2 16 19 0;
#X connect 2 17 20 0;
#X connect 2 18 21 0;
#X connect 2 19 22 0;
#X connect 2 20 23 0;
#X connect 2 21 24 0;
#X connect 2 22 25 0;
#X connect 2 23 26 0;
#X connect 2 24 27 0;
#X connect 2 25 28 0;
#X connect 2 26 29 0;
#X connect 2 27 30 0;
#X connect 2 28 31 0;
#X connect 2 29 32 0;
#X connect 2 30 33 0;
#X connect 2 31 34 0;
#X connect 2 32 35 0;
#X connect 2 33 36 0;
#X connect 2 34 37 0;
#X connect 2 35 38 0;
#X connect 2 36 39 0;
#X connect 2 37 40 0;
#X connect 2 38 41 0;
#X connect 2 39 42 0;
#X connect 2 40 43 0;
#X connect 2 41 44 0;
#X connect 2 42 45 0;
#X connect 2 43 46 0;
#X connect 2 44 47 0;
#X connect 2 45 48 0;
#X connect 2 46 49 0;
#X connect 2 47 50 0;
#X connect 2 48 51 0;
#X connect 2 49 52 0;
#X connect 2 50 53 0;
#X connect 2 51 54 0;
#X connect 2 52 55 0;
#X connect 2 53 56 0;
#X connect 2 54 57 0;
#X connect 2 55 58 0;
#X connect 2 56 59 0;
#X connect 2 57 60 0;
#X connect 2 58 61 0;
#X connect 2 59 62 0;
#X connect 2 60 63 0;
#X connect 2 61 64 0;
#X connect 2 62 65 0;
#X connect 2 63 66 0;
#X connect 2 64 67 0;
#X connect 2 65 68 0;
#X connect 2 66 69 0;
#X connect 2 67 70 0;
#X connect 2 68 71 0;
#X connect 2 69 72 0;
#X connect 2 70 73 0;
#X connect 2 71 74 0;
#X connect 3 0 1 0;
#X connect 4 0 1 0;
#X connect 5 0 1 0;
#X connect 6 0 1 0;
#X connect 7 0 1 0;
#X connect 8 0 1 0;
#X connect 9 0 1 0;
#X connect 10 0 1 0;
#X connect 11 0 1 0;
#X connect 12 0 1 0;
#X connect 13 0 1 0;
#X connect 14 0 1 0;
#X connect 15 0 1 0;
#X connect 16 0 1 0;
#X connect 17 0 1 0;
#X connect 18 0 1 0;
#X connect 19 0 1 0;
#X connect 20 0 1 0;
#X connect 21 0 1 0;
#X connect 22 0 1 0;
#X connect 23 0 1 0;
#X connect 24 0 1 0;
#X connect 25 0 1 0;
#X connect 26 0 1 0;
#X connect 27 0 1 0;
#X connect 28 0 1 0;
#X connect 29 0 1 0;
#X connect 30 0 1 0;
#X connect 31 0 1 0;
#X connect 32 0 1 0;
#X connect 33 0 1 0;
#X connect 34 0 1 0;
#X connect 35 0 1 0;
#X connect 36 0 1 0;
#X connect 37 0 1 0;
#X connect 38 0 1 0;
#X connect 39 0 1 0;
#X connect 40 0 1 0;
#X connect 41 0 1 0;
#X connect 42 0 1 0;
#X connect 43 0 1 0;
#X connect 44 0 1 0;
#X connect 45 0 1 0;
#X connect 46 0 1 0;
#X connect 47 0 1 0;
#X connect 48 0 1 0;
#X connect 49 0 1 0;
#X connect 50 0 1 0;
#X connect 51 0 1 0;
#X connect 52 0 1 0;
#X connect 53 0 1 0;
#X connect 54 0 1 0;
#X connect 55 0 1 0;
#X connect 56 0 1 0;
#X connect 57 0 1 0;
#X connect 58 0 1 0;
#X connect 59 0 1 0;
#X connect 60 0 1 0;
#X connect 61 0 1 0;
#X connect 62 0 1 0;
#X connect 63 0 1 0;
#X connect 64 0 1 0;
#X connect 65 0 1 0;
#X connect 66 0 1 0;
#X connect 67 0 1 0;
#X connect 68 0 1 0;
#X connect 69 0 1 0;
#X connect 70 0 1 0;
#X connect 71 0 1 0;
#X connect 72 0 1 0;
#X connect 73 0 1 0;
#X connect 74 0 1 0;
#X connect 75 0 2 0;
#X restore 455 984 pd tosymbol;
#X obj 355 987 bng 15 250 50 0 empty write_song2 empty 17 7 0 10 -262144
-1 -1;
#X obj 772 943 bng 15 250 50 0 empty write_song2 empty 17 7 0 10 -262144
-1 -1;
#X obj 772 960 delay 500;
#X obj 772 983 bng 15 250 50 0 empty empty empty 17 7 0 10 -262144
-1 -1;
#X obj 873 968 bng 15 250 50 0 empty write_song3 empty 17 7 0 10 -262144
-1 -1;
#X obj 111 1160 drip;
#X obj 132 1139 r tempo;
#X obj 111 1054 prepend;
#X obj 111 1111 spigot;
#X obj 144 1092 tgl 15 0 empty select_play empty 17 7 0 10 -262144
-1 -1 0 1;
#X obj 541 59 r select_start;
#X obj 268 218 r start;
#X obj 584 784 f;
#X obj 476 779 r chorus;
#X obj 260 803 r verse;
#X obj 210 484 s chorus;
#X obj 295 568 s verse;
#X obj 641 556 r write_song;
#X text 731 578 song structure;
#X obj 601 116 bng 15 250 50 0 empty empty empty 17 7 0 10 -262144
-1 -1;
#X obj 66 213 delay 1000;
#X floatatom 6 315 5 0 0 0 - - -;
#X connect 0 0 32 0;
#X connect 0 0 103 0;
#X connect 3 0 1 0;
#X connect 4 0 2 0;
#X connect 5 0 10 0;
#X connect 6 0 9 0;
#X connect 7 0 8 0;
#X connect 8 0 6 0;
#X connect 8 1 18 0;
#X connect 9 0 0 1;
#X connect 10 0 11 0;
#X connect 10 1 7 1;
#X connect 11 0 12 0;
#X connect 11 1 13 0;
#X connect 12 0 17 1;
#X connect 13 0 17 1;
#X connect 14 0 102 0;
#X connect 16 0 19 0;
#X connect 17 0 32 0;
#X connect 18 0 9 0;
#X connect 19 0 102 0;
#X connect 19 1 7 0;
#X connect 20 0 31 0;
#X connect 23 0 26 0;
#X connect 25 0 24 0;
#X connect 26 0 25 0;
#X connect 27 0 14 0;
#X connect 28 0 17 0;
#X connect 30 0 29 0;
#X connect 31 0 21 0;
#X connect 31 1 22 0;
#X connect 31 1 30 0;
#X connect 32 0 15 0;
#X connect 32 1 57 0;
#X connect 33 0 34 0;
#X connect 33 1 36 1;
#X connect 33 1 37 1;
#X connect 34 0 35 0;
#X connect 35 0 37 1;
#X connect 35 0 36 0;
#X connect 36 0 46 0;
#X connect 37 0 33 0;
#X connect 38 1 37 0;
#X connect 39 0 20 0;
#X connect 39 0 101 0;
#X connect 40 0 41 0;
#X connect 41 0 47 0;
#X connect 41 1 42 0;
#X connect 41 1 40 1;
#X connect 42 0 50 0;
#X connect 44 0 43 0;
#X connect 45 0 44 0;
#X connect 46 0 45 0;
#X connect 46 1 97 0;
#X connect 47 0 49 0;
#X connect 48 0 47 1;
#X connect 49 0 98 0;
#X connect 49 1 52 0;
#X connect 50 0 48 0;
#X connect 50 1 51 0;
#X connect 51 0 49 1;
#X connect 52 0 61 0;
#X connect 53 0 79 0;
#X connect 54 0 53 0;
#X connect 55 0 38 0;
#X connect 55 1 40 0;
#X connect 56 0 57 1;
#X connect 57 0 55 0;
#X connect 58 0 56 0;
#X connect 59 0 40 1;
#X connect 60 0 56 0;
#X connect 61 0 62 0;
#X connect 63 0 77 0;
#X connect 64 0 63 0;
#X connect 65 0 54 0;
#X connect 65 0 64 0;
#X connect 66 0 67 0;
#X connect 68 0 69 0;
#X connect 69 0 70 0;
#X connect 70 0 63 0;
#X connect 70 1 53 0;
#X connect 70 2 94 0;
#X connect 71 0 81 0;
#X connect 71 0 89 0;
#X connect 72 0 67 0;
#X connect 73 0 67 0;
#X connect 74 0 94 1;
#X connect 75 0 76 0;
#X connect 75 1 71 0;
#X connect 76 0 81 0;
#X connect 76 0 89 0;
#X connect 77 0 89 0;
#X connect 77 0 81 0;
#X connect 78 0 77 1;
#X connect 79 0 89 0;
#X connect 79 0 81 0;
#X connect 80 0 79 1;
#X connect 81 0 66 0;
#X connect 82 0 73 0;
#X connect 83 0 84 0;
#X connect 84 0 85 0;
#X connect 85 0 72 0;
#X connect 86 0 72 0;
#X connect 88 0 87 1;
#X connect 89 0 90 0;
#X connect 90 0 87 0;
#X connect 91 0 90 1;
#X connect 92 0 20 0;
#X connect 93 0 60 0;
#X connect 94 0 75 0;
#X connect 95 0 53 1;
#X connect 96 0 63 1;
#X connect 99 0 68 0;
#X connect 102 0 0 0;
#X restore -97 -413 pd song_maker;
#N canvas 740 302 703 716 midi-guitar 0;
#X obj 25 462 t l b;
#X obj 99 530 f 6;
#X obj 131 530 - 1;
#X obj 54 572 pack f f;
#X msg 54 726 \$2 \$1;
#X obj 114 509 f;
#X obj 99 550 abs;
#X obj 25 186 f 0;
#X obj 56 186 + 1;
#X obj 25 74 tgl 15 0 empty empty empty 17 7 0 10 -262144 -1 -1 0 1
;
#X obj 25 207 mod 8;
#X obj 353 183 s strum_speed;
#X obj 25 230 t f f;
#X obj 67 264 sel 0;
#X obj 25 293 + 1;
#X obj 25 344 list 0 48 52 55 60 64;
#X obj 231 345 l2s;
#X symbolatom 231 369 20 0 0 0 - - -;
#X floatatom 234 285 5 0 0 0 - - -;
#X obj 50 435 list-rev;
#X obj 25 390 list prepend;
#X obj 94 369 == 6;
#X obj 25 412 route 1 0;
#X obj 54 597 relay 0;
#X obj 25 513 t f b;
#X msg 52 162 0;
#X obj 25 489 drip 0;
#X obj 120 676 fifop;
#X obj 93 646 once;
#X obj 93 620 t b a;
#X obj 120 698 t a b;
#X obj 180 699 r strum_speed;
#X obj 52 142 sel 0;
#X obj 25 94 t f f;
#X floatatom 76 30 5 0 0 0 - - -;
#X obj 76 74 /;
#X msg 76 51 60000 \$1;
#X obj 76 97 * 0.5;
#X obj 25 119 metro 240;
#X obj 92 120 s quaver;
#X obj 384 74 / 6;
#X obj 384 49 r quaver;
#X obj 353 147 clip 0 40;
#X floatatom 353 18 5 0 0 0 - - -;
#X obj 377 95 t b f;
#X obj 353 125 f;
#X obj 147 720 del 15;
#X obj 25 317 strumming d r d u r u d u;
#N canvas 318 408 609 442 strings_out 0;
#X msg 65 335 \$1 0;
#X obj 26 39 inlet;
#X obj 26 61 route 6 5 4 3 2 1;
#X obj 26 253 t f l b;
#X obj 65 312 f 0;
#X msg 145 335 \$1 0;
#X obj 106 253 t f l b;
#X obj 145 312 f 0;
#X obj 45 361 noteout 6;
#X msg 225 335 \$1 0;
#X obj 186 253 t f l b;
#X obj 225 312 f 0;
#X msg 305 335 \$1 0;
#X obj 266 253 t f l b;
#X obj 305 312 f 0;
#X msg 385 335 \$1 0;
#X obj 346 253 t f l b;
#X obj 385 312 f 0;
#X msg 465 335 \$1 0;
#X obj 426 253 t f l b;
#X obj 465 312 f 0;
#X obj 125 361 noteout 5;
#X obj 205 361 noteout 4;
#X obj 285 361 noteout 3;
#X obj 365 361 noteout 2;
#X obj 445 361 noteout 1;
#X obj 26 227 pack 0 120;
#X obj 482 34 inlet;
#X obj 106 227 pack 0 120;
#X obj 186 227 pack 0 120;
#X obj 266 227 pack 0 120;
#X obj 346 226 pack 0 120;
#X obj 426 227 pack 0 120;
#X connect 0 0 8 0;
#X connect 1 0 2 0;
#X connect 2 0 26 0;
#X connect 2 1 28 0;
#X connect 2 2 29 0;
#X connect 2 3 30 0;
#X connect 2 4 31 0;
#X connect 2 5 32 0;
#X connect 3 0 4 1;
#X connect 3 1 8 0;
#X connect 3 2 4 0;
#X connect 4 0 0 0;
#X connect 5 0 21 0;
#X connect 6 0 7 1;
#X connect 6 1 21 0;
#X connect 6 2 7 0;
#X connect 7 0 5 0;
#X connect 9 0 22 0;
#X connect 10 0 11 1;
#X connect 10 1 22 0;
#X connect 10 2 11 0;
#X connect 11 0 9 0;
#X connect 12 0 23 0;
#X connect 13 0 14 1;
#X connect 13 1 23 0;
#X connect 13 2 14 0;
#X connect 14 0 12 0;
#X connect 15 0 24 0;
#X connect 16 0 17 1;
#X connect 16 1 24 0;
#X connect 16 2 17 0;
#X connect 17 0 15 0;
#X connect 18 0 25 0;
#X connect 19 0 20 1;
#X connect 19 1 25 0;
#X connect 19 2 20 0;
#X connect 20 0 18 0;
#X connect 26 0 3 0;
#X connect 27 0 26 1;
#X connect 27 0 28 1;
#X connect 27 0 29 1;
#X connect 27 0 30 1;
#X connect 27 0 31 1;
#X connect 27 0 32 1;
#X connect 28 0 6 0;
#X connect 29 0 10 0;
#X connect 30 0 13 0;
#X connect 31 0 16 0;
#X connect 32 0 19 0;
#X restore 85 755 pd strings_out;
#N canvas 437 203 1345 639 guitar_chords 0;
#X obj 17 74 div 12;
#X obj 69 74 mod 12;
#X obj 17 47 t f f;
#X obj 48 101 pack;
#X obj 48 124 route 0 1 2 3 4 5;
#X obj 81 210 s aug;
#X obj 48 250 s maj;
#X obj 64 230 s min;
#X obj 97 190 s dim;
#X obj 114 170 s sus4;
#X obj 130 148 s 7th;
#X obj 191 17 r maj;
#X obj 191 40 select 0 1 2 3 4 5 6 7 8 9 10 11;
#X obj 69 316 outlet;
#X obj 66 294 r chord;
#X obj 16 22 inlet;
#X msg 364 65 \; chord 0 47 54 59 63 66;
#X msg 191 432 \; chord 0 48 52 55 60 64;
#X msg 206 399 \; chord 0 49 53 56 61 65;
#X msg 222 366 \; chord 0 0 50 57 62 66;
#X msg 238 332 \; chord 0 0 51 58 63 67;
#X msg 254 299 \; chord 40 47 52 56 59 64;
#X msg 269 265 \; chord 41 48 53 57 60 65;
#X msg 285 232 \; chord 42 49 54 58 61 66;
#X msg 301 199 \; chord 43 47 50 55 59 67;
#X msg 332 132 \; chord 0 45 52 57 61 64;
#X msg 348 98 \; chord 0 46 53 58 62 65;
#X obj 541 40 select 0 1 2 3 4 5 6 7 8 9 10 11;
#X obj 541 17 r min;
#X msg 714 65 \; chord 0 47 54 59 62 66;
#X msg 698 98 \; chord 0 46 53 58 61 65;
#X msg 682 132 \; chord 0 45 52 57 60 64;
#X msg 541 432 \; chord 0 48 55 60 63 67;
#X msg 572 366 \; chord 0 0 50 57 62 65;
#X msg 588 332 \; chord 0 0 51 58 63 66;
#X msg 556 399 \; chord 0 49 56 61 64 68;
#X msg 604 299 \; chord 40 47 52 55 59 64;
#X msg 619 265 \; chord 41 48 53 56 60 65;
#X msg 635 232 \; chord 42 49 54 57 61 66;
#X msg 651 198 \; chord 43 50 55 58 62 67;
#X msg 667 166 \; chord 44 51 56 59 63 68;
#X obj 902 37 select 0 1 2 3 4 5 6 7 8 9 10 11;
#X obj 902 14 r 7th;
#X msg 902 429 \; chord 0 48 52 58 60 64;
#X msg 917 396 \; chord 0 49 56 59 65 68;
#X msg 933 363 \; chord 0 0 50 57 60 66;
#X msg 949 329 \; chord 0 0 51 58 61 67;
#X msg 965 296 \; chord 40 47 50 56 59 64;
#X msg 980 262 \; chord 41 48 51 57 60 65;
#X msg 996 229 \; chord 42 49 52 58 61 66;
#X msg 1012 196 \; chord 43 47 50 55 59 65;
#X msg 317 164 \; chord 44 51 56 60 63 68;
#X msg 1028 163 \; chord 44 51 54 60 63 68;
#X msg 1043 129 \; chord 0 45 52 55 61 64;
#X msg 1059 95 \; chord 0 46 53 56 62 65;
#X msg 1075 62 \; chord 0 47 54 57 63 66;
#X connect 0 0 3 0;
#X connect 1 0 3 1;
#X connect 2 0 0 0;
#X connect 2 1 1 0;
#X connect 3 0 4 0;
#X connect 4 0 6 0;
#X connect 4 1 7 0;
#X connect 4 2 5 0;
#X connect 4 3 8 0;
#X connect 4 4 9 0;
#X connect 4 5 10 0;
#X connect 11 0 12 0;
#X connect 12 0 17 0;
#X connect 12 1 18 0;
#X connect 12 2 19 0;
#X connect 12 3 20 0;
#X connect 12 4 21 0;
#X connect 12 5 22 0;
#X connect 12 6 23 0;
#X connect 12 7 24 0;
#X connect 12 8 51 0;
#X connect 12 9 25 0;
#X connect 12 10 26 0;
#X connect 12 11 16 0;
#X connect 14 0 13 0;
#X connect 15 0 2 0;
#X connect 27 0 32 0;
#X connect 27 1 35 0;
#X connect 27 2 33 0;
#X connect 27 3 34 0;
#X connect 27 4 36 0;
#X connect 27 5 37 0;
#X connect 27 6 38 0;
#X connect 27 7 39 0;
#X connect 27 8 40 0;
#X connect 27 9 31 0;
#X connect 27 10 30 0;
#X connect 27 11 29 0;
#X connect 28 0 27 0;
#X connect 41 0 43 0;
#X connect 41 1 44 0;
#X connect 41 2 45 0;
#X connect 41 3 46 0;
#X connect 41 4 47 0;
#X connect 41 5 48 0;
#X connect 41 6 49 0;
#X connect 41 7 50 0;
#X connect 41 8 52 0;
#X connect 41 9 53 0;
#X connect 41 10 54 0;
#X connect 41 11 55 0;
#X connect 42 0 41 0;
#X restore 231 318 pd guitar_chords;
#X connect 0 0 26 0;
#X connect 0 1 5 0;
#X connect 1 0 2 0;
#X connect 1 0 6 0;
#X connect 2 0 1 1;
#X connect 3 0 23 0;
#X connect 4 0 48 0;
#X connect 5 0 1 1;
#X connect 6 0 3 1;
#X connect 7 0 8 0;
#X connect 7 0 10 0;
#X connect 8 0 7 1;
#X connect 9 0 33 0;
#X connect 10 0 12 0;
#X connect 12 0 14 0;
#X connect 12 1 13 0;
#X connect 14 0 47 0;
#X connect 15 0 20 0;
#X connect 16 0 17 0;
#X connect 18 0 49 0;
#X connect 19 0 0 0;
#X connect 20 0 22 0;
#X connect 21 0 20 1;
#X connect 22 0 0 0;
#X connect 22 1 19 0;
#X connect 23 0 4 0;
#X connect 23 1 29 0;
#X connect 24 0 3 0;
#X connect 24 1 1 0;
#X connect 25 0 7 1;
#X connect 26 0 24 0;
#X connect 27 0 30 0;
#X connect 27 1 28 1;
#X connect 28 0 27 0;
#X connect 29 0 28 0;
#X connect 29 1 27 0;
#X connect 30 0 4 0;
#X connect 30 1 46 0;
#X connect 31 0 46 1;
#X connect 32 0 25 0;
#X connect 33 0 38 0;
#X connect 33 1 32 0;
#X connect 34 0 36 0;
#X connect 35 0 37 0;
#X connect 36 0 35 0;
#X connect 37 0 38 1;
#X connect 37 0 39 0;
#X connect 38 0 7 0;
#X connect 40 0 44 0;
#X connect 41 0 40 0;
#X connect 42 0 11 0;
#X connect 43 0 45 0;
#X connect 44 0 45 0;
#X connect 44 1 42 2;
#X connect 45 0 42 0;
#X connect 46 0 27 0;
#X connect 47 0 15 0;
#X connect 47 1 5 1;
#X connect 47 1 21 0;
#X connect 47 2 48 1;
#X connect 49 0 16 0;
#X connect 49 0 15 1;
#X restore -189 -413 pd midi-guitar;
#X obj -253 -478 declare -path ../handy-abs -path ../pitch-abs;
