#N canvas 480 247 381 211 10;
#X obj 7 58 route \$1;
#X obj 7 83 t f f;
#X obj 7 129 + 1;
#X obj 7 10 table \$2_orden1-\$1 72;
#X obj 7 107 tabread \$2_orden1-\$1;
#X obj 7 153 tabwrite \$2_orden1-\$1;
#X obj 7 33 r fill_table-\$2;
#X connect 0 0 1 0;
#X connect 1 0 4 0;
#X connect 1 1 5 1;
#X connect 2 0 5 0;
#X connect 4 0 2 0;
#X connect 6 0 0 0;
