#N canvas 1 87 524 708 10;
#X text 101 235 convert pdf to jpg (ImageMagick 6.8.9-9);
#X obj 17 284 shell;
#X obj 34 122 textfile;
#X text 91 187 compile score with lilypond;
#X text 78 144 insert the music notation into the lilypond code;
#X obj 17 57 t b b a b;
#X obj 68 78 s reset-score;
#X obj 48 434 gemhead;
#X obj 48 570 pix_texture;
#X obj 48 506 pix_image;
#X obj 48 526 color 0 0.5 0;
#X msg 84 548 env 2 \, quality 0;
#X obj 57 482 t a b;
#X msg 208 544 0 \, destroy;
#X obj 57 329 f 0;
#X obj 87 329 + 1;
#X obj 44 305 t b;
#X obj 72 286 r reset-score;
#X msg 72 308 0;
#X obj 25 189 r compile;
#X obj 37 236 r convert;
#X obj 91 391 s compile;
#X obj 74 413 s convert;
#X obj 57 370 sel 2 1 0;
#X obj 201 499 once;
#X obj 57 350 pipe 50;
#X obj 201 567 gemwin 1;
#X msg 34 99 write /home/angel/.lily_music.txt cr;
#X msg 17 167 python .lilypondize.py;
#X msg 25 211 lilypond .lily_code.ly;
#X msg 37 258 convert -density 600 .lily_code.pdf .lily_code.jpg;
#X msg 57 459 open /home/angel/.lily_code.jpg;
#X msg 64 789 font ./WorkSans-Regular.ttf \, alias 1;
#X obj 48 860 text2d C:maj;
#X obj 124 767 text2d A:min;
#X obj 124 675 separator;
#X obj 64 741 loadbang;
#X obj 133 721 r chord2;
#X obj 133 744 tosymbol;
#X obj 256 693 s chord1;
#X obj 314 693 s chord2;
#X obj 73 837 tosymbol;
#X obj 73 813 r chord1;
#X obj 314 631 loadbang;
#X msg 256 671 C:maj;
#X obj 48 632 translateXYZ -6 2 0;
#X obj 124 698 translateXYZ 8 0 0;
#X msg 314 671 Am7;
#X obj 17 15 r rhythmic_seq;
#X obj 17 36 prepend set;
#X obj 48 611 rectangle 22 3;
#X msg 201 522 reset \, dimen 1000 200 \, title Loop \, create \, 1
;
#X obj 48 590 translate -1.2 0.25 1 0;
#X obj 17 144 delay 500;
#X text 121 13 <-- receives lilypond note format;
#X connect 1 1 16 0;
#X connect 5 0 53 0;
#X connect 5 1 27 0;
#X connect 5 2 2 0;
#X connect 5 3 6 0;
#X connect 7 0 9 0;
#X connect 8 0 52 0;
#X connect 9 0 10 0;
#X connect 10 0 8 0;
#X connect 11 0 8 0;
#X connect 12 0 9 0;
#X connect 12 1 11 0;
#X connect 12 1 24 0;
#X connect 13 0 26 0;
#X connect 14 0 15 0;
#X connect 14 0 25 0;
#X connect 15 0 14 1;
#X connect 16 0 14 0;
#X connect 17 0 18 0;
#X connect 18 0 14 1;
#X connect 19 0 29 0;
#X connect 20 0 30 0;
#X connect 23 0 31 0;
#X connect 23 1 22 0;
#X connect 23 2 21 0;
#X connect 24 0 51 0;
#X connect 25 0 23 0;
#X connect 27 0 2 0;
#X connect 28 0 1 0;
#X connect 29 0 1 0;
#X connect 30 0 1 0;
#X connect 31 0 12 0;
#X connect 32 0 33 0;
#X connect 32 0 34 0;
#X connect 35 0 46 0;
#X connect 36 0 32 0;
#X connect 37 0 38 0;
#X connect 38 0 34 0;
#X connect 41 0 33 0;
#X connect 42 0 41 0;
#X connect 43 0 44 0;
#X connect 43 0 47 0;
#X connect 44 0 39 0;
#X connect 45 0 33 0;
#X connect 45 0 35 0;
#X connect 46 0 34 0;
#X connect 47 0 40 0;
#X connect 48 0 49 0;
#X connect 49 0 5 0;
#X connect 50 0 45 0;
#X connect 51 0 26 0;
#X connect 52 0 50 0;
#X connect 53 0 28 0;
