#N canvas 431 275 420 421 10;
#X obj 56 166 list split 1;
#X obj 56 96 until;
#X obj 56 147 list append;
#X obj 126 79 bang;
#X obj 137 166 list split 1;
#X obj 137 147 list append;
#X obj 56 116 t b b;
#X text 36 28 lista A;
#X text 197 46 Lista B;
#X obj 56 202 -;
#X obj 56 245 pow 2;
#X obj 56 224 abs;
#X obj 56 272 +;
#X obj 92 255 f;
#X obj 56 297 t f f;
#X obj 39 320 f;
#X obj 39 341 sqrt;
#X msg 92 208 0;
#X obj 39 48 inlet;
#X obj 200 64 inlet;
#X obj 39 361 outlet;
#X obj 200 112 list;
#X obj 39 72 t b b l b b;
#X connect 0 0 9 0;
#X connect 0 1 2 1;
#X connect 0 2 3 0;
#X connect 1 0 6 0;
#X connect 2 0 0 0;
#X connect 3 0 1 1;
#X connect 4 0 9 1;
#X connect 4 1 5 1;
#X connect 5 0 4 0;
#X connect 6 0 2 0;
#X connect 6 1 5 0;
#X connect 9 0 11 0;
#X connect 10 0 12 0;
#X connect 11 0 10 0;
#X connect 12 0 14 0;
#X connect 13 0 12 1;
#X connect 14 0 15 1;
#X connect 14 1 13 0;
#X connect 15 0 16 0;
#X connect 16 0 20 0;
#X connect 17 0 13 0;
#X connect 18 0 22 0;
#X connect 19 0 21 1;
#X connect 21 0 5 1;
#X connect 22 0 15 0;
#X connect 22 1 1 0;
#X connect 22 2 2 1;
#X connect 22 3 17 0;
#X connect 22 4 21 0;
