#N canvas 12 23 480 381 10;
#X msg -25 117 bang;
#X obj 135 204 + 1;
#X obj -25 142 t b b;
#X obj 107 205 f 1;
#X obj -25 227 list append;
#X obj 48 227 t l;
#X obj -46 260 list;
#X obj 10 262 list split 1;
#X obj 10 293 outlet;
#X obj -65 24 inlet;
#X obj 107 227 outlet;
#X text -57 335 angel.faraldo@upf.edu \, 2015;
#X obj 79 305 print listdir;
#X msg -57 45 bang;
#X text -14 43 "bang" to retrieve filenames individually;
#X obj -25 166 folder_list \$1/*.txt;
#X msg -48 67 get;
#X obj -65 93 route bang get;
#X msg 79 283 NO MORE FILES! Send "get" message to update list.;
#X obj -25 188 t a b;
#X text -17 66 "get to get list of files and init;
#X text -67 -1 argument 1: folder to look for text files.;
#X msg 122 159 1;
#X connect 0 0 2 0;
#X connect 1 0 3 1;
#X connect 2 0 15 0;
#X connect 2 1 4 1;
#X connect 2 1 22 0;
#X connect 3 0 1 0;
#X connect 3 0 10 0;
#X connect 4 0 5 0;
#X connect 4 0 6 1;
#X connect 5 0 4 1;
#X connect 6 0 7 0;
#X connect 7 0 8 0;
#X connect 7 1 6 1;
#X connect 7 2 18 0;
#X connect 9 0 17 0;
#X connect 13 0 17 0;
#X connect 15 0 19 0;
#X connect 16 0 17 0;
#X connect 17 0 6 0;
#X connect 17 1 0 0;
#X connect 18 0 12 0;
#X connect 19 0 4 0;
#X connect 19 1 3 0;
#X connect 22 0 3 1;
