#N canvas 314 23 406 717 10;
#X declare -lib jasch_lib;
#X obj -14 297 textfile;
#X obj -44 94 a.listdir ../textfiles;
#X floatatom 85 145 5 0 0 0 - - -;
#X msg -23 68 get;
#X obj -44 68 bng 15 250 50 0 empty empty empty 17 7 0 10 -262144 -1
-1;
#X obj -24 383 unpack s s;
#X obj -24 361 strtok :;
#X symbolatom 33 405 5 0 0 0 - - -;
#X symbolatom -24 405 3 0 0 0 - - -;
#X obj -24 338 tosymbol;
#X floatatom -24 479 5 0 0 0 - - -;
#N canvas 0 22 450 278 (subpatch) 0;
#X array profile 12 float 1;
#A 0 0.0880503 0 0.176101 0 0.157233 0 0.0880503 0.245283 0 0.0880503
0 0.157233;
#X coords 0 1.1 11 0 100 50 1 0 0;
#X restore 82 647 graph;
#N canvas 520 317 457 294 root 0;
#X obj 15 11 inlet;
#X obj 15 33 sel C Db D Eb E F Gb G Ab A Bb B;
#X msg 15 139 0;
#X msg 45 139 1;
#X msg 75 139 2;
#X msg 105 139 3;
#X msg 135 139 4;
#X msg 165 139 5;
#X msg 195 139 6;
#X msg 225 139 7;
#X msg 255 139 8;
#X msg 285 139 9;
#X msg 315 139 10;
#X msg 345 139 11;
#X obj 15 267 outlet;
#X obj 271 71 print ERROR;
#X msg 271 50 unrecognized pitch class;
#X connect 0 0 1 0;
#X connect 1 0 2 0;
#X connect 1 1 3 0;
#X connect 1 2 4 0;
#X connect 1 3 5 0;
#X connect 1 4 6 0;
#X connect 1 5 7 0;
#X connect 1 6 8 0;
#X connect 1 7 9 0;
#X connect 1 8 10 0;
#X connect 1 9 11 0;
#X connect 1 10 12 0;
#X connect 1 11 13 0;
#X connect 1 12 16 0;
#X connect 2 0 14 0;
#X connect 3 0 14 0;
#X connect 4 0 14 0;
#X connect 5 0 14 0;
#X connect 6 0 14 0;
#X connect 7 0 14 0;
#X connect 8 0 14 0;
#X connect 9 0 14 0;
#X connect 10 0 14 0;
#X connect 11 0 14 0;
#X connect 12 0 14 0;
#X connect 13 0 14 0;
#X connect 16 0 15 0;
#X restore -24 427 pd root;
#N canvas 207 56 613 328 type 0;
#X obj 15 -10 inlet;
#X obj 15 267 outlet;
#X obj 360 109 print ERROR;
#X msg 360 88 unrecognized chord type;
#X msg 15 139 0 \, 4 \, 7;
#X msg 132 139 0 \, 4 \, 8;
#X msg 192 139 0 \, 3 \, 6;
#X msg 312 139 0 \, 4 \, 7 \, 10;
#X msg 253 139 0 \, 5 \, 7;
#X msg 73 139 0 \, 3 \, 7;
#X symbolatom 26 18 10 0 0 0 - - -;
#X obj 15 43 sel maj min aug dim sus4;
#X obj 312 60 fromsymbol;
#X obj 312 86 sel 7;
#X msg 322 179 0 \, 4 \, 10;
#X connect 0 0 10 0;
#X connect 0 0 11 0;
#X connect 3 0 2 0;
#X connect 4 0 1 0;
#X connect 5 0 1 0;
#X connect 6 0 1 0;
#X connect 7 0 1 0;
#X connect 8 0 1 0;
#X connect 9 0 1 0;
#X connect 11 0 4 0;
#X connect 11 1 9 0;
#X connect 11 2 5 0;
#X connect 11 3 6 0;
#X connect 11 4 8 0;
#X connect 11 5 12 0;
#X connect 12 0 13 0;
#X connect 13 0 7 0;
#X connect 13 1 3 0;
#X restore -24 546 pd type;
#X obj -25 568 +;
#X obj -24 523 symbol;
#X obj -24 499 t b f;
#X obj -25 592 mod 12;
#X obj -24 681 tabwrite profile;
#X obj -25 635 tabread profile;
#X obj -25 613 t f f;
#X obj -44 272 until;
#X msg -44 226 read \$1 cr \, rewind \, bang;
#X obj -44 249 route bang;
#N canvas 29 23 664 342 key_profiles 0;
#X obj 15 1 r reset;
#X text 54 55 krumhansl;
#X msg 15 206 6.33 2.68 3.52 5.38 2.6 3.53 2.54 4.75 3.98 2.69 3.34
3.17;
#X msg 42 74 6.35 2.23 3.48 2.33 4.38 4.09 2.52 5.19 2.39 3.66 2.29
2.88;
#X obj 15 42 t b b;
#X obj 24 22 bng 15 250 50 0 empty empty empty 17 7 0 10 -262144 -1
-1;
#X obj 42 96 t a a;
#X obj 135 113 sum;
#N canvas 279 174 450 471 list_divide_f 0;
#X obj 65 39 inlet;
#X obj 301 38 inlet;
#X text 41 19 list with weights;
#X obj 127 116 list split 1;
#X obj 172 196 list;
#X obj 104 141 t b b f;
#X obj 303 283 list;
#X obj 90 366 list;
#X obj 89 386 outlet;
#X msg 410 92 bang;
#X obj 90 82 t b a b b;
#X obj 235 275 t a a;
#X obj 235 254 list prepend;
#X obj 87 61 list;
#X obj 236 72 t b a;
#X obj 235 187 /;
#X text 299 20 float;
#X obj 250 124 f;
#X connect 0 0 10 0;
#X connect 0 0 13 1;
#X connect 1 0 14 0;
#X connect 3 0 5 0;
#X connect 3 1 4 1;
#X connect 4 0 3 0;
#X connect 5 0 4 0;
#X connect 5 2 15 0;
#X connect 6 0 12 1;
#X connect 7 0 8 0;
#X connect 9 0 12 1;
#X connect 10 0 7 0;
#X connect 10 1 3 0;
#X connect 10 2 9 0;
#X connect 10 3 17 0;
#X connect 11 0 7 1;
#X connect 11 1 6 0;
#X connect 12 0 11 0;
#X connect 13 0 10 0;
#X connect 14 0 13 0;
#X connect 14 1 17 1;
#X connect 15 0 12 0;
#X connect 17 0 15 1;
#X restore 42 134 pd list_divide_f;
#X obj 15 226 t a a;
#X obj 108 243 sum;
#N canvas 279 174 450 471 list_divide_f 0;
#X obj 65 39 inlet;
#X obj 301 38 inlet;
#X text 41 19 list with weights;
#X obj 127 116 list split 1;
#X obj 172 196 list;
#X obj 104 141 t b b f;
#X obj 303 283 list;
#X obj 90 366 list;
#X obj 89 386 outlet;
#X msg 410 92 bang;
#X obj 90 82 t b a b b;
#X obj 235 275 t a a;
#X obj 235 254 list prepend;
#X obj 87 61 list;
#X obj 236 72 t b a;
#X obj 235 187 /;
#X text 299 20 float;
#X obj 250 124 f;
#X connect 0 0 10 0;
#X connect 0 0 13 1;
#X connect 1 0 14 0;
#X connect 3 0 5 0;
#X connect 3 1 4 1;
#X connect 4 0 3 0;
#X connect 5 0 4 0;
#X connect 5 2 15 0;
#X connect 6 0 12 1;
#X connect 7 0 8 0;
#X connect 9 0 12 1;
#X connect 10 0 7 0;
#X connect 10 1 3 0;
#X connect 10 2 9 0;
#X connect 10 3 17 0;
#X connect 11 0 7 1;
#X connect 11 1 6 0;
#X connect 12 0 11 0;
#X connect 13 0 10 0;
#X connect 14 0 13 0;
#X connect 14 1 17 1;
#X connect 15 0 12 0;
#X connect 17 0 15 1;
#X restore 15 264 pd list_divide_f;
#X text 27 187 krumhansl;
#X obj 42 156 tabset \$0-major;
#X obj 15 286 tabset \$0-minor;
#X obj 145 156 table \$0-major 12;
#X obj 115 286 table \$0-minor 12;
#X connect 0 0 4 0;
#X connect 2 0 9 0;
#X connect 3 0 6 0;
#X connect 4 0 2 0;
#X connect 4 1 3 0;
#X connect 5 0 4 0;
#X connect 6 0 8 0;
#X connect 6 1 7 0;
#X connect 7 0 8 1;
#X connect 8 0 13 0;
#X connect 9 0 11 0;
#X connect 9 1 10 0;
#X connect 10 0 11 1;
#X connect 11 0 14 0;
#X restore -44 24 pd key_profiles;
#X obj -44 4 import jasch_lib;
#X obj 31 338 s end_file;
#X msg -5 178 \; profile const 0 \; reset bang;
#X obj -36 117 print filename;
#X obj -25 659 + 0.1;
#X obj 39 318 a.normalize profile;
#N canvas 582 23 408 701 find_key 0;
#X obj 92 220 a.euclidist;
#X obj 202 100 t b b;
#X obj 229 163 tabdump profile;
#X obj 202 79 r end_file;
#X obj 189 242 t l;
#X obj 106 325 list;
#X obj 75 198 a.list-rotate;
#X obj 130 156 tabdump;
#X obj 123 177 t b l;
#X obj -4 22 sel 12;
#X msg 200 57 1 2 3 4 5 6 7 8 9 10 11 12;
#X obj 51 22 t f b;
#X obj -4 64 once;
#X obj 169 218 r reset;
#X obj 17 43 r reset;
#X obj 100 241 list prepend;
#X obj 51 0 drip 100;
#X obj -4 85 del 1;
#X obj 106 346 sort;
#X obj 100 283 length;
#X obj 100 304 sel 24;
#X obj 100 262 t l l;
#X obj 86 370 t l f;
#X obj 98 416 ==;
#X obj 86 391 drip 0;
#X obj 106 526 list;
#X obj 58 416 sel 1;
#X obj 58 481 f 1;
#X obj 88 481 + 1;
#X obj 73 438 r reset;
#X msg 73 459 1;
#X obj 106 503 t b f;
#X obj 76 551 list split;
#N canvas 248 157 765 305 estimation 0;
#X obj 16 13 inlet;
#X obj 16 273 outlet;
#X obj 16 35 select 0 1 2 3 4 5 6 7 8 9 10 11 12 13 14 15 16 17 18
19 20 21 22 23;
#X msg 16 148 B;
#X msg 46 148 Bb;
#X msg 76 148 A;
#X msg 106 148 Ab;
#X msg 136 148 G;
#X msg 166 148 Gb;
#X msg 196 148 F;
#X msg 226 148 E;
#X msg 256 148 Eb;
#X msg 286 148 D;
#X msg 316 148 Db;
#X msg 346 148 C;
#X msg 376 148 Bm;
#X msg 406 148 Bbm;
#X msg 436 148 Am;
#X msg 466 148 Abm;
#X msg 496 148 Gm;
#X msg 526 148 Gbm;
#X msg 556 148 Fm;
#X msg 586 148 Em;
#X msg 616 148 Ebm;
#X msg 646 148 Dm;
#X msg 676 148 Dbm;
#X msg 706 148 Cm;
#X connect 0 0 2 0;
#X connect 2 0 3 0;
#X connect 2 1 4 0;
#X connect 2 2 5 0;
#X connect 2 3 6 0;
#X connect 2 4 7 0;
#X connect 2 5 8 0;
#X connect 2 6 9 0;
#X connect 2 7 10 0;
#X connect 2 8 11 0;
#X connect 2 9 12 0;
#X connect 2 10 13 0;
#X connect 2 11 14 0;
#X connect 2 12 15 0;
#X connect 2 13 16 0;
#X connect 2 14 17 0;
#X connect 2 15 18 0;
#X connect 2 16 19 0;
#X connect 2 17 20 0;
#X connect 2 18 21 0;
#X connect 2 19 22 0;
#X connect 2 20 23 0;
#X connect 2 21 24 0;
#X connect 2 22 25 0;
#X connect 2 23 26 0;
#X connect 3 0 1 0;
#X connect 4 0 1 0;
#X connect 5 0 1 0;
#X connect 6 0 1 0;
#X connect 7 0 1 0;
#X connect 8 0 1 0;
#X connect 9 0 1 0;
#X connect 10 0 1 0;
#X connect 11 0 1 0;
#X connect 12 0 1 0;
#X connect 13 0 1 0;
#X connect 14 0 1 0;
#X connect 15 0 1 0;
#X connect 16 0 1 0;
#X connect 17 0 1 0;
#X connect 18 0 1 0;
#X connect 19 0 1 0;
#X connect 20 0 1 0;
#X connect 21 0 1 0;
#X connect 22 0 1 0;
#X connect 23 0 1 0;
#X connect 24 0 1 0;
#X connect 25 0 1 0;
#X connect 26 0 1 0;
#X restore 133 617 pd estimation;
#X obj 76 573 drip 0;
#X obj 76 595 route bang;
#X obj 130 106 \$0;
#X msg 130 134 set \$1-major \, bang;
#X obj -4 105 \$0;
#X msg -4 125 set \$1-minor \, bang;
#X obj 133 661 s key_estimation;
#X obj 133 639 tosymbol;
#X connect 0 0 15 0;
#X connect 1 0 36 0;
#X connect 1 1 2 0;
#X connect 2 0 0 1;
#X connect 3 0 1 0;
#X connect 4 0 15 1;
#X connect 5 0 18 0;
#X connect 6 0 0 0;
#X connect 7 0 8 0;
#X connect 8 0 10 0;
#X connect 8 1 6 1;
#X connect 9 0 12 0;
#X connect 10 0 16 0;
#X connect 11 0 9 0;
#X connect 11 1 6 0;
#X connect 12 0 17 0;
#X connect 13 0 15 1;
#X connect 14 0 12 1;
#X connect 15 0 4 0;
#X connect 15 0 21 0;
#X connect 16 0 11 0;
#X connect 17 0 38 0;
#X connect 18 0 22 0;
#X connect 18 1 25 1;
#X connect 19 0 20 0;
#X connect 20 0 5 0;
#X connect 21 0 19 0;
#X connect 21 1 5 1;
#X connect 22 0 24 0;
#X connect 22 1 23 1;
#X connect 23 0 26 0;
#X connect 24 0 23 0;
#X connect 25 0 32 0;
#X connect 26 0 27 0;
#X connect 27 0 28 0;
#X connect 27 0 31 0;
#X connect 28 0 27 1;
#X connect 29 0 30 0;
#X connect 30 0 27 1;
#X connect 31 0 25 0;
#X connect 31 1 32 1;
#X connect 32 0 34 0;
#X connect 33 0 41 0;
#X connect 34 0 35 0;
#X connect 35 1 33 0;
#X connect 36 0 37 0;
#X connect 37 0 7 0;
#X connect 38 0 39 0;
#X connect 39 0 7 0;
#X connect 41 0 40 0;
#X restore -44 44 pd find_key;
#X obj 60 51 metro 3000;
#X obj 60 30 tgl 15 0 empty empty empty 17 7 0 10 -262144 -1 -1 0 1
;
#N canvas 554 23 704 500 type_table 0;
#X obj 31 -115 tabwrite TYPE_TABLE;
#N canvas 0 22 450 278 (subpatch) 0;
#X array TYPE_TABLE 6 float 1;
#A 0 0 0 0 0 0 0;
#X coords 0 1 5 0 200 140 1 0 0;
#X restore 380 -293 graph;
#X obj 31 -137 + 0.01;
#X obj 31 -159 tabread TYPE_TABLE;
#X msg 229 -217 \; TYPE_TABLE const 0;
#X obj 31 -195 r type_chord;
#X msg 229 -252 \; TYPE_TABLE normalize;
#X obj 142 -139 r type_chord;
#X connect 2 0 0 0;
#X connect 3 0 2 0;
#X connect 7 0 0 1;
#X restore 608 66 pd type_table;
#N canvas 668 23 626 643 type_and_root_table 0;
#X obj 192 -52 r type_chord;
#X obj 107 -52 r root_chord;
#X obj 192 -26 * 12;
#X obj 107 21 +;
#X obj 71 139 tabwrite root_and_type_table;
#N canvas 0 22 450 278 (subpatch) 0;
#X array root_and_type_table 72 float 1;
#A 0 2018 0 1064 0 0 516 68 1798 0 2 0 0 102 0 649 0 1414 0 0 0 0 1929
0 0 0 0 0 0 0 0 0 0 0 0 0 0 0 0 0 0 0 0 0 0 0 0 0 0 0 0 0 0 0 0 0 0
0 0 0 0 0 0 36 0 0 0 0 0 0 26 0 238;
#X coords 0 100 71 0 200 140 2 0 0;
#X restore 42 213 graph;
#X msg 338 95 \; root_and_type_table normalize;
#X obj 71 93 tabread root_and_type_table;
#X msg 338 62 \; root_and_type_table const 0;
#X msg 277 166 \; root_and_type_table write root_and_type_table.txt
;
#X floatatom 167 45 5 0 0 0 - - -;
#X floatatom 194 3 5 0 0 0 - - -;
#X floatatom 128 -12 5 0 0 0 - - -;
#X obj 71 115 + 1;
#X msg 271 279 \; root_and_type_table write song99-chords.txt;
#X obj 107 61 t f f;
#X connect 0 0 2 0;
#X connect 1 0 3 0;
#X connect 1 0 12 0;
#X connect 2 0 3 1;
#X connect 2 0 11 0;
#X connect 3 0 10 0;
#X connect 3 0 15 0;
#X connect 7 0 13 0;
#X connect 13 0 4 0;
#X connect 15 0 7 0;
#X connect 15 1 4 1;
#X restore 330 107 pd type_and_root_table;
#N canvas 366 23 814 730 reduction_table 1;
#X obj 193 -86 r key_estimation;
#X floatatom 243 -24 5 0 0 0 - - -;
#X floatatom 158 -24 5 0 0 0 - - -;
#X text 281 -31 0 = major;
#X text 281 -21 1 = minor;
#X text 86 13 pitch class;
#X obj 201 18 t b f;
#X obj 488 65 -;
#X obj 484 -20 r root_chord;
#X obj 488 89 mod 12;
#X floatatom 541 83 5 0 0 0 - - -;
#X obj 204 76 sel 0 1;
#X msg -11 157 set major_table_reduction;
#X msg 153 157 set minor_table_reduction;
#X obj 488 117 t f f;
#X obj 302 240 + 0.01;
#X obj 298 273 tabwrite major;
#N canvas 0 22 450 278 (subpatch) 0;
#X array major_table_reduction 12 float 1;
#A 0 1 0.0507453 0.645374 0.119998 0.269847 0.83343 0.0495514 0.900897
0.0740285 0.589848 0.422683 0.170146;
#X coords 0 1 11 0 200 140 1 0 0;
#X restore 48 316 graph;
#X floatatom 544 122 5 0 0 0 - - -;
#N canvas 0 22 450 278 (subpatch) 0;
#X array minor_table_reduction 12 float 1;
#A 0 0.707178 0.193369 0.204419 0.635356 0.112338 1 0 0.60589 0.508285
0.112338 0.602207 0;
#X coords 0 1 11 0 200 140 1 0 0;
#X restore 272 318 graph;
#X msg 53 474 \; major_table_reduction normalize;
#X msg 281 474 \; minor_table_reduction normalize;
#X msg 53 522 \; major_table_reduction const 0;
#X msg 281 522 \; minor_table_reduction const 0;
#X msg 410 194 \; major_table_reduction write tabla1.txt;
#X obj 302 215 tabread;
#X text 506 150 FALTA CONECTAR!;
#X obj 193 -41 key2pc;
#X connect 0 0 27 0;
#X connect 6 1 7 1;
#X connect 7 0 9 0;
#X connect 8 0 7 0;
#X connect 9 0 10 0;
#X connect 9 0 14 0;
#X connect 11 0 12 0;
#X connect 11 1 13 0;
#X connect 12 0 16 0;
#X connect 12 0 25 0;
#X connect 13 0 16 0;
#X connect 13 0 25 0;
#X connect 14 1 18 0;
#X connect 15 0 16 0;
#X connect 25 0 15 0;
#X connect 27 0 2 0;
#X connect 27 0 6 0;
#X connect 27 1 1 0;
#X connect 27 1 11 0;
#X restore 608 46 pd reduction_table;
#X obj 81 609 s modul_chord;
#X obj 159 30 f;
#X obj 159 51 until;
#X obj 159 9 bng 15 250 50 0 empty empty empty 17 7 0 10 -262144 -1
-1;
#N canvas 414 48 1048 699 chord_accumulation 0;
#X obj 122 40 sel maj min aug dim sus4;
#X obj 286 57 fromsymbol;
#X obj 286 81 sel 7;
#X msg 330 98 unrecognize chord type;
#X obj 330 120 print ERROR;
#X msg 150 122 1;
#X msg 178 122 2;
#X msg 206 122 3;
#X msg 234 122 4;
#X msg 262 122 5;
#X msg 122 122 0;
#X obj 191 183 * 12;
#X obj 367 218 r key_estimation;
#X obj 48 388 -;
#X obj 63 295 t l;
#X obj 9 271 list prepend;
#X obj 9 16 inlet;
#X obj 122 16 inlet;
#X floatatom 437 396 5 0 0 0 - - -;
#X obj 33 354 drip 0;
#X text 482 361 acordes reducidos a grados (solo dos tonalidades: major
y menor);
#X obj 394 463 prepend;
#X obj 500 542 route 0 1;
#X floatatom 582 579 5 0 0 0 - - -;
#X floatatom 429 563 5 0 0 0 - - -;
#X text 417 577 major key;
#X text 617 569 minor key;
#X obj 266 181 s type_chord;
#X floatatom 377 396 5 0 0 0 - - -;
#X obj 32 330 list;
#X symbolatom 382 238 10 0 0 0 - - -;
#X obj 437 270 print key;
#X floatatom 81 348 5 0 0 0 - - -;
#X obj 212 246 t l;
#X obj 154 222 list prepend;
#X obj 206 399 drip 0;
#X obj 192 342 list;
#X obj 367 269 t b b b s;
#X obj 48 413 mod 12;
#X obj 220 436 +;
#X obj 811 796;
#X obj 383 702 tabwrite major_table;
#X obj 525 703 tabwrite minor_table;
#X obj 383 655 tabread major_table;
#X obj 525 656 tabread minor_table;
#X msg 708 507 \; major_table write major_table_reducton.txt;
#X msg 708 543 \; minor_table write minor_table_reducton.txt;
#X text 706 489 WRITE TEXTFILE FROM BOTH TABLES:;
#X msg 706 608 \; major_table const 0;
#X msg 706 642 \; minor_table const 0;
#X text 704 591 PUT TO ZERO BOTH TABLES:;
#N canvas 0 22 450 278 (subpatch) 0;
#X array major_table 72 float 3;
#A 0 1126 0 145 0 0 951 0 976 0 1 58 4 0 0 247 0 89 6 0 81 0 655 0
0 0 0 0 0 0 0 0 0 0 0 0 0 0 0 0 0 0 0 0 0 0 0 0 0 0 0 0 0 0 0 0 0 0
0 0 0 0 0 31 0 14 0 0 18 0 13 0 0;
#X coords 0 500 71 0 200 140 1 0 0;
#X restore 586 153 graph;
#N canvas 0 22 450 278 (subpatch) 0;
#X array minor_table 72 float 3;
#A 0 0 62 62 1032 0 5 0 0 783 2 259 0 1607 0 0 3 0 1249 0 64 93 0 0
0 0 0 0 0 0 0 0 0 0 0 0 0 0 0 0 0 0 0 0 0 0 0 0 0 0 0 0 0 0 0 0 0 0
0 0 0 0 0 7 0 0 0 0 217 0 0 0 0;
#X coords 0 500 71 0 200 140 2 0 0;
#X restore 792 152 graph;
#X obj 383 679 + 1;
#X obj 525 680 + 1;
#X obj 486 580 t f f;
#X obj 537 600 t f f;
#N canvas 400 23 933 643 orden1 0;
#X obj 94 146 inlet;
#X obj 94 173 route 0 1;
#X obj 39 323 pack f f;
#X obj 100 323 t f;
#X obj 280 323 pack f f;
#X obj 341 323 t f;
#X obj 315 387 print minor pattern;
#X obj 97 399 print major pattern;
#X msg 55 363 \$2 \$1;
#X msg 296 363 \$2 \$1;
#X obj 39 248 i;
#X obj 280 248 i;
#X obj 39 129 bng 15 250 50 0 empty empty empty 17 7 0 10 -262144 -1
-1;
#X obj 54 228 once;
#X obj 295 228 once;
#X obj 378 160 bng 15 250 50 0 empty listdir_textfile empty 17 7 0
10 -262144 -1 -1;
#X obj 92 213 bng 15 250 50 0 empty listdir_textfile empty 17 7 0 10
-262144 -1 -1;
#X obj 241 102 bng 15 250 50 0 empty empty empty 17 7 0 10 -262144
-1 -1;
#X text 393 158 listdir_textfile;
#X text 108 213 listdir_textfile;
#X text 259 101 end_file;
#X text 59 129 end_file;
#X obj 39 93 r end_file;
#X obj 246 51 r end_file;
#X obj 61 446 s fill_table major;
#X obj 307 455 s fill_table minor;
#X obj 471 262 multiplinstancer tables_major 72 major;
#X connect 0 0 1 0;
#X connect 1 0 2 0;
#X connect 1 1 4 0;
#X connect 2 0 3 0;
#X connect 2 0 8 0;
#X connect 3 0 2 1;
#X connect 4 0 5 0;
#X connect 4 0 9 0;
#X connect 5 0 4 1;
#X connect 8 0 7 0;
#X connect 8 0 24 0;
#X connect 9 0 6 0;
#X connect 9 0 25 0;
#X connect 12 0 10 0;
#X connect 13 0 10 1;
#X connect 14 0 11 1;
#X connect 15 0 14 1;
#X connect 16 0 13 1;
#X connect 17 0 11 0;
#X connect 22 0 12 0;
#X connect 23 0 17 0;
#X restore 186 607 pd orden1;
#X obj 418 359 key2pc;
#X connect 0 0 10 0;
#X connect 0 1 5 0;
#X connect 0 2 6 0;
#X connect 0 3 7 0;
#X connect 0 4 8 0;
#X connect 0 5 1 0;
#X connect 1 0 2 0;
#X connect 2 0 9 0;
#X connect 2 1 3 0;
#X connect 3 0 4 0;
#X connect 5 0 11 0;
#X connect 5 0 27 0;
#X connect 6 0 11 0;
#X connect 6 0 27 0;
#X connect 7 0 11 0;
#X connect 7 0 27 0;
#X connect 8 0 11 0;
#X connect 8 0 27 0;
#X connect 9 0 11 0;
#X connect 9 0 27 0;
#X connect 10 0 11 0;
#X connect 10 0 27 0;
#X connect 11 0 34 0;
#X connect 12 0 37 0;
#X connect 12 0 30 0;
#X connect 13 0 38 0;
#X connect 14 0 15 1;
#X connect 15 0 14 0;
#X connect 15 0 29 1;
#X connect 16 0 15 0;
#X connect 17 0 0 0;
#X connect 18 0 21 1;
#X connect 19 0 13 0;
#X connect 21 0 22 0;
#X connect 21 0 57 0;
#X connect 22 0 24 0;
#X connect 22 0 55 0;
#X connect 22 1 23 0;
#X connect 22 1 56 0;
#X connect 29 0 19 0;
#X connect 33 0 34 1;
#X connect 34 0 33 0;
#X connect 34 0 36 1;
#X connect 35 0 39 1;
#X connect 36 0 35 0;
#X connect 37 0 15 1;
#X connect 37 0 34 1;
#X connect 37 1 29 0;
#X connect 37 2 36 0;
#X connect 37 3 31 0;
#X connect 37 3 58 0;
#X connect 38 0 39 0;
#X connect 39 0 21 0;
#X connect 43 0 53 0;
#X connect 44 0 54 0;
#X connect 53 0 41 0;
#X connect 54 0 42 0;
#X connect 55 0 43 0;
#X connect 55 1 41 1;
#X connect 56 0 44 0;
#X connect 56 1 42 1;
#X connect 58 0 13 1;
#X connect 58 0 28 0;
#X connect 58 1 18 0;
#X restore 41 500 pd chord_accumulation;
#X obj 219 488 s root_chord;
#N canvas 339 23 825 703 Chord_Generator 0;
#X obj 87 24 tgl 15 0 empty empty empty 17 7 0 10 -262144 -1 -1 0 1
;
#X floatatom 144 17 5 0 0 0 - - -;
#X obj 87 132 list-wrandom;
#X floatatom 45 163 5 0 0 0 - - -;
#X floatatom 156 161 5 0 0 0 - - -;
#X obj 88 682 noteout;
#X obj 217 -32 bng 15 250 50 0 empty empty empty 17 7 0 10 -262144
-1 -1;
#X obj 217 17 t a a;
#N canvas 0 22 450 300 write-to-tables 0;
#X obj 227 103 list-len;
#X obj 308 180 s \$0-rand;
#X obj 112 103 list prepend 0;
#X obj 112 128 s \$0-dist;
#X obj 93 256 s \$0-dist;
#X msg 308 158 resize \$1 \, const 0;
#X msg 93 155 normalize 1;
#X msg 227 159 resize \$1;
#X obj 93 55 t b a a;
#X obj 93 33 inlet;
#X connect 0 0 7 0;
#X connect 0 0 5 0;
#X connect 2 0 3 0;
#X connect 5 0 1 0;
#X connect 6 0 4 0;
#X connect 7 0 4 0;
#X connect 8 0 6 0;
#X connect 8 1 2 0;
#X connect 8 2 0 0;
#X connect 9 0 8 0;
#X restore 244 38 pd write-to-tables;
#X floatatom 26 672 5 0 0 0 - - -;
#X obj 49 62 bng 15 250 50 0 empty empty empty 17 7 0 10 -262144 -1
-1;
#X obj 412 -24 bng 15 250 50 0 empty empty empty 17 7 0 10 -262144
-1 -1;
#X obj 412 25 t a a;
#N canvas 0 22 450 300 write-to-tables 0;
#X obj 227 103 list-len;
#X obj 308 180 s \$0-rand;
#X obj 112 103 list prepend 0;
#X obj 112 128 s \$0-dist;
#X obj 93 256 s \$0-dist;
#X msg 308 158 resize \$1 \, const 0;
#X msg 93 155 normalize 1;
#X msg 227 159 resize \$1;
#X obj 93 55 t b a a;
#X obj 93 33 inlet;
#X connect 0 0 7 0;
#X connect 0 0 5 0;
#X connect 2 0 3 0;
#X connect 5 0 1 0;
#X connect 6 0 4 0;
#X connect 7 0 4 0;
#X connect 8 0 6 0;
#X connect 8 1 2 0;
#X connect 8 2 0 0;
#X connect 9 0 8 0;
#X restore 439 53 pd write-to-tables;
#X floatatom 229 272 5 0 0 0 - - -;
#X floatatom 62 302 5 0 0 0 - - -;
#X obj 82 249 mod 12;
#X obj 198 247 div 12;
#X obj 217 -8 tabdump major_table;
#X obj 412 0 tabdump minor_table;
#X obj 218 677 noteout;
#X floatatom 175 677 5 0 0 0 - - -;
#X obj 356 673 noteout;
#X floatatom 313 673 5 0 0 0 - - -;
#X obj 47 522 makenote 1000 1000;
#X obj 186 521 makenote 1000 1000;
#X obj 324 517 makenote 1000 1000;
#X text 215 310 hacer inversa de pd type;
#X text 96 192 viene del random;
#X obj 87 213 t f f;
#X obj 83 466 +;
#X floatatom 215 326 5 0 0 0 - - -;
#N canvas 742 23 450 300 inverse_type 0;
#X obj 87 42 inlet;
#X obj 89 74 sel 0 1 2 3 4 5;
#X msg 25 149 0 \, 4 \, 7;
#X msg 142 149 0 \, 4 \, 8;
#X msg 202 149 0 \, 3 \, 6;
#X msg 263 149 0 \, 5 \, 7;
#X msg 83 149 0 \, 3 \, 7;
#X obj 147 220 outlet;
#X msg 322 149 0 \, 4 \, 7;
#X connect 0 0 1 0;
#X connect 1 0 2 0;
#X connect 1 1 6 0;
#X connect 1 2 3 0;
#X connect 1 3 4 0;
#X connect 1 4 5 0;
#X connect 1 5 8 0;
#X connect 2 0 7 0;
#X connect 3 0 7 0;
#X connect 4 0 7 0;
#X connect 5 0 7 0;
#X connect 6 0 7 0;
#X connect 8 0 7 0;
#X restore 198 293 pd inverse_type;
#X floatatom 86 489 5 0 0 0 - - -;
#X obj 198 346 sel 0 1 2 3 4 5 6 7 8 9 10 11;
#X msg 190 383 0;
#X msg 277 383 3;
#X msg 307 383 4;
#X msg 337 383 5;
#X msg 366 383 6;
#X msg 395 383 7;
#X msg 424 383 8;
#X obj 133 467 +;
#X obj 197 471 +;
#X floatatom 296 478 5 0 0 0 - - -;
#X floatatom 163 490 5 0 0 0 - - -;
#X obj 120 93 bng 15 250 50 0 empty empty empty 17 7 0 10 -262144 -1
-1;
#X obj 87 43 metro 1000;
#X obj 548 509 sel 0 1 2 3 4 5 6 7 8 9 10;
#X msg 467 557 0;
#X msg 497 557 12;
#X msg 527 557 24;
#X msg 556 557 36;
#X msg 585 557 48;
#X msg 614 557 60;
#X msg 645 557 72;
#X msg 675 557 84;
#X msg 705 557 96;
#X msg 734 557 108;
#X msg 763 557 120;
#X obj 47 608 +;
#X obj 186 608 +;
#X obj 324 608 +;
#X obj 548 332 vradio 15 1 0 11 empty empty empty 0 -8 0 10 -262144
-1 -1 0;
#X text 563 330 +0;
#X text 563 345 +12;
#X text 563 360 +24;
#X text 563 376 +36;
#X text 563 390 +48;
#X text 563 405 +60;
#X text 563 420 +72;
#X text 563 435 +84;
#X text 563 450 +96;
#X text 563 464 +108;
#X text 563 480 +120;
#X text 546 317 OCTAVES:;
#X connect 0 0 47 0;
#X connect 1 0 47 1;
#X connect 2 0 3 0;
#X connect 2 0 29 0;
#X connect 2 1 4 0;
#X connect 6 0 18 0;
#X connect 7 0 2 1;
#X connect 7 1 8 0;
#X connect 11 0 19 0;
#X connect 12 0 2 1;
#X connect 12 1 13 0;
#X connect 16 0 15 0;
#X connect 16 0 30 0;
#X connect 16 0 42 0;
#X connect 16 0 43 0;
#X connect 17 0 14 0;
#X connect 17 0 32 0;
#X connect 18 0 7 0;
#X connect 19 0 12 0;
#X connect 24 0 60 0;
#X connect 24 1 5 1;
#X connect 25 0 61 0;
#X connect 25 1 20 1;
#X connect 26 0 62 0;
#X connect 26 1 22 1;
#X connect 29 0 16 0;
#X connect 29 1 17 0;
#X connect 30 0 33 0;
#X connect 30 0 24 0;
#X connect 32 0 31 0;
#X connect 32 0 34 0;
#X connect 34 0 35 0;
#X connect 34 3 36 0;
#X connect 34 4 37 0;
#X connect 34 5 38 0;
#X connect 34 6 39 0;
#X connect 34 7 40 0;
#X connect 34 8 41 0;
#X connect 35 0 30 1;
#X connect 36 0 42 1;
#X connect 37 0 42 1;
#X connect 38 0 42 1;
#X connect 39 0 43 1;
#X connect 40 0 43 1;
#X connect 41 0 43 1;
#X connect 42 0 25 0;
#X connect 42 0 45 0;
#X connect 43 0 26 0;
#X connect 43 0 44 0;
#X connect 46 0 2 0;
#X connect 47 0 2 0;
#X connect 47 0 10 0;
#X connect 48 0 49 0;
#X connect 48 1 50 0;
#X connect 48 2 51 0;
#X connect 48 3 52 0;
#X connect 48 4 53 0;
#X connect 48 5 54 0;
#X connect 48 6 55 0;
#X connect 48 7 56 0;
#X connect 48 8 57 0;
#X connect 48 9 58 0;
#X connect 48 10 59 0;
#X connect 49 0 60 1;
#X connect 49 0 61 1;
#X connect 49 0 62 1;
#X connect 50 0 60 1;
#X connect 50 0 61 1;
#X connect 50 0 62 1;
#X connect 51 0 60 1;
#X connect 51 0 61 1;
#X connect 51 0 62 1;
#X connect 52 0 60 1;
#X connect 52 0 61 1;
#X connect 52 0 62 1;
#X connect 53 0 60 1;
#X connect 53 0 61 1;
#X connect 53 0 62 1;
#X connect 54 0 60 1;
#X connect 54 0 61 1;
#X connect 54 0 62 1;
#X connect 55 0 60 1;
#X connect 55 0 61 1;
#X connect 55 0 62 1;
#X connect 56 0 60 1;
#X connect 56 0 61 1;
#X connect 56 0 62 1;
#X connect 57 0 60 1;
#X connect 57 0 61 1;
#X connect 57 0 62 1;
#X connect 58 0 60 1;
#X connect 58 0 61 1;
#X connect 58 0 62 1;
#X connect 59 0 60 1;
#X connect 59 0 61 1;
#X connect 59 0 62 1;
#X connect 60 0 5 0;
#X connect 60 0 9 0;
#X connect 61 0 20 0;
#X connect 61 0 21 0;
#X connect 62 0 22 0;
#X connect 62 0 23 0;
#X connect 63 0 48 0;
#X restore 330 150 pd Chord_Generator;
#N canvas 740 37 483 681 table_key 0;
#X obj 87 22 r key_estimation;
#X symbolatom 105 47 10 0 0 0 - - -;
#X floatatom 146 95 5 0 0 0 - - -;
#X floatatom 40 95 5 0 0 0 - - -;
#N canvas 0 22 450 278 (subpatch) 0;
#X array major_key_table 12 float 1;
#A 0 2 0 0 0 0 0 0 24 0 0 0 0;
#X coords 0 100 11 0 200 140 1 0 0;
#X restore -150 422 graph;
#N canvas 0 22 450 278 (subpatch) 0;
#X array minor_key_table 12 float 1;
#A 0 0 0 0 0 31 0 0 0 0 21 0 0;
#X coords 0 100 11 0 200 140 1 0 0;
#X restore 89 422 graph;
#X obj 120 135 prepend;
#X obj 120 165 route 0 1;
#X floatatom 197 182 5 0 0 0 - - -;
#X floatatom 68 182 5 0 0 0 - - -;
#X obj 7 260 tabread major_key_table;
#X obj 7 307 tabwrite major_key_table;
#X msg -158 183 \; major_key_table const 0;
#X msg -158 222 \; minor_key_table const 0;
#X obj 157 260 tabread minor_key_table;
#X obj 157 307 tabwrite minor_key_table;
#X msg -150 577 \; major_key_table write major_key_table.txt;
#X msg -150 607 \; minor_key_table write minor_key_table.txt;
#X obj 7 283 + 1;
#X obj 157 283 + 1;
#X obj 167 209 t f f;
#X obj 89 219 t f f;
#X obj 87 78 key2pc;
#X connect 0 0 1 0;
#X connect 0 0 22 0;
#X connect 6 0 7 0;
#X connect 7 0 9 0;
#X connect 7 0 21 0;
#X connect 7 1 8 0;
#X connect 7 1 20 0;
#X connect 10 0 18 0;
#X connect 14 0 19 0;
#X connect 18 0 11 0;
#X connect 19 0 15 0;
#X connect 20 0 14 0;
#X connect 20 1 15 1;
#X connect 21 0 10 0;
#X connect 21 1 11 1;
#X connect 22 0 3 0;
#X connect 22 0 6 0;
#X connect 22 1 2 0;
#X connect 22 1 6 1;
#X restore 330 177 pd table_key;
#X text 607 31 MALA IMPLEMENTACIÓ;
#X obj 204 140 bng 15 250 50 0 listdir_textfile empty empty 17 7 0
10 -262144 -1 -1;
#X obj -44 137 t s b;
#X connect 0 0 9 0;
#X connect 0 1 21 1;
#X connect 0 1 26 0;
#X connect 0 1 30 0;
#X connect 1 0 28 0;
#X connect 1 0 46 0;
#X connect 1 0 47 0;
#X connect 1 1 2 0;
#X connect 2 0 38 1;
#X connect 3 0 1 0;
#X connect 4 0 1 0;
#X connect 5 0 8 0;
#X connect 5 1 7 0;
#X connect 5 1 41 1;
#X connect 6 0 5 0;
#X connect 7 0 15 1;
#X connect 8 0 12 0;
#X connect 9 0 6 0;
#X connect 10 0 16 0;
#X connect 12 0 10 0;
#X connect 12 0 41 0;
#X connect 12 0 42 0;
#X connect 13 0 14 0;
#X connect 14 0 17 0;
#X connect 15 0 13 0;
#X connect 16 0 15 0;
#X connect 16 1 14 1;
#X connect 17 0 20 0;
#X connect 17 0 37 0;
#X connect 19 0 29 0;
#X connect 20 0 19 0;
#X connect 20 1 18 1;
#X connect 21 0 0 0;
#X connect 22 0 23 0;
#X connect 23 0 21 0;
#X connect 23 1 0 0;
#X connect 29 0 18 0;
#X connect 32 0 4 0;
#X connect 33 0 32 0;
#X connect 38 0 39 0;
#X connect 39 0 4 0;
#X connect 40 0 38 0;
#X connect 47 0 22 0;
#X connect 47 1 27 0;
