#N canvas 434 23 508 665 10;
#X declare -lib jasch_lib;
#X obj 36 277 textfile;
#X floatatom 158 116 5 0 0 0 - - -;
#X obj 6 68 bng 15 250 50 0 empty empty empty 17 7 0 10 -262144 -1
-1;
#X obj 26 363 unpack s s;
#X obj 26 341 strtok :;
#X symbolatom 83 385 5 0 0 0 - - -;
#X symbolatom 26 385 3 0 0 0 - - -;
#X obj 26 318 tosymbol;
#X floatatom 26 429 5 0 0 0 - - -;
#N canvas 0 22 450 278 (subpatch) 0;
#X array profile 12 float 1;
#A 0 0.149813 0.00749064 0.093633 0.011236 0.213483 0.00749064 0.0262172
0.217228 0 0.108614 0.00749064 0.157303;
#X coords 0 1.1 11 0 100 50 1 0 0;
#X restore 133 597 graph;
#N canvas 520 317 457 294 root 0;
#X obj 15 11 inlet;
#X obj 15 33 sel C Db D Eb E F Gb G Ab A Bb B;
#X msg 15 139 0;
#X msg 45 139 1;
#X msg 75 139 2;
#X msg 105 139 3;
#X msg 135 139 4;
#X msg 165 139 5;
#X msg 195 139 6;
#X msg 225 139 7;
#X msg 255 139 8;
#X msg 285 139 9;
#X msg 315 139 10;
#X msg 345 139 11;
#X obj 15 267 outlet;
#X obj 271 71 print ERROR;
#X msg 271 50 unrecognized pitch class;
#X connect 0 0 1 0;
#X connect 1 0 2 0;
#X connect 1 1 3 0;
#X connect 1 2 4 0;
#X connect 1 3 5 0;
#X connect 1 4 6 0;
#X connect 1 5 7 0;
#X connect 1 6 8 0;
#X connect 1 7 9 0;
#X connect 1 8 10 0;
#X connect 1 9 11 0;
#X connect 1 10 12 0;
#X connect 1 11 13 0;
#X connect 1 12 16 0;
#X connect 2 0 14 0;
#X connect 3 0 14 0;
#X connect 4 0 14 0;
#X connect 5 0 14 0;
#X connect 6 0 14 0;
#X connect 7 0 14 0;
#X connect 8 0 14 0;
#X connect 9 0 14 0;
#X connect 10 0 14 0;
#X connect 11 0 14 0;
#X connect 12 0 14 0;
#X connect 13 0 14 0;
#X connect 16 0 15 0;
#X restore 26 407 pd root;
#N canvas 520 317 457 294 type 0;
#X obj 15 11 inlet;
#X obj 15 267 outlet;
#X obj 271 71 print ERROR;
#X obj 15 33 sel maj min aug dim 7 sus4;
#X msg 271 50 unrecognized chord type;
#X msg 15 139 0 \, 4 \, 7;
#X msg 132 139 0 \, 4 \, 8;
#X msg 192 139 0 \, 3 \, 6;
#X msg 252 139 0 \, 4 \, 7 \, 10;
#X msg 336 139 0 \, 5 \, 7;
#X msg 73 139 0 \, 3 \, 7;
#X connect 0 0 3 0;
#X connect 3 0 5 0;
#X connect 3 1 10 0;
#X connect 3 2 6 0;
#X connect 3 3 7 0;
#X connect 3 4 8 0;
#X connect 3 5 9 0;
#X connect 3 6 4 0;
#X connect 4 0 2 0;
#X connect 5 0 1 0;
#X connect 6 0 1 0;
#X connect 7 0 1 0;
#X connect 8 0 1 0;
#X connect 9 0 1 0;
#X connect 10 0 1 0;
#X restore 26 496 pd type;
#X obj 26 518 +;
#X obj 26 473 symbol;
#X obj 26 449 t b f;
#X obj 26 542 mod 12;
#X obj 26 631 tabwrite profile;
#X obj 26 585 tabread profile;
#X obj 26 563 t f f;
#X obj 6 252 until;
#X msg 6 206 read \$1 cr \, rewind \, bang;
#X obj 6 229 route bang;
#X obj 6 137 t s b;
#N canvas 29 23 664 342 key_profiles 0;
#N canvas 0 22 450 278 (subpatch) 0;
#X array major 12 float 1;
#A 0 0.15195 0.053362 0.0832735 0.055755 0.10481 0.0978703 0.0603015
0.124192 0.0571907 0.0875808 0.0547978 0.068916;
#X coords 0 1.1 11 0 200 100 1 0 0;
#X restore 21 75 graph;
#N canvas 0 22 450 278 (subpatch) 0;
#X array minor 12 float 1;
#A 0 0.142215 0.0602112 0.0790833 0.120872 0.0584138 0.079308 0.0570658
0.106718 0.0894181 0.0604359 0.0750393 0.07122;
#X coords 0 1.1 11 0 200 100 1 0 0;
#X restore 21 207 graph;
#X obj 235 1 r reset;
#X text 274 55 krumhansl;
#X msg 235 206 6.33 2.68 3.52 5.38 2.6 3.53 2.54 4.75 3.98 2.69 3.34
3.17;
#X msg 262 74 6.35 2.23 3.48 2.33 4.38 4.09 2.52 5.19 2.39 3.66 2.29
2.88;
#X obj 235 42 t b b;
#X obj 244 22 bng 15 250 50 0 empty empty empty 17 7 0 10 -262144 -1
-1;
#X obj 262 96 t a a;
#X obj 355 113 sum;
#N canvas 279 174 450 471 list_divide_f 0;
#X obj 65 39 inlet;
#X obj 301 38 inlet;
#X text 41 19 list with weights;
#X obj 127 116 list split 1;
#X obj 172 196 list;
#X obj 104 141 t b b f;
#X obj 303 283 list;
#X obj 90 366 list;
#X obj 89 386 outlet;
#X msg 410 92 bang;
#X obj 90 82 t b a b b;
#X obj 235 275 t a a;
#X obj 235 254 list prepend;
#X obj 87 61 list;
#X obj 236 72 t b a;
#X obj 235 187 /;
#X text 299 20 float;
#X obj 250 124 f;
#X connect 0 0 10 0;
#X connect 0 0 13 1;
#X connect 1 0 14 0;
#X connect 3 0 5 0;
#X connect 3 1 4 1;
#X connect 4 0 3 0;
#X connect 5 0 4 0;
#X connect 5 2 15 0;
#X connect 6 0 12 1;
#X connect 7 0 8 0;
#X connect 9 0 12 1;
#X connect 10 0 7 0;
#X connect 10 1 3 0;
#X connect 10 2 9 0;
#X connect 10 3 17 0;
#X connect 11 0 7 1;
#X connect 11 1 6 0;
#X connect 12 0 11 0;
#X connect 13 0 10 0;
#X connect 14 0 13 0;
#X connect 14 1 17 1;
#X connect 15 0 12 0;
#X connect 17 0 15 1;
#X restore 262 134 pd list_divide_f;
#X obj 262 156 tabset major;
#X obj 235 226 t a a;
#X obj 328 243 sum;
#N canvas 279 174 450 471 list_divide_f 0;
#X obj 65 39 inlet;
#X obj 301 38 inlet;
#X text 41 19 list with weights;
#X obj 127 116 list split 1;
#X obj 172 196 list;
#X obj 104 141 t b b f;
#X obj 303 283 list;
#X obj 90 366 list;
#X obj 89 386 outlet;
#X msg 410 92 bang;
#X obj 90 82 t b a b b;
#X obj 235 275 t a a;
#X obj 235 254 list prepend;
#X obj 87 61 list;
#X obj 236 72 t b a;
#X obj 235 187 /;
#X text 299 20 float;
#X obj 250 124 f;
#X connect 0 0 10 0;
#X connect 0 0 13 1;
#X connect 1 0 14 0;
#X connect 3 0 5 0;
#X connect 3 1 4 1;
#X connect 4 0 3 0;
#X connect 5 0 4 0;
#X connect 5 2 15 0;
#X connect 6 0 12 1;
#X connect 7 0 8 0;
#X connect 9 0 12 1;
#X connect 10 0 7 0;
#X connect 10 1 3 0;
#X connect 10 2 9 0;
#X connect 10 3 17 0;
#X connect 11 0 7 1;
#X connect 11 1 6 0;
#X connect 12 0 11 0;
#X connect 13 0 10 0;
#X connect 14 0 13 0;
#X connect 14 1 17 1;
#X connect 15 0 12 0;
#X connect 17 0 15 1;
#X restore 235 264 pd list_divide_f;
#X obj 235 286 tabset minor;
#X text 247 187 krumhansl;
#X connect 2 0 6 0;
#X connect 4 0 12 0;
#X connect 5 0 8 0;
#X connect 6 0 4 0;
#X connect 6 1 5 0;
#X connect 7 0 6 0;
#X connect 8 0 10 0;
#X connect 8 1 9 0;
#X connect 9 0 10 1;
#X connect 10 0 11 0;
#X connect 12 0 14 0;
#X connect 12 1 13 0;
#X connect 13 0 14 1;
#X connect 14 0 15 0;
#X restore 6 24 pd key_profiles;
#X obj 6 4 import jasch_lib;
#X obj 81 318 s end_file;
#X msg 33 158 \; profile const 0 \; reset bang;
#X obj 14 117 print filename;
#X obj 26 609 + 0.1;
#N canvas 35 23 409 678 find_key 0;
#X obj 202 100 t b b;
#X obj 229 163 tabdump profile;
#X obj 202 79 r end_file;
#X obj 189 242 t l;
#X obj 106 325 list;
#X obj 130 156 tabdump;
#X msg 130 134 set major \, bang;
#X obj 123 177 t b l;
#X obj 26 42 sel 12;
#X msg 26 125 set minor \, bang;
#X msg 200 57 1 2 3 4 5 6 7 8 9 10 11 12;
#X obj 81 42 t f b;
#X obj 26 84 once;
#X obj 169 218 r reset;
#X obj 47 63 r reset;
#X obj 100 241 list prepend;
#X obj 81 20 drip 100;
#X obj 26 105 del 1;
#X obj 106 346 sort;
#X obj 100 283 length;
#X obj 100 304 sel 24;
#X obj 100 262 t l l;
#X obj 86 370 t l f;
#X obj 98 416 ==;
#X obj 86 391 drip 0;
#X obj 106 526 list;
#X obj 58 416 sel 1;
#X obj 58 481 f 1;
#X obj 88 481 + 1;
#X obj 73 438 r reset;
#X msg 73 459 1;
#X obj 106 503 t b f;
#X obj 76 551 list split;
#N canvas 248 157 765 305 estimation 0;
#X obj 16 13 inlet;
#X obj 16 273 outlet;
#X obj 16 35 select 0 1 2 3 4 5 6 7 8 9 10 11 12 13 14 15 16 17 18
19 20 21 22 23;
#X msg 16 148 B;
#X msg 46 148 Bb;
#X msg 76 148 A;
#X msg 106 148 Ab;
#X msg 136 148 G;
#X msg 166 148 Gb;
#X msg 196 148 F;
#X msg 226 148 E;
#X msg 256 148 Eb;
#X msg 286 148 D;
#X msg 316 148 Db;
#X msg 346 148 C;
#X msg 376 148 Bm;
#X msg 406 148 Bbm;
#X msg 436 148 Am;
#X msg 466 148 Abm;
#X msg 496 148 Gm;
#X msg 526 148 Gbm;
#X msg 556 148 Fm;
#X msg 586 148 Em;
#X msg 616 148 Ebm;
#X msg 646 148 Dm;
#X msg 676 148 Dbm;
#X msg 706 148 Cm;
#X connect 0 0 2 0;
#X connect 2 0 3 0;
#X connect 2 1 4 0;
#X connect 2 2 5 0;
#X connect 2 3 6 0;
#X connect 2 4 7 0;
#X connect 2 5 8 0;
#X connect 2 6 9 0;
#X connect 2 7 10 0;
#X connect 2 8 11 0;
#X connect 2 9 12 0;
#X connect 2 10 13 0;
#X connect 2 11 14 0;
#X connect 2 12 15 0;
#X connect 2 13 16 0;
#X connect 2 14 17 0;
#X connect 2 15 18 0;
#X connect 2 16 19 0;
#X connect 2 17 20 0;
#X connect 2 18 21 0;
#X connect 2 19 22 0;
#X connect 2 20 23 0;
#X connect 2 21 24 0;
#X connect 2 22 25 0;
#X connect 2 23 26 0;
#X connect 3 0 1 0;
#X connect 4 0 1 0;
#X connect 5 0 1 0;
#X connect 6 0 1 0;
#X connect 7 0 1 0;
#X connect 8 0 1 0;
#X connect 9 0 1 0;
#X connect 10 0 1 0;
#X connect 11 0 1 0;
#X connect 12 0 1 0;
#X connect 13 0 1 0;
#X connect 14 0 1 0;
#X connect 15 0 1 0;
#X connect 16 0 1 0;
#X connect 17 0 1 0;
#X connect 18 0 1 0;
#X connect 19 0 1 0;
#X connect 20 0 1 0;
#X connect 21 0 1 0;
#X connect 22 0 1 0;
#X connect 23 0 1 0;
#X connect 24 0 1 0;
#X connect 25 0 1 0;
#X connect 26 0 1 0;
#X restore 133 617 pd estimation;
#X obj 76 573 drip 0;
#X obj 133 638 print;
#X obj 76 595 route bang;
#X obj 75 198 a.listrotate;
#X obj 92 219 a.euclidist;
#X connect 0 0 6 0;
#X connect 0 1 1 0;
#X connect 1 0 38 1;
#X connect 2 0 0 0;
#X connect 3 0 15 1;
#X connect 4 0 18 0;
#X connect 5 0 7 0;
#X connect 6 0 5 0;
#X connect 7 0 10 0;
#X connect 7 1 37 1;
#X connect 8 0 12 0;
#X connect 9 0 5 0;
#X connect 10 0 16 0;
#X connect 11 0 8 0;
#X connect 11 1 37 0;
#X connect 12 0 17 0;
#X connect 13 0 15 1;
#X connect 14 0 12 1;
#X connect 15 0 3 0;
#X connect 15 0 21 0;
#X connect 16 0 11 0;
#X connect 17 0 9 0;
#X connect 18 0 22 0;
#X connect 18 1 25 1;
#X connect 19 0 20 0;
#X connect 20 0 4 0;
#X connect 21 0 19 0;
#X connect 21 1 4 1;
#X connect 22 0 24 0;
#X connect 22 1 23 1;
#X connect 23 0 26 0;
#X connect 24 0 23 0;
#X connect 25 0 32 0;
#X connect 26 0 27 0;
#X connect 27 0 28 0;
#X connect 27 0 31 0;
#X connect 28 0 27 1;
#X connect 29 0 30 0;
#X connect 30 0 27 1;
#X connect 31 0 25 0;
#X connect 31 1 32 1;
#X connect 32 0 34 0;
#X connect 33 0 35 0;
#X connect 34 0 36 0;
#X connect 36 1 33 0;
#X connect 37 0 38 0;
#X connect 38 0 15 0;
#X restore 6 43 pd find_key;
#X obj 6 94 a.listdir ../textfiles txt;
#X obj 89 298 a.normalize profile;
#X msg 27 68 get;
#X connect 0 0 7 0;
#X connect 0 1 19 1;
#X connect 0 1 25 0;
#X connect 0 1 31 0;
#X connect 2 0 30 0;
#X connect 3 0 6 0;
#X connect 3 1 5 0;
#X connect 4 0 3 0;
#X connect 5 0 13 1;
#X connect 6 0 10 0;
#X connect 7 0 4 0;
#X connect 8 0 14 0;
#X connect 10 0 8 0;
#X connect 11 0 12 0;
#X connect 12 0 15 0;
#X connect 13 0 11 0;
#X connect 14 0 13 0;
#X connect 14 1 12 1;
#X connect 15 0 18 0;
#X connect 17 0 28 0;
#X connect 18 0 17 0;
#X connect 18 1 16 1;
#X connect 19 0 0 0;
#X connect 20 0 21 0;
#X connect 21 0 19 0;
#X connect 21 1 0 0;
#X connect 22 0 20 0;
#X connect 22 1 26 0;
#X connect 28 0 16 0;
#X connect 30 0 22 0;
#X connect 30 0 27 0;
#X connect 30 1 1 0;
#X connect 32 0 30 0;
