#N canvas 369 23 628 703 10;
#X declare -lib jasch_lib;
#X obj -14 277 textfile;
#X obj -44 94 a.listdir ../textfiles;
#X floatatom 85 115 5 0 0 0 - - -;
#X msg -23 68 get;
#X obj -44 68 bng 15 250 50 0 empty empty empty 17 7 0 10 -262144 -1
-1;
#X obj -24 363 unpack s s;
#X obj -24 341 strtok :;
#X symbolatom 33 385 5 0 0 0 - - -;
#X symbolatom -24 385 3 0 0 0 - - -;
#X obj -24 318 tosymbol;
#X floatatom -24 429 5 0 0 0 - - -;
#N canvas 0 22 450 278 (subpatch) 0;
#X array profile 12 float 1;
#A 0 0.189498 0 0.143836 0 0.105023 0.114155 0 0.203196 0 0.130137
0 0.114155;
#X coords 0 1.1 11 0 100 50 1 0 0;
#X restore 83 597 graph;
#N canvas 520 317 457 294 root 0;
#X obj 15 11 inlet;
#X obj 15 33 sel C Db D Eb E F Gb G Ab A Bb B;
#X msg 15 139 0;
#X msg 45 139 1;
#X msg 75 139 2;
#X msg 105 139 3;
#X msg 135 139 4;
#X msg 165 139 5;
#X msg 195 139 6;
#X msg 225 139 7;
#X msg 255 139 8;
#X msg 285 139 9;
#X msg 315 139 10;
#X msg 345 139 11;
#X obj 15 267 outlet;
#X obj 271 71 print ERROR;
#X msg 271 50 unrecognized pitch class;
#X connect 0 0 1 0;
#X connect 1 0 2 0;
#X connect 1 1 3 0;
#X connect 1 2 4 0;
#X connect 1 3 5 0;
#X connect 1 4 6 0;
#X connect 1 5 7 0;
#X connect 1 6 8 0;
#X connect 1 7 9 0;
#X connect 1 8 10 0;
#X connect 1 9 11 0;
#X connect 1 10 12 0;
#X connect 1 11 13 0;
#X connect 1 12 16 0;
#X connect 2 0 14 0;
#X connect 3 0 14 0;
#X connect 4 0 14 0;
#X connect 5 0 14 0;
#X connect 6 0 14 0;
#X connect 7 0 14 0;
#X connect 8 0 14 0;
#X connect 9 0 14 0;
#X connect 10 0 14 0;
#X connect 11 0 14 0;
#X connect 12 0 14 0;
#X connect 13 0 14 0;
#X connect 16 0 15 0;
#X restore -24 407 pd root;
#N canvas 572 132 613 328 type 0;
#X obj 15 -10 inlet;
#X obj 15 267 outlet;
#X obj 360 109 print ERROR;
#X msg 360 88 unrecognized chord type;
#X msg 15 139 0 \, 4 \, 7;
#X msg 132 139 0 \, 4 \, 8;
#X msg 192 139 0 \, 3 \, 6;
#X msg 312 139 0 \, 4 \, 7 \, 10;
#X msg 253 139 0 \, 5 \, 7;
#X msg 73 139 0 \, 3 \, 7;
#X symbolatom 26 18 10 0 0 0 - - -;
#X obj 15 43 sel maj min aug dim sus4;
#X obj 312 60 fromsymbol;
#X obj 312 86 sel 7;
#X connect 0 0 10 0;
#X connect 0 0 11 0;
#X connect 3 0 2 0;
#X connect 4 0 1 0;
#X connect 5 0 1 0;
#X connect 6 0 1 0;
#X connect 7 0 1 0;
#X connect 8 0 1 0;
#X connect 9 0 1 0;
#X connect 11 0 4 0;
#X connect 11 1 9 0;
#X connect 11 2 5 0;
#X connect 11 3 6 0;
#X connect 11 4 8 0;
#X connect 11 5 12 0;
#X connect 12 0 13 0;
#X connect 13 0 7 0;
#X connect 13 1 3 0;
#X restore -23 496 pd type;
#X obj -24 518 +;
#X obj -24 473 symbol;
#X obj -24 449 t b f;
#X obj -24 542 mod 12;
#X obj -24 631 tabwrite profile;
#X obj -24 585 tabread profile;
#X obj -24 563 t f f;
#X obj -44 252 until;
#X msg -44 206 read \$1 cr \, rewind \, bang;
#X obj -44 229 route bang;
#X obj -44 137 t s b;
#N canvas 29 23 664 342 key_profiles 0;
#X obj 15 1 r reset;
#X text 54 55 krumhansl;
#X msg 15 206 6.33 2.68 3.52 5.38 2.6 3.53 2.54 4.75 3.98 2.69 3.34
3.17;
#X msg 42 74 6.35 2.23 3.48 2.33 4.38 4.09 2.52 5.19 2.39 3.66 2.29
2.88;
#X obj 15 42 t b b;
#X obj 24 22 bng 15 250 50 0 empty empty empty 17 7 0 10 -262144 -1
-1;
#X obj 42 96 t a a;
#X obj 135 113 sum;
#N canvas 279 174 450 471 list_divide_f 0;
#X obj 65 39 inlet;
#X obj 301 38 inlet;
#X text 41 19 list with weights;
#X obj 127 116 list split 1;
#X obj 172 196 list;
#X obj 104 141 t b b f;
#X obj 303 283 list;
#X obj 90 366 list;
#X obj 89 386 outlet;
#X msg 410 92 bang;
#X obj 90 82 t b a b b;
#X obj 235 275 t a a;
#X obj 235 254 list prepend;
#X obj 87 61 list;
#X obj 236 72 t b a;
#X obj 235 187 /;
#X text 299 20 float;
#X obj 250 124 f;
#X connect 0 0 10 0;
#X connect 0 0 13 1;
#X connect 1 0 14 0;
#X connect 3 0 5 0;
#X connect 3 1 4 1;
#X connect 4 0 3 0;
#X connect 5 0 4 0;
#X connect 5 2 15 0;
#X connect 6 0 12 1;
#X connect 7 0 8 0;
#X connect 9 0 12 1;
#X connect 10 0 7 0;
#X connect 10 1 3 0;
#X connect 10 2 9 0;
#X connect 10 3 17 0;
#X connect 11 0 7 1;
#X connect 11 1 6 0;
#X connect 12 0 11 0;
#X connect 13 0 10 0;
#X connect 14 0 13 0;
#X connect 14 1 17 1;
#X connect 15 0 12 0;
#X connect 17 0 15 1;
#X restore 42 134 pd list_divide_f;
#X obj 15 226 t a a;
#X obj 108 243 sum;
#N canvas 279 174 450 471 list_divide_f 0;
#X obj 65 39 inlet;
#X obj 301 38 inlet;
#X text 41 19 list with weights;
#X obj 127 116 list split 1;
#X obj 172 196 list;
#X obj 104 141 t b b f;
#X obj 303 283 list;
#X obj 90 366 list;
#X obj 89 386 outlet;
#X msg 410 92 bang;
#X obj 90 82 t b a b b;
#X obj 235 275 t a a;
#X obj 235 254 list prepend;
#X obj 87 61 list;
#X obj 236 72 t b a;
#X obj 235 187 /;
#X text 299 20 float;
#X obj 250 124 f;
#X connect 0 0 10 0;
#X connect 0 0 13 1;
#X connect 1 0 14 0;
#X connect 3 0 5 0;
#X connect 3 1 4 1;
#X connect 4 0 3 0;
#X connect 5 0 4 0;
#X connect 5 2 15 0;
#X connect 6 0 12 1;
#X connect 7 0 8 0;
#X connect 9 0 12 1;
#X connect 10 0 7 0;
#X connect 10 1 3 0;
#X connect 10 2 9 0;
#X connect 10 3 17 0;
#X connect 11 0 7 1;
#X connect 11 1 6 0;
#X connect 12 0 11 0;
#X connect 13 0 10 0;
#X connect 14 0 13 0;
#X connect 14 1 17 1;
#X connect 15 0 12 0;
#X connect 17 0 15 1;
#X restore 15 264 pd list_divide_f;
#X text 27 187 krumhansl;
#X obj 42 156 tabset \$0-major;
#X obj 15 286 tabset \$0-minor;
#X obj 145 156 table \$0-major 12;
#X obj 115 286 table \$0-minor 12;
#X connect 0 0 4 0;
#X connect 2 0 9 0;
#X connect 3 0 6 0;
#X connect 4 0 2 0;
#X connect 4 1 3 0;
#X connect 5 0 4 0;
#X connect 6 0 8 0;
#X connect 6 1 7 0;
#X connect 7 0 8 1;
#X connect 8 0 13 0;
#X connect 9 0 11 0;
#X connect 9 1 10 0;
#X connect 10 0 11 1;
#X connect 11 0 14 0;
#X restore -44 24 pd key_profiles;
#X obj -44 4 import jasch_lib;
#X obj 31 318 s end_file;
#X msg -17 158 \; profile const 0 \; reset bang;
#X obj -36 117 print filename;
#X obj -24 609 + 0.1;
#X obj 39 298 a.normalize profile;
#N canvas 86 23 409 678 find_key 0;
#X obj 92 220 a.euclidist;
#X obj 202 100 t b b;
#X obj 229 163 tabdump profile;
#X obj 202 79 r end_file;
#X obj 189 242 t l;
#X obj 106 325 list;
#X obj 75 198 a.list-rotate;
#X obj 130 156 tabdump;
#X obj 123 177 t b l;
#X obj -4 22 sel 12;
#X msg 200 57 1 2 3 4 5 6 7 8 9 10 11 12;
#X obj 51 22 t f b;
#X obj -4 64 once;
#X obj 169 218 r reset;
#X obj 17 43 r reset;
#X obj 100 241 list prepend;
#X obj 51 0 drip 100;
#X obj -4 85 del 1;
#X obj 106 346 sort;
#X obj 100 283 length;
#X obj 100 304 sel 24;
#X obj 100 262 t l l;
#X obj 86 370 t l f;
#X obj 98 416 ==;
#X obj 86 391 drip 0;
#X obj 106 526 list;
#X obj 58 416 sel 1;
#X obj 58 481 f 1;
#X obj 88 481 + 1;
#X obj 73 438 r reset;
#X msg 73 459 1;
#X obj 106 503 t b f;
#X obj 76 551 list split;
#N canvas 248 157 765 305 estimation 0;
#X obj 16 13 inlet;
#X obj 16 273 outlet;
#X obj 16 35 select 0 1 2 3 4 5 6 7 8 9 10 11 12 13 14 15 16 17 18
19 20 21 22 23;
#X msg 16 148 B;
#X msg 46 148 Bb;
#X msg 76 148 A;
#X msg 106 148 Ab;
#X msg 136 148 G;
#X msg 166 148 Gb;
#X msg 196 148 F;
#X msg 226 148 E;
#X msg 256 148 Eb;
#X msg 286 148 D;
#X msg 316 148 Db;
#X msg 346 148 C;
#X msg 376 148 Bm;
#X msg 406 148 Bbm;
#X msg 436 148 Am;
#X msg 466 148 Abm;
#X msg 496 148 Gm;
#X msg 526 148 Gbm;
#X msg 556 148 Fm;
#X msg 586 148 Em;
#X msg 616 148 Ebm;
#X msg 646 148 Dm;
#X msg 676 148 Dbm;
#X msg 706 148 Cm;
#X connect 0 0 2 0;
#X connect 2 0 3 0;
#X connect 2 1 4 0;
#X connect 2 2 5 0;
#X connect 2 3 6 0;
#X connect 2 4 7 0;
#X connect 2 5 8 0;
#X connect 2 6 9 0;
#X connect 2 7 10 0;
#X connect 2 8 11 0;
#X connect 2 9 12 0;
#X connect 2 10 13 0;
#X connect 2 11 14 0;
#X connect 2 12 15 0;
#X connect 2 13 16 0;
#X connect 2 14 17 0;
#X connect 2 15 18 0;
#X connect 2 16 19 0;
#X connect 2 17 20 0;
#X connect 2 18 21 0;
#X connect 2 19 22 0;
#X connect 2 20 23 0;
#X connect 2 21 24 0;
#X connect 2 22 25 0;
#X connect 2 23 26 0;
#X connect 3 0 1 0;
#X connect 4 0 1 0;
#X connect 5 0 1 0;
#X connect 6 0 1 0;
#X connect 7 0 1 0;
#X connect 8 0 1 0;
#X connect 9 0 1 0;
#X connect 10 0 1 0;
#X connect 11 0 1 0;
#X connect 12 0 1 0;
#X connect 13 0 1 0;
#X connect 14 0 1 0;
#X connect 15 0 1 0;
#X connect 16 0 1 0;
#X connect 17 0 1 0;
#X connect 18 0 1 0;
#X connect 19 0 1 0;
#X connect 20 0 1 0;
#X connect 21 0 1 0;
#X connect 22 0 1 0;
#X connect 23 0 1 0;
#X connect 24 0 1 0;
#X connect 25 0 1 0;
#X connect 26 0 1 0;
#X restore 133 617 pd estimation;
#X obj 76 573 drip 0;
#X obj 133 638 print;
#X obj 76 595 route bang;
#X obj 130 106 \$0;
#X msg 130 134 set \$1-major \, bang;
#X obj -4 105 \$0;
#X msg -4 125 set \$1-minor \, bang;
#X obj 231 634 s key_estimation;
#X connect 0 0 15 0;
#X connect 1 0 37 0;
#X connect 1 1 2 0;
#X connect 2 0 0 1;
#X connect 3 0 1 0;
#X connect 4 0 15 1;
#X connect 5 0 18 0;
#X connect 6 0 0 0;
#X connect 7 0 8 0;
#X connect 8 0 10 0;
#X connect 8 1 6 1;
#X connect 9 0 12 0;
#X connect 10 0 16 0;
#X connect 11 0 9 0;
#X connect 11 1 6 0;
#X connect 12 0 17 0;
#X connect 13 0 15 1;
#X connect 14 0 12 1;
#X connect 15 0 4 0;
#X connect 15 0 21 0;
#X connect 16 0 11 0;
#X connect 17 0 39 0;
#X connect 18 0 22 0;
#X connect 18 1 25 1;
#X connect 19 0 20 0;
#X connect 20 0 5 0;
#X connect 21 0 19 0;
#X connect 21 1 5 1;
#X connect 22 0 24 0;
#X connect 22 1 23 1;
#X connect 23 0 26 0;
#X connect 24 0 23 0;
#X connect 25 0 32 0;
#X connect 26 0 27 0;
#X connect 27 0 28 0;
#X connect 27 0 31 0;
#X connect 28 0 27 1;
#X connect 29 0 30 0;
#X connect 30 0 27 1;
#X connect 31 0 25 0;
#X connect 31 1 32 1;
#X connect 32 0 34 0;
#X connect 33 0 35 0;
#X connect 33 0 41 0;
#X connect 34 0 36 0;
#X connect 36 1 33 0;
#X connect 37 0 38 0;
#X connect 38 0 7 0;
#X connect 39 0 40 0;
#X connect 40 0 7 0;
#X restore -44 44 pd find_key;
#X obj 60 51 metro 3000;
#X obj 60 30 tgl 15 0 empty empty empty 17 7 0 10 -262144 -1 -1 0 1
;
#N canvas 66 56 704 500 type_table 0;
#X obj 31 -115 tabwrite TYPE_TABLE;
#N canvas 0 22 450 278 (subpatch) 0;
#X array TYPE_TABLE 6 float 1;
#A 0 1 0.377994 0.000178296 0.000891479 0 0.0196125;
#X coords 0 1 5 0 200 140 1 0 0;
#X restore 229 -163 graph;
#X obj 31 -137 + 0.01;
#X obj 31 -159 tabread TYPE_TABLE;
#X msg 229 -217 \; TYPE_TABLE const 0;
#X obj 31 -182 r type_chord;
#X msg 229 -252 \; TYPE_TABLE normalize;
#X obj 142 -139 r type_chord;
#X connect 2 0 0 0;
#X connect 3 0 2 0;
#X connect 5 0 3 0;
#X connect 7 0 0 1;
#X restore 330 86 pd type_table;
#N canvas 12 401 621 460 type_and_root_table 0;
#X obj 192 -132 r type_chord;
#X obj 107 -132 r root_chord;
#X obj 192 -106 * 12;
#X obj 107 -89 +;
#X obj 70 -35 + 0.01;
#X obj 70 -13 tabwrite root_and_type_table;
#N canvas 0 22 450 278 (subpatch) 0;
#X array root_and_type_table 72 float 1;
#A 0 0.0755139 0.257434 0.0743698 0.00114415 0.479399 0.300911 0.205947
0.0766581 0.157893 0.251713 0.220821 0.399308 0.231118 0.390155 0.625854
0 0.469102 0.136154 0.366128 0.580087 0.045766 1 0 0.465669 0 0 0 0
0 0 0 0 0 0 0 0.330659 0 0 0 0 0 0 0 0 0.176199 0 0 0 0 0 0 0 0 0 0
0 0 0 0 0 0.413038 0 0.0961086 0 0.167046 0.12128 0 0.0045766 0 0.0663607
0 0.300911;
#X coords 0 1 71 0 200 140 1 0 0;
#X restore 42 31 graph;
#X msg 338 -15 \; root_and_type_table normalize;
#X obj 70 -59 tabread root_and_type_table;
#X msg 338 -48 \; root_and_type_table const 0;
#X connect 0 0 2 0;
#X connect 1 0 3 0;
#X connect 2 0 3 1;
#X connect 3 0 8 0;
#X connect 3 0 5 1;
#X connect 4 0 5 0;
#X connect 8 0 4 0;
#X restore 330 107 pd type_and_root_table;
#N canvas 360 23 696 698 reduction_table 0;
#X obj 193 21 r key_estimation;
#X obj 193 66 key2pc;
#X floatatom 243 83 5 0 0 0 - - -;
#X floatatom 158 83 5 0 0 0 - - -;
#X text 281 76 0 = major;
#X text 281 86 1 = minor;
#X text 86 83 pitch class;
#X obj 193 44 tosymbol;
#X obj 193 110 t b f;
#X obj 341 138 -;
#X obj 376 115 r root_chord;
#X obj 341 158 mod 12;
#X floatatom 394 175 5 0 0 0 - - -;
#X obj 226 151 sel 0 1;
#X msg -11 227 set major_table_reduction;
#X msg 153 227 set minor_table_reduction;
#X obj 302 285 tabread;
#X obj 341 186 t f f;
#X obj 302 310 + 0.01;
#X obj 302 341 tabwrite major;
#N canvas 0 22 450 278 (subpatch) 0;
#X array major_table_reduction 12 float 1;
#A 0 1 0.0421729 0.665042 0.154904 0.302509 0.811029 0.0600153 0.913219
0.096511 0.568529 0.53041 0.167881;
#X coords 0 1 11 0 200 140 1 0 0;
#X restore 48 386 graph;
#X floatatom 397 214 5 0 0 0 - - -;
#N canvas 0 22 450 278 (subpatch) 0;
#X array minor_table_reduction 12 float 1;
#A 0 0.913706 0.19797 0.456853 0.715736 0.309645 0.959391 0 1 0.614213
0.208122 0.71066 0;
#X coords 0 1 11 0 200 140 1 0 0;
#X restore 272 388 graph;
#X msg 53 544 \; major_table_reduction normalize;
#X msg 281 544 \; minor_table_reduction normalize;
#X msg 53 592 \; major_table_reduction const 0;
#X msg 281 592 \; minor_table_reduction const 0;
#X connect 0 0 7 0;
#X connect 1 0 3 0;
#X connect 1 0 8 0;
#X connect 1 1 2 0;
#X connect 1 1 13 0;
#X connect 7 0 1 0;
#X connect 8 1 9 1;
#X connect 9 0 11 0;
#X connect 10 0 9 0;
#X connect 11 0 12 0;
#X connect 11 0 17 0;
#X connect 13 0 14 0;
#X connect 13 1 15 0;
#X connect 14 0 19 0;
#X connect 14 0 16 0;
#X connect 15 0 19 0;
#X connect 15 0 16 0;
#X connect 16 0 18 0;
#X connect 17 0 16 0;
#X connect 17 1 19 1;
#X connect 17 1 21 0;
#X connect 18 0 19 0;
#X restore 330 128 pd reduction_table;
#X obj 82 559 s modul_chord;
#X obj 159 30 f;
#X obj 159 51 until;
#X obj 159 9 bng 15 250 50 0 empty empty empty 17 7 0 10 -262144 -1
-1;
#X obj 155 380 sel maj min aug dim sus4;
#X obj 319 397 fromsymbol;
#X obj 319 421 sel 7;
#X msg 363 438 unrecognize chord type;
#X obj 363 460 print ERROR;
#X msg 183 462 1;
#X msg 211 462 2;
#X msg 239 462 3;
#X msg 267 462 4;
#X msg 295 462 5;
#X obj 228 519 s type_chord;
#X msg 155 462 0;
#X obj 38 424 s root_chord;
#N canvas 237 113 450 300 Note_Generator 0;
#X obj 87 24 tgl 15 0 empty empty empty 17 7 0 10 -262144 -1 -1 0 1
;
#X obj 87 43 metro 1000;
#X floatatom 144 17 5 0 0 0 - - -;
#X obj 87 71 list-wrandom;
#X obj 87 122 makenote 1000 500;
#X floatatom 45 102 5 0 0 0 - - -;
#X floatatom 156 100 5 0 0 0 - - -;
#X obj 87 146 + 48;
#X obj 128 182 noteout;
#X obj 286 30 bng 15 250 50 0 empty empty empty 17 7 0 10 -262144 -1
-1;
#X obj 286 54 tabdump major_table_reduction;
#X obj 286 79 t a a;
#N canvas 0 22 450 300 write-to-tables 0;
#X obj 227 103 list-len;
#X obj 308 180 s \$0-rand;
#X obj 112 103 list prepend 0;
#X obj 112 128 s \$0-dist;
#X obj 93 256 s \$0-dist;
#X msg 308 158 resize \$1 \, const 0;
#X msg 93 155 normalize 1;
#X msg 227 159 resize \$1;
#X obj 93 55 t b a a;
#X obj 93 33 inlet;
#X connect 0 0 7 0;
#X connect 0 0 5 0;
#X connect 2 0 3 0;
#X connect 5 0 1 0;
#X connect 6 0 4 0;
#X connect 7 0 4 0;
#X connect 8 0 6 0;
#X connect 8 1 2 0;
#X connect 8 2 0 0;
#X connect 9 0 8 0;
#X restore 313 107 pd write-to-tables;
#X floatatom 66 172 5 0 0 0 - - -;
#X obj 49 62 bng 15 250 50 0 empty empty empty 17 7 0 10 -262144 -1
-1;
#X obj 284 120 bng 15 250 50 0 empty empty empty 17 7 0 10 -262144
-1 -1;
#X obj 284 169 t a a;
#N canvas 0 22 450 300 write-to-tables 0;
#X obj 227 103 list-len;
#X obj 308 180 s \$0-rand;
#X obj 112 103 list prepend 0;
#X obj 112 128 s \$0-dist;
#X obj 93 256 s \$0-dist;
#X msg 308 158 resize \$1 \, const 0;
#X msg 93 155 normalize 1;
#X msg 227 159 resize \$1;
#X obj 93 55 t b a a;
#X obj 93 33 inlet;
#X connect 0 0 7 0;
#X connect 0 0 5 0;
#X connect 2 0 3 0;
#X connect 5 0 1 0;
#X connect 6 0 4 0;
#X connect 7 0 4 0;
#X connect 8 0 6 0;
#X connect 8 1 2 0;
#X connect 8 2 0 0;
#X connect 9 0 8 0;
#X restore 311 197 pd write-to-tables;
#X obj 284 144 tabdump minor_table_reduction;
#X connect 0 0 1 0;
#X connect 1 0 3 0;
#X connect 1 0 14 0;
#X connect 2 0 1 1;
#X connect 3 0 4 0;
#X connect 3 0 5 0;
#X connect 3 1 6 0;
#X connect 4 0 7 0;
#X connect 4 1 8 1;
#X connect 7 0 8 0;
#X connect 7 0 13 0;
#X connect 9 0 10 0;
#X connect 10 0 11 0;
#X connect 11 0 3 1;
#X connect 11 1 12 0;
#X connect 15 0 18 0;
#X connect 16 0 3 1;
#X connect 16 1 17 0;
#X connect 18 0 16 0;
#X restore 330 150 pd Note_Generator;
#X connect 0 0 9 0;
#X connect 0 1 21 1;
#X connect 0 1 27 0;
#X connect 0 1 31 0;
#X connect 1 0 24 0;
#X connect 1 0 29 0;
#X connect 1 1 2 0;
#X connect 2 0 39 1;
#X connect 3 0 1 0;
#X connect 4 0 1 0;
#X connect 5 0 8 0;
#X connect 5 1 7 0;
#X connect 5 1 42 0;
#X connect 6 0 5 0;
#X connect 7 0 15 1;
#X connect 8 0 12 0;
#X connect 9 0 6 0;
#X connect 10 0 16 0;
#X connect 12 0 10 0;
#X connect 12 0 54 0;
#X connect 13 0 14 0;
#X connect 14 0 17 0;
#X connect 15 0 13 0;
#X connect 16 0 15 0;
#X connect 16 1 14 1;
#X connect 17 0 20 0;
#X connect 17 0 38 0;
#X connect 19 0 30 0;
#X connect 20 0 19 0;
#X connect 20 1 18 1;
#X connect 21 0 0 0;
#X connect 22 0 23 0;
#X connect 23 0 21 0;
#X connect 23 1 0 0;
#X connect 24 0 22 0;
#X connect 24 1 28 0;
#X connect 30 0 18 0;
#X connect 33 0 4 0;
#X connect 34 0 33 0;
#X connect 39 0 40 0;
#X connect 40 0 4 0;
#X connect 41 0 39 0;
#X connect 42 0 53 0;
#X connect 42 1 47 0;
#X connect 42 2 48 0;
#X connect 42 3 49 0;
#X connect 42 4 50 0;
#X connect 42 5 43 0;
#X connect 43 0 44 0;
#X connect 44 0 51 0;
#X connect 44 1 45 0;
#X connect 45 0 46 0;
#X connect 47 0 52 0;
#X connect 48 0 52 0;
#X connect 49 0 52 0;
#X connect 50 0 52 0;
#X connect 51 0 52 0;
#X connect 53 0 52 0;
