#N canvas 485 23 506 705 10;
#X declare -lib jasch_lib;
#X obj -14 261 textfile;
#X obj -44 78 a.listdir ../textfiles;
#X floatatom 105 95 5 0 0 0 - - -;
#X msg -23 52 get;
#X obj -44 52 bng 15 250 50 0 empty empty empty 17 7 0 10 -262144 -1
-1;
#X obj -24 347 unpack s s;
#X obj -24 325 strtok :;
#X symbolatom 33 369 5 0 0 0 - - -;
#X symbolatom -24 369 3 0 0 0 - - -;
#X obj -24 302 tosymbol;
#X floatatom -24 443 5 0 0 0 - - -;
#N canvas 0 22 450 278 (subpatch) 0;
#X array profile 12 float 1;
#A 0 0.189498 0 0.143836 0 0.105023 0.114155 0 0.203196 0 0.130137
0 0.114155;
#X coords 0 1.1 11 0 100 50 1 0 0;
#X restore 82 611 graph;
#N canvas 520 317 457 294 root 0;
#X obj 15 11 inlet;
#X obj 15 33 sel C Db D Eb E F Gb G Ab A Bb B;
#X msg 15 139 0;
#X msg 45 139 1;
#X msg 75 139 2;
#X msg 105 139 3;
#X msg 135 139 4;
#X msg 165 139 5;
#X msg 195 139 6;
#X msg 225 139 7;
#X msg 255 139 8;
#X msg 285 139 9;
#X msg 315 139 10;
#X msg 345 139 11;
#X obj 15 267 outlet;
#X obj 271 71 print ERROR;
#X msg 271 50 unrecognized pitch class;
#X connect 0 0 1 0;
#X connect 1 0 2 0;
#X connect 1 1 3 0;
#X connect 1 2 4 0;
#X connect 1 3 5 0;
#X connect 1 4 6 0;
#X connect 1 5 7 0;
#X connect 1 6 8 0;
#X connect 1 7 9 0;
#X connect 1 8 10 0;
#X connect 1 9 11 0;
#X connect 1 10 12 0;
#X connect 1 11 13 0;
#X connect 1 12 16 0;
#X connect 2 0 14 0;
#X connect 3 0 14 0;
#X connect 4 0 14 0;
#X connect 5 0 14 0;
#X connect 6 0 14 0;
#X connect 7 0 14 0;
#X connect 8 0 14 0;
#X connect 9 0 14 0;
#X connect 10 0 14 0;
#X connect 11 0 14 0;
#X connect 12 0 14 0;
#X connect 13 0 14 0;
#X connect 16 0 15 0;
#X restore -24 391 pd root;
#N canvas 207 56 613 328 type 0;
#X obj 15 -10 inlet;
#X obj 15 267 outlet;
#X obj 360 109 print ERROR;
#X msg 360 88 unrecognized chord type;
#X msg 15 139 0 \, 4 \, 7;
#X msg 132 139 0 \, 4 \, 8;
#X msg 192 139 0 \, 3 \, 6;
#X msg 312 139 0 \, 4 \, 7 \, 10;
#X msg 253 139 0 \, 5 \, 7;
#X msg 73 139 0 \, 3 \, 7;
#X symbolatom 26 18 10 0 0 0 - - -;
#X obj 15 43 sel maj min aug dim sus4;
#X obj 312 60 fromsymbol;
#X obj 312 86 sel 7;
#X msg 322 179 0 \, 4 \, 10;
#X connect 0 0 10 0;
#X connect 0 0 11 0;
#X connect 3 0 2 0;
#X connect 4 0 1 0;
#X connect 5 0 1 0;
#X connect 6 0 1 0;
#X connect 7 0 1 0;
#X connect 8 0 1 0;
#X connect 9 0 1 0;
#X connect 11 0 4 0;
#X connect 11 1 9 0;
#X connect 11 2 5 0;
#X connect 11 3 6 0;
#X connect 11 4 8 0;
#X connect 11 5 12 0;
#X connect 12 0 13 0;
#X connect 13 0 7 0;
#X connect 13 1 3 0;
#X restore -24 510 pd type;
#X obj -25 532 +;
#X obj -24 487 symbol;
#X obj -24 463 t b f;
#X obj -25 556 mod 12;
#X obj -24 645 tabwrite profile;
#X obj -25 599 tabread profile;
#X obj -25 577 t f f;
#X obj -44 236 until;
#X msg -44 190 read \$1 cr \, rewind \, bang;
#X obj -44 213 route bang;
#N canvas 29 23 664 342 key_profiles 0;
#X obj 15 1 r reset;
#X text 54 55 krumhansl;
#X msg 15 206 6.33 2.68 3.52 5.38 2.6 3.53 2.54 4.75 3.98 2.69 3.34
3.17;
#X msg 42 74 6.35 2.23 3.48 2.33 4.38 4.09 2.52 5.19 2.39 3.66 2.29
2.88;
#X obj 15 42 t b b;
#X obj 24 22 bng 15 250 50 0 empty empty empty 17 7 0 10 -262144 -1
-1;
#X obj 42 96 t a a;
#X obj 135 113 sum;
#N canvas 279 174 450 471 list_divide_f 0;
#X obj 65 39 inlet;
#X obj 301 38 inlet;
#X text 41 19 list with weights;
#X obj 127 116 list split 1;
#X obj 172 196 list;
#X obj 104 141 t b b f;
#X obj 303 283 list;
#X obj 90 366 list;
#X obj 89 386 outlet;
#X msg 410 92 bang;
#X obj 90 82 t b a b b;
#X obj 235 275 t a a;
#X obj 235 254 list prepend;
#X obj 87 61 list;
#X obj 236 72 t b a;
#X obj 235 187 /;
#X text 299 20 float;
#X obj 250 124 f;
#X connect 0 0 10 0;
#X connect 0 0 13 1;
#X connect 1 0 14 0;
#X connect 3 0 5 0;
#X connect 3 1 4 1;
#X connect 4 0 3 0;
#X connect 5 0 4 0;
#X connect 5 2 15 0;
#X connect 6 0 12 1;
#X connect 7 0 8 0;
#X connect 9 0 12 1;
#X connect 10 0 7 0;
#X connect 10 1 3 0;
#X connect 10 2 9 0;
#X connect 10 3 17 0;
#X connect 11 0 7 1;
#X connect 11 1 6 0;
#X connect 12 0 11 0;
#X connect 13 0 10 0;
#X connect 14 0 13 0;
#X connect 14 1 17 1;
#X connect 15 0 12 0;
#X connect 17 0 15 1;
#X restore 42 134 pd list_divide_f;
#X obj 15 226 t a a;
#X obj 108 243 sum;
#N canvas 279 174 450 471 list_divide_f 0;
#X obj 65 39 inlet;
#X obj 301 38 inlet;
#X text 41 19 list with weights;
#X obj 127 116 list split 1;
#X obj 172 196 list;
#X obj 104 141 t b b f;
#X obj 303 283 list;
#X obj 90 366 list;
#X obj 89 386 outlet;
#X msg 410 92 bang;
#X obj 90 82 t b a b b;
#X obj 235 275 t a a;
#X obj 235 254 list prepend;
#X obj 87 61 list;
#X obj 236 72 t b a;
#X obj 235 187 /;
#X text 299 20 float;
#X obj 250 124 f;
#X connect 0 0 10 0;
#X connect 0 0 13 1;
#X connect 1 0 14 0;
#X connect 3 0 5 0;
#X connect 3 1 4 1;
#X connect 4 0 3 0;
#X connect 5 0 4 0;
#X connect 5 2 15 0;
#X connect 6 0 12 1;
#X connect 7 0 8 0;
#X connect 9 0 12 1;
#X connect 10 0 7 0;
#X connect 10 1 3 0;
#X connect 10 2 9 0;
#X connect 10 3 17 0;
#X connect 11 0 7 1;
#X connect 11 1 6 0;
#X connect 12 0 11 0;
#X connect 13 0 10 0;
#X connect 14 0 13 0;
#X connect 14 1 17 1;
#X connect 15 0 12 0;
#X connect 17 0 15 1;
#X restore 15 264 pd list_divide_f;
#X text 27 187 krumhansl;
#X obj 42 156 tabset \$0-major;
#X obj 15 286 tabset \$0-minor;
#X obj 145 156 table \$0-major 12;
#X obj 115 286 table \$0-minor 12;
#X connect 0 0 4 0;
#X connect 2 0 9 0;
#X connect 3 0 6 0;
#X connect 4 0 2 0;
#X connect 4 1 3 0;
#X connect 5 0 4 0;
#X connect 6 0 8 0;
#X connect 6 1 7 0;
#X connect 7 0 8 1;
#X connect 8 0 13 0;
#X connect 9 0 11 0;
#X connect 9 1 10 0;
#X connect 10 0 11 1;
#X connect 11 0 14 0;
#X restore 234 158 pd key_profiles;
#X obj 234 138 import jasch_lib;
#X obj 31 302 s end_file;
#X msg -17 142 \; profile const 0 \; reset bang;
#X obj -36 101 print filename;
#X obj -25 623 + 0.1;
#X obj 39 282 a.normalize profile;
#N canvas 582 23 408 701 find_key 0;
#X obj 92 238 a.euclidist;
#X obj 202 100 t b b;
#X obj 229 181 tabdump profile;
#X obj 202 79 r end_file;
#X obj 189 260 t l;
#X obj 106 343 list;
#X obj 75 216 a.list-rotate;
#X obj 130 174 tabdump;
#X obj 123 195 t b l;
#X obj -4 22 sel 12;
#X msg 200 57 1 2 3 4 5 6 7 8 9 10 11 12;
#X obj 48 22 t f b;
#X obj -4 64 once;
#X obj 169 236 r reset;
#X obj 17 43 r reset;
#X obj 100 259 list prepend;
#X obj -4 85 del 1;
#X obj 106 364 sort;
#X obj 100 301 length;
#X obj 100 322 sel 24;
#X obj 100 280 t l l;
#X obj 86 388 t l f;
#X obj 98 434 ==;
#X obj 86 409 drip 0;
#X obj 106 544 list;
#X obj 58 434 sel 1;
#X obj 58 499 f 1;
#X obj 88 499 + 1;
#X obj 73 456 r reset;
#X msg 73 477 1;
#X obj 106 521 t b f;
#X obj 76 569 list split;
#N canvas 248 157 765 305 estimation 0;
#X obj 16 13 inlet;
#X obj 16 273 outlet;
#X obj 16 35 select 0 1 2 3 4 5 6 7 8 9 10 11 12 13 14 15 16 17 18
19 20 21 22 23;
#X msg 16 148 B;
#X msg 46 148 Bb;
#X msg 76 148 A;
#X msg 106 148 Ab;
#X msg 136 148 G;
#X msg 166 148 Gb;
#X msg 196 148 F;
#X msg 226 148 E;
#X msg 256 148 Eb;
#X msg 286 148 D;
#X msg 316 148 Db;
#X msg 346 148 C;
#X msg 376 148 Bm;
#X msg 406 148 Bbm;
#X msg 436 148 Am;
#X msg 466 148 Abm;
#X msg 496 148 Gm;
#X msg 526 148 Gbm;
#X msg 556 148 Fm;
#X msg 586 148 Em;
#X msg 616 148 Ebm;
#X msg 646 148 Dm;
#X msg 676 148 Dbm;
#X msg 706 148 Cm;
#X connect 0 0 2 0;
#X connect 2 0 3 0;
#X connect 2 1 4 0;
#X connect 2 2 5 0;
#X connect 2 3 6 0;
#X connect 2 4 7 0;
#X connect 2 5 8 0;
#X connect 2 6 9 0;
#X connect 2 7 10 0;
#X connect 2 8 11 0;
#X connect 2 9 12 0;
#X connect 2 10 13 0;
#X connect 2 11 14 0;
#X connect 2 12 15 0;
#X connect 2 13 16 0;
#X connect 2 14 17 0;
#X connect 2 15 18 0;
#X connect 2 16 19 0;
#X connect 2 17 20 0;
#X connect 2 18 21 0;
#X connect 2 19 22 0;
#X connect 2 20 23 0;
#X connect 2 21 24 0;
#X connect 2 22 25 0;
#X connect 2 23 26 0;
#X connect 3 0 1 0;
#X connect 4 0 1 0;
#X connect 5 0 1 0;
#X connect 6 0 1 0;
#X connect 7 0 1 0;
#X connect 8 0 1 0;
#X connect 9 0 1 0;
#X connect 10 0 1 0;
#X connect 11 0 1 0;
#X connect 12 0 1 0;
#X connect 13 0 1 0;
#X connect 14 0 1 0;
#X connect 15 0 1 0;
#X connect 16 0 1 0;
#X connect 17 0 1 0;
#X connect 18 0 1 0;
#X connect 19 0 1 0;
#X connect 20 0 1 0;
#X connect 21 0 1 0;
#X connect 22 0 1 0;
#X connect 23 0 1 0;
#X connect 24 0 1 0;
#X connect 25 0 1 0;
#X connect 26 0 1 0;
#X restore 133 635 pd estimation;
#X obj 76 591 drip 0;
#X obj 76 613 route bang;
#X obj 130 131 \$0;
#X msg 130 152 set \$1-major \, bang;
#X obj -4 105 \$0;
#X msg -4 125 set \$1-minor \, bang;
#X obj 133 679 s key_estimation;
#X obj 133 657 tosymbol;
#X obj 48 0 drip 1;
#X connect 0 0 15 0;
#X connect 1 0 35 0;
#X connect 1 1 2 0;
#X connect 2 0 0 1;
#X connect 3 0 1 0;
#X connect 4 0 15 1;
#X connect 5 0 17 0;
#X connect 6 0 0 0;
#X connect 7 0 8 0;
#X connect 8 0 10 0;
#X connect 8 1 6 1;
#X connect 9 0 12 0;
#X connect 10 0 41 0;
#X connect 11 0 9 0;
#X connect 11 1 6 0;
#X connect 12 0 16 0;
#X connect 13 0 15 1;
#X connect 14 0 12 1;
#X connect 15 0 4 0;
#X connect 15 0 20 0;
#X connect 16 0 37 0;
#X connect 17 0 21 0;
#X connect 17 1 24 1;
#X connect 18 0 19 0;
#X connect 19 0 5 0;
#X connect 20 0 18 0;
#X connect 20 1 5 1;
#X connect 21 0 23 0;
#X connect 21 1 22 1;
#X connect 22 0 25 0;
#X connect 23 0 22 0;
#X connect 24 0 31 0;
#X connect 25 0 26 0;
#X connect 26 0 27 0;
#X connect 26 0 30 0;
#X connect 27 0 26 1;
#X connect 28 0 29 0;
#X connect 29 0 26 1;
#X connect 30 0 24 0;
#X connect 30 1 31 1;
#X connect 31 0 33 0;
#X connect 32 0 40 0;
#X connect 33 0 34 0;
#X connect 34 1 32 0;
#X connect 35 0 36 0;
#X connect 36 0 7 0;
#X connect 37 0 38 0;
#X connect 38 0 7 0;
#X connect 40 0 39 0;
#X connect 41 0 11 0;
#X restore 234 178 pd find_key;
#X obj -44 5 tgl 15 0 empty empty empty 17 7 0 10 -262144 -1 -1 0 1
;
#N canvas 554 23 704 500 type_table 0;
#X obj 31 -105 tabwrite TYPE_TABLE;
#N canvas 0 22 450 278 (subpatch) 0;
#X array TYPE_TABLE 6 float 1;
#A 0 0 0 0 0 0 0;
#X coords 0 1 5 0 200 140 1 0 0;
#X restore 380 -283 graph;
#X obj 31 -127 + 0.01;
#X obj 31 -149 tabread TYPE_TABLE;
#X msg 229 -207 \; TYPE_TABLE const 0;
#X obj 31 -185 r type_chord;
#X msg 229 -242 \; TYPE_TABLE normalize;
#X obj 142 -129 r type_chord;
#X connect 2 0 0 0;
#X connect 3 0 2 0;
#X connect 7 0 0 1;
#X restore 238 310 pd type_table;
#N canvas 587 23 626 643 type_and_root_table 0;
#X obj 202 -62 r type_chord;
#X obj 117 -62 r root_chord;
#X obj 202 -36 * 12;
#X obj 117 11 +;
#X obj 71 129 tabwrite root_and_type_table;
#N canvas 0 22 450 278 (subpatch) 0;
#X array root_and_type_table 72 float 1;
#A 0 14295 8 8451 16 1183 7184 300 15422 8 2566 512 273 338 263 2505
0 6726 108 911 116 77 9603 0 1547 0 0 0 0 0 0 0 0 0 0 0 7 0 0 0 0 0
0 0 0 35 0 0 0 0 0 0 0 0 0 0 0 0 0 0 0 159 0 265 0 109 80 0 14 0 212
0 570;
#X coords 0 100 71 0 200 140 2 0 0;
#X restore 42 203 graph;
#X msg 338 85 \; root_and_type_table normalize;
#X obj 71 83 tabread root_and_type_table;
#X msg 338 52 \; root_and_type_table const 0;
#X msg 277 156 \; root_and_type_table write root_and_type_table.txt
;
#X floatatom 177 35 5 0 0 0 - - -;
#X floatatom 204 -7 5 0 0 0 - - -;
#X floatatom 138 -22 5 0 0 0 - - -;
#X obj 71 105 + 1;
#X msg 271 269 \; root_and_type_table write song99-chords.txt;
#X obj 117 51 t f f;
#X connect 0 0 2 0;
#X connect 1 0 3 0;
#X connect 1 0 12 0;
#X connect 2 0 3 1;
#X connect 2 0 11 0;
#X connect 3 0 10 0;
#X connect 3 0 15 0;
#X connect 7 0 13 0;
#X connect 13 0 4 0;
#X connect 15 0 7 0;
#X connect 15 1 4 1;
#X restore 236 201 pd type_and_root_table;
#N canvas 366 23 814 730 reduction_table 0;
#X obj 193 -86 r key_estimation;
#X floatatom 243 -24 5 0 0 0 - - -;
#X floatatom 158 -24 5 0 0 0 - - -;
#X text 281 -31 0 = major;
#X text 281 -21 1 = minor;
#X text 86 13 pitch class;
#X obj 201 18 t b f;
#X obj 488 65 -;
#X obj 484 -20 r root_chord;
#X obj 488 89 mod 12;
#X floatatom 541 83 5 0 0 0 - - -;
#X obj 204 76 sel 0 1;
#X msg -11 157 set major_table_reduction;
#X msg 153 157 set minor_table_reduction;
#X obj 488 117 t f f;
#X obj 302 240 + 0.01;
#X obj 302 273 tabwrite major;
#N canvas 0 22 450 278 (subpatch) 0;
#X array major_table_reduction 12 float 1;
#A 0 1 0.0507453 0.645374 0.119998 0.269847 0.83343 0.0495514 0.900897
0.0740285 0.589848 0.422683 0.170146;
#X coords 0 1 11 0 200 140 1 0 0;
#X restore 48 316 graph;
#X floatatom 544 122 5 0 0 0 - - -;
#N canvas 0 22 450 278 (subpatch) 0;
#X array minor_table_reduction 12 float 1;
#A 0 0.707178 0.193369 0.204419 0.635356 0.112338 1 0 0.60589 0.508285
0.112338 0.602207 0;
#X coords 0 1 11 0 200 140 1 0 0;
#X restore 272 318 graph;
#X msg 53 474 \; major_table_reduction normalize;
#X msg 281 474 \; minor_table_reduction normalize;
#X msg 53 522 \; major_table_reduction const 0;
#X msg 281 522 \; minor_table_reduction const 0;
#X msg 410 194 \; major_table_reduction write tabla1.txt;
#X obj 302 215 tabread;
#X text 506 150 FALTA CONECTAR!;
#X obj 193 -41 key2pc;
#X connect 0 0 27 0;
#X connect 6 1 7 1;
#X connect 7 0 9 0;
#X connect 8 0 7 0;
#X connect 9 0 10 0;
#X connect 9 0 14 0;
#X connect 11 0 12 0;
#X connect 11 1 13 0;
#X connect 12 0 16 0;
#X connect 12 0 25 0;
#X connect 13 0 16 0;
#X connect 13 0 25 0;
#X connect 14 1 18 0;
#X connect 15 0 16 0;
#X connect 25 0 15 0;
#X connect 27 0 2 0;
#X connect 27 0 6 0;
#X connect 27 1 1 0;
#X connect 27 1 11 0;
#X restore 238 290 pd reduction_table;
#X obj 81 573 s modul_chord;
#X obj 70 14 f;
#X obj 70 35 until;
#N canvas 120 23 874 655 chord_accumulation 0;
#X obj 95 30 sel maj min aug dim sus4;
#X obj 236 52 fromsymbol;
#X obj 236 76 sel 7;
#X msg 271 101 unrecognize chord type;
#X obj 271 123 print ERROR;
#X msg 123 112 1;
#X msg 151 112 2;
#X msg 179 112 3;
#X msg 207 112 4;
#X msg 236 112 5;
#X msg 95 112 0;
#X obj 164 173 * 12;
#X obj 177 201 r key_estimation;
#X obj 13 349 -;
#X obj 67 286 t l;
#X obj 13 262 list prepend;
#X obj 13 9 inlet;
#X obj 95 6 inlet;
#X obj 3 324 drip 0;
#X obj 222 453 prepend;
#X obj 222 496 route 0 1;
#X obj 236 170 s type_chord;
#X obj 2 300 list;
#X obj 254 228 print key;
#X obj 222 367 t l;
#X obj 164 343 list prepend;
#X obj 143 392 drip 0;
#X obj 143 369 list;
#X obj 177 229 t b b b s;
#X obj 13 374 mod 12;
#X obj 128 414 +;
#X obj 132 606 tabwrite major_table;
#X obj 261 607 tabwrite minor_table;
#X obj 132 559 tabread major_table;
#X obj 261 560 tabread minor_table;
#X msg 448 37 \; major_table write major_table_reducton.txt;
#X msg 448 73 \; minor_table write minor_table_reducton.txt;
#X text 446 19 WRITE TEXTFILE FROM BOTH TABLES:;
#X msg 446 138 \; major_table const 0;
#X msg 446 172 \; minor_table const 0;
#X text 444 121 PUT TO ZERO BOTH TABLES:;
#N canvas 0 22 450 278 (subpatch) 0;
#X array major_table 72 float 3;
#A 0 14400 50 3195 725 783 11020 76 12088 409 1108 1151 170 567 115
2360 12 2398 248 375 412 51 8573 8 683 0 0 0 0 4 0 0 0 0 0 0 3 0 0
0 0 0 0 0 0 35 0 0 0 0 0 0 0 0 0 0 0 0 0 0 0 125 0 249 19 84 48 0 243
10 76 4 47;
#X coords 0 500 71 0 200 140 1 0 0;
#X restore 428 481 graph;
#N canvas 0 22 450 278 (subpatch) 0;
#X array minor_table 72 float 3;
#A 0 472 242 472 2348 100 573 28 700 1781 158 659 28 3641 20 296 67
122 2531 20 132 225 228 152 120 0 0 0 0 0 0 0 0 0 0 0 0 0 0 0 0 0 0
0 0 0 0 0 0 0 0 0 0 0 0 0 0 0 0 0 0 4 4 35 48 64 4 4 509 4 4 4 4;
#X coords 0 500 71 0 200 140 2 0 0;
#X restore 634 480 graph;
#X obj 132 582 + 1;
#X obj 261 584 + 1;
#X obj 222 533 t f f;
#X obj 351 534 t f f;
#X obj 228 254 key2pc;
#X obj 288 495 outlet;
#X connect 0 0 10 0;
#X connect 0 1 5 0;
#X connect 0 2 6 0;
#X connect 0 3 7 0;
#X connect 0 4 8 0;
#X connect 0 5 1 0;
#X connect 1 0 2 0;
#X connect 2 0 9 0;
#X connect 2 1 3 0;
#X connect 3 0 4 0;
#X connect 5 0 11 0;
#X connect 5 0 21 0;
#X connect 6 0 11 0;
#X connect 6 0 21 0;
#X connect 7 0 11 0;
#X connect 7 0 21 0;
#X connect 8 0 11 0;
#X connect 8 0 21 0;
#X connect 9 0 11 0;
#X connect 9 0 21 0;
#X connect 10 0 11 0;
#X connect 10 0 21 0;
#X connect 11 0 25 0;
#X connect 12 0 28 0;
#X connect 13 0 29 0;
#X connect 14 0 15 1;
#X connect 15 0 14 0;
#X connect 15 0 22 1;
#X connect 16 0 15 0;
#X connect 17 0 0 0;
#X connect 18 0 13 0;
#X connect 19 0 20 0;
#X connect 19 0 48 0;
#X connect 20 0 45 0;
#X connect 20 1 46 0;
#X connect 22 0 18 0;
#X connect 24 0 25 1;
#X connect 25 0 24 0;
#X connect 25 0 27 1;
#X connect 26 0 30 1;
#X connect 27 0 26 0;
#X connect 28 0 15 1;
#X connect 28 0 25 1;
#X connect 28 1 22 0;
#X connect 28 2 27 0;
#X connect 28 3 23 0;
#X connect 28 3 47 0;
#X connect 29 0 30 0;
#X connect 30 0 19 0;
#X connect 33 0 43 0;
#X connect 34 0 44 0;
#X connect 43 0 31 0;
#X connect 44 0 32 0;
#X connect 45 0 33 0;
#X connect 45 1 31 1;
#X connect 46 0 34 0;
#X connect 46 1 32 1;
#X connect 47 0 13 1;
#X connect 47 1 19 1;
#X restore 38 466 pd chord_accumulation;
#X obj 45 444 s root_chord;
#N canvas 740 37 483 681 table_key 0;
#X obj 87 22 r key_estimation;
#X symbolatom 105 47 10 0 0 0 - - -;
#X floatatom 146 95 5 0 0 0 - - -;
#X floatatom 40 95 5 0 0 0 - - -;
#N canvas 0 22 450 278 (subpatch) 0;
#X array major_key_table 12 float 1;
#A 0 142 0 60 0 4 12 0 153 0 25 0 0;
#X coords 0 100 11 0 200 140 1 0 0;
#X restore -150 422 graph;
#N canvas 0 22 450 278 (subpatch) 0;
#X array minor_key_table 12 float 1;
#A 0 26 26 30 26 93 26 26 26 26 69 286 320;
#X coords 0 100 11 0 200 140 1 0 0;
#X restore 89 422 graph;
#X obj 120 135 prepend;
#X obj 120 165 route 0 1;
#X floatatom 197 182 5 0 0 0 - - -;
#X floatatom 68 182 5 0 0 0 - - -;
#X obj 7 260 tabread major_key_table;
#X obj 7 307 tabwrite major_key_table;
#X msg -158 183 \; major_key_table const 0;
#X msg -158 222 \; minor_key_table const 0;
#X obj 157 260 tabread minor_key_table;
#X obj 157 307 tabwrite minor_key_table;
#X msg -150 577 \; major_key_table write major_key_table.txt;
#X msg -150 607 \; minor_key_table write minor_key_table.txt;
#X obj 7 283 + 1;
#X obj 157 283 + 1;
#X obj 167 209 t f f;
#X obj 89 219 t f f;
#X obj 87 78 key2pc;
#X connect 0 0 1 0;
#X connect 0 0 22 0;
#X connect 6 0 7 0;
#X connect 7 0 9 0;
#X connect 7 0 21 0;
#X connect 7 1 8 0;
#X connect 7 1 20 0;
#X connect 10 0 18 0;
#X connect 14 0 19 0;
#X connect 18 0 11 0;
#X connect 19 0 15 0;
#X connect 20 0 14 0;
#X connect 20 1 15 1;
#X connect 21 0 10 0;
#X connect 21 1 11 1;
#X connect 22 0 3 0;
#X connect 22 0 6 0;
#X connect 22 1 2 0;
#X connect 22 1 6 1;
#X restore 237 243 pd table_key;
#X text 237 275 MALA IMPLEMENTACIÓ;
#X obj -44 121 t s b;
#N canvas 833 23 293 700 tables 0;
#X obj 25 325 tab72 12 minor;
#X obj 25 25 tab72 0 minor;
#X obj 25 50 tab72 1 minor;
#X obj 25 75 tab72 2 minor;
#X obj 25 100 tab72 3 minor;
#X obj 25 125 tab72 4 minor;
#X obj 25 150 tab72 5 minor;
#X obj 25 175 tab72 6 minor;
#X obj 25 200 tab72 7 minor;
#X obj 25 225 tab72 8 minor;
#X obj 25 250 tab72 9 minor;
#X obj 25 275 tab72 10 minor;
#X obj 25 300 tab72 11 minor;
#X obj 25 350 tab72 13 minor;
#X obj 25 375 tab72 14 minor;
#X obj 25 400 tab72 15 minor;
#X obj 25 425 tab72 16 minor;
#X obj 25 450 tab72 17 minor;
#X obj 25 475 tab72 18 minor;
#X obj 25 500 tab72 19 minor;
#X obj 25 525 tab72 20 minor;
#X obj 25 550 tab72 21 minor;
#X obj 25 575 tab72 22 minor;
#X obj 25 600 tab72 23 minor;
#X obj 25 625 tab72 24 minor;
#X obj 25 650 tab72 25 minor;
#X obj 25 675 tab72 26 minor;
#X obj 25 700 tab72 27 minor;
#X obj 25 725 tab72 28 minor;
#X obj 25 750 tab72 29 minor;
#X obj 25 775 tab72 30 minor;
#X obj 25 800 tab72 31 minor;
#X obj 25 825 tab72 32 minor;
#X obj 25 850 tab72 33 minor;
#X obj 25 875 tab72 34 minor;
#X obj 25 900 tab72 35 minor;
#X obj 25 925 tab72 36 minor;
#X obj 25 950 tab72 37 minor;
#X obj 25 975 tab72 38 minor;
#X obj 25 1000 tab72 39 minor;
#X obj 25 1025 tab72 40 minor;
#X obj 25 1050 tab72 41 minor;
#X obj 25 1075 tab72 42 minor;
#X obj 25 1100 tab72 43 minor;
#X obj 25 1125 tab72 44 minor;
#X obj 25 1150 tab72 45 minor;
#X obj 25 1175 tab72 46 minor;
#X obj 25 1200 tab72 47 minor;
#X obj 25 1225 tab72 48 minor;
#X obj 25 1250 tab72 49 minor;
#X obj 25 1275 tab72 50 minor;
#X obj 25 1300 tab72 51 minor;
#X obj 25 1325 tab72 52 minor;
#X obj 25 1350 tab72 53 minor;
#X obj 25 1375 tab72 54 minor;
#X obj 25 1400 tab72 55 minor;
#X obj 25 1425 tab72 56 minor;
#X obj 25 1450 tab72 57 minor;
#X obj 25 1475 tab72 58 minor;
#X obj 25 1500 tab72 59 minor;
#X obj 25 1525 tab72 60 minor;
#X obj 25 1550 tab72 61 minor;
#X obj 25 1575 tab72 62 minor;
#X obj 25 1600 tab72 63 minor;
#X obj 25 1625 tab72 64 minor;
#X obj 25 1650 tab72 65 minor;
#X obj 25 1675 tab72 66 minor;
#X obj 25 1700 tab72 67 minor;
#X obj 25 1725 tab72 68 minor;
#X obj 25 1750 tab72 69 minor;
#X obj 25 1775 tab72 70 minor;
#X obj 25 1800 tab72 71 minor;
#X obj 135 25 tab72 0 major;
#X obj 135 50 tab72 1 major;
#X obj 135 75 tab72 2 major;
#X obj 135 100 tab72 3 major;
#X obj 135 125 tab72 4 major;
#X obj 135 150 tab72 5 major;
#X obj 135 175 tab72 6 major;
#X obj 135 200 tab72 7 major;
#X obj 135 225 tab72 8 major;
#X obj 135 250 tab72 9 major;
#X obj 135 275 tab72 10 major;
#X obj 135 300 tab72 11 major;
#X obj 135 325 tab72 12 major;
#X obj 135 350 tab72 13 major;
#X obj 135 375 tab72 14 major;
#X obj 135 400 tab72 15 major;
#X obj 135 425 tab72 16 major;
#X obj 135 450 tab72 17 major;
#X obj 135 475 tab72 18 major;
#X obj 135 500 tab72 19 major;
#X obj 135 525 tab72 20 major;
#X obj 135 550 tab72 21 major;
#X obj 135 575 tab72 22 major;
#X obj 135 600 tab72 23 major;
#X obj 135 625 tab72 24 major;
#X obj 135 650 tab72 25 major;
#X obj 135 675 tab72 26 major;
#X obj 135 700 tab72 27 major;
#X obj 135 725 tab72 28 major;
#X obj 135 750 tab72 29 major;
#X obj 135 775 tab72 30 major;
#X obj 135 800 tab72 31 major;
#X obj 135 825 tab72 32 major;
#X obj 135 850 tab72 33 major;
#X obj 135 875 tab72 34 major;
#X obj 135 900 tab72 35 major;
#X obj 135 925 tab72 36 major;
#X obj 135 950 tab72 37 major;
#X obj 135 975 tab72 38 major;
#X obj 135 1000 tab72 39 major;
#X obj 135 1025 tab72 40 major;
#X obj 135 1050 tab72 41 major;
#X obj 135 1075 tab72 42 major;
#X obj 135 1100 tab72 43 major;
#X obj 135 1125 tab72 44 major;
#X obj 135 1150 tab72 45 major;
#X obj 135 1175 tab72 46 major;
#X obj 135 1200 tab72 47 major;
#X obj 135 1225 tab72 48 major;
#X obj 135 1250 tab72 49 major;
#X obj 135 1275 tab72 50 major;
#X obj 135 1300 tab72 51 major;
#X obj 135 1325 tab72 52 major;
#X obj 135 1350 tab72 53 major;
#X obj 135 1375 tab72 54 major;
#X obj 135 1400 tab72 55 major;
#X obj 135 1425 tab72 56 major;
#X obj 135 1450 tab72 57 major;
#X obj 135 1475 tab72 58 major;
#X obj 135 1500 tab72 59 major;
#X obj 135 1525 tab72 60 major;
#X obj 135 1550 tab72 61 major;
#X obj 135 1575 tab72 62 major;
#X obj 135 1600 tab72 63 major;
#X obj 135 1625 tab72 64 major;
#X obj 135 1650 tab72 65 major;
#X obj 135 1675 tab72 66 major;
#X obj 135 1700 tab72 67 major;
#X obj 135 1725 tab72 68 major;
#X obj 135 1750 tab72 69 major;
#X obj 135 1775 tab72 70 major;
#X obj 135 1800 tab72 71 major;
#X restore 237 221 pd tables for 1st order markov;
#N canvas 105 23 563 543 orden1_calculation 0;
#X obj 103 20 inlet;
#X obj 130 210 pack f f;
#X obj 191 210 t f;
#X msg 130 423 \$2 \$1;
#X obj 11 171 i;
#X obj 26 151 once;
#X obj -16 17 r end_file;
#X obj -16 59 t b b;
#X obj 224 465 s;
#X obj 239 167 sel 0 1;
#X obj 329 173 loadbang;
#X obj 239 144 change;
#X obj 239 235 makefilename fill_table-%s;
#X msg 329 199 symbol minor;
#X msg 239 199 symbol major;
#X obj 103 63 swap;
#X obj 103 96 t f f;
#X obj 189 271 r key_estimation;
#X obj 130 396 spigot;
#X msg 189 368 0;
#X obj 189 294 t b b;
#X obj 157 340 once;
#X msg 157 368 1;
#X obj 130 239 t b l;
#X obj 130 492 print transitions;
#X obj -16 39 del 100;
#X connect 0 0 15 0;
#X connect 1 0 2 0;
#X connect 1 0 23 0;
#X connect 2 0 1 1;
#X connect 3 0 8 0;
#X connect 3 0 24 0;
#X connect 4 0 1 0;
#X connect 5 0 4 1;
#X connect 6 0 25 0;
#X connect 7 0 5 1;
#X connect 7 1 4 0;
#X connect 9 0 14 0;
#X connect 9 1 13 0;
#X connect 10 0 13 0;
#X connect 11 0 9 0;
#X connect 12 0 8 1;
#X connect 13 0 12 0;
#X connect 14 0 12 0;
#X connect 15 0 16 0;
#X connect 15 1 11 0;
#X connect 16 0 5 0;
#X connect 16 1 1 0;
#X connect 17 0 20 0;
#X connect 18 0 3 0;
#X connect 19 0 18 1;
#X connect 20 0 19 0;
#X connect 20 1 21 1;
#X connect 21 0 22 0;
#X connect 22 0 18 1;
#X connect 23 0 21 0;
#X connect 23 1 18 0;
#X connect 25 0 7 0;
#X restore 38 490 pd orden1_calculation;
#X obj 169 28 bng 50 250 50 0 empty empty empty 17 7 0 10 -262144 -1
-1;
#X obj 169 85 s save-tables;
#X obj 256 61 bng 20 250 50 0 empty empty empty 17 7 0 10 -262144 -1
-1;
#X obj 256 17 loadbang;
#X obj 256 39 delay 500;
#X obj 256 86 s load-tables;
#X obj 70 -8 bng 15 250 50 0 empty empty empty 17 7 0 10 -262144 -1
-1;
#X obj -44 26 metro 100;
#X connect 0 0 9 0;
#X connect 0 1 21 1;
#X connect 0 1 26 0;
#X connect 0 1 30 0;
#X connect 1 0 28 0;
#X connect 1 0 43 0;
#X connect 1 1 2 0;
#X connect 1 1 37 1;
#X connect 3 0 1 0;
#X connect 4 0 1 0;
#X connect 5 0 8 0;
#X connect 5 1 7 0;
#X connect 5 1 39 1;
#X connect 6 0 5 0;
#X connect 7 0 15 1;
#X connect 8 0 12 0;
#X connect 9 0 6 0;
#X connect 10 0 16 0;
#X connect 12 0 10 0;
#X connect 12 0 39 0;
#X connect 12 0 40 0;
#X connect 13 0 14 0;
#X connect 14 0 17 0;
#X connect 15 0 13 0;
#X connect 16 0 15 0;
#X connect 16 1 14 1;
#X connect 17 0 20 0;
#X connect 17 0 36 0;
#X connect 19 0 29 0;
#X connect 20 0 19 0;
#X connect 20 1 18 1;
#X connect 21 0 0 0;
#X connect 22 0 23 0;
#X connect 23 0 21 0;
#X connect 23 1 0 0;
#X connect 29 0 18 0;
#X connect 32 0 53 0;
#X connect 37 0 38 0;
#X connect 38 0 4 0;
#X connect 39 0 45 0;
#X connect 43 0 22 0;
#X connect 43 1 27 0;
#X connect 46 0 47 0;
#X connect 48 0 51 0;
#X connect 49 0 50 0;
#X connect 50 0 48 0;
#X connect 52 0 37 0;
#X connect 53 0 4 0;
