#N canvas 140 22 534 478 10;
#N canvas 1120 22 160 678 instances 0;
#X obj 25 25 tab72 0 major;
#X obj 25 50 tab72 1 major;
#X obj 25 75 tab72 2 major;
#X obj 25 100 tab72 3 major;
#X obj 25 125 tab72 4 major;
#X obj 25 150 tab72 5 major;
#X obj 25 175 tab72 6 major;
#X obj 25 200 tab72 7 major;
#X obj 25 225 tab72 8 major;
#X obj 25 250 tab72 9 major;
#X obj 25 275 tab72 10 major;
#X obj 25 300 tab72 11 major;
#X obj 25 325 tab72 12 major;
#X obj 25 350 tab72 13 major;
#X obj 25 375 tab72 14 major;
#X obj 25 400 tab72 15 major;
#X obj 25 425 tab72 16 major;
#X obj 25 450 tab72 17 major;
#X obj 25 475 tab72 18 major;
#X obj 25 500 tab72 19 major;
#X obj 25 525 tab72 20 major;
#X obj 25 550 tab72 21 major;
#X obj 25 575 tab72 22 major;
#X obj 25 600 tab72 23 major;
#X obj 25 625 tab72 24 major;
#X obj 25 650 tab72 25 major;
#X obj 25 675 tab72 26 major;
#X obj 25 700 tab72 27 major;
#X obj 25 725 tab72 28 major;
#X obj 25 750 tab72 29 major;
#X obj 25 775 tab72 30 major;
#X obj 25 800 tab72 31 major;
#X obj 25 825 tab72 32 major;
#X obj 25 850 tab72 33 major;
#X obj 25 875 tab72 34 major;
#X obj 25 900 tab72 35 major;
#X obj 25 925 tab72 36 major;
#X obj 25 950 tab72 37 major;
#X obj 25 975 tab72 38 major;
#X obj 25 1000 tab72 39 major;
#X obj 25 1025 tab72 40 major;
#X obj 25 1050 tab72 41 major;
#X obj 25 1075 tab72 42 major;
#X obj 25 1100 tab72 43 major;
#X obj 25 1125 tab72 44 major;
#X obj 25 1150 tab72 45 major;
#X obj 25 1175 tab72 46 major;
#X obj 25 1200 tab72 47 major;
#X obj 25 1225 tab72 48 major;
#X obj 25 1250 tab72 49 major;
#X obj 25 1275 tab72 50 major;
#X obj 25 1300 tab72 51 major;
#X obj 25 1325 tab72 52 major;
#X obj 25 1350 tab72 53 major;
#X obj 25 1375 tab72 54 major;
#X obj 25 1400 tab72 55 major;
#X obj 25 1425 tab72 56 major;
#X obj 25 1450 tab72 57 major;
#X obj 25 1475 tab72 58 major;
#X obj 25 1500 tab72 59 major;
#X obj 25 1525 tab72 60 major;
#X obj 25 1550 tab72 61 major;
#X obj 25 1575 tab72 62 major;
#X obj 25 1600 tab72 63 major;
#X obj 25 1625 tab72 64 major;
#X obj 25 1650 tab72 65 major;
#X obj 25 1675 tab72 66 major;
#X obj 25 1700 tab72 67 major;
#X obj 25 1725 tab72 68 major;
#X obj 25 1750 tab72 69 major;
#X obj 25 1775 tab72 70 major;
#X obj 25 1800 tab72 71 major;
#X restore 126 412 pd instances;
#X obj 114 392 s pd-instances;
#X obj 48 103 until;
#X obj 74 153 + 1;
#X msg 114 103 clear;
#X obj 48 176 t f f;
#X obj 75 199 * 25;
#X obj 75 219 + 25;
#X obj 28 14 inlet;
#X obj 42 269 symbol \$1;
#X obj 42 245 loadbang;
#X obj 67 48 f \$2;
#X obj 67 14 loadbang;
#X text 170 10 ARGUMENTS:;
#X text 170 55 2) number of instances;
#X text 170 35 1) name of the object;
#X text 210 412 (new objects are placed inside the subpatch);
#X text 408 448 angel faraldo 2011;
#X obj 48 154 f 1;
#X obj 67 70 t f b b b;
#X obj 14 320 pack f s f s;
#X msg 14 346 obj 25 \$3 \$2 \$1 \$4;
#X obj 187 303 symbol \$3;
#X msg 86 103 0;
#X text 170 75 3) aditional argument (symbol);
#X connect 2 0 18 0;
#X connect 3 0 18 1;
#X connect 4 0 1 0;
#X connect 5 0 20 0;
#X connect 5 1 6 0;
#X connect 6 0 7 0;
#X connect 7 0 20 2;
#X connect 8 0 11 0;
#X connect 9 0 20 1;
#X connect 10 0 9 0;
#X connect 11 0 19 0;
#X connect 12 0 11 0;
#X connect 18 0 3 0;
#X connect 18 0 5 0;
#X connect 19 0 2 0;
#X connect 19 1 23 0;
#X connect 19 2 4 0;
#X connect 19 3 22 0;
#X connect 20 0 21 0;
#X connect 21 0 1 0;
#X connect 22 0 20 3;
#X connect 23 0 18 1;
