#N canvas 183 23 829 715 10;
#X obj 97 34 tgl 15 0 empty empty empty 17 7 0 10 -262144 -1 -1 1 1
;
#X floatatom 154 27 5 0 0 0 - - -;
#X obj 97 142 list-wrandom;
#X floatatom 55 173 5 0 0 0 - - -;
#X floatatom 166 171 5 0 0 0 - - -;
#X obj 103 683 noteout;
#X floatatom 41 673 5 0 0 0 - - -;
#X obj 59 72 bng 15 250 50 0 empty empty empty 17 7 0 10 -262144 -1
-1;
#X floatatom 244 265 5 0 0 0 - - -;
#X floatatom 77 303 5 0 0 0 - - -;
#X obj 97 250 mod 12;
#X obj 213 240 div 12;
#X obj 207 103 tabdump major_table;
#X obj 233 678 noteout;
#X floatatom 190 678 5 0 0 0 - - -;
#X obj 371 674 noteout;
#X floatatom 328 674 5 0 0 0 - - -;
#X obj 62 523 makenote 1000 1000;
#X obj 201 522 makenote 1000 1000;
#X obj 339 518 makenote 1000 1000;
#X text 230 303 hacer inversa de pd type;
#X text 106 202 viene del random;
#X obj 97 223 t f f;
#X obj 98 467 +;
#X floatatom 230 319 5 0 0 0 - - -;
#N canvas 742 23 450 300 inverse_type 0;
#X obj 87 42 inlet;
#X obj 89 74 sel 0 1 2 3 4 5;
#X msg 25 149 0 \, 4 \, 7;
#X msg 142 149 0 \, 4 \, 8;
#X msg 202 149 0 \, 3 \, 6;
#X msg 263 149 0 \, 5 \, 7;
#X msg 83 149 0 \, 3 \, 7;
#X obj 147 220 outlet;
#X msg 322 149 0 \, 4 \, 10;
#X connect 0 0 1 0;
#X connect 1 0 2 0;
#X connect 1 1 6 0;
#X connect 1 2 3 0;
#X connect 1 3 4 0;
#X connect 1 4 5 0;
#X connect 1 5 8 0;
#X connect 2 0 7 0;
#X connect 3 0 7 0;
#X connect 4 0 7 0;
#X connect 5 0 7 0;
#X connect 6 0 7 0;
#X connect 8 0 7 0;
#X restore 213 286 pd inverse_type;
#X floatatom 101 490 5 0 0 0 - - -;
#X obj 213 339 sel 0 1 2 3 4 5 6 7 8 9 10 11;
#X msg 205 384 0;
#X msg 292 384 3;
#X msg 322 384 4;
#X msg 352 384 5;
#X msg 381 384 6;
#X msg 410 384 7;
#X msg 441 384 8;
#X obj 148 468 +;
#X obj 212 472 +;
#X floatatom 311 479 5 0 0 0 - - -;
#X floatatom 178 491 5 0 0 0 - - -;
#X obj 110 114 bng 15 250 50 0 empty empty empty 17 7 0 10 -262144
-1 -1;
#X obj 97 53 metro 1000;
#X obj 558 509 sel 0 1 2 3 4 5 6 7 8 9 10;
#X msg 477 557 0;
#X msg 507 557 12;
#X msg 537 557 24;
#X msg 566 557 36;
#X msg 595 557 48;
#X msg 624 557 60;
#X msg 655 557 72;
#X msg 685 557 84;
#X msg 715 557 96;
#X msg 744 557 108;
#X msg 773 557 120;
#X obj 62 609 +;
#X obj 201 609 +;
#X obj 339 609 +;
#X obj 558 332 vradio 15 1 0 11 empty empty empty 0 -8 0 10 -262144
-1 -1 5;
#X text 573 330 +0;
#X text 573 345 +12;
#X text 573 360 +24;
#X text 573 376 +36;
#X text 573 390 +48;
#X text 573 405 +60;
#X text 573 420 +72;
#X text 573 435 +84;
#X text 573 450 +96;
#X text 573 464 +108;
#X text 573 480 +120;
#X text 556 317 OCTAVES:;
#X msg 207 58 set major_table \, bang;
#X msg 217 78 set minor_table \, bang;
#X obj 601 23 vradio 15 1 0 12 empty empty empty 0 -8 0 10 -262144
-1 -1 3;
#X obj 601 215 s key_orden0;
#X obj 365 642 + 0;
#X obj 223 641 + 0;
#X obj 73 646 + 0;
#X obj 429 615 r key_orden0;
#X obj 253 615 r key_orden0;
#X obj 96 616 r key_orden0;
#X text 584 2 Choose tonality:;
#X text 618 22 C;
#X text 618 37 C#;
#X text 618 52 D;
#X text 618 67 D#;
#X text 618 82 E;
#X text 618 97 F;
#X text 618 112 F#;
#X text 618 127 G;
#X text 618 142 G#;
#X text 618 157 A;
#X text 618 172 A#;
#X text 618 187 B;
#X connect 0 0 40 0;
#X connect 1 0 40 1;
#X connect 2 0 3 0;
#X connect 2 0 22 0;
#X connect 2 1 4 0;
#X connect 10 0 9 0;
#X connect 10 0 23 0;
#X connect 10 0 35 0;
#X connect 10 0 36 0;
#X connect 11 0 8 0;
#X connect 11 0 25 0;
#X connect 12 0 2 1;
#X connect 17 0 53 0;
#X connect 17 1 5 1;
#X connect 18 0 54 0;
#X connect 18 1 13 1;
#X connect 19 0 55 0;
#X connect 19 1 15 1;
#X connect 22 0 10 0;
#X connect 22 1 11 0;
#X connect 23 0 26 0;
#X connect 23 0 17 0;
#X connect 25 0 24 0;
#X connect 25 0 27 0;
#X connect 27 0 28 0;
#X connect 27 3 29 0;
#X connect 27 4 30 0;
#X connect 27 5 31 0;
#X connect 27 6 32 0;
#X connect 27 7 33 0;
#X connect 27 8 34 0;
#X connect 28 0 23 1;
#X connect 29 0 35 1;
#X connect 30 0 35 1;
#X connect 31 0 35 1;
#X connect 32 0 36 1;
#X connect 33 0 36 1;
#X connect 34 0 36 1;
#X connect 35 0 18 0;
#X connect 35 0 38 0;
#X connect 36 0 19 0;
#X connect 36 0 37 0;
#X connect 39 0 2 0;
#X connect 40 0 2 0;
#X connect 40 0 7 0;
#X connect 41 0 42 0;
#X connect 41 1 43 0;
#X connect 41 2 44 0;
#X connect 41 3 45 0;
#X connect 41 4 46 0;
#X connect 41 5 47 0;
#X connect 41 6 48 0;
#X connect 41 7 49 0;
#X connect 41 8 50 0;
#X connect 41 9 51 0;
#X connect 41 10 52 0;
#X connect 42 0 53 1;
#X connect 42 0 54 1;
#X connect 42 0 55 1;
#X connect 43 0 53 1;
#X connect 43 0 54 1;
#X connect 43 0 55 1;
#X connect 44 0 53 1;
#X connect 44 0 54 1;
#X connect 44 0 55 1;
#X connect 45 0 53 1;
#X connect 45 0 54 1;
#X connect 45 0 55 1;
#X connect 46 0 53 1;
#X connect 46 0 54 1;
#X connect 46 0 55 1;
#X connect 47 0 53 1;
#X connect 47 0 54 1;
#X connect 47 0 55 1;
#X connect 48 0 53 1;
#X connect 48 0 54 1;
#X connect 48 0 55 1;
#X connect 49 0 53 1;
#X connect 49 0 54 1;
#X connect 49 0 55 1;
#X connect 50 0 53 1;
#X connect 50 0 54 1;
#X connect 50 0 55 1;
#X connect 51 0 53 1;
#X connect 51 0 54 1;
#X connect 51 0 55 1;
#X connect 52 0 53 1;
#X connect 52 0 54 1;
#X connect 52 0 55 1;
#X connect 53 0 75 0;
#X connect 54 0 74 0;
#X connect 55 0 73 0;
#X connect 56 0 41 0;
#X connect 69 0 12 0;
#X connect 70 0 12 0;
#X connect 71 0 72 0;
#X connect 73 0 15 0;
#X connect 73 0 16 0;
#X connect 74 0 13 0;
#X connect 74 0 14 0;
#X connect 75 0 6 0;
#X connect 75 0 5 0;
#X connect 76 0 73 1;
#X connect 77 0 74 1;
#X connect 78 0 75 1;
