#N canvas 274 23 829 715 10;
#X obj 105 107 list-wrandom;
#X obj 130 663 noteout;
#X floatatom 261 325 5 0 0 0 - - -;
#X obj 124 310 mod 12;
#X obj 240 300 div 12;
#X obj 249 660 noteout;
#X obj 387 656 noteout;
#X obj 79 533 makenote 1000 1000;
#X obj 207 534 makenote 1000 1000;
#X obj 345 530 makenote 1000 1000;
#X text 257 363 hacer inversa de pd type;
#X obj 124 273 t f f;
#X obj 115 477 +;
#X floatatom 257 379 5 0 0 0 - - -;
#N canvas 742 23 450 300 inverse_type 1;
#X obj 87 42 inlet;
#X obj 89 74 sel 0 1 2 3 4 5;
#X msg 25 149 0 \, 4 \, 7;
#X msg 142 149 0 \, 4 \, 8;
#X msg 202 149 0 \, 3 \, 6;
#X msg 263 149 0 \, 5 \, 7;
#X msg 83 149 0 \, 3 \, 7;
#X obj 147 220 outlet;
#X msg 322 149 0 \, 4 \, 10;
#X connect 0 0 1 0;
#X connect 1 0 2 0;
#X connect 1 1 6 0;
#X connect 1 2 3 0;
#X connect 1 3 4 0;
#X connect 1 4 5 0;
#X connect 1 5 8 0;
#X connect 2 0 7 0;
#X connect 3 0 7 0;
#X connect 4 0 7 0;
#X connect 5 0 7 0;
#X connect 6 0 7 0;
#X connect 8 0 7 0;
#X restore 240 346 pd inverse_type;
#X floatatom 118 500 5 0 0 0 - - -;
#X obj 240 399 sel 0 1 2 3 4 5 6 7 8 9 10 11;
#X msg 240 434 0;
#X msg 282 434 3;
#X msg 312 434 4;
#X msg 342 434 5;
#X msg 371 434 6;
#X msg 400 434 7;
#X msg 431 434 8;
#X obj 165 478 +;
#X obj 229 482 +;
#X floatatom 274 484 5 0 0 0 - - -;
#X floatatom 195 501 5 0 0 0 - - -;
#X obj 28 158 bng 15 250 50 0 empty empty empty 17 7 0 10 -262144 -1
-1;
#X obj 558 489 sel 0 1 2 3 4 5 6 7 8 9 10;
#X msg 477 537 0;
#X msg 507 537 12;
#X msg 537 537 24;
#X msg 566 537 36;
#X msg 595 537 48;
#X msg 624 537 60;
#X msg 655 537 72;
#X msg 685 537 84;
#X msg 715 537 96;
#X msg 744 537 108;
#X msg 773 537 120;
#X obj 89 589 +;
#X obj 217 591 +;
#X obj 355 591 +;
#X obj 558 312 vradio 15 1 0 11 empty empty empty 0 -8 0 10 -262144
-1 -1 0;
#X text 573 310 +0;
#X text 573 325 +12;
#X text 573 340 +24;
#X text 573 356 +36;
#X text 573 370 +48;
#X text 573 385 +60;
#X text 573 400 +72;
#X text 573 415 +84;
#X text 573 430 +96;
#X text 573 444 +108;
#X text 573 460 +120;
#X text 556 297 OCTAVES:;
#X msg 471 434 10;
#X obj 522 76 s key;
#X obj 712 74 s mode;
#X obj 522 55 hradio 15 1 0 12 empty empty empty 0 -8 0 10 -262144
-1 -1 0;
#X obj 712 47 hradio 15 1 0 2 empty empty empty 0 -8 0 10 -262144 -1
-1 0;
#X obj 121 601 r key;
#X obj 257 608 r key;
#X obj 388 608 r key;
#X obj 388 41 r mode;
#X msg 356 165 set major_orden1-\$1 \, bang;
#X msg 366 195 set major_orden1-\$1 \, bang;
#X obj 97 625 + 0;
#X obj 233 632 + 0;
#X obj 364 632 + 0;
#X obj 334 113 list prepend 0;
#X obj 356 136 route 0 1;
#X obj 356 220 tabdump major_orden1-0;
#X obj 388 62 t f f;
#X obj 261 113 sel 0 1;
#X msg 250 135 0;
#X msg 280 135 12;
#X msg 235 -21 bang;
#X msg 97 1 stop;
#X obj 334 42 f 0;
#X msg 502 134 set major_orden1-\$1;
#X obj 551 177 PRINT;
#X floatatom 195 239 5 0 0 0 - - -;
#X obj 97 225 t f f;
#X obj 29 359 s next_table;
#X obj 307 -31 r next_table;
#X obj 235 161 f 0;
#X obj 307 4 t b f;
#X obj 240 271 print now;
#X floatatom 171 86 5 0 0 0 - - -;
#X obj 104 58 delay 1000;
#X floatatom 162 5 5 0 0 0 - - -;
#X obj 366 243 PRINT;
#X obj 235 185 t f f;
#X obj 370 0 print tab;
#X floatatom 119 138 5 0 0 0 - - -;
#X connect 0 0 84 0;
#X connect 0 0 96 0;
#X connect 3 0 12 0;
#X connect 3 0 24 0;
#X connect 3 0 25 0;
#X connect 4 0 2 0;
#X connect 4 0 14 0;
#X connect 7 0 41 0;
#X connect 7 1 1 1;
#X connect 8 0 42 0;
#X connect 8 1 5 1;
#X connect 9 0 43 0;
#X connect 9 1 6 1;
#X connect 11 0 3 0;
#X connect 11 1 4 0;
#X connect 11 1 83 0;
#X connect 11 1 89 0;
#X connect 12 0 15 0;
#X connect 12 0 7 0;
#X connect 14 0 13 0;
#X connect 14 0 16 0;
#X connect 16 0 17 0;
#X connect 16 3 18 0;
#X connect 16 4 19 0;
#X connect 16 5 20 0;
#X connect 16 6 21 0;
#X connect 16 7 22 0;
#X connect 16 8 23 0;
#X connect 16 10 57 0;
#X connect 17 0 12 1;
#X connect 18 0 24 1;
#X connect 19 0 24 1;
#X connect 20 0 24 1;
#X connect 21 0 25 1;
#X connect 22 0 25 1;
#X connect 23 0 25 1;
#X connect 24 0 8 0;
#X connect 24 0 27 0;
#X connect 25 0 9 0;
#X connect 25 0 26 0;
#X connect 28 0 0 0;
#X connect 29 0 30 0;
#X connect 29 1 31 0;
#X connect 29 2 32 0;
#X connect 29 3 33 0;
#X connect 29 4 34 0;
#X connect 29 5 35 0;
#X connect 29 6 36 0;
#X connect 29 7 37 0;
#X connect 29 8 38 0;
#X connect 29 9 39 0;
#X connect 29 10 40 0;
#X connect 30 0 41 1;
#X connect 30 0 42 1;
#X connect 30 0 43 1;
#X connect 31 0 41 1;
#X connect 31 0 42 1;
#X connect 31 0 43 1;
#X connect 32 0 41 1;
#X connect 32 0 42 1;
#X connect 32 0 43 1;
#X connect 33 0 41 1;
#X connect 33 0 42 1;
#X connect 33 0 43 1;
#X connect 34 0 41 1;
#X connect 34 0 42 1;
#X connect 34 0 43 1;
#X connect 35 0 41 1;
#X connect 35 0 42 1;
#X connect 35 0 43 1;
#X connect 36 0 41 1;
#X connect 36 0 42 1;
#X connect 36 0 43 1;
#X connect 37 0 41 1;
#X connect 37 0 42 1;
#X connect 37 0 43 1;
#X connect 38 0 41 1;
#X connect 38 0 42 1;
#X connect 38 0 43 1;
#X connect 39 0 41 1;
#X connect 39 0 42 1;
#X connect 39 0 43 1;
#X connect 40 0 41 1;
#X connect 40 0 42 1;
#X connect 40 0 43 1;
#X connect 41 0 68 0;
#X connect 42 0 69 0;
#X connect 43 0 70 0;
#X connect 44 0 29 0;
#X connect 57 0 25 1;
#X connect 60 0 58 0;
#X connect 61 0 59 0;
#X connect 62 0 68 1;
#X connect 63 0 69 1;
#X connect 64 0 70 1;
#X connect 65 0 74 0;
#X connect 66 0 73 0;
#X connect 67 0 73 0;
#X connect 68 0 1 0;
#X connect 69 0 5 0;
#X connect 70 0 6 0;
#X connect 71 0 72 0;
#X connect 72 0 66 0;
#X connect 72 0 81 0;
#X connect 72 1 67 0;
#X connect 73 0 0 1;
#X connect 73 0 93 0;
#X connect 74 0 75 0;
#X connect 74 1 71 1;
#X connect 75 0 76 0;
#X connect 75 1 77 0;
#X connect 76 0 87 1;
#X connect 77 0 87 1;
#X connect 78 0 87 0;
#X connect 79 0 91 0;
#X connect 80 0 71 0;
#X connect 80 0 90 0;
#X connect 81 0 82 0;
#X connect 84 0 85 0;
#X connect 84 1 11 0;
#X connect 86 0 88 0;
#X connect 86 0 95 0;
#X connect 87 0 94 0;
#X connect 88 0 91 0;
#X connect 88 1 80 0;
#X connect 91 0 0 0;
#X connect 92 0 91 1;
#X connect 94 0 84 0;
#X connect 94 1 71 0;
