#N canvas 489 241 651 413 10;
#X obj 7 58 route \$1;
#X obj 7 83 t f f;
#X obj 7 129 + 1;
#X obj 7 10 table \$2_orden1-\$1 72;
#X obj 7 107 tabread \$2_orden1-\$1;
#X obj 7 153 tabwrite \$2_orden1-\$1;
#X obj 7 33 r fill_table-\$2;
#X obj 255 48 r save-tables;
#X obj 255 97 \$1;
#X obj 300 97 symbol \$2;
#X obj 255 121 pack f s;
#X obj 255 70 t b b;
#X msg 255 153 \; \$2_orden1-\$1 write ./tables/\$2_orden1-\$1.txt
;
#X obj 258 199 r load-tables;
#X msg 258 302 \; \$2_orden1-\$1 read ./tables/\$2_orden1-\$1.txt;
#X obj 258 248 \$1;
#X obj 303 248 symbol \$2;
#X obj 258 272 pack f s;
#X obj 258 221 t b b;
#X connect 0 0 1 0;
#X connect 1 0 4 0;
#X connect 1 1 5 1;
#X connect 2 0 5 0;
#X connect 4 0 2 0;
#X connect 6 0 0 0;
#X connect 7 0 11 0;
#X connect 8 0 10 0;
#X connect 9 0 10 1;
#X connect 10 0 12 0;
#X connect 11 0 8 0;
#X connect 11 1 9 0;
#X connect 13 0 18 0;
#X connect 15 0 17 0;
#X connect 16 0 17 1;
#X connect 17 0 14 0;
#X connect 18 0 15 0;
#X connect 18 1 16 0;
