#N canvas 0 22 450 300 10;
#X obj 111 95 route \$1;
#X obj 111 120 t f f;
#X obj 111 166 + 1;
#X obj 17 20 table minor_orden1-\$1 72;
#X obj 111 70 r fill_table minor;
#X obj 111 144 tabread minor_orden1-\$1;
#X obj 111 190 tabwrite minor_orden1-\$1;
#X connect 0 0 1 0;
#X connect 1 0 5 0;
#X connect 1 1 6 1;
#X connect 2 0 6 0;
#X connect 4 0 0 0;
#X connect 5 0 2 0;
