#N canvas 9 96 816 818 10;
#X declare -path ../abs;
#X obj -136 -318 openpanel;
#X obj -136 -339 bng 15 250 50 0 empty empty empty 17 7 0 10 -262144
-1 -1;
#X msg -146 -295 read \$1;
#X obj -146 243 noteout;
#X msg -14 -318 loop \$1;
#X obj -14 -339 tgl 15 0 empty empty empty 17 7 0 10 -262144 -1 -1
0 1;
#X obj -74 -339 tgl 15 0 empty empty empty 17 7 0 10 -262144 -1 -1
0 1;
#X msg -74 -318 play \$1;
#X msg 127 -319 flush;
#X text -146 267 angel.faraldo@upf.edu --- 2015;
#X msg 45 -319 quantize \$1;
#X obj 45 -337 tgl 15 0 empty empty empty 17 7 0 10 -262144 -1 -1 0
1;
#X floatatom -1 -211 5 0 0 0 - - -;
#X obj -89 -138 bng 15 250 50 0 empty empty empty 17 7 0 10 -262144
-1 -1;
#X text -89 242 FIRST outlet outputs midi notes in pd style;
#X obj -146 -249 midiplayer;
#X obj -58 -211 / 4;
#X floatatom -58 -188 5 0 0 0 - - -;
#X text -22 -189 bars;
#X obj -68 -82 add2list;
#X obj -127 -159 packel 2;
#X obj -58 -232 packel 1 4;
#X obj 127 -296 t a b;
#X text 33 -211 bpm;
#X obj -68 -38 list-unique;
#X obj -89 7 list;
#X obj 54 -13 sort;
#X obj 54 12 list split;
#X obj 111 -32 list length;
#X obj 54 -65 t l l;
#X obj 111 -10 - 1;
#X obj 54 36 f;
#X floatatom 101 59 5 0 0 0 - - -;
#X floatatom 54 59 5 0 0 0 - - -;
#X obj -68 -60 midi2pc;
#X obj 101 80 mod 12;
#X obj 54 80 mod 12;
#X floatatom 54 102 5 0 0 0 - - -;
#X floatatom 101 102 5 0 0 0 - - -;
#X floatatom 234 -2 5 0 0 0 - - -;
#X obj 189 -48 list;
#X obj -68 -15 pc_to_zero;
#X floatatom -11 15 5 0 0 0 - - -;
#X msg -281 -458 refresh;
#X text -222 -459 "refresh" to get list of files and init;
#X obj -269 -434 bng 15 250 50 0 empty empty empty 17 7 0 10 -262144
-1 -1;
#N canvas 428 283 495 576 extract_ground_truth 0;
#X floatatom -261 -334 5 0 0 0 - - -;
#X obj -388 -7 list split 1;
#X obj -388 -28 jasch_lib/strtok .;
#X obj -331 76 length;
#X obj -388 59 t l l;
#X obj -388 14 jasch_lib/strtok _;
#X obj -388 37 list;
#X obj -331 98 - 1;
#X obj -388 119 list split;
#X text -219 -335 number of midi files in folder;
#X obj -289 -208 t s s;
#X obj -276 -277 f;
#X obj -276 -255 until;
#X obj -370 -393 inlet;
#X obj -422 -52 list split 1;
#X obj -380 -159 jasch_lib/strtok /;
#X obj -353 -96 length;
#X obj -380 -139 list;
#X obj -380 -118 t l l;
#X obj -353 -75 - 1;
#X obj -262 -158 outlet;
#X obj -360 142 outlet;
#X obj -370 -370 route bang all;
#X obj -330 -346 t b;
#X obj -370 -346 t b;
#X obj -223 -298 - 1;
#X obj -261 -298 f;
#X obj -289 -231 listdir ../testfiles/midi_chords/deep_house/4_bar/*.mid
;
#X connect 0 0 26 0;
#X connect 1 0 5 0;
#X connect 2 0 1 0;
#X connect 3 0 7 0;
#X connect 4 0 8 0;
#X connect 4 1 3 0;
#X connect 5 0 6 0;
#X connect 6 0 4 0;
#X connect 7 0 8 1;
#X connect 8 1 21 0;
#X connect 10 0 15 0;
#X connect 10 1 20 0;
#X connect 11 0 12 0;
#X connect 12 0 27 0;
#X connect 13 0 22 0;
#X connect 14 1 2 0;
#X connect 15 0 17 0;
#X connect 16 0 19 0;
#X connect 17 0 18 0;
#X connect 18 0 14 0;
#X connect 18 1 16 0;
#X connect 19 0 14 1;
#X connect 22 0 24 0;
#X connect 22 1 23 0;
#X connect 22 2 27 0;
#X connect 23 0 11 0;
#X connect 24 0 26 0;
#X connect 24 0 27 0;
#X connect 25 0 26 1;
#X connect 26 0 11 1;
#X connect 26 0 25 0;
#X connect 27 0 10 0;
#X connect 27 1 0 0;
#X restore -281 -385 pd extract_ground_truth;
#X obj -281 -483 loadbang;
#X obj -281 -361 key2pc;
#X floatatom -248 -339 5 0 0 0 - - -;
#X floatatom -281 -339 5 0 0 0 - - -;
#X msg -260 -411 all;
#X text -243 -435 "bang" to retrieve single files!;
#X text -233 -412 "all" to retrieve the remanent of files!;
#X obj -136 -362 print NAME;
#X obj 189 28 list-apply mod 12;
#X obj -89 29 print SCALE;
#X obj -281 -293 print KEY;
#X obj -281 -316 pack;
#X obj 189 50 print STAT_MODE;
#X obj 54 129 pack;
#X obj -118 166 print LOW/HIGH;
#X obj -118 146 list;
#X msg 48 -295 panic;
#X obj -285 -509 declare -path ../abs;
#X obj 189 -24 listmode;
#X connect 0 0 2 0;
#X connect 1 0 0 0;
#X connect 2 0 15 0;
#X connect 4 0 15 0;
#X connect 5 0 4 0;
#X connect 6 0 7 0;
#X connect 7 0 15 0;
#X connect 8 0 22 0;
#X connect 10 0 15 0;
#X connect 11 0 10 0;
#X connect 13 0 25 0;
#X connect 13 0 40 0;
#X connect 13 0 62 0;
#X connect 13 0 58 0;
#X connect 15 0 3 0;
#X connect 15 1 20 0;
#X connect 15 2 21 0;
#X connect 15 3 13 0;
#X connect 16 0 17 0;
#X connect 19 0 34 0;
#X connect 19 0 29 0;
#X connect 20 0 19 0;
#X connect 21 0 16 0;
#X connect 21 1 12 0;
#X connect 22 0 15 0;
#X connect 22 1 19 1;
#X connect 24 0 41 0;
#X connect 25 0 56 0;
#X connect 26 0 27 0;
#X connect 27 0 31 0;
#X connect 27 1 32 0;
#X connect 28 0 30 0;
#X connect 29 0 26 0;
#X connect 29 1 28 0;
#X connect 29 1 40 1;
#X connect 30 0 27 1;
#X connect 31 0 33 0;
#X connect 32 0 35 0;
#X connect 33 0 36 0;
#X connect 34 0 24 0;
#X connect 35 0 38 0;
#X connect 36 0 37 0;
#X connect 37 0 60 0;
#X connect 38 0 60 1;
#X connect 40 0 65 0;
#X connect 41 0 25 1;
#X connect 41 1 42 0;
#X connect 43 0 46 0;
#X connect 45 0 46 0;
#X connect 46 0 48 0;
#X connect 46 1 54 0;
#X connect 46 1 2 0;
#X connect 47 0 43 0;
#X connect 48 0 50 0;
#X connect 48 1 49 0;
#X connect 49 0 58 1;
#X connect 50 0 58 0;
#X connect 51 0 46 0;
#X connect 55 0 59 0;
#X connect 58 0 57 0;
#X connect 60 0 62 1;
#X connect 62 0 61 0;
#X connect 63 0 15 0;
#X connect 65 0 55 0;
#X connect 65 1 39 0;
