#N canvas 676 175 527 604 10;
#X declare -lib jasch_lib;
#X declare -path ../abs;
#X floatatom 307 150 5 0 0 0 - - -;
#X obj -24 107 bng 15 250 50 0 empty empty empty 17 7 0 10 -262144
-1 -1;
#X obj 0 465 mod 12;
#X obj 0 485 t f f;
#X obj 256 33 import jasch_lib;
#N canvas 423 179 487 704 find_key 0;
#X obj 214 282 t l;
#X obj 131 365 list;
#X obj 155 176 tabdump;
#X obj 148 197 t b l;
#X obj 18 42 sel 12;
#X msg 220 57 1 2 3 4 5 6 7 8 9 10 11 12;
#X obj 73 42 t f b;
#X obj 18 84 once;
#X obj 125 281 list prepend;
#X obj 18 105 del 1;
#X obj 131 386 sort;
#X obj 125 344 sel 24;
#X obj 125 302 t l l;
#X obj 111 410 t l f;
#X obj 123 456 ==;
#X obj 131 566 list;
#X obj 83 456 sel 1;
#X obj 83 521 f 1;
#X obj 113 521 + 1;
#X msg 98 499 1;
#X obj 131 543 t b f;
#X obj 101 591 list split;
#N canvas 248 157 765 305 estimation 0;
#X obj 16 13 inlet;
#X obj 16 273 outlet;
#X obj 16 35 select 0 1 2 3 4 5 6 7 8 9 10 11 12 13 14 15 16 17 18
19 20 21 22 23;
#X msg 16 148 B;
#X msg 46 148 Bb;
#X msg 76 148 A;
#X msg 106 148 Ab;
#X msg 136 148 G;
#X msg 166 148 Gb;
#X msg 196 148 F;
#X msg 226 148 E;
#X msg 256 148 Eb;
#X msg 286 148 D;
#X msg 316 148 Db;
#X msg 346 148 C;
#X msg 376 148 Bm;
#X msg 406 148 Bbm;
#X msg 436 148 Am;
#X msg 466 148 Abm;
#X msg 496 148 Gm;
#X msg 526 148 Gbm;
#X msg 556 148 Fm;
#X msg 586 148 Em;
#X msg 616 148 Ebm;
#X msg 646 148 Dm;
#X msg 676 148 Dbm;
#X msg 706 148 Cm;
#X connect 0 0 2 0;
#X connect 2 0 3 0;
#X connect 2 1 4 0;
#X connect 2 2 5 0;
#X connect 2 3 6 0;
#X connect 2 4 7 0;
#X connect 2 5 8 0;
#X connect 2 6 9 0;
#X connect 2 7 10 0;
#X connect 2 8 11 0;
#X connect 2 9 12 0;
#X connect 2 10 13 0;
#X connect 2 11 14 0;
#X connect 2 12 15 0;
#X connect 2 13 16 0;
#X connect 2 14 17 0;
#X connect 2 15 18 0;
#X connect 2 16 19 0;
#X connect 2 17 20 0;
#X connect 2 18 21 0;
#X connect 2 19 22 0;
#X connect 2 20 23 0;
#X connect 2 21 24 0;
#X connect 2 22 25 0;
#X connect 2 23 26 0;
#X connect 3 0 1 0;
#X connect 4 0 1 0;
#X connect 5 0 1 0;
#X connect 6 0 1 0;
#X connect 7 0 1 0;
#X connect 8 0 1 0;
#X connect 9 0 1 0;
#X connect 10 0 1 0;
#X connect 11 0 1 0;
#X connect 12 0 1 0;
#X connect 13 0 1 0;
#X connect 14 0 1 0;
#X connect 15 0 1 0;
#X connect 16 0 1 0;
#X connect 17 0 1 0;
#X connect 18 0 1 0;
#X connect 19 0 1 0;
#X connect 20 0 1 0;
#X connect 21 0 1 0;
#X connect 22 0 1 0;
#X connect 23 0 1 0;
#X connect 24 0 1 0;
#X connect 25 0 1 0;
#X connect 26 0 1 0;
#X restore 158 657 pd estimation;
#X obj 101 635 route bang;
#X obj 222 79 r \$0-end_file;
#X obj 249 183 tabdump \$0-profile;
#X obj 155 134 \$0;
#X msg 155 154 set \$1-major \, bang;
#X obj 18 125 \$0;
#X msg 18 146 set \$1-minor \, bang;
#X obj 194 258 r \$0-reset;
#X obj 98 478 r \$0-reset;
#X obj 158 678 print \$0-ESTIMATION;
#X obj 222 100 t b b;
#X obj 39 63 r \$0-reset;
#X obj 73 20 drip 10;
#X obj 125 323 list length;
#X obj 111 431 drip;
#X obj 101 613 drip;
#X obj 100 218 list_rotate;
#X obj 117 239 euclidean_distance;
#X connect 0 0 8 1;
#X connect 1 0 10 0;
#X connect 2 0 3 0;
#X connect 3 0 5 0;
#X connect 3 1 39 1;
#X connect 4 0 7 0;
#X connect 5 0 35 0;
#X connect 6 0 4 0;
#X connect 6 1 39 0;
#X connect 7 0 9 0;
#X connect 8 0 0 0;
#X connect 8 0 12 0;
#X connect 9 0 28 0;
#X connect 10 0 13 0;
#X connect 10 1 15 1;
#X connect 11 0 1 0;
#X connect 12 0 36 0;
#X connect 12 1 1 1;
#X connect 13 0 37 0;
#X connect 13 1 14 1;
#X connect 14 0 16 0;
#X connect 15 0 21 0;
#X connect 16 0 17 0;
#X connect 17 0 18 0;
#X connect 17 0 20 0;
#X connect 18 0 17 1;
#X connect 19 0 17 1;
#X connect 20 0 15 0;
#X connect 20 1 21 1;
#X connect 21 0 38 0;
#X connect 22 0 32 0;
#X connect 23 1 22 0;
#X connect 24 0 33 0;
#X connect 25 0 40 1;
#X connect 26 0 27 0;
#X connect 27 0 2 0;
#X connect 28 0 29 0;
#X connect 29 0 2 0;
#X connect 30 0 8 1;
#X connect 31 0 19 0;
#X connect 33 0 26 0;
#X connect 33 1 25 0;
#X connect 34 0 7 1;
#X connect 35 0 6 0;
#X connect 36 0 11 0;
#X connect 37 0 14 0;
#X connect 38 0 23 0;
#X connect 39 0 40 0;
#X connect 40 0 8 0;
#X restore 256 53 pd find_key;
#X msg -34 85 refresh;
#X obj 256 93 table \$0-profile 12;
#X obj 0 545 tabwrite \$0-profile;
#X obj 0 505 tabread \$0-profile;
#X msg -25 221 \; \$1-profile const 0 \; \$1-reset bang;
#X obj -25 200 \$0;
#X obj -56 152 print \$0-filename;
#N canvas 491 84 442 231 krumhansl_profiles 0;
#X msg 5 124 6.33 2.68 3.52 5.38 2.6 3.53 2.54 4.75 3.98 2.69 3.34
3.17;
#X msg 32 44 6.35 2.23 3.48 2.33 4.38 4.09 2.52 5.19 2.39 3.66 2.29
2.88;
#X obj 5 23 t b b;
#X obj 31 104 table \$0-major 12;
#X obj 5 2 r \$0-reset;
#X obj 5 184 table \$0-minor 12;
#X obj 5 164 tabset \$0-minor;
#X obj 32 84 tabset \$0-major;
#X obj 32 64 normalize;
#X obj 5 144 normalize;
#X connect 0 0 9 0;
#X connect 1 0 8 0;
#X connect 2 0 0 0;
#X connect 2 1 1 0;
#X connect 4 0 2 0;
#X connect 8 0 7 0;
#X connect 9 0 6 0;
#X restore 256 73 pd krumhansl_profiles;
#X obj 21 341 s \$0-end_file;
#X msg -45 269 read \$1;
#X msg -64 292 flush;
#X obj -39 423 route 0;
#X obj -64 176 t b s b;
#X msg 0 444 \$2;
#X obj 0 525 + 1;
#X obj 11 363 tabdump \$0-profile;
#X obj 11 403 tabset \$0-profile;
#X obj 11 383 normalize;
#X obj -64 63 openpanel;
#X obj -64 44 bng 15 250 50 0 empty empty empty 17 7 0 10 -262144 -1
-1;
#X text -45 41 load a file;
#X text 22 84 or get all content of a folder;
#X text -1 106 and retrieve files individually;
#X text -98 570 angel.faraldo@upf.edu --- Barcelona \, 2015;
#X msg -39 402 \$3 \$2;
#X obj -98 545 print raw_midi;
#X obj -98 525 spigot 0;
#X text 10 422 exclude note-off (velocity 0) events;
#X text -24 292 outputs all midi-note events via the 2nd outlet;
#X obj -53 507 tgl 15 0 empty empty empty 17 7 0 10 -262144 -1 -1 0
1;
#X text -82 10 NOT WORKING PROPERLY YET!!;
#X obj 256 13 path ../abs;
#X obj -64 314 midi_player;
#X obj -44 127 get_files ../testfiles/midi-chord-loops/2b-homophonic/*.mid
;
#X connect 1 0 39 0;
#X connect 2 0 3 0;
#X connect 3 0 9 0;
#X connect 3 1 8 1;
#X connect 6 0 39 0;
#X connect 9 0 20 0;
#X connect 11 0 10 0;
#X connect 15 0 38 0;
#X connect 16 0 38 0;
#X connect 17 1 19 0;
#X connect 18 0 16 0;
#X connect 18 1 15 0;
#X connect 18 2 11 0;
#X connect 19 0 2 0;
#X connect 20 0 8 0;
#X connect 21 0 23 0;
#X connect 23 0 22 0;
#X connect 24 0 18 0;
#X connect 24 0 12 0;
#X connect 25 0 24 0;
#X connect 30 0 17 0;
#X connect 32 0 31 0;
#X connect 35 0 32 1;
#X connect 38 1 30 0;
#X connect 38 1 32 0;
#X connect 38 3 14 0;
#X connect 38 3 21 0;
#X connect 39 0 12 0;
#X connect 39 0 18 0;
#X connect 39 1 0 0;
