#N canvas 1188 162 540 677 10;
#X obj 62 213 t f f;
#X obj 6 215 t f f;
#X obj 101 95 t f f;
#X obj 146 97 t f f;
#X obj 101 73 inlet;
#X obj 144 73 inlet;
#X obj 147 444 pack;
#X obj 126 402 f;
#X obj 154 475 outlet;
#X obj -2 248 != -1000;
#X obj 56 247 != -1000;
#X obj 56 344 ||;
#X obj 44 379 sel 1;
#X connect 0 0 10 1;
#X connect 0 1 10 0;
#X connect 1 0 9 1;
#X connect 1 1 9 0;
#X connect 2 0 1 0;
#X connect 2 1 7 1;
#X connect 3 0 0 0;
#X connect 3 1 6 1;
#X connect 4 0 2 0;
#X connect 5 0 3 0;
#X connect 6 0 8 0;
#X connect 7 0 6 0;
#X connect 9 0 11 0;
#X connect 10 0 11 1;
#X connect 11 0 12 0;
#X connect 12 0 7 0;
