#N canvas 71 402 613 501 10;
#X declare -path ../abs;
#X obj 6 -31 cnv 15 250 70 empty empty empty 20 12 0 14 -233017 -66577
0;
#X obj 18 10 hsl 225 15 0 200 0 0 empty empty empty -2 -8 0 10 -262144
-1 -1 0 1;
#X text 12 -8 density;
#X text 23 8 events/bar keeping pattern identity;
#X obj 6 169 cnv 15 250 150 empty empty empty 20 12 0 14 -233017 -66577
0;
#X text 41 251 comment;
#X obj 18 210 hsl 225 15 0 200 0 0 empty empty empty -2 -8 0 10 -262144
-1 -1 0 1;
#X text 12 192 register;
#X text 21 208 closed <<<<<< >>>>> open (4 octaves);
#X text 13 274 allow inversions;
#X obj 15 292 tgl 15 0 empty empty empty 17 7 0 10 -262144 -1 -1 0
1;
#X obj 18 251 hsl 225 15 0 127 0 0 empty empty empty -2 -8 0 10 -262144
-1 -1 0 1;
#X text 12 233 activity;
#X obj 6 169 cnv 15 250 25 empty empty empty 20 12 0 14 -162280 -66577
0;
#X obj 6 -31 cnv 15 250 25 empty empty empty 20 12 0 14 -162280 -66577
0;
#X text 12 -28 DENSITY (agnostic density transformer);
#X text 12 172 VOICING;
#X obj 6 49 cnv 15 250 110 empty empty empty 20 12 0 14 -233017 -66577
0;
#X obj 6 49 cnv 15 250 25 empty empty empty 20 12 0 14 -162280 -66577
0;
#X text 62 52 CHORD STRUCTURE;
#X obj 18 90 hsl 225 15 0 200 0 0 empty empty empty -2 -8 0 10 -262144
-1 -1 0 1;
#X text 12 72 color;
#X obj 18 131 hsl 225 15 0 127 0 0 empty empty empty -2 -8 0 10 -262144
-1 -1 0 1;
#X text 12 113 substitution;
#X text 31 129 no-subs <> diatonic <> chromatic;
#X text 19 88 pow <> triad <> tension <> alteration;
#X text 21 249 no-change <<<<>>>> change-each-event;
#X obj 726 102 image midi_chord_loop.gif;
#X obj 384 209 cnv 15 800 25 empty empty empty 20 12 0 14 -233017 -66577
0;
#X obj 1014 213 tgl 15 0 asdf sdfda empty 17 7 0 10 -262144 -1 -1 0
1;
#X obj 1036 213 tgl 15 0 asdf sdfda empty 17 7 0 10 -262144 -1 -1 0
1;
#X obj 1057 213 tgl 15 0 asdf sdfda empty 17 7 0 10 -262144 -1 -1 0
1;
#X obj 1078 213 tgl 15 0 asdf sdfda empty 17 7 0 10 -262144 -1 -1 0
1;
#X obj 1100 213 tgl 15 0 asdf sdfda empty 17 7 0 10 -262144 -1 -1 0
1;
#X obj 1122 213 tgl 15 0 asdf sdfda empty 17 7 0 10 -262144 -1 -1 0
1;
#X obj 1143 213 tgl 15 0 asdf sdfda empty 17 7 0 10 -262144 -1 -1 0
1;
#X obj 1163 213 tgl 15 0 asdf sdfda empty 17 7 0 10 -262144 -1 -1 0
1;
#X obj 842 213 tgl 15 0 asdf sdfda empty 17 7 0 10 -262144 -1 -1 0
1;
#X obj 864 213 tgl 15 0 asdf sdfda empty 17 7 0 10 -262144 -1 -1 0
1;
#X obj 885 213 tgl 15 0 asdf sdfda empty 17 7 0 10 -262144 -1 -1 0
1;
#X obj 906 213 tgl 15 0 asdf sdfda empty 17 7 0 10 -262144 -1 -1 0
1;
#X obj 928 213 tgl 15 0 asdf sdfda empty 17 7 0 10 -262144 -1 -1 0
1;
#X obj 950 213 tgl 15 0 asdf sdfda empty 17 7 0 10 -262144 -1 -1 0
1;
#X obj 971 213 tgl 15 0 asdf sdfda empty 17 7 0 10 -262144 -1 -1 0
1;
#X obj 992 213 tgl 15 0 asdf sdfda empty 17 7 0 10 -262144 -1 -1 0
1;
#X obj 670 213 tgl 15 0 asdf sdfda empty 17 7 0 10 -262144 -1 -1 0
1;
#X obj 692 213 tgl 15 0 asdf sdfda empty 17 7 0 10 -262144 -1 -1 0
1;
#X obj 713 213 tgl 15 0 asdf sdfda empty 17 7 0 10 -262144 -1 -1 0
1;
#X obj 734 213 tgl 15 0 asdf sdfda empty 17 7 0 10 -262144 -1 -1 0
1;
#X obj 756 213 tgl 15 0 asdf sdfda empty 17 7 0 10 -262144 -1 -1 0
1;
#X obj 778 213 tgl 15 0 asdf sdfda empty 17 7 0 10 -262144 -1 -1 0
1;
#X obj 799 213 tgl 15 0 asdf sdfda empty 17 7 0 10 -262144 -1 -1 0
1;
#X obj 820 213 tgl 15 0 asdf sdfda empty 17 7 0 10 -262144 -1 -1 0
1;
#X obj 498 213 tgl 15 0 asdf sdfda empty 17 7 0 10 -262144 -1 -1 0
1;
#X obj 520 213 tgl 15 0 asdf sdfda empty 17 7 0 10 -262144 -1 -1 0
1;
#X obj 541 213 tgl 15 0 asdf sdfda empty 17 7 0 10 -262144 -1 -1 0
1;
#X obj 562 213 tgl 15 0 asdf sdfda empty 17 7 0 10 -262144 -1 -1 0
1;
#X obj 584 213 tgl 15 0 asdf sdfda empty 17 7 0 10 -262144 -1 -1 0
1;
#X obj 606 213 tgl 15 0 asdf sdfda empty 17 7 0 10 -262144 -1 -1 0
1;
#X obj 627 213 tgl 15 0 asdf sdfda empty 17 7 0 10 -262144 -1 -1 0
1;
#X obj 648 213 tgl 15 0 asdf sdfda empty 17 7 0 10 -262144 -1 -1 0
1;
#X obj 268 209 cnv 15 220 25 empty empty empty 20 12 0 14 -162280 -66577
0;
#X obj 268 -31 cnv 15 350 25 empty empty empty 20 12 0 14 -162280 -66577
0;
#X text 270 -29 LOAD REFERENCE MIDI CHORD LOOP (Still limited to 2
bars):;
#X obj 384 239 cnv 15 800 25 empty empty empty 20 12 0 14 -233017 -66577
0;
#X obj 268 239 cnv 15 220 25 empty empty empty 20 12 0 14 -162280 -66577
0;
#X text 270 211 ONSET ANALYSIS RESULT:;
#X text 270 241 CHORD PROGRESSION ANALYSIS RESULT:;
#X symbolatom 498 242 4 0 0 0 - AGASDGASDG FDADG;
#X symbolatom 520 242 4 0 0 0 - AGASDGASDG FDADG;
#X symbolatom 541 242 4 0 0 0 - AGASDGASDG FDADG;
#X symbolatom 563 242 4 0 0 0 - AGASDGASDG FDADG;
#X symbolatom 584 242 4 0 0 0 - AGASDGASDG FDADG;
#X symbolatom 606 242 4 0 0 0 - AGASDGASDG FDADG;
#X symbolatom 627 242 4 0 0 0 - AGASDGASDG FDADG;
#X symbolatom 649 242 4 0 0 0 - AGASDGASDG FDADG;
#X symbolatom 670 242 4 0 0 0 - AGASDGASDG FDADG;
#X symbolatom 692 242 4 0 0 0 - AGASDGASDG FDADG;
#X symbolatom 713 242 4 0 0 0 - AGASDGASDG FDADG;
#X symbolatom 735 242 4 0 0 0 - AGASDGASDG FDADG;
#X symbolatom 756 242 4 0 0 0 - AGASDGASDG FDADG;
#X symbolatom 778 242 4 0 0 0 - AGASDGASDG FDADG;
#X symbolatom 799 242 4 0 0 0 - AGASDGASDG FDADG;
#X symbolatom 821 242 4 0 0 0 - AGASDGASDG FDADG;
#X symbolatom 842 242 4 0 0 0 - AGASDGASDG FDADG;
#X symbolatom 864 242 4 0 0 0 - AGASDGASDG FDADG;
#X symbolatom 885 242 4 0 0 0 - AGASDGASDG FDADG;
#X symbolatom 907 242 4 0 0 0 - AGASDGASDG FDADG;
#X symbolatom 928 242 4 0 0 0 - AGASDGASDG FDADG;
#X symbolatom 950 242 4 0 0 0 - AGASDGASDG FDADG;
#X symbolatom 971 242 4 0 0 0 - AGASDGASDG FDADG;
#X symbolatom 993 242 4 0 0 0 - AGASDGASDG FDADG;
#X symbolatom 1014 242 4 0 0 0 - AGASDGASDG FDADG;
#X symbolatom 1036 242 4 0 0 0 - AGASDGASDG FDADG;
#X symbolatom 1057 242 4 0 0 0 - AGASDGASDG FDADG;
#X symbolatom 1079 242 4 0 0 0 - AGASDGASDG FDADG;
#X symbolatom 1100 242 4 0 0 0 - AGASDGASDG FDADG;
#X symbolatom 1122 242 4 0 0 0 - AGASDGASDG FDADG;
#X symbolatom 1143 242 4 0 0 0 - AGASDGASDG FDADG;
#X symbolatom 1165 242 3 0 0 0 - AGASDGASDG FDADG;
#X obj 384 294 cnv 15 800 25 empty empty empty 20 12 0 14 -233017 -66577
0;
#X obj 268 294 cnv 15 220 25 empty empty empty 20 12 0 14 -162280 -66577
0;
#X symbolatom 498 297 4 0 0 0 - AGASDGASDG FDADG;
#X symbolatom 520 297 4 0 0 0 - AGASDGASDG FDADG;
#X symbolatom 541 297 4 0 0 0 - AGASDGASDG FDADG;
#X symbolatom 563 297 4 0 0 0 - AGASDGASDG FDADG;
#X symbolatom 584 297 4 0 0 0 - AGASDGASDG FDADG;
#X symbolatom 606 297 4 0 0 0 - AGASDGASDG FDADG;
#X symbolatom 627 297 4 0 0 0 - AGASDGASDG FDADG;
#X symbolatom 649 297 4 0 0 0 - AGASDGASDG FDADG;
#X symbolatom 670 297 4 0 0 0 - AGASDGASDG FDADG;
#X symbolatom 692 297 4 0 0 0 - AGASDGASDG FDADG;
#X symbolatom 713 297 4 0 0 0 - AGASDGASDG FDADG;
#X symbolatom 735 297 4 0 0 0 - AGASDGASDG FDADG;
#X symbolatom 756 297 4 0 0 0 - AGASDGASDG FDADG;
#X symbolatom 778 297 4 0 0 0 - AGASDGASDG FDADG;
#X symbolatom 799 297 4 0 0 0 - AGASDGASDG FDADG;
#X symbolatom 821 297 4 0 0 0 - AGASDGASDG FDADG;
#X symbolatom 842 297 4 0 0 0 - AGASDGASDG FDADG;
#X symbolatom 864 297 4 0 0 0 - AGASDGASDG FDADG;
#X symbolatom 885 297 4 0 0 0 - AGASDGASDG FDADG;
#X symbolatom 907 297 4 0 0 0 - AGASDGASDG FDADG;
#X symbolatom 928 297 4 0 0 0 - AGASDGASDG FDADG;
#X symbolatom 950 297 4 0 0 0 - AGASDGASDG FDADG;
#X symbolatom 971 297 4 0 0 0 - AGASDGASDG FDADG;
#X symbolatom 993 297 4 0 0 0 - AGASDGASDG FDADG;
#X symbolatom 1014 297 4 0 0 0 - AGASDGASDG FDADG;
#X symbolatom 1036 297 4 0 0 0 - AGASDGASDG FDADG;
#X symbolatom 1057 297 4 0 0 0 - AGASDGASDG FDADG;
#X symbolatom 1079 297 4 0 0 0 - AGASDGASDG FDADG;
#X symbolatom 1100 297 4 0 0 0 - AGASDGASDG FDADG;
#X symbolatom 1122 297 4 0 0 0 - AGASDGASDG FDADG;
#X symbolatom 1143 297 4 0 0 0 - AGASDGASDG FDADG;
#X symbolatom 1165 297 3 0 0 0 - AGASDGASDG FDADG;
#X text 270 296 REAL-TIME VAMP VARIATION**;
#X text 270 323 ** no info displayed about voicing activity yet.;
#N canvas 564 103 968 803 patch 0;
#X symbolatom 55 251 10 0 0 0 - - -;
#X obj -166 -93 openpanel;
#X obj -166 -114 bng 15 250 50 0 empty empty empty 17 7 0 10 -262144
-1 -1;
#X msg -166 -70 read \$1;
#X obj -163 565 noteout;
#X msg 9 -93 loop \$1;
#X obj -51 -114 tgl 15 0 empty empty empty 17 7 0 10 -262144 -1 -1
1 1;
#X msg -51 -93 play \$1;
#X msg -99 -93 flush;
#X floatatom 172 251 5 0 0 0 - - -;
#X obj 55 228 midi_chord_estimator;
#X msg 69 -93 quantize \$1;
#X obj 69 -112 tgl 15 0 empty empty empty 17 7 0 10 -262144 -1 -1 1
1;
#X obj -103 17 bng 15 250 50 0 empty empty empty 17 7 0 10 -262144
-1 -1;
#X text -82 15 done;
#X obj 51 175 make_chord;
#X obj -176 -150 path ../abs;
#X obj -166 -5 midi_player;
#X obj 9 -115 tgl 15 0 empty empty empty 17 7 0 10 -262144 -1 -1 1
1;
#X floatatom 314 -11 5 0 0 0 - - -;
#X floatatom 291 12 5 0 0 0 - - -;
#X text 395 -59 tempo (bpm);
#X text 353 -12 real duration (in ticks);
#X text 328 13 tentative length (to match complete beats!);
#X obj 268 62 / 4;
#X floatatom 268 87 5 0 0 0 - - -;
#X obj 268 37 once;
#X text 306 86 bars;
#X obj 268 -92 unpack 0 0 0 0 0;
#X floatatom 361 -58 5 0 0 0 - - -;
#X obj 42 14 print flush;
#X obj 158 339 print chords;
#X obj 68 202 print listchords;
#X msg 2 -56 panic;
#X obj -107 169 unpack 0 0 0 0;
#X obj -98 283 duple-change;
#X obj 337 -33 s ticks/4;
#X obj -118 254 /;
#X obj -92 217 r ticks/4;
#X obj -13 217 != 0;
#X obj -81 338 print;
#X connect 0 0 31 0;
#X connect 1 0 3 0;
#X connect 2 0 1 0;
#X connect 3 0 17 0;
#X connect 5 0 17 0;
#X connect 6 0 7 0;
#X connect 7 0 17 0;
#X connect 8 0 17 0;
#X connect 10 0 0 0;
#X connect 10 1 9 0;
#X connect 11 0 17 0;
#X connect 12 0 11 0;
#X connect 15 0 10 0;
#X connect 15 0 32 0;
#X connect 17 0 4 0;
#X connect 17 1 15 0;
#X connect 17 1 34 0;
#X connect 17 2 28 0;
#X connect 17 3 13 0;
#X connect 18 0 5 0;
#X connect 24 0 25 0;
#X connect 26 0 24 0;
#X connect 28 0 26 0;
#X connect 28 1 20 0;
#X connect 28 2 19 0;
#X connect 28 3 36 0;
#X connect 28 4 29 0;
#X connect 33 0 17 0;
#X connect 34 0 37 0;
#X connect 34 2 39 0;
#X connect 35 0 40 0;
#X connect 37 0 35 0;
#X connect 38 0 37 1;
#X connect 39 0 35 1;
#X restore 11 332 pd patch;
#X text 59 405 https://github.com/angelfaraldo/pd-symbolic;
#X text 59 420 angel.faraldo@upf.edu ----- Barcelona \, 2015;
