#N canvas 895 115 374 484 10;
#X declare -path ../abs;
#X declare -lib jasch_lib;
#X text -355 155 https://github.com/angelfaraldo/pd-symbolic;
#X text -355 170 angel.faraldo@upf.edu ----- Barcelona \, 2015;
#X obj -356 -274 path ../abs;
#X obj -280 -274 import jasch_lib;
#X obj -352 -30 r tempo;
#X floatatom -352 -9 5 0 0 0 - - -;
#X floatatom -256 3 5 0 0 0 - - -;
#X obj -354 -83 r substitution;
#X floatatom -354 -59 5 0 0 0 - - -;
#X floatatom -299 -39 5 0 0 0 - - -;
#X obj -299 -60 r activity;
#X floatatom -223 -60 5 0 0 0 - - -;
#X floatatom -349 131 5 0 0 0 - - -;
#X obj -349 107 r register;
#N canvas 760 233 312 538 adt 0;
#X obj -119 -92 r density;
#X obj -119 56 populate_rhythm;
#X obj -32 -92 r end-analysis;
#X obj -32 -69 tabdump master-pattern;
#X obj -69 131 tabset new-onsets;
#X obj -148 135 until;
#X msg -105 134 0;
#X obj -148 164 f 0;
#X obj -118 164 + 1;
#X obj -119 77 t b b l;
#X obj -148 242 tabread master-pattern;
#X obj -129 216 tabread new-onsets;
#X obj -148 191 t f f f;
#X obj -148 391 tabwrite slave-pattern;
#X obj -148 349 +;
#X obj -32 -44 list-apply max 0;
#X obj 37 230 s slave-pattern;
#X msg 37 205 const 0;
#X obj -5 1 sum;
#X obj -32 -22 t l l;
#X obj -5 57 s set-density;
#X msg -5 31 set \$1;
#X obj -129 270 * 2;
#X obj -148 370 clip -1 1;
#X obj -148 293 moses 0;
#X msg -109 315 0;
#X msg -148 113 32;
#X connect 0 0 1 0;
#X connect 1 0 9 0;
#X connect 2 0 3 0;
#X connect 3 0 15 0;
#X connect 5 0 7 0;
#X connect 6 0 7 1;
#X connect 7 0 8 0;
#X connect 7 0 12 0;
#X connect 8 0 7 1;
#X connect 9 0 26 0;
#X connect 9 1 6 0;
#X connect 9 1 17 0;
#X connect 9 2 4 0;
#X connect 10 0 14 0;
#X connect 11 0 22 0;
#X connect 12 0 10 0;
#X connect 12 1 11 0;
#X connect 12 2 13 1;
#X connect 14 0 23 0;
#X connect 15 0 19 0;
#X connect 17 0 16 0;
#X connect 18 0 1 0;
#X connect 18 0 21 0;
#X connect 19 0 1 1;
#X connect 19 1 18 0;
#X connect 21 0 20 0;
#X connect 22 0 14 1;
#X connect 23 0 13 0;
#X connect 24 1 25 0;
#X connect 26 0 5 0;
#X restore -245 -225 pd adt;
#X obj -349 85 s density;
#X floatatom -349 45 5 1 33 0 - - -;
#N canvas 452 147 827 652 gem_visualization 0;
#X msg 323 64 0 \, destroy;
#X floatatom 361 136 5 0 0 0 - - -;
#X msg 316 42 reset \, dimen 800 150 \, title Loop \, create \, 1;
#N canvas 281 99 481 734 grid 0;
#X obj 14 79 vis/grid-beat-strong;
#X obj 14 143 vis/grid-beat-soft;
#X obj 14 163 vis/grid-beat-soft;
#X obj 14 183 vis/grid-beat-soft;
#X obj 14 307 vis/grid-beat-soft;
#X obj 14 327 vis/grid-beat-soft;
#X obj 14 347 vis/grid-beat-soft;
#X obj 14 473 vis/grid-beat-soft;
#X obj 14 493 vis/grid-beat-soft;
#X obj 14 513 vis/grid-beat-soft;
#X obj 14 637 vis/grid-beat-soft;
#X obj 14 657 vis/grid-beat-soft;
#X obj 14 677 vis/grid-beat-soft;
#X obj 14 14 inlet;
#X obj 14 35 color 1 0 0 0.4;
#X obj 14 246 vis/grid-beat-strong;
#X obj 14 412 vis/grid-beat-strong;
#X obj 14 576 vis/grid-beat-strong;
#X obj 14 100 color 1 1 1 0.4;
#X obj 14 205 color 0 1 0 0.4;
#X obj 14 267 color 1 1 1 0.4;
#X obj 14 371 color 0 1 0 0.4;
#X obj 14 433 color 1 1 1 0.4;
#X obj 14 535 color 0 1 0 0.4;
#X obj 14 597 color 1 1 1 0.4;
#X obj 14 226 alpha 1;
#X obj 14 286 alpha 1;
#X obj 14 391 alpha 1;
#X obj 14 453 alpha 1;
#X obj 14 556 alpha 1;
#X obj 14 617 alpha 1;
#X obj 14 122 alpha 1;
#X obj 14 57 alpha 1;
#X obj 164 79 vis/grid-beat-strong;
#X obj 164 143 vis/grid-beat-soft;
#X obj 164 163 vis/grid-beat-soft;
#X obj 164 183 vis/grid-beat-soft;
#X obj 164 307 vis/grid-beat-soft;
#X obj 164 327 vis/grid-beat-soft;
#X obj 164 347 vis/grid-beat-soft;
#X obj 164 473 vis/grid-beat-soft;
#X obj 164 493 vis/grid-beat-soft;
#X obj 164 513 vis/grid-beat-soft;
#X obj 164 637 vis/grid-beat-soft;
#X obj 164 657 vis/grid-beat-soft;
#X obj 164 677 vis/grid-beat-soft;
#X obj 164 35 color 1 0 0 0.4;
#X obj 164 246 vis/grid-beat-strong;
#X obj 164 412 vis/grid-beat-strong;
#X obj 164 576 vis/grid-beat-strong;
#X obj 164 100 color 1 1 1 0.4;
#X obj 164 205 color 0 1 0 0.4;
#X obj 164 267 color 1 1 1 0.4;
#X obj 164 371 color 0 1 0 0.4;
#X obj 164 433 color 1 1 1 0.4;
#X obj 164 535 color 0 1 0 0.4;
#X obj 164 597 color 1 1 1 0.4;
#X obj 164 226 alpha 1;
#X obj 164 286 alpha 1;
#X obj 164 391 alpha 1;
#X obj 164 453 alpha 1;
#X obj 164 556 alpha 1;
#X obj 164 617 alpha 1;
#X obj 164 122 alpha 1;
#X obj 164 57 alpha 1;
#X obj 314 79 vis/grid-beat-strong;
#X obj 314 35 color 1 0 0 0.4;
#X obj 314 57 alpha 1;
#X connect 0 0 18 0;
#X connect 1 0 2 0;
#X connect 2 0 3 0;
#X connect 3 0 19 0;
#X connect 4 0 5 0;
#X connect 5 0 6 0;
#X connect 6 0 21 0;
#X connect 7 0 8 0;
#X connect 8 0 9 0;
#X connect 9 0 23 0;
#X connect 10 0 11 0;
#X connect 11 0 12 0;
#X connect 12 0 46 0;
#X connect 13 0 14 0;
#X connect 14 0 32 0;
#X connect 15 0 20 0;
#X connect 16 0 22 0;
#X connect 17 0 24 0;
#X connect 18 0 31 0;
#X connect 19 0 25 0;
#X connect 20 0 26 0;
#X connect 21 0 27 0;
#X connect 22 0 28 0;
#X connect 23 0 29 0;
#X connect 24 0 30 0;
#X connect 25 0 15 0;
#X connect 26 0 4 0;
#X connect 27 0 16 0;
#X connect 28 0 7 0;
#X connect 29 0 17 0;
#X connect 30 0 10 0;
#X connect 31 0 1 0;
#X connect 32 0 0 0;
#X connect 33 0 50 0;
#X connect 34 0 35 0;
#X connect 35 0 36 0;
#X connect 36 0 51 0;
#X connect 37 0 38 0;
#X connect 38 0 39 0;
#X connect 39 0 53 0;
#X connect 40 0 41 0;
#X connect 41 0 42 0;
#X connect 42 0 55 0;
#X connect 43 0 44 0;
#X connect 44 0 45 0;
#X connect 45 0 66 0;
#X connect 46 0 64 0;
#X connect 47 0 52 0;
#X connect 48 0 54 0;
#X connect 49 0 56 0;
#X connect 50 0 63 0;
#X connect 51 0 57 0;
#X connect 52 0 58 0;
#X connect 53 0 59 0;
#X connect 54 0 60 0;
#X connect 55 0 61 0;
#X connect 56 0 62 0;
#X connect 57 0 47 0;
#X connect 58 0 37 0;
#X connect 59 0 48 0;
#X connect 60 0 40 0;
#X connect 61 0 49 0;
#X connect 62 0 43 0;
#X connect 63 0 34 0;
#X connect 64 0 33 0;
#X connect 66 0 67 0;
#X connect 67 0 65 0;
#X restore 318 178 pd grid;
#X obj 318 156 translateXYZ -19.5 0 0;
#X obj 316 87 gemwin 20;
#X obj 318 114 gemhead 50;
#X obj 316 -2 loadbang;
#X obj 316 19 delay 500;
#N canvas 513 305 286 456 current-step 0;
#X obj 61 281 * 0.5;
#X obj 36 328 translateXYZ 0.75 0 0;
#X obj 79 166 * 1.2;
#X obj 61 303 * 1.2;
#X obj 79 190 - 19.5;
#X obj 36 211 translateXYZ -19.5 0 0;
#X obj 36 400 rectangle 0.75 3;
#X obj 61 237 loadbang;
#X obj 66 39 r current_step;
#X obj 56 84 mod 4;
#X msg 61 259 4;
#X obj 56 105 sel 0;
#X obj 66 60 t f f;
#X obj 99 142 f;
#X obj 36 17 gemhead 51;
#X obj 36 376 alpha 0;
#X obj 36 349 color 0.2 0.2 0.2 0.8;
#X obj 189 120 dirac~;
#X obj 179 153 dac~;
#X connect 0 0 3 0;
#X connect 1 0 16 0;
#X connect 2 0 4 0;
#X connect 3 0 1 1;
#X connect 3 0 6 1;
#X connect 4 0 5 1;
#X connect 5 0 1 0;
#X connect 7 0 10 0;
#X connect 8 0 12 0;
#X connect 9 0 11 0;
#X connect 10 0 0 0;
#X connect 11 0 13 0;
#X connect 11 0 17 0;
#X connect 12 0 9 0;
#X connect 12 1 13 1;
#X connect 13 0 2 0;
#X connect 14 0 5 0;
#X connect 15 0 6 0;
#X connect 16 0 15 0;
#X connect 17 0 18 0;
#X connect 17 0 18 1;
#X restore 318 200 pd current-step;
#X obj 317 222 vis/master-chord-event 0;
#X obj -26 -3 r reset-analysis;
#X msg -26 22 \; master-chord-fill-0 C 100 1 \; master-chord-fill-1
C 100 1 \; master-chord-fill-2 C 100 1 \; master-chord-fill-3 C 100
1 \; master-chord-fill-4 C 100 1 \; master-chord-fill-5 C 100 1 \;
master-chord-fill-6 C 100 1 \; master-chord-fill-7 C 100 1 \; slave-chord-fill-0
C 100 1 \; slave-chord-fill-1 C 100 1 \; slave-chord-fill-2 C 100 1
\; slave-chord-fill-3 C 100 1 \; slave-chord-fill-4 C 100 1 \; slave-chord-fill-5
C 100 1 \; slave-chord-fill-6 C 100 1 \; slave-chord-fill-7 C 100 1
\; slave-chord-fill-8 C 100 1 \; slave-chord-fill-9 C 100 1 \; slave-chord-fill-10
C 100 1 \; slave-chord-fill-11 C 100 1 \; slave-chord-fill-12 C 100
1 \; slave-chord-fill-13 C 100 1 \; slave-chord-fill-14 C 100 1 \;
slave-chord-fill-15 C 100 1 \; slave-chord-fill-16 C 100 1 \; slave-chord-fill-17
C 100 1 \; slave-chord-fill-18 C 100 1 \; slave-chord-fill-19 C 100
1 \; slave-chord-fill-20 C 100 1 \; slave-chord-fill-21 C 100 1 \;
slave-chord-fill-22 C 100 1 \; slave-chord-fill-23 C 100 1 \; slave-chord-fill-24
C 100 1 \; slave-chord-fill-25 C 100 1 \; slave-chord-fill-26 C 100
1 \; slave-chord-fill-27 C 100 1 \; slave-chord-fill-28 C 100 1 \;
slave-chord-fill-29 C 100 1 \; slave-chord-fill-30 C 100 1 \; slave-chord-fill-31
C 100 1 \;;
#X obj 598 -1 r reset-slaves;
#X msg 598 24 \; slave-chord-fill-0 C 100 1 \; slave-chord-fill-1 C
100 1 \; slave-chord-fill-2 C 100 1 \; slave-chord-fill-3 C 100 1 \;
slave-chord-fill-4 C 100 1 \; slave-chord-fill-5 C 100 1 \; slave-chord-fill-6
C 100 1 \; slave-chord-fill-7 C 100 1 \; slave-chord-fill-8 C 100 1
\; slave-chord-fill-9 C 100 1 \; slave-chord-fill-10 C 100 1 \; slave-chord-fill-11
C 100 1 \; slave-chord-fill-12 C 100 1 \; slave-chord-fill-13 C 100
1 \; slave-chord-fill-14 C 100 1 \; slave-chord-fill-15 C 100 1 \;
slave-chord-fill-16 C 100 1 \; slave-chord-fill-17 C 100 1 \; slave-chord-fill-18
C 100 1 \; slave-chord-fill-19 C 100 1 \; slave-chord-fill-20 C 100
1 \; slave-chord-fill-21 C 100 1 \; slave-chord-fill-22 C 100 1 \;
slave-chord-fill-23 C 100 1 \; slave-chord-fill-24 C 100 1 \; slave-chord-fill-25
C 100 1 \; slave-chord-fill-26 C 100 1 \; slave-chord-fill-27 C 100
1 \; slave-chord-fill-28 C 100 1 \; slave-chord-fill-29 C 100 1 \;
slave-chord-fill-30 C 100 1 \; slave-chord-fill-31 C 100 1 \;;
#X obj 160 238 vis/slave-chord-event 12;
#X obj 160 -2 vis/slave-chord-event 0;
#X obj 160 18 vis/slave-chord-event 1;
#X obj 160 618 vis/slave-chord-event 31;
#X obj 160 418 vis/slave-chord-event 21;
#X obj 160 438 vis/slave-chord-event 22;
#X obj 160 358 vis/slave-chord-event 18;
#X obj 160 378 vis/slave-chord-event 19;
#X obj 160 398 vis/slave-chord-event 20;
#X obj 160 178 vis/slave-chord-event 9;
#X obj 160 198 vis/slave-chord-event 10;
#X obj 160 218 vis/slave-chord-event 11;
#X obj 160 258 vis/slave-chord-event 13;
#X obj 160 278 vis/slave-chord-event 14;
#X obj 160 298 vis/slave-chord-event 15;
#X obj 160 318 vis/slave-chord-event 16;
#X obj 160 338 vis/slave-chord-event 17;
#X obj 160 98 vis/slave-chord-event 5;
#X obj 160 78 vis/slave-chord-event 4;
#X obj 160 118 vis/slave-chord-event 6;
#X obj 160 138 vis/slave-chord-event 7;
#X obj 160 38 vis/slave-chord-event 2;
#X obj 160 58 vis/slave-chord-event 3;
#X obj 160 158 vis/slave-chord-event 8;
#X obj 160 458 vis/slave-chord-event 23;
#X obj 160 478 vis/slave-chord-event 24;
#X obj 160 498 vis/slave-chord-event 25;
#X obj 160 518 vis/slave-chord-event 26;
#X obj 160 538 vis/slave-chord-event 27;
#X obj 160 558 vis/slave-chord-event 28;
#X obj 160 578 vis/slave-chord-event 29;
#X obj 160 598 vis/slave-chord-event 30;
#X obj 317 362 vis/master-chord-event 7;
#X obj 317 242 vis/master-chord-event 1;
#X obj 317 262 vis/master-chord-event 2;
#X obj 317 282 vis/master-chord-event 3;
#X obj 317 302 vis/master-chord-event 4;
#X obj 317 322 vis/master-chord-event 5;
#X obj 317 342 vis/master-chord-event 6;
#X connect 0 0 5 0;
#X connect 1 0 4 1;
#X connect 2 0 5 0;
#X connect 4 0 3 0;
#X connect 6 0 4 0;
#X connect 7 0 8 0;
#X connect 8 0 2 0;
#X connect 11 0 12 0;
#X connect 13 0 14 0;
#X restore -356 -152 pd gem_visualization;
#X obj -356 -244 bng 15 250 50 0 empty empty empty 17 7 0 10 -262144
-1 -1;
#X obj -201 -220 tgl 15 0 empty empty empty 17 7 0 10 -262144 -1 -1
0 1;
#X msg -201 -199 play \$1;
#X obj -201 -176 s play-loop;
#X text -336 -246 open file;
#N canvas 810 309 711 770 get-chord-progression 0;
#X obj -199 4 inlet;
#X obj -272 88 make_chord;
#X obj -52 42 unpack 0 0 0 0;
#X obj -52 86 /;
#X obj -37 64 r ticks/4;
#X obj 2 87 != 0;
#X obj -52 107 * 4;
#X obj 215 122 route;
#X obj 215 58 t l f;
#X obj -52 129 pack;
#X obj -52 150 change_pack;
#X obj -199 25 t l l;
#X obj -252 301 add2list prepend;
#X msg -52 241 \$2 \$1;
#X obj -52 307 add2list prepend;
#X obj 148 256 r reset-analysis;
#X obj -52 349 list length;
#X obj -252 345 list length;
#X obj -81 385 ==;
#X obj -81 407 sel 1;
#X obj -246 505 list;
#X obj -252 324 t l l;
#X obj -52 327 t l l;
#X obj -46 463 list;
#X obj -246 525 drip 0;
#X obj -46 484 drip 0;
#X obj -52 262 route 1 0;
#X obj 55 307 add2list prepend;
#X obj 34 466 list;
#X obj 34 487 drip 0;
#X obj 13 556 -;
#X obj 13 532 swap;
#X obj -46 505 t f f;
#X obj -44 696 pack s f f;
#X obj 61 531 f 0;
#X obj 91 531 + 1;
#X obj 61 552 mod 8;
#X obj 34 509 t f b;
#X obj 46 722 s;
#X obj 61 573 makefilename master-chord-fill-%d;
#X obj -81 429 t b b b b;
#X text 78 721 chord \, onset \, duration.;
#X obj -272 413 outlet;
#X obj -208 413 outlet;
#X text 6 328 listfind para añadir 32 0 en caso de que no este presente
??;
#X obj -252 119 midi_chord_estimator;
#X obj -207 590 compare-any;
#X obj -144 542 r reset-analysis;
#X msg -144 566 symbol nnnnn;
#X obj -246 546 t s s s;
#X obj -207 616 == 0;
#X obj -246 639 spigot;
#X obj -171 615 sel 1;
#X msg -171 640 symbol;
#X obj 139 155 print;
#X obj 127 640 print durations;
#X obj 144 110 sel 1;
#X obj 215 175 tabwrite master-pattern;
#X connect 0 0 11 0;
#X connect 1 0 42 0;
#X connect 1 0 45 0;
#X connect 2 0 3 0;
#X connect 2 2 5 0;
#X connect 3 0 6 0;
#X connect 4 0 3 1;
#X connect 5 0 9 1;
#X connect 6 0 9 0;
#X connect 7 0 57 0;
#X connect 8 0 7 0;
#X connect 8 1 7 1;
#X connect 8 1 57 1;
#X connect 9 0 10 0;
#X connect 10 0 8 0;
#X connect 10 0 13 0;
#X connect 10 0 54 0;
#X connect 11 0 1 0;
#X connect 11 1 2 0;
#X connect 12 0 21 0;
#X connect 13 0 26 0;
#X connect 14 0 22 0;
#X connect 15 0 14 1;
#X connect 15 0 27 1;
#X connect 15 0 12 1;
#X connect 16 0 18 1;
#X connect 17 0 18 0;
#X connect 18 0 19 0;
#X connect 19 0 40 0;
#X connect 20 0 24 0;
#X connect 21 0 17 0;
#X connect 21 1 20 1;
#X connect 22 0 16 0;
#X connect 22 1 23 1;
#X connect 23 0 25 0;
#X connect 24 0 49 0;
#X connect 25 0 32 0;
#X connect 26 0 14 0;
#X connect 26 0 43 0;
#X connect 26 1 27 0;
#X connect 27 0 28 1;
#X connect 28 0 29 0;
#X connect 29 0 37 0;
#X connect 30 0 33 2;
#X connect 31 0 30 0;
#X connect 31 1 30 1;
#X connect 32 0 33 1;
#X connect 32 1 31 0;
#X connect 33 0 38 0;
#X connect 34 0 35 0;
#X connect 34 0 36 0;
#X connect 35 0 34 1;
#X connect 36 0 39 0;
#X connect 37 0 31 1;
#X connect 37 1 34 0;
#X connect 39 0 38 1;
#X connect 40 1 20 0;
#X connect 40 2 23 0;
#X connect 40 3 28 0;
#X connect 45 0 12 0;
#X connect 46 0 50 0;
#X connect 46 0 52 0;
#X connect 47 0 48 0;
#X connect 48 0 46 1;
#X connect 49 0 51 0;
#X connect 49 1 46 1;
#X connect 49 2 46 0;
#X connect 50 0 51 1;
#X connect 51 0 33 0;
#X connect 52 0 53 0;
#X connect 53 0 33 0;
#X restore -356 -202 pd get-chord-progression;
#N canvas 859 275 591 724 make-chord-variations 0;
#X msg -119 185 clear;
#X obj -104 72 list-compare;
#X obj -137 35 t l l l;
#X obj -137 114 spigot;
#X obj -137 11 inlet;
#X text -99 10 receives list from makechord;
#X obj -68 114 inlet;
#X obj -137 138 list prepend;
#X obj -104 93 == 0;
#X text -5 156 we need to make sure that al chords are ordered from
low to high...;
#X text -13 44 we can use the argumentation by Tagg to take the first
chord of the shuttle as "tonic." According to this... it should be
quite easy to obtain the tonic of the shuttle.;
#X obj -119 162 r reset-analysis;
#X obj -75 195 r chord-variations;
#X text -30 113 receives onset position from route 1;
#X obj -45 242 route play;
#X obj 49 272 /;
#X obj -55 265 sel 0;
#X obj 28 318 + 1;
#X obj -2 318 f 0;
#X msg 69 321 0;
#X msg -55 289 0;
#X msg 49 249 15000 \$1;
#X obj 25 360 sel 0 31;
#X obj -2 340 t f f;
#X obj -146 680 noteout;
#X obj -2 292 metro 125;
#X obj 49 226 r tempo;
#X obj -45 221 r play-loop;
#X obj -4 406 s current_step;
#X obj -146 631 drip;
#X obj -146 609 list;
#X obj -16 375 t f f;
#N canvas 1224 136 501 583 scales 0;
#X obj 115 340 list-unique;
#X obj 153 296 midi2pc;
#X obj 91 464 euclidean_distance;
#X obj 246 410 normal_form;
#X obj 258 544 print a;
#X obj 88 431 intervalic_structure;
#X obj 309 433 mod 12;
#X obj 309 475 print lowest;
#X obj 246 494 list-unique;
#X obj 246 453 list-apply mod 12;
#X obj 230 332 add2list prepend;
#X obj 203 367 list;
#X obj 232 272 t b b;
#X obj 246 474 sort;
#X text 102 254 for scale obtention;
#X text 23 14 make one control for "legato --> stacatto....;
#X msg 131 175 0 60 65 69;
#X text 78 203 replacing a chord is as simple as rewriting a chord
on the same index!;
#X text 117 93 0 4 7;
#X text 117 113 0-1 4 7 (tercer grado);
#X text 116 66 substituciones!;
#X text 117 133 0 4 7+1 (sexto grado);
#X connect 1 0 0 0;
#X connect 3 0 9 0;
#X connect 3 1 6 0;
#X connect 6 0 7 0;
#X connect 9 0 13 0;
#X connect 10 0 11 1;
#X connect 11 0 3 0;
#X connect 12 0 11 0;
#X connect 12 1 10 1;
#X connect 13 0 8 0;
#X restore 188 202 pd scales;
#X msg 6 432 set master-pattern;
#X msg 6 452 set slave-pattern;
#X obj -16 497 sel -1;
#X obj -146 659 pack 0 0 1;
#X obj 34 617 * 80;
#X text 64 615 velocity;
#X obj 17 518 t b f f f;
#X obj 55 548 +;
#X obj 55 569 sel 2;
#X obj 55 590 panic;
#X obj -125 431 coll one;
#C restore;
#X obj -16 475 tabread new-onsets;
#X msg 300 329 0 60 64 67 71;
#X obj 290 356 s chord-variations;
#X obj 25 382 panic;
#X obj -55 318 panic;
#X msg 290 299 0 60 64 69 71;
#X obj 279 443 r chord-variations;
#X obj 279 490 s reset-slaves;
#X obj 279 466 t b;
#X msg 179 453 set new-onsets;
#X connect 0 0 43 0;
#X connect 1 0 8 0;
#X connect 2 0 3 0;
#X connect 2 1 1 1;
#X connect 2 2 1 0;
#X connect 3 0 7 0;
#X connect 4 0 2 0;
#X connect 6 0 7 1;
#X connect 7 0 43 0;
#X connect 8 0 3 1;
#X connect 11 0 0 0;
#X connect 12 0 43 0;
#X connect 14 0 16 0;
#X connect 14 0 25 0;
#X connect 15 0 25 1;
#X connect 16 0 20 0;
#X connect 17 0 18 1;
#X connect 18 0 17 0;
#X connect 18 0 23 0;
#X connect 19 0 18 1;
#X connect 20 0 18 1;
#X connect 20 0 48 0;
#X connect 21 0 15 0;
#X connect 22 0 47 0;
#X connect 22 1 19 0;
#X connect 23 0 31 0;
#X connect 23 1 22 0;
#X connect 25 0 18 0;
#X connect 26 0 21 0;
#X connect 27 0 14 0;
#X connect 29 0 36 0;
#X connect 30 0 29 0;
#X connect 31 0 28 0;
#X connect 31 0 44 0;
#X connect 31 1 43 0;
#X connect 33 0 44 0;
#X connect 34 0 44 0;
#X connect 35 1 39 0;
#X connect 36 0 24 0;
#X connect 37 0 36 1;
#X connect 39 0 30 0;
#X connect 39 1 37 0;
#X connect 39 2 40 1;
#X connect 39 3 40 0;
#X connect 40 0 41 0;
#X connect 41 0 42 0;
#X connect 43 0 30 1;
#X connect 44 0 35 0;
#X connect 45 0 46 0;
#X connect 49 0 46 0;
#X connect 50 0 52 0;
#X connect 52 0 51 0;
#X connect 53 0 44 0;
#X restore -356 -176 pd make-chord-variations;
#N canvas 577 345 453 452 load-midi-loop 0;
#X obj -204 -74 r reset-analysis;
#X msg -266 -9 flush;
#X obj -314 193 / 4;
#X obj -314 146 unpack 0 0 0 0 0;
#X obj -245 258 s ticks/4;
#X obj -266 13 t a b;
#X obj -195 30 s reset-analysis;
#X obj -266 -73 openpanel;
#X msg -266 -53 read \$1;
#X obj -209 57 midi_player;
#X obj -140 143 s end-analysis;
#X obj -170 167 sort-midi;
#X msg -266 -107 symbol ./Git/pd-symbolic/testfiles/midi-chord-loops/2b-homophonic
;
#X obj -266 -152 r load_midi_file;
#X obj -140 121 t b b;
#X obj -221 167 s tempo;
#X obj -314 171 uanz;
#X obj -266 -32 t b a;
#X obj -314 214 s bars;
#X obj -162 101 uanz;
#X obj -314 122 uanz;
#X obj -258 -129 inlet;
#X obj -170 190 outlet;
#X msg -204 -52 \; master-pattern const -1 \; slave-pattern const -1
\; mute-pattern const 1;
#X obj -220 237 s to-gui;
#X obj -220 215 prepend /tempo;
#X connect 0 0 23 0;
#X connect 1 0 5 0;
#X connect 2 0 18 0;
#X connect 3 0 16 0;
#X connect 3 3 4 0;
#X connect 3 4 15 0;
#X connect 3 4 25 0;
#X connect 5 0 9 0;
#X connect 5 1 6 0;
#X connect 5 1 16 1;
#X connect 5 1 20 1;
#X connect 5 1 19 1;
#X connect 7 0 8 0;
#X connect 8 0 17 0;
#X connect 9 1 11 0;
#X connect 9 2 20 0;
#X connect 9 3 19 0;
#X connect 11 0 22 0;
#X connect 12 0 7 0;
#X connect 13 0 12 0;
#X connect 14 0 10 0;
#X connect 14 1 11 1;
#X connect 16 0 2 0;
#X connect 17 0 1 0;
#X connect 17 1 9 0;
#X connect 19 0 14 0;
#X connect 20 0 3 0;
#X connect 21 0 12 0;
#X connect 25 0 24 0;
#X restore -356 -225 pd load-midi-loop;
#X obj -349 23 r set-density;
#X obj -355 -130 table master-pattern 33;
#X obj -355 -108 table slave-pattern 33;
#N canvas 1174 383 353 560 slave-visualization 0;
#X obj 42 451 f 0;
#X obj 72 451 + 1;
#X obj 27 497 s;
#X obj 42 473 makefilename slave-chord-fill-%d;
#X obj 57 379 r density;
#X msg 57 426 0;
#X obj -35 201 tabread new-onsets;
#X obj 84 425 s reset-slaves;
#X obj -13 349 pack f s 1;
#X msg -33 434 \$2 \$1 \$3;
#X obj -35 224 pack;
#X obj -35 246 route 1;
#X obj -13 400 t a b;
#X obj 15 302 coll one;
#C restore;
#X obj -35 266 t f f;
#X obj -35 16 r current_step;
#X obj -35 302 pipe 25;
#X obj -35 179 t f f;
#X obj 57 402 t b b;
#X obj -35 155 spigot;
#X obj -35 39 t f b;
#X obj 27 84 + 1;
#X obj -2 83 f 0;
#X msg -2 131 0;
#X msg 29 132 1;
#X obj -2 105 sel 32 0;
#X obj 13 38 r reset-slaves;
#X msg 13 60 0;
#X obj 63 66 r reset-analysis;
#X obj 15 326 midi_chord_estimator;
#X floatatom 157 48 5 0 0 0 - - -;
#X obj 168 531 print;
#X floatatom 78 252 5 0 0 0 - - -;
#X floatatom 172 254 5 0 0 0 - - -;
#X connect 0 0 1 0;
#X connect 0 0 3 0;
#X connect 1 0 0 1;
#X connect 3 0 2 1;
#X connect 4 0 18 0;
#X connect 5 0 0 1;
#X connect 6 0 10 0;
#X connect 8 0 12 0;
#X connect 9 0 2 0;
#X connect 10 0 11 0;
#X connect 11 0 14 0;
#X connect 12 0 9 0;
#X connect 12 1 0 0;
#X connect 13 0 29 0;
#X connect 14 0 16 0;
#X connect 14 1 13 0;
#X connect 14 1 33 0;
#X connect 15 0 20 0;
#X connect 15 0 30 0;
#X connect 16 0 8 0;
#X connect 17 0 6 0;
#X connect 17 1 10 1;
#X connect 18 0 5 0;
#X connect 18 1 7 0;
#X connect 19 0 17 0;
#X connect 20 0 19 0;
#X connect 20 1 22 0;
#X connect 21 0 22 1;
#X connect 22 0 21 0;
#X connect 22 0 25 0;
#X connect 23 0 19 1;
#X connect 24 0 19 1;
#X connect 25 0 23 0;
#X connect 25 1 24 0;
#X connect 26 0 27 0;
#X connect 27 0 22 1;
#X connect 28 0 27 0;
#X connect 29 0 8 1;
#X connect 32 0 13 0;
#X restore -227 -152 pd slave-visualization;
#X text -339 62 bug cuando llega a 15 hace 16;
#X obj -220 121 s tempo;
#X floatatom -212 89 5 0 0 0 - - -;
#X obj -212 -108 table new-onsets 32;
#X obj -205 -130 table mute-pattern 33;
#N canvas 623 220 473 571 OSC 0;
#X obj 7 194 print;
#X obj -2 172 mrpeach/unpackOSC;
#X obj -2 118 mrpeach/udpsend;
#X obj 5 97 mrpeach/packOSC;
#X obj -2 9 loadbang;
#X msg -2 53 disconnect \, connect localhost 7111;
#X obj 5 75 r to-gui;
#X obj -2 149 mrpeach/udpreceive 7110;
#X obj -2 220 mrpeach/routeOSC /tempo /density /legato /saturation
/substitution /activity /register /inversion /load /play;
#X obj -2 545 s tempo;
#X obj 31 525 s density;
#X obj 64 505 s legato;
#X obj 97 485 s saturation;
#X obj 131 465 s substitution;
#X obj 164 445 s activity;
#X obj 197 425 s register;
#X obj 231 405 s inversion;
#X obj 297 358 s play;
#X obj -2 31 delay 800;
#X obj 264 385 s load_midi_file;
#X obj 342 358 s to-gui;
#X obj 342 333 prepend /play;
#X msg 342 298 Stop;
#X msg 374 298 Play;
#X obj 342 273 sel 1 0;
#X connect 1 0 0 0;
#X connect 1 0 8 0;
#X connect 3 0 2 0;
#X connect 4 0 18 0;
#X connect 5 0 2 0;
#X connect 6 0 3 0;
#X connect 7 0 1 0;
#X connect 8 0 9 0;
#X connect 8 1 10 0;
#X connect 8 2 11 0;
#X connect 8 3 12 0;
#X connect 8 4 13 0;
#X connect 8 5 14 0;
#X connect 8 6 15 0;
#X connect 8 7 16 0;
#X connect 8 8 19 0;
#X connect 8 9 17 0;
#X connect 8 9 24 0;
#X connect 18 0 5 0;
#X connect 21 0 20 0;
#X connect 22 0 21 0;
#X connect 23 0 21 0;
#X connect 24 0 22 0;
#X connect 24 1 23 0;
#X restore -245 -246 pd OSC;
#X obj -217 8 r density;
#X floatatom -215 34 5 0 0 0 - - -;
#X obj -142 -61 r legato;
#X floatatom -132 -30 5 0 0 0 - - -;
#X obj -223 -81 r saturation;
#X obj -256 -20 r inversion;
#X obj -201 -246 r play;
#X obj -140 51 prepend /inversion;
#X obj -118 86 s to-gui;
#X obj -128 24 tgl 15 0 empty empty empty 17 7 0 10 -262144 -1 -1 0
1;
#X obj -51 -26 bng 15 250 50 0 empty empty empty 17 7 0 10 -262144
-1 -1;
#X connect 4 0 5 0;
#X connect 6 0 46 0;
#X connect 7 0 8 0;
#X connect 10 0 9 0;
#X connect 13 0 12 0;
#X connect 16 0 15 0;
#X connect 18 0 25 0;
#X connect 19 0 20 0;
#X connect 20 0 21 0;
#X connect 23 0 24 0;
#X connect 23 1 24 1;
#X connect 25 0 23 0;
#X connect 26 0 16 0;
#X connect 32 0 31 0;
#X connect 36 0 37 0;
#X connect 38 0 39 0;
#X connect 40 0 11 0;
#X connect 41 0 6 0;
#X connect 42 0 19 0;
#X connect 43 0 44 0;
#X connect 45 0 43 0;
