#N canvas 1304 675 599 388 10;
#X obj 145 334 print;
#X obj 73 183 mrpeach/unpackOSC;
#X floatatom 31 227 5 0 0 0 - - -;
#X obj 306 194 mrpeach/udpsend;
#X obj 333 157 mrpeach/packOSC;
#X symbolatom 339 15 10 0 0 0 - - -;
#X floatatom 303 56 5 0 0 0 - - -;
#X msg 215 95 disconnect;
#X msg 432 117 /dos \$1;
#X floatatom 461 76 5 0 0 0 - - -;
#X msg 275 37 connect localhost 7111;
#X msg 310 103 send /tempo \$1;
#X obj 47 148 mrpeach/udpreceive 7113;
#X obj 174 246 print;
#X connect 1 0 13 0;
#X connect 4 0 3 0;
#X connect 6 0 11 0;
#X connect 7 0 3 0;
#X connect 8 0 4 0;
#X connect 9 0 8 0;
#X connect 10 0 3 0;
#X connect 11 0 4 0;
#X connect 12 0 1 0;
