#N canvas 262 23 740 505 10;
#X obj -497 111 cnv 15 420 30 empty empty empty 20 12 0 14 -4034 -66577
0;
#X obj -492 86 list-wrandom;
#X obj -409 86 list-wrandom;
#X obj -326 86 list-wrandom;
#X obj -492 41 select 0 1 2;
#X obj -664 14 f;
#X obj -351 -69 loadbang;
#X obj -664 -39 bng 24 250 50 0 empty empty empty 17 7 0 10 -262144
-1 -1;
#X floatatom -492 119 5 0 0 0 - - -;
#X floatatom -409 118 5 0 0 0 - - -;
#X floatatom -326 117 5 0 0 0 - - -;
#X obj -704 -81 tgl 15 0 empty empty empty 17 7 0 10 -262144 -1 -1
0 1;
#X obj -492 202 s state;
#X obj -649 -8 r state;
#X obj -664 325 makenote 112 500;
#X floatatom -650 54 5 0 0 0 - - -;
#X obj -326 148 bng 15 250 50 0 empty empty empty 17 7 0 10 -262144
-1 -1;
#X obj -409 149 bng 15 250 50 0 empty empty empty 17 7 0 10 -262144
-1 -1;
#X obj -485 148 bng 15 250 50 0 empty empty empty 17 7 0 10 -262144
-1 -1;
#X text -279 117 THIS INDICATES THE NEXT NOTE!;
#X obj -664 298 + 36;
#X text -628 297 note offset... midi note numbers... remember...;
#X obj -664 374 noteout;
#N canvas 0 22 450 278 (subpatch) 0;
#X array index2pitch-class 3 float 3;
#A 0 0 2 7;
#X coords 0 12 3 0 100 70 1 0 0;
#X restore -644 118 graph;
#X obj -664 79 tabread index2pitch-class;
#X text -630 -37 note-by-note;
#X text -605 369 REMEMBER TO CONFIGURE YOUR MIDI OUTPUT IN THE PREFERENCES/SETTINGS!
;
#X text -679 -84 continuous-output;
#X text -426 186 we could use the numbers raw... or use them as indexes
to read from a table... that is what we will do in the example: the
table "index2pitchclasss" has 3 elements \, which correspond to values
0 \, 7 and 10 \; these three notes represent the pitch-class number
of notes C \, Bb and G respectively.;
#X text -340 -48 en este ejemplo introducimos las tablas de probabilidad
como tres mensajes (separados con comas) con sus listas \, indicando
la probabilidad de C \, G o Bb como siguiente nota para cada estado.
;
#X obj -351 36 route C G D;
#X msg -351 12 C 40 35 25 \, G 50 35 15 \, D 70 20 10;
#X obj -704 -62 metro 1000;
#X connect 1 0 8 0;
#X connect 2 0 9 0;
#X connect 3 0 10 0;
#X connect 4 0 1 0;
#X connect 4 1 2 0;
#X connect 4 2 3 0;
#X connect 5 0 4 0;
#X connect 5 0 15 0;
#X connect 5 0 24 0;
#X connect 6 0 31 0;
#X connect 7 0 5 0;
#X connect 8 0 12 0;
#X connect 8 0 18 0;
#X connect 9 0 12 0;
#X connect 9 0 17 0;
#X connect 10 0 12 0;
#X connect 10 0 16 0;
#X connect 11 0 32 0;
#X connect 13 0 5 1;
#X connect 14 0 22 0;
#X connect 14 1 22 1;
#X connect 20 0 14 0;
#X connect 24 0 20 0;
#X connect 30 0 1 1;
#X connect 30 1 2 1;
#X connect 30 2 3 1;
#X connect 31 0 30 0;
#X connect 32 0 5 0;
