#N canvas 140 22 534 478 10;
#N canvas 1120 22 160 678 instances 1;
#X obj 25 25 instance 0 major;
#X obj 25 50 instance 1 major;
#X obj 25 75 instance 2 major;
#X obj 25 100 instance 3 major;
#X obj 25 125 instance 4 major;
#X obj 25 150 instance 5 major;
#X obj 25 175 instance 6 major;
#X obj 25 200 instance 7 major;
#X obj 25 225 instance 8 major;
#X obj 25 250 instance 9 major;
#X obj 25 275 instance 10 major;
#X obj 25 300 instance 11 major;
#X restore 126 412 pd instances;
#X obj 114 392 s pd-instances;
#X obj 48 103 until;
#X obj 74 153 + 1;
#X msg 114 103 clear;
#X obj 48 176 t f f;
#X obj 75 199 * 25;
#X obj 75 219 + 25;
#X obj 28 14 inlet;
#X obj 42 269 symbol \$1;
#X obj 42 245 loadbang;
#X obj 67 48 f \$2;
#X obj 67 14 loadbang;
#X text 170 10 ARGUMENTS:;
#X text 170 55 2) number of instances;
#X text 170 35 1) name of the object;
#X text 210 412 (new objects are placed inside the subpatch);
#X text 408 448 angel faraldo 2011;
#X obj 48 154 f 1;
#X obj 67 70 t f b b b;
#X obj 14 320 pack f s f s;
#X msg 14 346 obj 25 \$3 \$2 \$1 \$4;
#X obj 187 303 symbol \$3;
#X msg 86 103 0;
#X text 170 75 3) aditional argument (symbol);
#X connect 2 0 18 0;
#X connect 3 0 18 1;
#X connect 4 0 1 0;
#X connect 5 0 20 0;
#X connect 5 1 6 0;
#X connect 6 0 7 0;
#X connect 7 0 20 2;
#X connect 8 0 11 0;
#X connect 9 0 20 1;
#X connect 10 0 9 0;
#X connect 11 0 19 0;
#X connect 12 0 11 0;
#X connect 18 0 3 0;
#X connect 18 0 5 0;
#X connect 19 0 2 0;
#X connect 19 1 23 0;
#X connect 19 2 4 0;
#X connect 19 3 22 0;
#X connect 20 0 21 0;
#X connect 21 0 1 0;
#X connect 22 0 20 3;
#X connect 23 0 18 1;
